<svg width="24" height="24" viewBox="0 0 24 24" fill="none" xmlns="http://www.w3.org/2000/svg">
    <path fill-rule="evenodd" clip-rule="evenodd"
          d="M20.2497 3.74939C19.8355 3.74939 19.4997 4.08519 19.4997 4.49943V15.0004H5.56081L8.03048 12.5304C8.32337 12.2374 8.32334 11.7626 8.03043 11.4697C7.73752 11.1768 7.26264 11.1768 6.96975 11.4697L3.21988 15.2201C2.92702 15.513 2.92702 15.9878 3.21988 16.2807L6.96975 20.0311C7.26264 20.324 7.73752 20.324 8.03043 20.0311C8.32334 19.7382 8.32337 19.2634 8.03048 18.9704L5.56081 16.5004H20.2497C20.664 16.5004 20.9998 16.1646 20.9998 15.7504V4.49943C20.9998 4.08519 20.664 3.74939 20.2497 3.74939Z"
          fill="#111827"/>
</svg>
