<svg width="24" height="25" viewBox="0 0 24 25" fill="none" xmlns="http://www.w3.org/2000/svg">
    <path fill-rule="evenodd" clip-rule="evenodd"
          d="M15.9697 2.48822C16.2626 2.19533 16.7374 2.19533 17.0303 2.48822L21.5303 6.98822C21.671 7.12888 21.75 7.31964 21.75 7.51856C21.75 7.71747 21.671 7.90823 21.5303 8.04888L17.0303 12.5489C16.7374 12.8418 16.2626 12.8418 15.9697 12.5489C15.6768 12.256 15.6768 11.7811 15.9697 11.4882L19.1893 8.26856L7.5 8.26855C7.08579 8.26855 6.75 7.93277 6.75 7.51855C6.75 7.10434 7.08579 6.76855 7.5 6.76855L19.1893 6.76856L15.9697 3.54888C15.6768 3.25599 15.6768 2.78112 15.9697 2.48822ZM8.03033 11.4882C8.32322 11.7811 8.32322 12.256 8.03033 12.5489L4.81066 15.7686H16.5C16.9142 15.7686 17.25 16.1043 17.25 16.5186C17.25 16.9328 16.9142 17.2686 16.5 17.2686H4.81066L8.03033 20.4882C8.32322 20.7811 8.32322 21.256 8.03033 21.5489C7.73744 21.8418 7.26256 21.8418 6.96967 21.5489L2.46967 17.0489C2.17678 16.756 2.17678 16.2811 2.46967 15.9882L6.96967 11.4882C7.26256 11.1953 7.73744 11.1953 8.03033 11.4882Z"
          fill="#111827"/>
</svg>
