<svg width="24" height="24" viewBox="0 0 24 24" fill="none" xmlns="http://www.w3.org/2000/svg">
<path fill-rule="evenodd" clip-rule="evenodd" d="M3.74902 20.2612C3.74902 19.847 4.08483 19.5112 4.49906 19.5112L15 19.5112L15 5.57228L12.53 8.04195C12.2371 8.33484 11.7622 8.33482 11.4693 8.0419C11.1764 7.74899 11.1764 7.27411 11.4693 6.98123L15.2197 3.23135C15.5126 2.93849 15.9875 2.93849 16.2804 3.23135L20.0307 6.98123C20.3236 7.27411 20.3237 7.74899 20.0308 8.0419C19.7379 8.33482 19.263 8.33484 18.9701 8.04195L16.5001 5.57228L16.5001 20.2612C16.5001 20.6754 16.1643 21.0112 15.75 21.0112L4.49906 21.0112C4.08483 21.0112 3.74902 20.6754 3.74902 20.2612Z" fill="#111827"/>
</svg>
