<svg width="24" height="25" viewBox="0 0 24 25" fill="none" xmlns="http://www.w3.org/2000/svg">
    <path fill-rule="evenodd" clip-rule="evenodd"
          d="M5.25 6.32922L5.25 15.7686C5.25 16.1828 4.91421 16.5186 4.5 16.5186C4.08579 16.5186 3.75 16.1828 3.75 15.7686L3.75 4.51855C3.75 4.31964 3.82902 4.12888 3.96967 3.98823C4.11032 3.84757 4.30109 3.76856 4.5 3.76856L15.75 3.76855C16.1642 3.76855 16.5 4.10434 16.5 4.51855C16.5 4.93277 16.1642 5.26855 15.75 5.26855L6.31066 5.26856L20.0303 18.9882C20.3232 19.2811 20.3232 19.756 20.0303 20.0489C19.7374 20.3418 19.2626 20.3418 18.9697 20.0489L5.25 6.32922Z"
          fill="#111827"/>
</svg>
