<svg width="24" height="25" viewBox="0 0 24 25" fill="none" xmlns="http://www.w3.org/2000/svg">
<path fill-rule="evenodd" clip-rule="evenodd" d="M9.53033 2.48822C9.82322 2.78112 9.82322 3.25599 9.53033 3.54888L4.81066 8.26855H15C18.7279 8.26855 21.75 11.2906 21.75 15.0186C21.75 18.7465 18.7279 21.7686 15 21.7686H12C11.5858 21.7686 11.25 21.4328 11.25 21.0186C11.25 20.6043 11.5858 20.2686 12 20.2686H15C17.8995 20.2686 20.25 17.918 20.25 15.0186C20.25 12.1191 17.8995 9.76855 15 9.76855H4.81066L9.53033 14.4882C9.82322 14.7811 9.82322 15.256 9.53033 15.5489C9.23744 15.8418 8.76256 15.8418 8.46967 15.5489L2.46967 9.54888C2.17678 9.25599 2.17678 8.78112 2.46967 8.48822L8.46967 2.48822C8.76256 2.19533 9.23744 2.19533 9.53033 2.48822Z" fill="#111827"/>
</svg>
