<svg width="24" height="25" viewBox="0 0 24 25" fill="none" xmlns="http://www.w3.org/2000/svg">
<path fill-rule="evenodd" clip-rule="evenodd" d="M15 3.76855C12.1005 3.76855 9.75 6.11906 9.75 9.01855L9.75 19.2079L14.4697 14.4882C14.7626 14.1953 15.2374 14.1953 15.5303 14.4882C15.8232 14.7811 15.8232 15.256 15.5303 15.5489L9.53033 21.5489C9.38968 21.6895 9.19891 21.7686 9 21.7686C8.80109 21.7686 8.61032 21.6895 8.46967 21.5489L2.46967 15.5489C2.17678 15.256 2.17678 14.7811 2.46967 14.4882C2.76256 14.1953 3.23744 14.1953 3.53033 14.4882L8.25 19.2079V9.01855C8.25 5.29063 11.2721 2.26855 15 2.26855C18.7279 2.26855 21.75 5.29063 21.75 9.01855V12.0186C21.75 12.4328 21.4142 12.7686 21 12.7686C20.5858 12.7686 20.25 12.4328 20.25 12.0186V9.01855C20.25 6.11906 17.8995 3.76855 15 3.76855Z" fill="#111827"/>
</svg>
