<svg width="24" height="25" viewBox="0 0 24 25" fill="none" xmlns="http://www.w3.org/2000/svg">
    <path fill-rule="evenodd" clip-rule="evenodd"
          d="M14.4697 2.48822C14.7626 2.19533 15.2374 2.19533 15.5303 2.48822L21.5303 8.48822C21.8232 8.78112 21.8232 9.25599 21.5303 9.54888L15.5303 15.5489C15.2374 15.8418 14.7626 15.8418 14.4697 15.5489C14.1768 15.256 14.1768 14.7811 14.4697 14.4882L19.1893 9.76855H9C6.10051 9.76855 3.75 12.1191 3.75 15.0186C3.75 17.918 6.10051 20.2686 9 20.2686H12C12.4142 20.2686 12.75 20.6043 12.75 21.0186C12.75 21.4328 12.4142 21.7686 12 21.7686H9C5.27208 21.7686 2.25 18.7465 2.25 15.0186C2.25 11.2906 5.27208 8.26855 9 8.26855H19.1893L14.4697 3.54888C14.1768 3.25599 14.1768 2.78112 14.4697 2.48822Z"
          fill="#111827"/>
</svg>
