<svg width="24" height="25" viewBox="0 0 24 25" fill="none" xmlns="http://www.w3.org/2000/svg">
<g clip-path="url(#clip0_4117_242)">
<path d="M9.96967 0.988225C10.2626 0.695331 10.7374 0.695331 11.0303 0.988225L14.0303 3.98822C14.3232 4.28112 14.3232 4.75599 14.0303 5.04888C13.7374 5.34178 13.2626 5.34178 12.9697 5.04888L11.25 3.32921V6.76855H9.75V3.32921L8.03033 5.04888C7.73744 5.34178 7.26256 5.34178 6.96967 5.04888C6.67678 4.75599 6.67678 4.28112 6.96967 3.98822L9.96967 0.988225Z" fill="#111827"/>
<path d="M9.75 6.76855V12.7686C9.75 13.1828 10.0858 13.5186 10.5 13.5186C10.9142 13.5186 11.25 13.1828 11.25 12.7686V6.76855H14.25C15.9069 6.76855 17.25 8.1117 17.25 9.76855V17.2686C17.25 18.9254 15.9069 20.2686 14.25 20.2686H6.75C5.09315 20.2686 3.75 18.9254 3.75 17.2686V9.76855C3.75 8.1117 5.09315 6.76855 6.75 6.76855H9.75Z" fill="#111827"/>
<path d="M7.15137 21.7686C7.67008 22.6653 8.6396 23.2686 9.75002 23.2686H17.25C18.9069 23.2686 20.25 21.9254 20.25 20.2686V12.7686C20.25 11.6582 19.6467 10.6886 18.75 10.1699V17.2686C18.75 19.7539 16.7353 21.7686 14.25 21.7686H7.15137Z" fill="#111827"/>
</g>
<defs>
<clipPath id="clip0_4117_242">
<rect width="24" height="24" fill="white" transform="translate(0 0.0185547)"/>
</clipPath>
</defs>
</svg>
