<svg width="24" height="25" viewBox="0 0 24 25" fill="none" xmlns="http://www.w3.org/2000/svg">
<path fill-rule="evenodd" clip-rule="evenodd" d="M12 2.26855C6.61522 2.26855 2.25 6.63378 2.25 12.0186C2.25 17.4033 6.61522 21.7686 12 21.7686C17.3848 21.7686 21.75 17.4033 21.75 12.0186C21.75 6.63378 17.3848 2.26855 12 2.26855ZM12.5303 7.73822C12.3897 7.59757 12.1989 7.51855 12 7.51855C11.8011 7.51855 11.6103 7.59757 11.4697 7.73822L8.46967 10.7382C8.17678 11.0311 8.17678 11.506 8.46967 11.7989C8.76256 12.0918 9.23744 12.0918 9.53033 11.7989L11.25 10.0792L11.25 15.7686C11.25 16.1828 11.5858 16.5186 12 16.5186C12.4142 16.5186 12.75 16.1828 12.75 15.7686L12.75 10.0792L14.4697 11.7989C14.7626 12.0918 15.2374 12.0918 15.5303 11.7989C15.8232 11.506 15.8232 11.0311 15.5303 10.7382L12.5303 7.73822Z" fill="#111827"/>
</svg>
