<svg width="24" height="25" viewBox="0 0 24 25" fill="none" xmlns="http://www.w3.org/2000/svg">
<path fill-rule="evenodd" clip-rule="evenodd" d="M3.21967 3.23822C3.51256 2.94533 3.98744 2.94533 4.28033 3.23822L8.25 7.20789L8.25 4.51856C8.25 4.10434 8.58579 3.76855 9 3.76855C9.41421 3.76855 9.75 4.10434 9.75 4.51856L9.75 9.01856C9.75 9.43277 9.41421 9.76856 9 9.76855H4.5C4.08579 9.76855 3.75 9.43277 3.75 9.01855C3.75 8.60434 4.08579 8.26855 4.5 8.26855L7.18934 8.26856L3.21967 4.29888C2.92678 4.00599 2.92678 3.53112 3.21967 3.23822ZM20.7803 3.23823C21.0732 3.53112 21.0732 4.00599 20.7803 4.29889L16.8107 8.26856H19.5C19.9142 8.26856 20.25 8.60434 20.25 9.01856C20.25 9.43277 19.9142 9.76855 19.5 9.76855H15C14.5858 9.76855 14.25 9.43277 14.25 9.01856V4.51856C14.25 4.10434 14.5858 3.76855 15 3.76855C15.4142 3.76855 15.75 4.10434 15.75 4.51856V7.2079L19.7197 3.23823C20.0126 2.94533 20.4874 2.94533 20.7803 3.23823ZM3.75 15.0186C3.75 14.6043 4.08579 14.2686 4.5 14.2686L9 14.2686C9.41421 14.2686 9.75 14.6043 9.75 15.0186V19.5186C9.75 19.9328 9.41421 20.2686 9 20.2686C8.58579 20.2686 8.25 19.9328 8.25 19.5186L8.25 16.8292L4.28033 20.7989C3.98744 21.0918 3.51256 21.0918 3.21967 20.7989C2.92678 20.506 2.92678 20.0311 3.21967 19.7382L7.18934 15.7686H4.5C4.08579 15.7686 3.75 15.4328 3.75 15.0186ZM14.25 15.0186C14.25 14.6043 14.5858 14.2686 15 14.2686H19.5C19.9142 14.2686 20.25 14.6043 20.25 15.0186C20.25 15.4328 19.9142 15.7686 19.5 15.7686H16.8107L20.7803 19.7382C21.0732 20.0311 21.0732 20.506 20.7803 20.7989C20.4874 21.0918 20.0126 21.0918 19.7197 20.7989L15.75 16.8292V19.5186C15.75 19.9328 15.4142 20.2686 15 20.2686C14.5858 20.2686 14.25 19.9328 14.25 19.5186L14.25 15.0186Z" fill="#111827"/>
</svg>
