<svg width="24" height="24" viewBox="0 0 24 24" fill="none" xmlns="http://www.w3.org/2000/svg">
<path fill-rule="evenodd" clip-rule="evenodd" d="M20.2495 20.2644C19.8353 20.2644 19.4995 19.9286 19.4995 19.5144L19.4995 9.01343L5.56056 9.01343L8.03024 11.4834C8.32312 11.7763 8.3231 12.2512 8.03019 12.5441C7.73727 12.837 7.26239 12.837 6.96951 12.5441L3.21964 8.79372C2.92677 8.50082 2.92677 8.02596 3.21964 7.73306L6.96951 3.9827C7.26239 3.68978 7.73727 3.68976 8.03019 3.98265C8.3231 4.27554 8.32312 4.75044 8.03024 5.04336L5.56056 7.51336L20.2495 7.51336C20.6637 7.51336 20.9995 7.84916 20.9995 8.26339L20.9995 19.5144C20.9995 19.9286 20.6637 20.2644 20.2495 20.2644Z" fill="#111827"/>
</svg>
