<svg width="24" height="24" viewBox="0 0 24 24" fill="none" xmlns="http://www.w3.org/2000/svg">
    <path fill-rule="evenodd" clip-rule="evenodd"
          d="M3.74902 3.75929C3.74902 4.17351 4.08483 4.5093 4.49906 4.5093L15 4.5093L15 18.4482L12.53 15.9786C12.2371 15.6857 11.7622 15.6857 11.4693 15.9786C11.1764 16.2715 11.1764 16.7464 11.4693 17.0393L15.2197 20.7892C15.5126 21.082 15.9875 21.082 16.2804 20.7892L20.0307 17.0393C20.3236 16.7464 20.3237 16.2715 20.0308 15.9786C19.7379 15.6857 19.263 15.6857 18.9701 15.9786L16.5001 18.4482L16.5001 3.75929C16.5001 3.34507 16.1643 3.00928 15.75 3.00928L4.49906 3.00928C4.08483 3.00928 3.74902 3.34507 3.74902 3.75929Z"
          fill="#111827"/>
</svg>
