<svg width="24" height="24" viewBox="0 0 24 24" fill="none" xmlns="http://www.w3.org/2000/svg">
    <path fill-rule="evenodd" clip-rule="evenodd"
          d="M20.2505 20.2565C20.2505 19.8422 19.9147 19.5064 19.5005 19.5064L8.99951 19.5064L8.99951 5.56752L11.4695 8.03719C11.7624 8.33008 12.2373 8.33006 12.5302 8.03714C12.8231 7.74423 12.8231 7.26935 12.5302 6.97647L8.77981 3.22659C8.48691 2.93373 8.01205 2.93373 7.71915 3.22659L3.96879 6.97647C3.67587 7.26935 3.67584 7.74423 3.96874 8.03714C4.26163 8.33006 4.73652 8.33008 5.02945 8.03719L7.49944 5.56752L7.49944 20.2565C7.49944 20.6707 7.83524 21.0065 8.24948 21.0065L19.5005 21.0065C19.9147 21.0065 20.2505 20.6707 20.2505 20.2565Z"
          fill="#111827"/>
</svg>
