<svg width="24" height="25" viewBox="0 0 24 25" fill="none" xmlns="http://www.w3.org/2000/svg">
    <path d="M11.4697 1.73822C11.7626 1.44533 12.2374 1.44533 12.5303 1.73822L15.5303 4.73823C15.8232 5.03112 15.8232 5.50599 15.5303 5.79889C15.2374 6.09178 14.7626 6.09178 14.4697 5.79889L12.75 4.07922L12.75 7.51855H11.25V4.07921L9.53033 5.79888C9.23744 6.09178 8.76256 6.09178 8.46967 5.79888C8.17678 5.50599 8.17678 5.03112 8.46967 4.73822L11.4697 1.73822Z"
          fill="#111827"/>
    <path d="M11.25 7.51855L11.25 15.0186C11.25 15.4328 11.5858 15.7686 12 15.7686C12.4142 15.7686 12.75 15.4328 12.75 15.0186V7.51855H16.5C18.1569 7.51855 19.5 8.8617 19.5 10.5186V19.5186C19.5 21.1754 18.1569 22.5186 16.5 22.5186H7.5C5.84315 22.5186 4.5 21.1754 4.5 19.5186V10.5186C4.5 8.8617 5.84315 7.51855 7.5 7.51855H11.25Z"
          fill="#111827"/>
</svg>
