<svg width="24" height="24" viewBox="0 0 24 24" fill="none" xmlns="http://www.w3.org/2000/svg">
<path fill-rule="evenodd" clip-rule="evenodd" d="M3.75001 20.2661C4.16423 20.2661 4.50002 19.9303 4.50002 19.5161L4.50002 9.01514L18.4389 9.01514L15.9693 11.4851C15.6764 11.7781 15.6764 12.253 15.9693 12.5458C16.2622 12.8387 16.7371 12.8387 17.03 12.5458L20.7799 8.79543C21.0727 8.50253 21.0727 8.02767 20.7799 7.73477L17.03 3.98441C16.7371 3.69149 16.2622 3.69147 15.9693 3.98436C15.6764 4.27725 15.6764 4.75215 15.9693 5.04507L18.4389 7.51507L3.75001 7.51507C3.33579 7.51507 3 7.85087 3 8.2651L3 19.5161C3 19.9303 3.33579 20.2661 3.75001 20.2661Z" fill="#111827"/>
</svg>
