<svg width="24" height="24" viewBox="0 0 24 24" fill="none" xmlns="http://www.w3.org/2000/svg">
    <path fill-rule="evenodd" clip-rule="evenodd"
          d="M20.2505 3.75465C20.2505 4.16887 19.9147 4.50466 19.5005 4.50466L8.99951 4.50466L8.99951 18.4436L11.4695 15.9739C11.7624 15.681 12.2373 15.6811 12.5302 15.974C12.8231 16.2669 12.8231 16.7418 12.5302 17.0346L8.77981 20.7845C8.4869 21.0774 8.01205 21.0774 7.71915 20.7845L3.96879 17.0346C3.67586 16.7418 3.67584 16.2669 3.96873 15.974C4.26163 15.6811 4.73652 15.681 5.02945 15.9739L7.49944 18.4436L7.49944 3.75465C7.49944 3.34043 7.83524 3.00464 8.24948 3.00464L19.5005 3.00464C19.9147 3.00464 20.2505 3.34043 20.2505 3.75465Z"
          fill="#111827"/>
</svg>
