<svg width="24" height="25" viewBox="0 0 24 25" fill="none" xmlns="http://www.w3.org/2000/svg">
    <path fill-rule="evenodd" clip-rule="evenodd"
          d="M8.25 3.76856L19.5 3.76855C19.6989 3.76855 19.8897 3.84757 20.0303 3.98822C20.171 4.12888 20.25 4.31964 20.25 4.51855V15.7686C20.25 16.1828 19.9142 16.5186 19.5 16.5186C19.0858 16.5186 18.75 16.1828 18.75 15.7686V6.32922L5.03033 20.0489C4.73744 20.3418 4.26256 20.3418 3.96967 20.0489C3.67678 19.756 3.67678 19.2811 3.96967 18.9882L17.6893 5.26855L8.25 5.26856C7.83579 5.26856 7.5 4.93277 7.5 4.51855C7.5 4.10434 7.83579 3.76856 8.25 3.76856Z"
          fill="#111827"/>
</svg>
