<svg width="24" height="24" viewBox="0 0 24 24" fill="none" xmlns="http://www.w3.org/2000/svg">
<path fill-rule="evenodd" clip-rule="evenodd" d="M3.75026 3.75171C4.16448 3.75171 4.50027 4.08751 4.50027 4.50174V15.0027H18.4392L15.9695 12.5327C15.6766 12.2398 15.6767 11.7649 15.9696 11.472C16.2625 11.1791 16.7374 11.1791 17.0302 11.472L20.7801 15.2224C21.073 15.5153 21.073 15.9901 20.7801 16.283L17.0302 20.0334C16.7374 20.3263 16.2625 20.3264 15.9696 20.0335C15.6767 19.7406 15.6766 19.2657 15.9695 18.9728L18.4392 16.5028H3.75026C3.33604 16.5028 3.00024 16.167 3.00024 15.7527V4.50174C3.00024 4.08751 3.33604 3.75171 3.75026 3.75171Z" fill="#111827"/>
</svg>
