<svg width="24" height="25" viewBox="0 0 24 25" fill="none" xmlns="http://www.w3.org/2000/svg">
    <path fill-rule="evenodd" clip-rule="evenodd"
          d="M21.5303 9.54888C21.2374 9.84178 20.7626 9.84178 20.4697 9.54888L15.75 4.82921V15.0186C15.75 18.7465 12.7279 21.7686 9 21.7686C5.27208 21.7686 2.25 18.7465 2.25 15.0186L2.25 12.0186C2.25 11.6043 2.58579 11.2686 3 11.2686C3.41421 11.2686 3.75 11.6043 3.75 12.0186L3.75 15.0186C3.75 17.918 6.10051 20.2686 9 20.2686C11.8995 20.2686 14.25 17.918 14.25 15.0186V4.82921L9.53033 9.54888C9.23744 9.84178 8.76256 9.84178 8.46967 9.54888C8.17678 9.25599 8.17678 8.78112 8.46967 8.48822L14.4697 2.48822C14.7626 2.19533 15.2374 2.19533 15.5303 2.48822L21.5303 8.48822C21.8232 8.78112 21.8232 9.25599 21.5303 9.54888Z"
          fill="#111827"/>
</svg>
