<svg width="24" height="25" viewBox="0 0 24 25" fill="none" xmlns="http://www.w3.org/2000/svg">
<path fill-rule="evenodd" clip-rule="evenodd" d="M15 3.76855C15 3.35434 15.3358 3.01855 15.75 3.01855L20.25 3.01855C20.6642 3.01855 21 3.35434 21 3.76855V8.26856C21 8.68277 20.6642 9.01855 20.25 9.01855C19.8358 9.01855 19.5 8.68277 19.5 8.26856V5.57922L15.5303 9.54888C15.2374 9.84178 14.7626 9.84178 14.4697 9.54888C14.1768 9.25599 14.1768 8.78112 14.4697 8.48822L18.4393 4.51855H15.75C15.3358 4.51855 15 4.18277 15 3.76855ZM3 3.76855C3 3.35434 3.33579 3.01855 3.75 3.01855H8.25C8.66421 3.01855 9 3.35434 9 3.76855C9 4.18277 8.66421 4.51855 8.25 4.51855H5.56066L9.53033 8.48822C9.82322 8.78112 9.82322 9.25599 9.53033 9.54889C9.23744 9.84178 8.76256 9.84178 8.46967 9.54889L4.5 5.57922V8.26856C4.5 8.68277 4.16421 9.01855 3.75 9.01855C3.33579 9.01855 3 8.68277 3 8.26856V3.76855ZM14.4697 15.5489C14.1768 15.256 14.1768 14.7811 14.4697 14.4882C14.7626 14.1953 15.2374 14.1953 15.5303 14.4882L19.5 18.4579V15.7686C19.5 15.3543 19.8358 15.0186 20.25 15.0186C20.6642 15.0186 21 15.3543 21 15.7686V20.2686C21 20.6828 20.6642 21.0186 20.25 21.0186H15.75C15.3358 21.0186 15 20.6828 15 20.2686C15 19.8543 15.3358 19.5186 15.75 19.5186H18.4393L14.4697 15.5489ZM9.53033 14.4882C9.82322 14.7811 9.82322 15.256 9.53033 15.5489L5.56066 19.5186H8.25C8.66421 19.5186 9 19.8543 9 20.2686C9 20.6828 8.66421 21.0186 8.25 21.0186H3.75C3.33579 21.0186 3 20.6828 3 20.2686V15.7686C3 15.3543 3.33579 15.0186 3.75 15.0186C4.16421 15.0186 4.5 15.3543 4.5 15.7686V18.4579L8.46967 14.4882C8.76256 14.1953 9.23744 14.1953 9.53033 14.4882Z" fill="#111827"/>
</svg>
