<svg width="24" height="25" viewBox="0 0 24 25" fill="none" xmlns="http://www.w3.org/2000/svg">
    <path fill-rule="evenodd" clip-rule="evenodd"
          d="M11.4697 2.48822C11.7626 2.19533 12.2374 2.19533 12.5303 2.48822L17.0303 6.98822C17.3232 7.28112 17.3232 7.75599 17.0303 8.04888C16.7374 8.34178 16.2626 8.34178 15.9697 8.04888L12.75 4.82921L12.75 16.5186C12.75 16.9328 12.4142 17.2686 12 17.2686C11.5858 17.2686 11.25 16.9328 11.25 16.5186L11.25 4.82921L8.03033 8.04888C7.73744 8.34178 7.26256 8.34178 6.96967 8.04888C6.67678 7.75599 6.67678 7.28112 6.96967 6.98822L11.4697 2.48822ZM3 15.7686C3.41421 15.7686 3.75 16.1043 3.75 16.5186V18.7686C3.75 19.597 4.42157 20.2686 5.25 20.2686H18.75C19.5784 20.2686 20.25 19.597 20.25 18.7686V16.5186C20.25 16.1043 20.5858 15.7686 21 15.7686C21.4142 15.7686 21.75 16.1043 21.75 16.5186V18.7686C21.75 20.4254 20.4069 21.7686 18.75 21.7686H5.25C3.59315 21.7686 2.25 20.4254 2.25 18.7686V16.5186C2.25 16.1043 2.58579 15.7686 3 15.7686Z"
          fill="#111827"/>
</svg>
