<svg width="24" height="25" viewBox="0 0 24 25" fill="none" xmlns="http://www.w3.org/2000/svg">
<path fill-rule="evenodd" clip-rule="evenodd" d="M17.8336 6.18492C14.6118 2.9631 9.38819 2.9631 6.16637 6.18492C2.94454 9.40675 2.94454 14.6304 6.16637 17.8522C9.38819 21.074 14.6118 21.074 17.8336 17.8522C18.1265 17.5593 18.6014 17.5593 18.8943 17.8522C19.1872 18.1451 19.1872 18.62 18.8943 18.9128C15.0867 22.7205 8.91332 22.7205 5.10571 18.9128C1.2981 15.1052 1.2981 8.93188 5.10571 5.12426C8.91332 1.31665 15.0867 1.31665 18.8943 5.12426C20.798 7.02793 21.75 9.52448 21.75 12.0186C21.75 12.9936 21.4545 13.9052 20.941 14.5899C20.4273 15.2748 19.6603 15.7686 18.75 15.7686C17.8462 15.7686 17.0837 15.2818 16.57 14.6045C15.668 16.1952 13.9593 17.2686 12 17.2686C9.1005 17.2686 6.75 14.918 6.75 12.0186C6.75 9.11906 9.1005 6.76855 12 6.76855C13.469 6.76855 14.7971 7.3719 15.75 8.34432V8.26855C15.75 7.85434 16.0858 7.51855 16.5 7.51855C16.9142 7.51855 17.25 7.85434 17.25 8.26855V12.0186C17.25 12.7004 17.4582 13.2888 17.759 13.6899C18.0596 14.0907 18.4177 14.2686 18.75 14.2686C19.0823 14.2686 19.4404 14.0907 19.741 13.6899C20.0418 13.2888 20.25 12.7004 20.25 12.0186C20.25 9.90604 19.4447 7.79599 17.8336 6.18492ZM15.75 12.0186C15.75 9.94749 14.0711 8.26855 12 8.26855C9.92893 8.26855 8.25 9.94749 8.25 12.0186C8.25 14.0896 9.92893 15.7686 12 15.7686C14.0711 15.7686 15.75 14.0896 15.75 12.0186Z" fill="#111827"/>
</svg>
