<svg width="24" height="25" viewBox="0 0 24 25" fill="none" xmlns="http://www.w3.org/2000/svg">
    <path fill-rule="evenodd" clip-rule="evenodd"
          d="M8.66053 4.62598C9.21528 4.07698 9.96768 3.76855 10.7522 3.76855H19.5421C21.1758 3.76855 22.5002 5.07921 22.5002 6.69597V17.3411C22.5002 18.9579 21.1758 20.2686 19.5421 20.2686H10.7522C9.96768 20.2686 9.21528 19.9601 8.66053 19.4111L2.52156 13.3358C1.78643 12.6083 1.78643 11.4288 2.52156 10.7013L8.66053 4.62598ZM10.7522 5.36533C10.3956 5.36533 10.0536 5.50552 9.80145 5.75507L3.66248 11.8304C3.55746 11.9343 3.55746 12.1028 3.66248 12.2067L9.80145 18.282C10.0536 18.5316 10.3956 18.6718 10.7522 18.6718H19.5421C20.2847 18.6718 20.8867 18.076 20.8867 17.3411V6.69597C20.8867 5.96108 20.2847 5.36533 19.5421 5.36533H10.7522ZM11.442 9.32498C11.757 9.01319 12.2678 9.01319 12.5829 9.32498L14.1638 10.8895L15.7447 9.32498C16.0597 9.01319 16.5705 9.01319 16.8856 9.32498C17.2006 9.63677 17.2006 10.1423 16.8856 10.4541L15.3047 12.0186L16.8856 13.583C17.2006 13.8948 17.2006 14.4003 16.8856 14.7121C16.5705 15.0239 16.0597 15.0239 15.7447 14.7121L14.1638 13.1476L12.5829 14.7121C12.2678 15.0239 11.757 15.0239 11.442 14.7121C11.1269 14.4003 11.1269 13.8948 11.442 13.583L13.0229 12.0186L11.442 10.4541C11.1269 10.1423 11.1269 9.63677 11.442 9.32498Z"
          fill="#111827"/>
</svg>
