<svg width="24" height="25" viewBox="0 0 24 25" fill="none" xmlns="http://www.w3.org/2000/svg">
<path fill-rule="evenodd" clip-rule="evenodd" d="M2.515 10.6927C1.78276 11.425 1.78276 12.6121 2.51499 13.3444L8.89 19.7194C9.24163 20.071 9.71854 20.2686 10.2158 20.2686H19.4998C21.1567 20.2686 22.4998 18.9254 22.4998 17.2686V6.76856C22.4998 5.1117 21.1567 3.76855 19.4998 3.76855L10.2158 3.76855C9.71854 3.76855 9.24163 3.9661 8.89 4.31773L2.515 10.6927ZM12.5303 9.23822C12.2374 8.94533 11.7626 8.94533 11.4697 9.23822C11.1768 9.53112 11.1768 10.006 11.4697 10.2989L13.1893 12.0186L11.4697 13.7382C11.1768 14.0311 11.1768 14.506 11.4697 14.7989C11.7626 15.0918 12.2374 15.0918 12.5303 14.7989L14.25 13.0792L15.9697 14.7989C16.2626 15.0918 16.7374 15.0918 17.0303 14.7989C17.3232 14.506 17.3232 14.0311 17.0303 13.7382L15.3107 12.0186L17.0303 10.2989C17.3232 10.006 17.3232 9.53112 17.0303 9.23822C16.7374 8.94533 16.2626 8.94533 15.9697 9.23822L14.25 10.9579L12.5303 9.23822Z" fill="#111827"/>
</svg>
