<svg width="24" height="25" viewBox="0 0 24 25" fill="none" xmlns="http://www.w3.org/2000/svg">
<path d="M12 7.51855C10.7574 7.51855 9.75 8.52591 9.75 9.76855C9.75 11.0112 10.7574 12.0186 12 12.0186C13.2426 12.0186 14.25 11.0112 14.25 9.76855C14.25 8.52591 13.2426 7.51855 12 7.51855Z" fill="#111827"/>
<path fill-rule="evenodd" clip-rule="evenodd" d="M1.5 4.89355C1.5 3.85802 2.33947 3.01855 3.375 3.01855H20.625C21.6605 3.01855 22.5 3.85802 22.5 4.89355V14.6436C22.5 15.6791 21.6605 16.5186 20.625 16.5186H3.375C2.33947 16.5186 1.5 15.6791 1.5 14.6436V4.89355ZM8.25 9.76855C8.25 7.69749 9.92893 6.01855 12 6.01855C14.0711 6.01855 15.75 7.69749 15.75 9.76855C15.75 11.8396 14.0711 13.5186 12 13.5186C9.92893 13.5186 8.25 11.8396 8.25 9.76855ZM18.75 9.01855C18.3358 9.01855 18 9.35434 18 9.76855V9.77605C18 10.1903 18.3358 10.5261 18.75 10.5261H18.7575C19.1717 10.5261 19.5075 10.1903 19.5075 9.77605V9.76855C19.5075 9.35434 19.1717 9.01855 18.7575 9.01855H18.75ZM4.5 9.76855C4.5 9.35434 4.83579 9.01855 5.25 9.01855H5.2575C5.67171 9.01855 6.0075 9.35434 6.0075 9.76855V9.77605C6.0075 10.1903 5.67171 10.5261 5.2575 10.5261H5.25C4.83579 10.5261 4.5 10.1903 4.5 9.77605V9.76855Z" fill="#111827"/>
<path d="M2.25 18.0186C1.83579 18.0186 1.5 18.3543 1.5 18.7686C1.5 19.1828 1.83579 19.5186 2.25 19.5186C7.65005 19.5186 12.8802 20.2408 17.8498 21.5934C19.0404 21.9175 20.25 21.0353 20.25 19.7737V18.7686C20.25 18.3543 19.9142 18.0186 19.5 18.0186H2.25Z" fill="#111827"/>
</svg>
