<svg width="24" height="25" viewBox="0 0 24 25" fill="none" xmlns="http://www.w3.org/2000/svg">
    <path fill-rule="evenodd" clip-rule="evenodd"
          d="M3 5.26855C3 4.85434 3.33579 4.51855 3.75 4.51855H20.25C20.6642 4.51855 21 4.85434 21 5.26855C21 5.68277 20.6642 6.01855 20.25 6.01855H3.75C3.33579 6.01855 3 5.68277 3 5.26855ZM3 9.76855C3 9.35434 3.33579 9.01855 3.75 9.01855H20.25C20.6642 9.01855 21 9.35434 21 9.76855C21 10.1828 20.6642 10.5186 20.25 10.5186H3.75C3.33579 10.5186 3 10.1828 3 9.76855ZM3 14.2686C3 13.8543 3.33579 13.5186 3.75 13.5186H20.25C20.6642 13.5186 21 13.8543 21 14.2686C21 14.6828 20.6642 15.0186 20.25 15.0186H3.75C3.33579 15.0186 3 14.6828 3 14.2686ZM3 18.7686C3 18.3543 3.33579 18.0186 3.75 18.0186H20.25C20.6642 18.0186 21 18.3543 21 18.7686C21 19.1828 20.6642 19.5186 20.25 19.5186H3.75C3.33579 19.5186 3 19.1828 3 18.7686Z"
          fill="#111827"/>
</svg>
