<svg width="24" height="24" viewBox="0 0 24 24" fill="none" xmlns="http://www.w3.org/2000/svg">
<path fill-rule="evenodd" clip-rule="evenodd" d="M2 3.75C2 3.33579 2.33579 3 2.75 3H17C17.4142 3 17.75 3.33579 17.75 3.75C17.75 4.16421 17.4142 4.5 17 4.5H2.75C2.33579 4.5 2 4.16421 2 3.75ZM2 8.25C2 7.83579 2.33579 7.5 2.75 7.5H12.5C12.9142 7.5 13.25 7.83579 13.25 8.25C13.25 8.66421 12.9142 9 12.5 9H2.75C2.33579 9 2 8.66421 2 8.25ZM17 7.5C17.4142 7.5 17.75 7.83579 17.75 8.25V18.4393L20.2197 15.9697C20.5126 15.6768 20.9874 15.6768 21.2803 15.9697C21.5732 16.2626 21.5732 16.7374 21.2803 17.0303L17.5303 20.7803C17.2374 21.0732 16.7626 21.0732 16.4697 20.7803L12.7197 17.0303C12.4268 16.7374 12.4268 16.2626 12.7197 15.9697C13.0126 15.6768 13.4874 15.6768 13.7803 15.9697L16.25 18.4393V8.25C16.25 7.83579 16.5858 7.5 17 7.5ZM2 12.75C2 12.3358 2.33579 12 2.75 12H12.5C12.9142 12 13.25 12.3358 13.25 12.75C13.25 13.1642 12.9142 13.5 12.5 13.5H2.75C2.33579 13.5 2 13.1642 2 12.75Z" fill="#111827"/>
</svg>
