<svg width="24" height="24" viewBox="0 0 24 24" fill="none" xmlns="http://www.w3.org/2000/svg">
<path fill-rule="evenodd" clip-rule="evenodd" d="M5.24671 3.74433C5.24671 3.3301 5.58251 2.99429 5.99673 2.99429H13.1216C15.814 2.99429 17.9965 5.17716 17.9965 7.86973C17.9965 9.26692 17.4089 10.5269 16.4672 11.4158C17.8438 12.3623 18.7465 13.9485 18.7465 15.7455C18.7465 18.6452 16.3961 20.996 13.4966 20.996H5.99673C5.58251 20.996 5.24671 20.6602 5.24671 20.2459V3.74433ZM12.3716 10.495C13.8212 10.495 14.9965 9.3197 14.9965 7.86973C14.9965 6.41976 13.8212 5.24445 12.3716 5.24445H8.24672V10.495H12.3716ZM8.24672 12.7452V18.7458H12.7466C14.4033 18.7458 15.7465 17.4026 15.7465 15.7455C15.7465 14.0884 14.4033 12.7452 12.7466 12.7452H8.24672Z" fill="#111827"/>
</svg>
