<svg width="24" height="24" viewBox="0 0 24 24" fill="none" xmlns="http://www.w3.org/2000/svg">
<path d="M20.7983 11.0141L17.6099 14.4302L9.4624 6.28274L13.7017 1.74061C13.937 1.48847 14.314 1.42933 14.6152 1.59727C14.9165 1.76521 15.0643 2.11695 14.9736 2.44968L12.982 9.75235H20.25C20.5487 9.75235 20.8189 9.92953 20.9379 10.2034C21.0569 10.4773 21.0021 10.7958 20.7983 11.0141Z" fill="#111827"/>
<path d="M3.20173 12.9906L6.39014 9.57444L14.5376 17.7219L10.2983 22.2641C10.063 22.5162 9.68604 22.5754 9.38481 22.4074C9.08357 22.2395 8.9357 21.8877 9.02644 21.555L11.0181 14.2523H3.75002C3.45137 14.2523 3.18118 14.0752 3.06216 13.8013C2.94313 13.5274 2.99795 13.2089 3.20173 12.9906Z" fill="#111827"/>
<path d="M3.53033 2.47199C3.23744 2.1791 2.76256 2.1791 2.46967 2.47199C2.17678 2.76488 2.17678 3.23976 2.46967 3.53265L20.4697 21.5326C20.7626 21.8255 21.2374 21.8255 21.5303 21.5326C21.8232 21.2398 21.8232 20.7649 21.5303 20.472L3.53033 2.47199Z" fill="#111827"/>
</svg>
