<svg width="24" height="24" viewBox="0 0 24 24" fill="none" xmlns="http://www.w3.org/2000/svg">
    <path d="M11.25 4.53518C9.73455 3.56511 7.93246 3.00232 6 3.00232C4.86178 3.00232 3.76756 3.19767 2.75007 3.55731C2.45037 3.66323 2.25 3.94657 2.25 4.26444V18.5144C2.25 18.7579 2.36818 18.9862 2.56696 19.1268C2.76574 19.2674 3.02039 19.3027 3.24993 19.2216C4.10911 18.9179 5.03441 18.7523 6 18.7523C7.99502 18.7523 9.82325 19.4596 11.25 20.638V4.53518Z"
          fill="#111827"/>
    <path d="M12.75 20.638C14.1768 19.4596 16.005 18.7523 18 18.7523C18.9656 18.7523 19.8909 18.9179 20.7501 19.2216C20.9796 19.3027 21.2343 19.2674 21.433 19.1268C21.6318 18.9862 21.75 18.7579 21.75 18.5144V4.26444C21.75 3.94657 21.5496 3.66323 21.2499 3.55731C20.2324 3.19767 19.1382 3.00232 18 3.00232C16.0675 3.00232 14.2655 3.56511 12.75 4.53518V20.638Z"
          fill="#111827"/>
</svg>
