<svg width="24" height="24" viewBox="0 0 24 24" fill="none" xmlns="http://www.w3.org/2000/svg">
    <path fill-rule="evenodd" clip-rule="evenodd"
          d="M6 3.00232C4.34315 3.00232 3 4.34546 3 6.00232V18.0023C3 19.6592 4.34315 21.0023 6 21.0023H18C19.6569 21.0023 21 19.6592 21 18.0023V6.00232C21 4.34547 19.6569 3.00232 18 3.00232H6ZM7.5 4.50232C7.08579 4.50232 6.75 4.83811 6.75 5.25232V16.5023C6.75 16.7623 6.88459 17.0037 7.1057 17.1403C7.32681 17.277 7.60292 17.2894 7.83541 17.1731L12 15.0908L16.1646 17.1731C16.3971 17.2894 16.6732 17.277 16.8943 17.1403C17.1154 17.0037 17.25 16.7623 17.25 16.5023V5.25232C17.25 4.83811 16.9142 4.50232 16.5 4.50232H7.5Z"
          fill="#111827"/>
</svg>
