<svg width="24" height="24" viewBox="0 0 24 24" fill="none" xmlns="http://www.w3.org/2000/svg">
<path d="M3.53033 2.47199C3.23744 2.1791 2.76256 2.1791 2.46967 2.47199C2.17678 2.76488 2.17678 3.23976 2.46967 3.53265L20.4697 21.5326C20.7626 21.8255 21.2374 21.8255 21.5303 21.5326C21.8232 21.2398 21.8232 20.7649 21.5303 20.472L3.53033 2.47199Z" fill="#111827"/>
<path d="M20.25 5.50931V17.0703L5.85284 2.67318C6.00319 2.62994 6.15925 2.59841 6.32022 2.57973C8.18374 2.36346 10.079 2.25232 12 2.25232C13.921 2.25232 15.8163 2.36346 17.6798 2.57973C19.1772 2.75351 20.25 4.03954 20.25 5.50931Z" fill="#111827"/>
<path d="M3.75 21.0023V6.9343L17.8131 20.9974L12 18.0908L4.83541 21.6731C4.60292 21.7894 4.32681 21.777 4.1057 21.6403C3.88459 21.5037 3.75 21.2623 3.75 21.0023Z" fill="#111827"/>
</svg>
