<svg width="24" height="24" viewBox="0 0 24 24" fill="none" xmlns="http://www.w3.org/2000/svg">
    <path fill-rule="evenodd" clip-rule="evenodd"
          d="M8.4776 1.60312C8.83615 1.81053 8.95867 2.26932 8.75126 2.62787C8.55269 2.97113 8.4071 3.34856 8.32549 3.74942C8.38405 3.80689 8.44394 3.863 8.50512 3.91769C9.32956 2.90245 10.5885 2.25232 12.0001 2.25232C13.4129 2.25232 14.6728 2.90349 15.4972 3.92014C15.5579 3.86597 15.6173 3.8104 15.6754 3.75349C15.5939 3.35111 15.448 2.97229 15.2488 2.62787C15.0414 2.26932 15.1639 1.81053 15.5225 1.60312C15.881 1.39571 16.3398 1.51823 16.5472 1.87678C16.9024 2.49074 17.137 3.18367 17.2183 3.92226C17.2416 4.13417 17.1737 4.346 17.0314 4.50479C16.7896 4.77473 16.5263 5.02509 16.2442 5.25322C16.41 5.72269 16.5001 6.22751 16.5001 6.75232C16.5001 6.95588 16.4866 7.15666 16.4602 7.35373C16.3543 8.14546 15.7073 8.64812 15.0428 8.75658C14.8614 8.7862 14.6791 8.81321 14.4959 8.83758C14.6477 9.0647 14.7692 9.31369 14.8549 9.57884C16.1694 9.41793 17.4498 9.14733 18.6867 8.77654C18.6212 7.88324 18.5053 7.00416 18.3417 6.1421C18.2645 5.73514 18.5319 5.34266 18.9388 5.26546C19.3458 5.18827 19.7383 5.45559 19.8155 5.86254C20.0269 6.97737 20.1636 8.11841 20.2201 9.28018C20.2365 9.6176 20.0253 9.92435 19.7043 10.0294C18.1774 10.5291 16.5854 10.8843 14.9444 11.0789C14.8703 11.4597 14.7242 11.8147 14.5208 12.1292C16.5869 12.3383 18.5788 12.8016 20.464 13.4876C20.7756 13.601 20.9758 13.9056 20.9562 14.2367C20.8278 16.4064 20.4197 18.5017 19.7673 20.4865C19.638 20.88 19.2142 21.0942 18.8207 20.9648C18.4272 20.8355 18.213 20.4116 18.3423 20.0181C18.8983 18.3268 19.2654 16.5495 19.4187 14.7108C18.9182 14.5424 18.4101 14.3906 17.895 14.256C17.9627 14.4906 17.9993 14.7403 17.9993 15.0023C17.9993 18.9581 15.4775 22.5023 11.9993 22.5023C8.52106 22.5023 5.99926 18.9581 5.99926 15.0023C5.99926 14.7405 6.03582 14.4909 6.10346 14.2564C5.58886 14.3909 5.08125 14.5426 4.58126 14.7108C4.73455 16.5495 5.10171 18.3268 5.65762 20.0181C5.78696 20.4116 5.57281 20.8355 5.17931 20.9648C4.7858 21.0942 4.36196 20.88 4.23262 20.4865C3.58024 18.5017 3.17219 16.4064 3.04379 14.2367C3.02419 13.9056 3.22436 13.601 3.53601 13.4876C5.12187 12.9105 6.783 12.491 8.50041 12.2479C8.50367 12.2474 8.50693 12.247 8.51019 12.2465C8.83113 12.2012 9.15402 12.162 9.47874 12.1292C9.27537 11.8147 9.12925 11.4596 9.05513 11.0789C7.41418 10.8843 5.82213 10.5291 4.29528 10.0294C3.97422 9.92435 3.76303 9.6176 3.77944 9.28018C3.83597 8.11841 3.97263 6.97737 4.18411 5.86254C4.26131 5.45559 4.65379 5.18827 5.06075 5.26546C5.4677 5.34266 5.73502 5.73514 5.65783 6.1421C5.4943 7.00416 5.37834 7.88324 5.31283 8.77654C6.54976 9.14734 7.83016 9.41793 9.14471 9.57885C9.23044 9.31366 9.35208 9.06464 9.50388 8.83752C9.32091 8.81317 9.13876 8.78618 8.95747 8.75658C8.29302 8.64812 7.64599 8.14547 7.54008 7.35373C7.51371 7.15666 7.50015 6.95588 7.50015 6.75232C7.50015 6.2264 7.59066 5.72055 7.75717 5.25023C7.47453 5.02134 7.21081 4.77011 6.96867 4.49923C6.82658 4.34028 6.75886 4.12838 6.78242 3.91649C6.86432 3.18005 7.09862 2.48914 7.45285 1.87678C7.66026 1.51823 8.11906 1.39571 8.4776 1.60312Z"
          fill="#111827"/>
</svg>
