<svg width="24" height="24" viewBox="0 0 24 24" fill="none" xmlns="http://www.w3.org/2000/svg">
    <path fill-rule="evenodd" clip-rule="evenodd"
          d="M3 2.25232C2.58579 2.25232 2.25 2.58811 2.25 3.00232C2.25 3.41653 2.58579 3.75232 3 3.75232V20.2523H2.25C1.83579 20.2523 1.5 20.5881 1.5 21.0023C1.5 21.4165 1.83579 21.7523 2.25 21.7523H15V3.75232C15.4142 3.75232 15.75 3.41653 15.75 3.00232C15.75 2.58811 15.4142 2.25232 15 2.25232H3ZM6.75 19.5023V17.2523C6.75 16.8381 7.08579 16.5023 7.5 16.5023H10.5C10.9142 16.5023 11.25 16.8381 11.25 17.2523V19.5023C11.25 19.9165 10.9142 20.2523 10.5 20.2523H7.5C7.08579 20.2523 6.75 19.9165 6.75 19.5023ZM6 6.75232C6 6.33811 6.33579 6.00232 6.75 6.00232H7.5C7.91421 6.00232 8.25 6.33811 8.25 6.75232C8.25 7.16653 7.91421 7.50232 7.5 7.50232H6.75C6.33579 7.50232 6 7.16653 6 6.75232ZM6.75 9.00232C6.33579 9.00232 6 9.33811 6 9.75232C6 10.1665 6.33579 10.5023 6.75 10.5023H7.5C7.91421 10.5023 8.25 10.1665 8.25 9.75232C8.25 9.33811 7.91421 9.00232 7.5 9.00232H6.75ZM6 12.7523C6 12.3381 6.33579 12.0023 6.75 12.0023H7.5C7.91421 12.0023 8.25 12.3381 8.25 12.7523C8.25 13.1665 7.91421 13.5023 7.5 13.5023H6.75C6.33579 13.5023 6 13.1665 6 12.7523ZM10.5 6.00232C10.0858 6.00232 9.75 6.33811 9.75 6.75232C9.75 7.16653 10.0858 7.50232 10.5 7.50232H11.25C11.6642 7.50232 12 7.16653 12 6.75232C12 6.33811 11.6642 6.00232 11.25 6.00232H10.5ZM9.75 9.75232C9.75 9.33811 10.0858 9.00232 10.5 9.00232H11.25C11.6642 9.00232 12 9.33811 12 9.75232C12 10.1665 11.6642 10.5023 11.25 10.5023H10.5C10.0858 10.5023 9.75 10.1665 9.75 9.75232ZM10.5 12.0023C10.0858 12.0023 9.75 12.3381 9.75 12.7523C9.75 13.1665 10.0858 13.5023 10.5 13.5023H11.25C11.6642 13.5023 12 13.1665 12 12.7523C12 12.3381 11.6642 12.0023 11.25 12.0023H10.5Z"
          fill="#111827"/>
    <path fill-rule="evenodd" clip-rule="evenodd"
          d="M16.5 6.75232V21.7523H21.75C22.1642 21.7523 22.5 21.4165 22.5 21.0023C22.5 20.5881 22.1642 20.2523 21.75 20.2523H21V8.25232C21.4142 8.25232 21.75 7.91653 21.75 7.50232C21.75 7.08811 21.4142 6.75232 21 6.75232H16.5ZM18 11.2523C18 10.8381 18.3358 10.5023 18.75 10.5023H18.7575C19.1717 10.5023 19.5075 10.8381 19.5075 11.2523V11.2598C19.5075 11.674 19.1717 12.0098 18.7575 12.0098H18.75C18.3358 12.0098 18 11.674 18 11.2598V11.2523ZM18.75 13.5023C18.3358 13.5023 18 13.8381 18 14.2523V14.2598C18 14.674 18.3358 15.0098 18.75 15.0098H18.7575C19.1717 15.0098 19.5075 14.674 19.5075 14.2598V14.2523C19.5075 13.8381 19.1717 13.5023 18.7575 13.5023H18.75ZM18 17.2523C18 16.8381 18.3358 16.5023 18.75 16.5023H18.7575C19.1717 16.5023 19.5075 16.8381 19.5075 17.2523V17.2598C19.5075 17.674 19.1717 18.0098 18.7575 18.0098H18.75C18.3358 18.0098 18 17.674 18 17.2598V17.2523Z"
          fill="#111827"/>
</svg>
