<svg width="24" height="24" viewBox="0 0 24 24" fill="none" xmlns="http://www.w3.org/2000/svg">
<path fill-rule="evenodd" clip-rule="evenodd" d="M4.5 2.25232C4.08579 2.25232 3.75 2.58811 3.75 3.00232C3.75 3.41653 4.08579 3.75232 4.5 3.75232V20.2523H3.75C3.33579 20.2523 3 20.5881 3 21.0023C3 21.4165 3.33579 21.7523 3.75 21.7523H20.25C20.6642 21.7523 21 21.4165 21 21.0023C21 20.5881 20.6642 20.2523 20.25 20.2523H19.5V3.75232C19.9142 3.75232 20.25 3.41653 20.25 3.00232C20.25 2.58811 19.9142 2.25232 19.5 2.25232H4.5ZM9 6.00232C8.58579 6.00232 8.25 6.33811 8.25 6.75232C8.25 7.16653 8.58579 7.50232 9 7.50232H10.5C10.9142 7.50232 11.25 7.16653 11.25 6.75232C11.25 6.33811 10.9142 6.00232 10.5 6.00232H9ZM8.25 9.75232C8.25 9.33811 8.58579 9.00232 9 9.00232H10.5C10.9142 9.00232 11.25 9.33811 11.25 9.75232C11.25 10.1665 10.9142 10.5023 10.5 10.5023H9C8.58579 10.5023 8.25 10.1665 8.25 9.75232ZM9 12.0023C8.58579 12.0023 8.25 12.3381 8.25 12.7523C8.25 13.1665 8.58579 13.5023 9 13.5023H10.5C10.9142 13.5023 11.25 13.1665 11.25 12.7523C11.25 12.3381 10.9142 12.0023 10.5 12.0023H9ZM12.75 6.75232C12.75 6.33811 13.0858 6.00232 13.5 6.00232H15C15.4142 6.00232 15.75 6.33811 15.75 6.75232C15.75 7.16653 15.4142 7.50232 15 7.50232H13.5C13.0858 7.50232 12.75 7.16653 12.75 6.75232ZM13.5 9.00232C13.0858 9.00232 12.75 9.33811 12.75 9.75232C12.75 10.1665 13.0858 10.5023 13.5 10.5023H15C15.4142 10.5023 15.75 10.1665 15.75 9.75232C15.75 9.33811 15.4142 9.00232 15 9.00232H13.5ZM12.75 12.7523C12.75 12.3381 13.0858 12.0023 13.5 12.0023H15C15.4142 12.0023 15.75 12.3381 15.75 12.7523C15.75 13.1665 15.4142 13.5023 15 13.5023H13.5C13.0858 13.5023 12.75 13.1665 12.75 12.7523ZM9 19.5023V17.2523C9 16.8381 9.33579 16.5023 9.75 16.5023H14.25C14.6642 16.5023 15 16.8381 15 17.2523V19.5023C15 19.9165 14.6642 20.2523 14.25 20.2523H9.75C9.33579 20.2523 9 19.9165 9 19.5023Z" fill="#111827"/>
</svg>
