<svg width="24" height="24" viewBox="0 0 24 24" fill="none" xmlns="http://www.w3.org/2000/svg">
<path d="M11.5841 2.37828C11.836 2.21033 12.1642 2.21033 12.4161 2.37828L21.4161 8.37828C21.7608 8.60805 21.8539 9.0737 21.6241 9.41834C21.3944 9.76299 20.9287 9.85612 20.5841 9.62636L12.0001 3.90371L3.4161 9.62636C3.07146 9.85612 2.60581 9.76299 2.37604 9.41834C2.14628 9.0737 2.23941 8.60805 2.58405 8.37828L11.5841 2.37828Z" fill="#111827"/>
<path fill-rule="evenodd" clip-rule="evenodd" d="M20.25 10.3348V20.2523H21C21.4142 20.2523 21.75 20.5881 21.75 21.0023C21.75 21.4165 21.4142 21.7523 21 21.7523H3C2.58579 21.7523 2.25 21.4165 2.25 21.0023C2.25 20.5881 2.58579 20.2523 3 20.2523H3.75V10.3348C3.75 9.96549 4.01888 9.65114 4.38374 9.59389C6.86578 9.20443 9.40954 9.00232 12 9.00232C14.5905 9.00232 17.1342 9.20443 19.6163 9.59389C19.9811 9.65114 20.25 9.96549 20.25 10.3348ZM12.75 12.7523C12.75 12.3381 12.4142 12.0023 12 12.0023C11.5858 12.0023 11.25 12.3381 11.25 12.7523V19.5023C11.25 19.9165 11.5858 20.2523 12 20.2523C12.4142 20.2523 12.75 19.9165 12.75 19.5023V12.7523ZM15.75 12.0023C16.1642 12.0023 16.5 12.3381 16.5 12.7523V19.5023C16.5 19.9165 16.1642 20.2523 15.75 20.2523C15.3358 20.2523 15 19.9165 15 19.5023V12.7523C15 12.3381 15.3358 12.0023 15.75 12.0023ZM9 12.7523C9 12.3381 8.66421 12.0023 8.25 12.0023C7.83579 12.0023 7.5 12.3381 7.5 12.7523V19.5023C7.5 19.9165 7.83579 20.2523 8.25 20.2523C8.66421 20.2523 9 19.9165 9 19.5023V12.7523Z" fill="#111827"/>
<path d="M12 7.87732C12.6213 7.87732 13.125 7.37364 13.125 6.75232C13.125 6.131 12.6213 5.62732 12 5.62732C11.3787 5.62732 10.875 6.131 10.875 6.75232C10.875 7.37364 11.3787 7.87732 12 7.87732Z" fill="#111827"/>
</svg>
