<svg width="24" height="24" viewBox="0 0 24 24" fill="none" xmlns="http://www.w3.org/2000/svg">
<path d="M15 1.78632L14.2045 2.58182C13.7652 3.02116 13.7652 3.73347 14.2045 4.17281C14.6438 4.61215 15.3562 4.61215 15.7955 4.17281C16.2348 3.73347 16.2348 3.02116 15.7955 2.58182L15 1.78632Z" fill="#111827"/>
<path d="M12 1.78632L11.2045 2.58182C10.7652 3.02116 10.7652 3.73347 11.2045 4.17281C11.6438 4.61215 12.3562 4.61215 12.7955 4.17281C13.2348 3.73347 13.2348 3.02116 12.7955 2.58182L12 1.78632Z" fill="#111827"/>
<path d="M8.99999 1.78632L8.2045 2.58182C7.76516 3.02116 7.76516 3.73347 8.2045 4.17281C8.64384 4.61215 9.35616 4.61215 9.7955 4.17281C10.2348 3.73347 10.2348 3.02116 9.7955 2.58182L8.99999 1.78632Z" fill="#111827"/>
<path d="M9.75 7.54901C10.2483 7.52829 10.7483 7.51442 11.25 7.50749V6.75232C11.25 6.33811 11.5858 6.00232 12 6.00232C12.4142 6.00232 12.75 6.33811 12.75 6.75232V7.50749C13.2517 7.51442 13.7517 7.52829 14.25 7.54901V6.75232C14.25 6.33811 14.5858 6.00232 15 6.00232C15.4142 6.00232 15.75 6.33811 15.75 6.75232V7.63235C15.8524 7.63947 15.9547 7.64688 16.0569 7.65458C17.6071 7.77139 18.75 9.08164 18.75 10.6V11.6185C16.5333 11.3765 14.2811 11.2523 12 11.2523C9.71886 11.2523 7.46673 11.3765 5.25 11.6185V10.6C5.25 9.08164 6.39295 7.77139 7.94314 7.65458C8.04534 7.64688 8.14763 7.63947 8.25 7.63235V6.75232C8.25 6.33811 8.58579 6.00232 9 6.00232C9.41421 6.00232 9.75 6.33811 9.75 6.75232V7.54901Z" fill="#111827"/>
<path d="M12 12.7523C9.52847 12.7523 7.09944 12.9363 4.72596 13.2914C3.27191 13.509 2.25 14.774 2.25 16.208V16.5923C3.11853 16.4309 4.02704 16.5523 4.83541 16.9565C5.56854 17.3231 6.43146 17.3231 7.16459 16.9565C8.32001 16.3788 9.67999 16.3788 10.8354 16.9565C11.5685 17.3231 12.4315 17.3231 13.1646 16.9565C14.32 16.3788 15.68 16.3788 16.8354 16.9565C17.5685 17.3231 18.4315 17.3231 19.1646 16.9565C19.973 16.5523 20.8815 16.4309 21.75 16.5923V16.208C21.75 14.774 20.7281 13.509 19.274 13.2914C16.9006 12.9363 14.4715 12.7523 12 12.7523Z" fill="#111827"/>
<path d="M21.75 18.1335C21.1195 17.9439 20.4342 17.9988 19.8354 18.2981C18.68 18.8758 17.32 18.8758 16.1646 18.2981C15.4315 17.9316 14.5685 17.9316 13.8354 18.2981C12.68 18.8758 11.32 18.8758 10.1646 18.2981C9.43146 17.9316 8.56854 17.9316 7.83541 18.2981C6.67999 18.8758 5.32001 18.8758 4.16459 18.2981C3.56583 17.9988 2.88049 17.9439 2.25 18.1335V20.6273C2.25 21.6629 3.08947 22.5023 4.125 22.5023H19.875C20.9105 22.5023 21.75 21.6629 21.75 20.6273V18.1335Z" fill="#111827"/>
</svg>
