<svg width="24" height="24" viewBox="0 0 24 24" fill="none" xmlns="http://www.w3.org/2000/svg">
<path d="M12.0002 11.9952C11.5859 11.9952 11.2501 12.331 11.2501 12.7452V12.7509C11.2501 13.1651 11.5859 13.5009 12.0002 13.5009H12.0058C12.42 13.5009 12.7558 13.1651 12.7558 12.7509V12.7452C12.7558 12.331 12.42 11.9952 12.0058 11.9952H12.0002Z" fill="#111827"/>
<path d="M11.9994 16.4957C11.5852 16.4957 11.2494 16.8315 11.2494 17.2457V17.2513C11.2494 17.6656 11.5852 18.0014 11.9994 18.0014H12.0051C12.4193 18.0014 12.7551 17.6656 12.7551 17.2513V17.2457C12.7551 16.8315 12.4193 16.4957 12.0051 16.4957H11.9994Z" fill="#111827"/>
<path d="M8.99864 17.2465C8.99864 16.8322 9.33444 16.4964 9.74867 16.4964H9.7543C10.1685 16.4964 10.5043 16.8322 10.5043 17.2465V17.2521C10.5043 17.6663 10.1685 18.0021 9.7543 18.0021H9.74867C9.33444 18.0021 8.99864 17.6663 8.99864 17.2521V17.2465Z" fill="#111827"/>
<path d="M7.49864 16.4957C7.08441 16.4957 6.74861 16.8315 6.74861 17.2457V17.2513C6.74861 17.6656 7.08441 18.0014 7.49864 18.0014H7.50427C7.9185 18.0014 8.2543 17.6656 8.2543 17.2513V17.2457C8.2543 16.8315 7.9185 16.4957 7.50427 16.4957H7.49864Z" fill="#111827"/>
<path d="M13.4987 14.999C13.4987 14.5847 13.8345 14.2489 14.2487 14.2489H14.2544C14.6686 14.2489 15.0044 14.5847 15.0044 14.999V15.0046C15.0044 15.4188 14.6686 15.7546 14.2544 15.7546H14.2487C13.8345 15.7546 13.4987 15.4188 13.4987 15.0046V14.999Z" fill="#111827"/>
<path d="M14.2495 16.4964C13.8352 16.4964 13.4994 16.8322 13.4994 17.2465V17.2521C13.4994 17.6663 13.8352 18.0021 14.2495 18.0021H14.2551C14.6693 18.0021 15.0051 17.6663 15.0051 17.2521V17.2465C15.0051 16.8322 14.6693 16.4964 14.2551 16.4964H14.2495Z" fill="#111827"/>
<path d="M15.7495 14.9975C15.7495 14.5833 16.0853 14.2475 16.4995 14.2475H16.5051C16.9194 14.2475 17.2552 14.5833 17.2552 14.9975V15.0031C17.2552 15.4174 16.9194 15.7532 16.5051 15.7532H16.4995C16.0853 15.7532 15.7495 15.4174 15.7495 15.0031V14.9975Z" fill="#111827"/>
<path d="M13.4979 12.7453C13.4979 12.331 13.8337 11.9952 14.2479 11.9952H16.4979C16.9122 11.9952 17.248 12.331 17.248 12.7453C17.248 13.1595 16.9122 13.4953 16.4979 13.4953H14.2479C13.8337 13.4953 13.4979 13.1595 13.4979 12.7453Z" fill="#111827"/>
<path d="M6.7479 14.9955C6.7479 14.5813 7.0837 14.2454 7.49793 14.2454H11.9979C12.4122 14.2454 12.748 14.5813 12.748 14.9955C12.748 15.4097 12.4122 15.7455 11.9979 15.7455H7.49793C7.0837 15.7455 6.7479 15.4097 6.7479 14.9955Z" fill="#111827"/>
<path fill-rule="evenodd" clip-rule="evenodd" d="M17.9997 2.9954C17.9997 2.58117 17.6639 2.24536 17.2497 2.24536C16.8355 2.24536 16.4997 2.58117 16.4997 2.9954V4.49432H7.49942V2.99674C7.49942 2.5825 7.16362 2.2467 6.74939 2.2467C6.33515 2.2467 5.99935 2.5825 5.99935 2.99674V4.49432H5.24796C3.59104 4.49432 2.24783 5.83753 2.24783 7.49448V18.7458C2.24783 20.4027 3.59104 21.7459 5.24797 21.7459H18.7478C20.4047 21.7459 21.7479 20.4027 21.7479 18.7458V7.49448C21.7479 5.83753 20.4047 4.49432 18.7478 4.49432H17.9997V2.9954ZM3.7479 18.7458V11.2453C3.7479 10.4169 4.4195 9.74524 5.24796 9.74524H18.7478C19.5762 9.74524 20.2478 10.4169 20.2478 11.2453V18.7458C20.2478 19.5742 19.5762 20.2458 18.7478 20.2458H5.24797C4.4195 20.2458 3.7479 19.5742 3.7479 18.7458Z" fill="#111827"/>
</svg>
