<svg width="24" height="24" viewBox="0 0 24 24" fill="none" xmlns="http://www.w3.org/2000/svg">
<path d="M12.75 12.7546C12.75 13.1689 12.4142 13.5046 12 13.5046C11.5858 13.5046 11.25 13.1689 11.25 12.7546C11.25 12.3404 11.5858 12.0046 12 12.0046C12.4142 12.0046 12.75 12.3404 12.75 12.7546Z" fill="#111827"/>
<path d="M7.5 15.7546C7.91421 15.7546 8.25 15.4189 8.25 15.0046C8.25 14.5904 7.91421 14.2546 7.5 14.2546C7.08579 14.2546 6.75 14.5904 6.75 15.0046C6.75 15.4189 7.08579 15.7546 7.5 15.7546Z" fill="#111827"/>
<path d="M8.25 17.2546C8.25 17.6689 7.91421 18.0046 7.5 18.0046C7.08579 18.0046 6.75 17.6689 6.75 17.2546C6.75 16.8404 7.08579 16.5046 7.5 16.5046C7.91421 16.5046 8.25 16.8404 8.25 17.2546Z" fill="#111827"/>
<path d="M9.75 15.7546C10.1642 15.7546 10.5 15.4189 10.5 15.0046C10.5 14.5904 10.1642 14.2546 9.75 14.2546C9.33579 14.2546 9 14.5904 9 15.0046C9 15.4189 9.33579 15.7546 9.75 15.7546Z" fill="#111827"/>
<path d="M10.5 17.2546C10.5 17.6689 10.1642 18.0046 9.75 18.0046C9.33579 18.0046 9 17.6689 9 17.2546C9 16.8404 9.33579 16.5046 9.75 16.5046C10.1642 16.5046 10.5 16.8404 10.5 17.2546Z" fill="#111827"/>
<path d="M12 15.7546C12.4142 15.7546 12.75 15.4189 12.75 15.0046C12.75 14.5904 12.4142 14.2546 12 14.2546C11.5858 14.2546 11.25 14.5904 11.25 15.0046C11.25 15.4189 11.5858 15.7546 12 15.7546Z" fill="#111827"/>
<path d="M12.75 17.2546C12.75 17.6689 12.4142 18.0046 12 18.0046C11.5858 18.0046 11.25 17.6689 11.25 17.2546C11.25 16.8404 11.5858 16.5046 12 16.5046C12.4142 16.5046 12.75 16.8404 12.75 17.2546Z" fill="#111827"/>
<path d="M14.25 15.7546C14.6642 15.7546 15 15.4189 15 15.0046C15 14.5904 14.6642 14.2546 14.25 14.2546C13.8358 14.2546 13.5 14.5904 13.5 15.0046C13.5 15.4189 13.8358 15.7546 14.25 15.7546Z" fill="#111827"/>
<path d="M15 17.2546C15 17.6689 14.6642 18.0046 14.25 18.0046C13.8358 18.0046 13.5 17.6689 13.5 17.2546C13.5 16.8404 13.8358 16.5046 14.25 16.5046C14.6642 16.5046 15 16.8404 15 17.2546Z" fill="#111827"/>
<path d="M16.5 15.7546C16.9142 15.7546 17.25 15.4189 17.25 15.0046C17.25 14.5904 16.9142 14.2546 16.5 14.2546C16.0858 14.2546 15.75 14.5904 15.75 15.0046C15.75 15.4189 16.0858 15.7546 16.5 15.7546Z" fill="#111827"/>
<path d="M15 12.7546C15 13.1689 14.6642 13.5046 14.25 13.5046C13.8358 13.5046 13.5 13.1689 13.5 12.7546C13.5 12.3404 13.8358 12.0046 14.25 12.0046C14.6642 12.0046 15 12.3404 15 12.7546Z" fill="#111827"/>
<path d="M16.5 13.5046C16.9142 13.5046 17.25 13.1689 17.25 12.7546C17.25 12.3404 16.9142 12.0046 16.5 12.0046C16.0858 12.0046 15.75 12.3404 15.75 12.7546C15.75 13.1689 16.0858 13.5046 16.5 13.5046Z" fill="#111827"/>
<path fill-rule="evenodd" clip-rule="evenodd" d="M6.75 2.25464C7.16421 2.25464 7.5 2.59043 7.5 3.00464V4.50464H16.5V3.00464C16.5 2.59043 16.8358 2.25464 17.25 2.25464C17.6642 2.25464 18 2.59043 18 3.00464V4.50464H18.75C20.4069 4.50464 21.75 5.84778 21.75 7.50464V18.7546C21.75 20.4115 20.4069 21.7546 18.75 21.7546H5.25C3.59315 21.7546 2.25 20.4115 2.25 18.7546V7.50464C2.25 5.84778 3.59315 4.50464 5.25 4.50464H6V3.00464C6 2.59043 6.33579 2.25464 6.75 2.25464ZM20.25 11.2546C20.25 10.4262 19.5784 9.75464 18.75 9.75464H5.25C4.42157 9.75464 3.75 10.4262 3.75 11.2546V18.7546C3.75 19.5831 4.42157 20.2546 5.25 20.2546H18.75C19.5784 20.2546 20.25 19.5831 20.25 18.7546V11.2546Z" fill="#111827"/>
</svg>
