<svg width="24" height="24" viewBox="0 0 24 24" fill="none" xmlns="http://www.w3.org/2000/svg">
    <path d="M12 9.00464C9.92893 9.00464 8.25 10.6836 8.25 12.7546C8.25 14.8257 9.92893 16.5046 12 16.5046C14.0711 16.5046 15.75 14.8257 15.75 12.7546C15.75 10.6836 14.0711 9.00464 12 9.00464Z"
          fill="#111827"/>
    <path fill-rule="evenodd" clip-rule="evenodd"
          d="M9.34429 3.07577C10.2236 3.02855 11.109 3.00464 12 3.00464C12.891 3.00464 13.7764 3.02855 14.6557 3.07577C15.6233 3.12772 16.4854 3.66076 16.9882 4.46648L17.8094 5.7825C18.0485 6.16563 18.4544 6.42595 18.9195 6.49205C19.3049 6.54681 19.6888 6.60609 20.0713 6.66982C21.5031 6.90842 22.5 8.16249 22.5 9.57867V18.0046C22.5 19.6615 21.1569 21.0046 19.5 21.0046H4.5C2.84315 21.0046 1.5 19.6615 1.5 18.0046V9.57866C1.5 8.16248 2.49686 6.90841 3.92872 6.66981C4.31116 6.60608 4.6951 6.54681 5.08048 6.49204C5.54556 6.42595 5.95152 6.16562 6.19061 5.78249L7.01181 4.46648C7.5146 3.66076 8.37667 3.12772 9.34429 3.07577ZM6.75 12.7546C6.75 9.85514 9.1005 7.50464 12 7.50464C14.8995 7.50464 17.25 9.85514 17.25 12.7546C17.25 15.6541 14.8995 18.0046 12 18.0046C9.1005 18.0046 6.75 15.6541 6.75 12.7546ZM18.75 11.2546C19.1642 11.2546 19.5 10.9189 19.5 10.5046C19.5 10.0904 19.1642 9.75464 18.75 9.75464C18.3358 9.75464 18 10.0904 18 10.5046C18 10.9189 18.3358 11.2546 18.75 11.2546Z"
          fill="#111827"/>
</svg>
