<svg width="24" height="24" viewBox="0 0 24 24" fill="none" xmlns="http://www.w3.org/2000/svg">
<path fill-rule="evenodd" clip-rule="evenodd" d="M3 6.00464C3 4.34778 4.34315 3.00464 6 3.00464H18C19.6569 3.00464 21 4.34778 21 6.00464V18.0046C21 19.6615 19.6569 21.0046 18 21.0046H6C4.34315 21.0046 3 19.6615 3 18.0046V6.00464ZM7.5 13.5046C7.91421 13.5046 8.25 13.8404 8.25 14.2546V16.5046C8.25 16.9189 7.91421 17.2546 7.5 17.2546C7.08579 17.2546 6.75 16.9189 6.75 16.5046V14.2546C6.75 13.8404 7.08579 13.5046 7.5 13.5046ZM11.25 12.0046C11.25 11.5904 10.9142 11.2546 10.5 11.2546C10.0858 11.2546 9.75 11.5904 9.75 12.0046V16.5046C9.75 16.9189 10.0858 17.2546 10.5 17.2546C10.9142 17.2546 11.25 16.9189 11.25 16.5046V12.0046ZM13.5 9.00464C13.9142 9.00464 14.25 9.34042 14.25 9.75464V16.5046C14.25 16.9189 13.9142 17.2546 13.5 17.2546C13.0858 17.2546 12.75 16.9189 12.75 16.5046V9.75464C12.75 9.34042 13.0858 9.00464 13.5 9.00464ZM17.25 7.50464C17.25 7.09043 16.9142 6.75464 16.5 6.75464C16.0858 6.75464 15.75 7.09043 15.75 7.50464V16.5046C15.75 16.9189 16.0858 17.2546 16.5 17.2546C16.9142 17.2546 17.25 16.9189 17.25 16.5046V7.50464Z" fill="#111827"/>
</svg>
