<svg width="24" height="24" viewBox="0 0 24 24" fill="none" xmlns="http://www.w3.org/2000/svg">
<path fill-rule="evenodd" clip-rule="evenodd" d="M2.25 13.5046C2.25 8.94829 5.94365 5.25464 10.5 5.25464C10.9142 5.25464 11.25 5.59043 11.25 6.00464V12.7546H18C18.4142 12.7546 18.75 13.0904 18.75 13.5046C18.75 18.061 15.0563 21.7546 10.5 21.7546C5.94365 21.7546 2.25 18.061 2.25 13.5046Z" fill="#111827"/>
<path fill-rule="evenodd" clip-rule="evenodd" d="M12.75 3.00464C12.75 2.59043 13.0858 2.25464 13.5 2.25464C18.0563 2.25464 21.75 5.94829 21.75 10.5046C21.75 10.9189 21.4142 11.2546 21 11.2546H13.5C13.0858 11.2546 12.75 10.9189 12.75 10.5046V3.00464Z" fill="#111827"/>
</svg>
