<svg width="24" height="24" viewBox="0 0 24 24" fill="none" xmlns="http://www.w3.org/2000/svg">
<path d="M18.375 2.25464C17.3395 2.25464 16.5 3.0941 16.5 4.12964V19.8796C16.5 20.9152 17.3395 21.7546 18.375 21.7546H19.125C20.1605 21.7546 21 20.9152 21 19.8796V4.12964C21 3.0941 20.1605 2.25464 19.125 2.25464H18.375Z" fill="#111827"/>
<path d="M9.75 8.62964C9.75 7.5941 10.5895 6.75464 11.625 6.75464H12.375C13.4105 6.75464 14.25 7.5941 14.25 8.62964V19.8796C14.25 20.9152 13.4105 21.7546 12.375 21.7546H11.625C10.5895 21.7546 9.75 20.9152 9.75 19.8796V8.62964Z" fill="#111827"/>
<path d="M3 13.1296C3 12.0941 3.83947 11.2546 4.875 11.2546H5.625C6.66053 11.2546 7.5 12.0941 7.5 13.1296V19.8796C7.5 20.9152 6.66053 21.7546 5.625 21.7546H4.875C3.83947 21.7546 3 20.9152 3 19.8796V13.1296Z" fill="#111827"/>
</svg>
