<svg width="24" height="24" viewBox="0 0 24 24" fill="none" xmlns="http://www.w3.org/2000/svg">
    <path fill-rule="evenodd" clip-rule="evenodd"
          d="M12.0003 2.25464C9.57113 2.25464 7.18302 2.43237 4.84836 2.77564C2.87004 3.06652 1.5 4.79919 1.5 6.74528V12.764C1.5 14.7101 2.87004 16.4427 4.84836 16.7336C5.72491 16.8625 6.60901 16.9681 7.5 17.0496V21.0046C7.5 21.308 7.68273 21.5815 7.96299 21.6975C8.24324 21.8136 8.56583 21.7495 8.78033 21.535L12.9638 17.3515C13.0318 17.2835 13.1266 17.242 13.2302 17.2394C15.2361 17.1897 17.2123 17.0189 19.1516 16.7337C21.1299 16.4429 22.5 14.7102 22.5 12.7641V6.7452C22.5 4.79909 21.1299 3.06641 19.1516 2.77555C16.8171 2.43234 14.4292 2.25464 12.0003 2.25464ZM8.25 8.62964C7.62868 8.62964 7.125 9.13332 7.125 9.75464C7.125 10.376 7.62868 10.8796 8.25 10.8796C8.87132 10.8796 9.375 10.376 9.375 9.75464C9.375 9.13332 8.87132 8.62964 8.25 8.62964ZM10.875 9.75464C10.875 9.13332 11.3787 8.62964 12 8.62964C12.6213 8.62964 13.125 9.13332 13.125 9.75464C13.125 10.376 12.6213 10.8796 12 10.8796C11.3787 10.8796 10.875 10.376 10.875 9.75464ZM15.75 8.62964C15.1287 8.62964 14.625 9.13332 14.625 9.75464C14.625 10.376 15.1287 10.8796 15.75 10.8796C16.3713 10.8796 16.875 10.376 16.875 9.75464C16.875 9.13332 16.3713 8.62964 15.75 8.62964Z"
          fill="#111827"/>
</svg>
