<svg width="24" height="24" viewBox="0 0 24 24" fill="none" xmlns="http://www.w3.org/2000/svg">
    <path fill-rule="evenodd" clip-rule="evenodd"
          d="M5.33691 21.7224C5.15732 21.7049 4.9793 21.6803 4.80365 21.6489C4.5396 21.6016 4.3209 21.4169 4.23008 21.1645C4.13927 20.9121 4.19016 20.6304 4.36357 20.4258C4.76687 19.9498 5.05254 19.3731 5.17822 18.7395C5.20107 18.6243 5.15571 18.4228 4.92371 18.197C3.2746 16.5918 2.25 14.4132 2.25 12.0046C2.25 6.97398 6.67799 3.00464 12 3.00464C17.322 3.00464 21.75 6.97398 21.75 12.0046C21.75 17.0353 17.322 21.0046 12 21.0046C11.1668 21.0046 10.3569 20.9081 9.58317 20.726C8.54447 21.3777 7.3153 21.7546 6 21.7546C5.77647 21.7546 5.55516 21.7438 5.33691 21.7224Z"
          fill="#111827"/>
</svg>
