<svg width="24" height="24" viewBox="0 0 24 24" fill="none" xmlns="http://www.w3.org/2000/svg">
    <path fill-rule="evenodd" clip-rule="evenodd"
          d="M4.84836 2.77564C7.18302 2.43237 9.57113 2.25464 12.0003 2.25464C14.4292 2.25464 16.8171 2.43234 19.1516 2.77555C21.1299 3.06641 22.5 4.79909 22.5 6.7452V12.7641C22.5 14.7102 21.1299 16.4429 19.1516 16.7337C17.2123 17.0189 15.2361 17.1897 13.2302 17.2394C13.1266 17.242 13.0318 17.2835 12.9638 17.3515L8.78033 21.535C8.56583 21.7495 8.24324 21.8136 7.96299 21.6975C7.68273 21.5815 7.5 21.308 7.5 21.0046V17.0496C6.60901 16.9681 5.72491 16.8625 4.84836 16.7336C2.87004 16.4427 1.5 14.7101 1.5 12.764V6.74528C1.5 4.79919 2.87004 3.06652 4.84836 2.77564Z"
          fill="#111827"/>
</svg>
