<svg width="24" height="24" viewBox="0 0 24 24" fill="none" xmlns="http://www.w3.org/2000/svg">
<path d="M4.91307 2.66287C6.9877 2.39352 9.10296 2.25464 11.2503 2.25464C13.3974 2.25464 15.5124 2.39349 17.5869 2.66279C19.5091 2.91233 20.8783 4.52401 20.9923 6.38958C20.6665 6.28078 20.3212 6.2086 19.96 6.17863C18.5715 6.06338 17.1673 6.00464 15.75 6.00464C14.3326 6.00464 12.9285 6.06337 11.54 6.17862C9.1817 6.37435 7.5 8.36931 7.5 10.6129V14.8983C7.5 16.589 8.45468 18.1373 9.9328 18.8825L7.28033 21.535C7.06583 21.7495 6.74324 21.8136 6.46299 21.6975C6.18273 21.5815 6 21.308 6 21.0046V16.9752C5.63649 16.9362 5.27417 16.8933 4.91308 16.8464C2.90466 16.5857 1.5 14.8379 1.5 12.8673V6.64202C1.5 4.67136 2.90466 2.92362 4.91307 2.66287Z" fill="#111827"/>
<path d="M15.75 7.50464C14.3741 7.50464 13.0114 7.56166 11.6641 7.67348C10.1248 7.80124 9 9.10745 9 10.6129V14.8983C9 16.406 10.128 17.713 11.6692 17.8388C12.9131 17.9403 14.17 17.9958 15.4384 18.0037L18.2197 20.785C18.4342 20.9995 18.7568 21.0636 19.037 20.9475C19.3173 20.8315 19.5 20.558 19.5 20.2546V17.8647C19.6103 17.8565 19.7206 17.8479 19.8307 17.8389C21.372 17.7131 22.5 16.4061 22.5 14.8984V10.6129C22.5 9.10746 21.3752 7.80125 19.836 7.67349C18.4886 7.56166 17.1259 7.50464 15.75 7.50464Z" fill="#111827"/>
</svg>
