<svg width="24" height="24" viewBox="0 0 24 24" fill="none" xmlns="http://www.w3.org/2000/svg">
    <path fill-rule="evenodd" clip-rule="evenodd"
          d="M4.80365 21.6489C4.9793 21.6803 5.15732 21.7049 5.33691 21.7224C5.55516 21.7438 5.77647 21.7546 6 21.7546C7.3153 21.7546 8.54447 21.3777 9.58317 20.726C10.3569 20.9081 11.1668 21.0046 12 21.0046C17.322 21.0046 21.75 17.0353 21.75 12.0046C21.75 6.97398 17.322 3.00464 12 3.00464C6.67799 3.00464 2.25 6.97398 2.25 12.0046C2.25 14.4132 3.2746 16.5918 4.92371 18.197C5.15571 18.4228 5.20107 18.6243 5.17822 18.7395C5.05254 19.3731 4.76687 19.9498 4.36357 20.4258C4.19016 20.6304 4.13927 20.9121 4.23008 21.1645C4.3209 21.4169 4.5396 21.6016 4.80365 21.6489ZM8.25 10.8796C7.62868 10.8796 7.125 11.3833 7.125 12.0046C7.125 12.626 7.62868 13.1296 8.25 13.1296C8.87132 13.1296 9.375 12.626 9.375 12.0046C9.375 11.3833 8.87132 10.8796 8.25 10.8796ZM10.875 12.0046C10.875 11.3833 11.3787 10.8796 12 10.8796C12.6213 10.8796 13.125 11.3833 13.125 12.0046C13.125 12.626 12.6213 13.1296 12 13.1296C11.3787 13.1296 10.875 12.626 10.875 12.0046ZM15.75 10.8796C15.1287 10.8796 14.625 11.3833 14.625 12.0046C14.625 12.626 15.1287 13.1296 15.75 13.1296C16.3713 13.1296 16.875 12.626 16.875 12.0046C16.875 11.3833 16.3713 10.8796 15.75 10.8796Z"
          fill="#111827"/>
</svg>
