<svg width="24" height="24" viewBox="0 0 24 24" fill="none" xmlns="http://www.w3.org/2000/svg">
    <path fill-rule="evenodd" clip-rule="evenodd"
          d="M11.4697 4.72431C11.7626 4.43142 12.2374 4.43142 12.5303 4.72431L16.2803 8.47431C16.5732 8.7672 16.5732 9.24208 16.2803 9.53497C15.9874 9.82786 15.5126 9.82786 15.2197 9.53497L12 6.3153L8.78033 9.53497C8.48744 9.82786 8.01256 9.82786 7.71967 9.53497C7.42678 9.24207 7.42678 8.7672 7.71967 8.47431L11.4697 4.72431ZM7.71967 14.4743C8.01256 14.1814 8.48744 14.1814 8.78033 14.4743L12 17.694L15.2197 14.4743C15.5126 14.1814 15.9874 14.1814 16.2803 14.4743C16.5732 14.7672 16.5732 15.2421 16.2803 15.535L12.5303 19.285C12.2374 19.5779 11.7626 19.5779 11.4697 19.285L7.71967 15.535C7.42678 15.2421 7.42678 14.7672 7.71967 14.4743Z"
          fill="#111827"/>
</svg>
