<svg width="24" height="24" viewBox="0 0 24 24" fill="none" xmlns="http://www.w3.org/2000/svg">
    <path fill-rule="evenodd" clip-rule="evenodd"
          d="M11.4697 13.285C11.7626 13.5779 12.2374 13.5779 12.5303 13.285L20.0303 5.78497C20.3232 5.49207 20.3232 5.0172 20.0303 4.72431C19.7374 4.43142 19.2626 4.43142 18.9697 4.72431L12 11.694L5.03033 4.72431C4.73744 4.43142 4.26256 4.43142 3.96967 4.72431C3.67678 5.0172 3.67678 5.49207 3.96967 5.78497L11.4697 13.285Z"
          fill="#111827"/>
    <path fill-rule="evenodd" clip-rule="evenodd"
          d="M11.4697 19.285C11.7626 19.5779 12.2374 19.5779 12.5303 19.285L20.0303 11.785C20.3232 11.4921 20.3232 11.0172 20.0303 10.7243C19.7374 10.4314 19.2626 10.4314 18.9697 10.7243L12 17.694L5.03033 10.7243C4.73744 10.4314 4.26256 10.4314 3.96967 10.7243C3.67678 11.0172 3.67678 11.4921 3.96967 11.785L11.4697 19.285Z"
          fill="#111827"/>
</svg>
