<svg width="24" height="24" viewBox="0 0 24 24" fill="none" xmlns="http://www.w3.org/2000/svg">
<path fill-rule="evenodd" clip-rule="evenodd" d="M13.2803 11.4743C13.5732 11.7672 13.5732 12.2421 13.2803 12.535L5.78033 20.035C5.48744 20.3279 5.01256 20.3279 4.71967 20.035C4.42678 19.7421 4.42678 19.2672 4.71967 18.9743L11.6893 12.0046L4.71967 5.03497C4.42678 4.74208 4.42678 4.2672 4.71967 3.97431C5.01256 3.68142 5.48744 3.68142 5.78033 3.97431L13.2803 11.4743Z" fill="#111827"/>
<path fill-rule="evenodd" clip-rule="evenodd" d="M19.2803 11.4743C19.5732 11.7672 19.5732 12.2421 19.2803 12.535L11.7803 20.035C11.4874 20.3279 11.0126 20.3279 10.7197 20.035C10.4268 19.7421 10.4268 19.2672 10.7197 18.9743L17.6893 12.0046L10.7197 5.03497C10.4268 4.74208 10.4268 4.2672 10.7197 3.97431C11.0126 3.68142 11.4874 3.68142 11.7803 3.97431L19.2803 11.4743Z" fill="#111827"/>
</svg>
