<svg width="24" height="24" viewBox="0 0 24 24" fill="none" xmlns="http://www.w3.org/2000/svg">
    <path fill-rule="evenodd" clip-rule="evenodd"
          d="M10.7197 11.4743C10.4268 11.7672 10.4268 12.2421 10.7197 12.535L18.2197 20.035C18.5126 20.3279 18.9874 20.3279 19.2803 20.035C19.5732 19.7421 19.5732 19.2672 19.2803 18.9743L12.3107 12.0046L19.2803 5.03497C19.5732 4.74208 19.5732 4.2672 19.2803 3.97431C18.9874 3.68142 18.5126 3.68142 18.2197 3.97431L10.7197 11.4743Z"
          fill="#111827"/>
    <path fill-rule="evenodd" clip-rule="evenodd"
          d="M4.71967 11.4743C4.42678 11.7672 4.42678 12.2421 4.71967 12.535L12.2197 20.035C12.5126 20.3279 12.9874 20.3279 13.2803 20.035C13.5732 19.7421 13.5732 19.2672 13.2803 18.9743L6.31066 12.0046L13.2803 5.03497C13.5732 4.74208 13.5732 4.2672 13.2803 3.97431C12.9874 3.68142 12.5126 3.68142 12.2197 3.97431L4.71967 11.4743Z"
          fill="#111827"/>
</svg>
