<svg width="24" height="24" viewBox="0 0 24 24" fill="none" xmlns="http://www.w3.org/2000/svg">
<path d="M21 6.37964C21 9.07203 16.9706 11.2546 12 11.2546C7.02944 11.2546 3 9.07203 3 6.37964C3 3.68725 7.02944 1.50464 12 1.50464C16.9706 1.50464 21 3.68725 21 6.37964Z" fill="#111827"/>
<path d="M12 12.7546C14.6852 12.7546 17.1905 12.1683 19.0784 11.1457C19.7684 10.772 20.4248 10.309 20.9747 9.76138C20.9915 9.88294 21 10.0058 21 10.1296C21 12.822 16.9706 15.0046 12 15.0046C7.02944 15.0046 3 12.822 3 10.1296C3 10.0058 3.00853 9.88294 3.02529 9.76138C3.57523 10.309 4.23162 10.772 4.92161 11.1457C6.80949 12.1683 9.31481 12.7546 12 12.7546Z" fill="#111827"/>
<path d="M12 16.5046C14.6852 16.5046 17.1905 15.9183 19.0784 14.8957C19.7684 14.522 20.4248 14.059 20.9747 13.5114C20.9915 13.6329 21 13.7557 21 13.8796C21 16.572 16.9706 18.7546 12 18.7546C7.02944 18.7546 3 16.572 3 13.8796C3 13.7557 3.00853 13.6329 3.02529 13.5114C3.57523 14.059 4.23162 14.522 4.92161 14.8957C6.80949 15.9183 9.31481 16.5046 12 16.5046Z" fill="#111827"/>
<path d="M12 20.2546C14.6852 20.2546 17.1905 19.6683 19.0784 18.6457C19.7684 18.272 20.4248 17.809 20.9747 17.2614C20.9915 17.3829 21 17.5057 21 17.6296C21 20.322 16.9706 22.5046 12 22.5046C7.02944 22.5046 3 20.322 3 17.6296C3 17.5057 3.00853 17.3829 3.02529 17.2614C3.57523 17.809 4.23162 18.272 4.92161 18.6457C6.80949 19.6683 9.31481 20.2546 12 20.2546Z" fill="#111827"/>
</svg>
