<svg width="24" height="24" viewBox="0 0 24 24" fill="none" xmlns="http://www.w3.org/2000/svg">
<path fill-rule="evenodd" clip-rule="evenodd" d="M7.50183 6.00463H11.2477L11.25 6.00464H14.6299C16.4915 6.00732 17.9999 7.51733 17.9999 9.37963V18.7546C19.6567 18.7546 20.9999 17.4115 20.9999 15.7546V6.11285C20.9999 4.60746 19.8751 3.30124 18.3358 3.17348C18.1121 3.15491 17.8879 3.13785 17.6632 3.12231C17.1633 2.16111 16.1583 1.50464 15 1.50464H13.5C12.3417 1.50464 11.3367 2.16111 10.8368 3.12229C10.6121 3.13783 10.3878 3.1549 10.1639 3.17348C8.66165 3.29817 7.55421 4.54533 7.50183 6.00463ZM13.5 3.00464C12.6716 3.00464 12 3.67621 12 4.50464H16.5C16.5 3.67621 15.8284 3.00464 15 3.00464H13.5Z" fill="#111827"/>
<path fill-rule="evenodd" clip-rule="evenodd" d="M3 9.37964C3 8.3441 3.83947 7.50464 4.875 7.50464H14.625C15.6605 7.50464 16.5 8.3441 16.5 9.37964V20.6296C16.5 21.6652 15.6605 22.5046 14.625 22.5046H4.875C3.83947 22.5046 3 21.6652 3 20.6296V9.37964ZM12.5857 13.9732C12.8444 13.6497 12.792 13.1777 12.4685 12.919C12.1451 12.6602 11.6731 12.7127 11.4143 13.0361L8.93781 16.1318L8.03033 15.2243C7.73744 14.9314 7.26256 14.9314 6.96967 15.2243C6.67678 15.5172 6.67678 15.9921 6.96967 16.285L8.46967 17.785C8.62052 17.9358 8.82847 18.0153 9.04148 18.0035C9.25448 17.9917 9.45238 17.8897 9.58565 17.7232L12.5857 13.9732Z" fill="#111827"/>
</svg>
