<svg width="24" height="24" viewBox="0 0 24 24" fill="none" xmlns="http://www.w3.org/2000/svg">
<path fill-rule="evenodd" clip-rule="evenodd" d="M17.6633 3.12229C17.8879 3.13783 18.1122 3.1549 18.336 3.17347C19.8753 3.30123 21 4.60745 21 6.11285V15.7546C21 17.4115 19.6569 18.7546 18 18.7546V16.5046C18 10.5827 13.4244 5.72948 7.61572 5.28745C7.93989 4.1559 8.91565 3.27709 10.1641 3.17347C10.3879 3.1549 10.6121 3.13783 10.8368 3.12229C11.3367 2.16111 12.3417 1.50464 13.5 1.50464H15C16.1584 1.50464 17.1634 2.16111 17.6633 3.12229ZM12 4.50464C12 3.67621 12.6716 3.00464 13.5 3.00464H15C15.8285 3.00464 16.5 3.67621 16.5 4.50464H12Z" fill="#111827"/>
<path d="M3 8.62964C3 7.5941 3.83947 6.75464 4.875 6.75464H5.25C7.32107 6.75464 9 8.43357 9 10.5046V12.3796C9 13.4152 9.83947 14.2546 10.875 14.2546H12.75C14.8211 14.2546 16.5 15.9336 16.5 18.0046V20.6296C16.5 21.6652 15.6605 22.5046 14.625 22.5046H4.875C3.83947 22.5046 3 21.6652 3 20.6296V8.62964Z" fill="#111827"/>
<path d="M10.5 10.5046C10.5 9.19159 10.018 7.99112 9.22119 7.07054C12.6201 7.95841 15.2962 10.6345 16.1841 14.0334C15.2635 13.2367 14.0631 12.7546 12.75 12.7546H10.875C10.6679 12.7546 10.5 12.5867 10.5 12.3796V10.5046Z" fill="#111827"/>
</svg>
