<svg width="24" height="24" viewBox="0 0 24 24" fill="none" xmlns="http://www.w3.org/2000/svg">
<path fill-rule="evenodd" clip-rule="evenodd" d="M7.50183 6.00463H11.2477L11.25 6.00464H14.6299C16.4915 6.00732 17.9999 7.51733 17.9999 9.37963V18.7546C19.6567 18.7546 20.9999 17.4115 20.9999 15.7546V6.11285C20.9999 4.60746 19.8751 3.30124 18.3358 3.17348C18.1121 3.15491 17.8879 3.13785 17.6632 3.12231C17.1633 2.16111 16.1583 1.50464 15 1.50464H13.5C12.3417 1.50464 11.3367 2.16111 10.8368 3.12229C10.6121 3.13783 10.3878 3.1549 10.1639 3.17348C8.66165 3.29817 7.55421 4.54533 7.50183 6.00463ZM13.5 3.00464C12.6716 3.00464 12 3.67621 12 4.50464H16.5C16.5 3.67621 15.8284 3.00464 15 3.00464H13.5Z" fill="#111827"/>
<path fill-rule="evenodd" clip-rule="evenodd" d="M3 9.37964C3 8.3441 3.83947 7.50464 4.875 7.50464H14.625C15.6605 7.50464 16.5 8.3441 16.5 9.37964V20.6296C16.5 21.6652 15.6605 22.5046 14.625 22.5046H4.875C3.83947 22.5046 3 21.6652 3 20.6296V9.37964ZM6 12.0046C6 11.5904 6.33579 11.2546 6.75 11.2546H6.7575C7.17171 11.2546 7.5075 11.5904 7.5075 12.0046V12.0121C7.5075 12.4264 7.17171 12.7621 6.7575 12.7621H6.75C6.33579 12.7621 6 12.4264 6 12.0121V12.0046ZM8.25 12.0046C8.25 11.5904 8.58579 11.2546 9 11.2546H12.75C13.1642 11.2546 13.5 11.5904 13.5 12.0046C13.5 12.4189 13.1642 12.7546 12.75 12.7546H9C8.58579 12.7546 8.25 12.4189 8.25 12.0046ZM6 15.0046C6 14.5904 6.33579 14.2546 6.75 14.2546H6.7575C7.17171 14.2546 7.5075 14.5904 7.5075 15.0046V15.0121C7.5075 15.4264 7.17171 15.7621 6.7575 15.7621H6.75C6.33579 15.7621 6 15.4264 6 15.0121V15.0046ZM8.25 15.0046C8.25 14.5904 8.58579 14.2546 9 14.2546H12.75C13.1642 14.2546 13.5 14.5904 13.5 15.0046C13.5 15.4189 13.1642 15.7546 12.75 15.7546H9C8.58579 15.7546 8.25 15.4189 8.25 15.0046ZM6 18.0046C6 17.5904 6.33579 17.2546 6.75 17.2546H6.7575C7.17171 17.2546 7.5075 17.5904 7.5075 18.0046V18.0121C7.5075 18.4264 7.17171 18.7621 6.7575 18.7621H6.75C6.33579 18.7621 6 18.4264 6 18.0121V18.0046ZM8.25 18.0046C8.25 17.5904 8.58579 17.2546 9 17.2546H12.75C13.1642 17.2546 13.5 17.5904 13.5 18.0046C13.5 18.4189 13.1642 18.7546 12.75 18.7546H9C8.58579 18.7546 8.25 18.4189 8.25 18.0046Z" fill="#111827"/>
</svg>
