<svg width="24" height="24" viewBox="0 0 24 24" fill="none" xmlns="http://www.w3.org/2000/svg">
<path fill-rule="evenodd" clip-rule="evenodd" d="M10.5 3.75464C7.18629 3.75464 4.5 6.44093 4.5 9.75464C4.5 9.92149 4.50683 10.0869 4.52024 10.2505C2.73627 11.0887 1.5 12.9015 1.5 15.0046C1.5 17.9041 3.85051 20.2546 6.75 20.2546H18C20.4853 20.2546 22.5 18.2399 22.5 15.7546C22.5 14.0699 21.5744 12.6028 20.2058 11.8316C20.2349 11.6433 20.25 11.4506 20.25 11.2546C20.25 9.18357 18.5711 7.50464 16.5 7.50464C16.3559 7.50464 16.2135 7.5128 16.0733 7.52872C15.1893 5.31746 13.028 3.75464 10.5 3.75464ZM12.75 9.75464C12.75 9.34042 12.4142 9.00464 12 9.00464C11.5858 9.00464 11.25 9.34042 11.25 9.75464V14.694L9.53033 12.9743C9.23744 12.6814 8.76256 12.6814 8.46967 12.9743C8.17678 13.2672 8.17678 13.7421 8.46967 14.035L11.4697 17.035C11.7626 17.3279 12.2374 17.3279 12.5303 17.035L15.5303 14.035C15.8232 13.7421 15.8232 13.2672 15.5303 12.9743C15.2374 12.6814 14.7626 12.6814 14.4697 12.9743L12.75 14.694V9.75464Z" fill="#111827"/>
</svg>
