<svg width="24" height="24" viewBox="0 0 24 24" fill="none" xmlns="http://www.w3.org/2000/svg">
<path fill-rule="evenodd" clip-rule="evenodd" d="M10.5 3.75464C7.18629 3.75464 4.5 6.44093 4.5 9.75464C4.5 9.92149 4.50683 10.0869 4.52024 10.2505C2.73627 11.0887 1.5 12.9015 1.5 15.0046C1.5 17.9041 3.85051 20.2546 6.75 20.2546H18C20.4853 20.2546 22.5 18.2399 22.5 15.7546C22.5 14.0699 21.5744 12.6028 20.2058 11.8316C20.2349 11.6433 20.25 11.4506 20.25 11.2546C20.25 9.18357 18.5711 7.50464 16.5 7.50464C16.3559 7.50464 16.2135 7.5128 16.0733 7.52872C15.1893 5.31746 13.028 3.75464 10.5 3.75464ZM12.5303 9.22431C12.2374 8.93142 11.7626 8.93142 11.4697 9.22431L8.46967 12.2243C8.17678 12.5172 8.17678 12.9921 8.46967 13.285C8.76256 13.5779 9.23744 13.5779 9.53033 13.285L11.25 11.5653L11.25 16.5046C11.25 16.9189 11.5858 17.2546 12 17.2546C12.4142 17.2546 12.75 16.9189 12.75 16.5046V11.5653L14.4697 13.285C14.7626 13.5779 15.2374 13.5779 15.5303 13.285C15.8232 12.9921 15.8232 12.5172 15.5303 12.2243L12.5303 9.22431Z" fill="#111827"/>
</svg>
