<svg width="24" height="24" viewBox="0 0 24 24" fill="none" xmlns="http://www.w3.org/2000/svg">
<path fill-rule="evenodd" clip-rule="evenodd" d="M4.5 9.75464C4.5 6.44093 7.18629 3.75464 10.5 3.75464C13.028 3.75464 15.1893 5.31746 16.0733 7.52872C16.2135 7.5128 16.3559 7.50464 16.5 7.50464C18.5711 7.50464 20.25 9.18357 20.25 11.2546C20.25 11.4506 20.2349 11.6433 20.2058 11.8316C21.5744 12.6028 22.5 14.0699 22.5 15.7546C22.5 18.2399 20.4853 20.2546 18 20.2546H6.75C3.85051 20.2546 1.5 17.9041 1.5 15.0046C1.5 12.9015 2.73627 11.0887 4.52024 10.2505C4.50683 10.0869 4.5 9.92149 4.5 9.75464Z" fill="#111827"/>
</svg>
