<svg width="24" height="24" viewBox="0 0 24 24" fill="none" xmlns="http://www.w3.org/2000/svg">
<path fill-rule="evenodd" clip-rule="evenodd" d="M11.0779 2.25464C10.1613 2.25464 9.37909 2.91729 9.22841 3.82139L9.04974 4.89337C9.02959 5.01428 8.93542 5.15443 8.75311 5.2421C8.40905 5.40756 8.07967 5.59843 7.7674 5.81224C7.60091 5.92623 7.43259 5.93784 7.31769 5.89479L6.29851 5.51297C5.44019 5.19142 4.4752 5.53752 4.01692 6.3313L3.09493 7.92822C2.63665 8.722 2.8194 9.73075 3.52704 10.3133L4.36756 11.0052C4.46219 11.0831 4.53629 11.2345 4.52119 11.4354C4.50706 11.6234 4.49988 11.8133 4.49988 12.0046C4.49988 12.1961 4.50707 12.386 4.52121 12.5741C4.53632 12.775 4.46221 12.9264 4.36758 13.0043L3.52704 13.6962C2.8194 14.2788 2.63665 15.2875 3.09493 16.0813L4.01692 17.6782C4.4752 18.472 5.44019 18.8181 6.29851 18.4965L7.31791 18.1146C7.43281 18.0716 7.60113 18.0832 7.76761 18.1972C8.07982 18.4109 8.40913 18.6018 8.75311 18.7672C8.93542 18.8548 9.02959 18.995 9.04974 19.1159L9.22841 20.1879C9.37909 21.092 10.1613 21.7546 11.0779 21.7546H12.9219C13.8384 21.7546 14.6207 21.092 14.7713 20.1879L14.95 19.1159C14.9702 18.995 15.0643 18.8548 15.2466 18.7672C15.5907 18.6017 15.9201 18.4108 16.2324 18.197C16.3988 18.083 16.5672 18.0714 16.6821 18.1145L17.7012 18.4963C18.5596 18.8179 19.5246 18.4718 19.9828 17.678L20.9048 16.0811C21.3631 15.2873 21.1804 14.2785 20.4727 13.696L19.6322 13.004C19.5376 12.9261 19.4635 12.7748 19.4786 12.5739C19.4927 12.3859 19.4999 12.196 19.4999 12.0046C19.4999 11.8132 19.4927 11.6233 19.4785 11.4351C19.4634 11.2342 19.5375 11.0829 19.6322 11.005L20.4727 10.3131C21.1804 9.73051 21.3631 8.72175 20.9048 7.92798L19.9828 6.33106C19.5246 5.53728 18.5596 5.19117 17.7012 5.51273L16.6818 5.89463C16.5669 5.93768 16.3986 5.92608 16.2321 5.8121C15.9199 5.59835 15.5906 5.40752 15.2466 5.24211C15.0643 5.15443 14.9702 5.01428 14.95 4.89337L14.7713 3.82139C14.6207 2.91729 13.8384 2.25464 12.9219 2.25464H11.0779ZM12 15.7546C14.0711 15.7546 15.75 14.0757 15.75 12.0046C15.75 9.93357 14.0711 8.25464 12 8.25464C9.92893 8.25464 8.25 9.93357 8.25 12.0046C8.25 14.0757 9.92893 15.7546 12 15.7546Z" fill="#111827"/>
</svg>
