<svg width="24" height="24" viewBox="0 0 24 24" fill="none" xmlns="http://www.w3.org/2000/svg">
<path d="M17.0039 10.4113C17.1423 10.8463 16.7882 11.2538 16.3317 11.2538H12.8667C12.5988 11.2538 12.3512 11.1108 12.2172 10.8788L10.4845 7.87788C10.2561 7.48229 10.4321 6.97174 10.8784 6.87461C11.2398 6.79597 11.6151 6.75454 12 6.75454C14.344 6.75454 16.3293 8.29074 17.0039 10.4113Z" fill="#111827"/>
<path d="M8.11938 8.46849C8.42728 8.13078 8.95767 8.23342 9.18619 8.62918L10.9182 11.6288C11.0522 11.8608 11.0522 12.1467 10.9182 12.3788L9.18577 15.3794C8.95726 15.7752 8.42679 15.8779 8.11891 15.5401C7.26853 14.6071 6.75 13.3664 6.75 12.0045C6.75 10.6425 7.26872 9.40151 8.11938 8.46849Z" fill="#111827"/>
<path d="M10.8778 17.1343C10.4315 17.0371 10.2555 16.5266 10.4839 16.1311L12.2172 13.1288C12.3512 12.8967 12.5988 12.7538 12.8668 12.7538H16.3322C16.7886 12.7538 17.1426 13.1611 17.0044 13.5961C16.3304 15.7175 14.3447 17.2545 12 17.2545C11.6148 17.2545 11.2393 17.2131 10.8778 17.1343Z" fill="#111827"/>
<path fill-rule="evenodd" clip-rule="evenodd" d="M21.0007 12.7538C21.4149 12.7538 21.7507 12.418 21.7507 12.0038C21.7507 11.5896 21.4149 11.2538 21.0007 11.2538H20.2171C20.1753 10.7896 20.095 10.3366 19.9795 9.8978L20.7143 9.63037C21.1035 9.4887 21.3042 9.05831 21.1625 8.66908C21.0209 8.27985 20.5905 8.07916 20.2012 8.22083L19.4664 8.48829C19.2695 8.07087 19.0386 7.67262 18.7773 7.29712L19.3771 6.79384C19.6944 6.52759 19.7358 6.05452 19.4695 5.73722C19.2033 5.41991 18.7302 5.37852 18.4129 5.64477L17.8126 6.14848C17.4869 5.8252 17.1344 5.52891 16.7588 5.26324L17.1502 4.58532C17.3573 4.2266 17.2344 3.76791 16.8756 3.5608C16.5169 3.3537 16.0582 3.4766 15.8511 3.83532L15.4604 4.51205C15.0465 4.32058 14.614 4.1624 14.1664 4.04096L14.3021 3.27148C14.374 2.86355 14.1016 2.47456 13.6937 2.40263C13.2858 2.33071 12.8968 2.60308 12.8249 3.011L12.6889 3.78207C12.462 3.76333 12.2325 3.75378 12.0007 3.75378C11.769 3.75378 11.5394 3.76335 11.3124 3.78212L11.1764 3.01104C11.1045 2.60312 10.7155 2.33075 10.3076 2.40267C9.89966 2.4746 9.62728 2.8636 9.69921 3.27152L9.83492 4.04119C9.38749 4.16263 8.95506 4.32078 8.54113 4.51222L8.15018 3.83514C7.94306 3.47643 7.48436 3.35354 7.12565 3.56066C6.76694 3.76778 6.64405 4.22648 6.85117 4.58519L7.24273 5.26333C6.86722 5.52887 6.51483 5.82505 6.18921 6.14826L5.58845 5.64415C5.27114 5.3779 4.79807 5.41929 4.53182 5.7366C4.26557 6.0539 4.30696 6.52697 4.62426 6.79322L5.22448 7.29687C4.96309 7.67248 4.73209 8.07088 4.53509 8.48851L3.80006 8.22098C3.41082 8.07931 2.98044 8.28 2.83877 8.66923C2.6971 9.05847 2.89779 9.48885 3.28703 9.63052L4.02196 9.89801C3.90647 10.3367 3.8262 10.7897 3.78437 11.2538H3.00073C2.58652 11.2538 2.25073 11.5896 2.25073 12.0038C2.25073 12.418 2.58652 12.7538 3.00073 12.7538H3.78437C3.82619 13.2179 3.90644 13.6709 4.02192 14.1096L3.28678 14.3772C2.89755 14.5189 2.69685 14.9492 2.83852 15.3385C2.98019 15.7277 3.41058 15.9284 3.79981 15.7867L4.53502 15.5191C4.73205 15.9368 4.9631 16.3353 5.22461 16.7111L4.62411 17.215C4.30681 17.4812 4.26542 17.9543 4.53167 18.2716C4.79792 18.5889 5.27099 18.6303 5.58829 18.364L6.1894 17.8596C6.51507 18.1828 6.86754 18.4791 7.2432 18.7447L6.85112 19.4238C6.64401 19.7825 6.76692 20.2412 7.12564 20.4483C7.48436 20.6554 7.94305 20.5325 8.15016 20.1738L8.54161 19.4958C8.9554 19.6871 9.38772 19.8452 9.83514 19.9666L9.6992 20.7375C9.62727 21.1455 9.89965 21.5345 10.3076 21.6064C10.7155 21.6783 11.1045 21.4059 11.1764 20.998L11.3126 20.2255C11.5395 20.2442 11.769 20.2538 12.0007 20.2538C12.2324 20.2538 12.4618 20.2442 12.6887 20.2255L12.8249 20.9981C12.8968 21.406 13.2858 21.6784 13.6937 21.6064C14.1016 21.5345 14.374 21.1455 14.3021 20.7376L14.1662 19.9667C14.6136 19.8453 15.046 19.6872 15.4598 19.4958L15.8512 20.1736C16.0583 20.5323 16.517 20.6553 16.8757 20.4481C17.2344 20.241 17.3573 19.7823 17.1502 19.4236L16.7582 18.7447C17.134 18.479 17.4866 18.1827 17.8123 17.8593L18.4131 18.3634C18.7304 18.6297 19.2034 18.5883 19.4697 18.271C19.7359 17.9537 19.6946 17.4806 19.3772 17.2143L18.7771 16.7107C19.0385 16.3352 19.2694 15.9368 19.4664 15.5193L20.2015 15.7869C20.5907 15.9286 21.0211 15.7279 21.1628 15.3386C21.3044 14.9494 21.1038 14.519 20.7145 14.3773L19.9795 14.1098C20.095 13.671 20.1753 13.2179 20.2171 12.7538H21.0007ZM18.3435 9.69514C18.3374 9.67851 18.332 9.66181 18.3272 9.64506C18.0593 8.92701 17.6728 8.26683 17.1913 7.68839C17.1846 7.68095 17.1779 7.67335 17.1714 7.66558C17.165 7.65797 17.1588 7.65028 17.1528 7.6425C16.6625 7.06394 16.0766 6.56904 15.4194 6.18227C15.4046 6.175 15.3901 6.16721 15.3756 6.15888C15.3608 6.15033 15.3464 6.14134 15.3324 6.13195C14.6882 5.76563 13.9778 5.50228 13.2236 5.36426C13.2067 5.36245 13.1897 5.36005 13.1728 5.35706C13.1563 5.35416 13.1401 5.35074 13.1241 5.34683C12.7588 5.28563 12.3835 5.25378 12.0007 5.25378C11.6183 5.25378 11.2435 5.28551 10.8788 5.34648C10.8623 5.35055 10.8455 5.3541 10.8285 5.3571C10.8109 5.3602 10.7934 5.36266 10.7759 5.36449C10.005 5.5057 9.28044 5.77781 8.62548 6.15681C7.94757 6.54908 7.34445 7.05556 6.84231 7.64984C6.83827 7.65492 6.83415 7.65996 6.82995 7.66496C6.82783 7.6675 6.82568 7.67002 6.82353 7.67252C6.82127 7.67514 6.819 7.67774 6.81671 7.68032C6.33198 8.26089 5.94308 8.924 5.67409 9.64542C5.66929 9.6621 5.66388 9.67873 5.65785 9.69529C5.65182 9.71186 5.64527 9.72809 5.63822 9.74396C5.38727 10.4506 5.25073 11.2113 5.25073 12.0038C5.25073 12.7981 5.38795 13.5604 5.63997 14.2683C5.64626 14.2827 5.65215 14.2974 5.6576 14.3124C5.66305 14.3274 5.66799 14.3424 5.67243 14.3575C6.21997 15.829 7.26613 17.058 8.60555 17.839C8.60934 17.8411 8.61311 17.8431 8.61688 17.8452C8.6198 17.8469 8.62272 17.8485 8.62564 17.8502C8.63265 17.8543 8.63958 17.8584 8.64641 17.8627C9.3043 18.2401 10.0318 18.51 10.8049 18.6482C10.8128 18.6493 10.8207 18.6506 10.8285 18.652C10.8358 18.6533 10.8431 18.6546 10.8504 18.6561C11.2242 18.7203 11.6086 18.7538 12.0007 18.7538C12.3929 18.7538 12.7773 18.7203 13.1512 18.6561C13.1584 18.6546 13.1655 18.6533 13.1728 18.652C13.1805 18.6506 13.1883 18.6494 13.1961 18.6483C13.9675 18.5104 14.6935 18.2415 15.3503 17.8654C15.3586 17.8601 15.3671 17.855 15.3757 17.8501C15.3839 17.8453 15.3922 17.8407 15.4006 17.8363C16.07 17.4453 16.666 16.9423 17.163 16.353L17.1716 16.3426L17.1808 16.3318C17.6679 15.7494 18.0587 15.0836 18.3285 14.359C18.333 14.3434 18.3381 14.328 18.3437 14.3126C18.3493 14.2971 18.3554 14.282 18.3619 14.2671C18.6137 13.5596 18.7507 12.7977 18.7507 12.0038C18.7507 11.2112 18.6141 10.4506 18.3632 9.74409C18.3561 9.72812 18.3495 9.71181 18.3435 9.69514Z" fill="#111827"/>
</svg>
