<svg width="24" height="24" viewBox="0 0 24 24" fill="none" xmlns="http://www.w3.org/2000/svg">
<path fill-rule="evenodd" clip-rule="evenodd" d="M10.8743 5.24843C10.8743 4.62713 11.378 4.12335 11.9994 4.12335C12.6207 4.12335 13.1244 4.62713 13.1244 5.24843C13.1244 5.86973 12.6207 6.3735 11.9994 6.3735C11.378 6.3735 10.8743 5.86973 10.8743 5.24843ZM3.74918 11.9987C3.74918 11.5844 4.08497 11.2486 4.49919 11.2486H19.4989C19.9131 11.2486 20.2489 11.5844 20.2489 11.9987C20.2489 12.4129 19.9131 12.7487 19.4989 12.7487H4.49919C4.08497 12.7487 3.74918 12.4129 3.74918 11.9987ZM10.875 18.7513C10.875 18.13 11.3786 17.6262 12 17.6262C12.6214 17.6262 13.125 18.13 13.125 18.7513C13.125 19.3726 12.6214 19.8764 12 19.8764C11.3786 19.8764 10.875 19.3726 10.875 18.7513Z" fill="#111827"/>
</svg>
