<svg width="24" height="24" viewBox="0 0 24 24" fill="none" xmlns="http://www.w3.org/2000/svg">
<path fill-rule="evenodd" clip-rule="evenodd" d="M3.75 3.37732C3.75 2.34178 4.58947 1.50232 5.625 1.50232H9C11.0711 1.50232 12.75 3.18125 12.75 5.25232V7.12732C12.75 8.16285 13.5895 9.00232 14.625 9.00232H16.5C18.5711 9.00232 20.25 10.6813 20.25 12.7523V20.6273C20.25 21.6629 19.4105 22.5023 18.375 22.5023H5.625C4.58947 22.5023 3.75 21.6629 3.75 20.6273V3.37732ZM11.2143 12.8192C11.6727 12.2462 12.233 12.0023 12.75 12.0023C13.267 12.0023 13.8273 12.2462 14.2857 12.8192C14.5444 13.1426 15.0164 13.1951 15.3398 12.9363C15.6633 12.6776 15.7157 12.2056 15.457 11.8821C14.7438 10.9907 13.7685 10.5023 12.75 10.5023C11.7315 10.5023 10.7562 10.9907 10.043 11.8821C9.74355 12.2565 9.50857 12.6784 9.33807 13.1273H8.25C7.83579 13.1273 7.5 13.4631 7.5 13.8773C7.5 14.2915 7.83579 14.6273 8.25 14.6273H9.01289C8.9957 14.8768 8.9957 15.1278 9.01289 15.3773H8.25C7.83579 15.3773 7.5 15.7131 7.5 16.1273C7.5 16.5415 7.83579 16.8773 8.25 16.8773H9.33807C9.50857 17.3263 9.74355 17.7481 10.043 18.1225C10.7562 19.0139 11.7315 19.5023 12.75 19.5023C13.7685 19.5023 14.7438 19.0139 15.457 18.1225C15.7157 17.799 15.6633 17.3271 15.3398 17.0683C15.0164 16.8096 14.5444 16.862 14.2857 17.1854C13.8273 17.7585 13.267 18.0023 12.75 18.0023C12.233 18.0023 11.6727 17.7585 11.2143 17.1854C11.1362 17.0878 11.0645 16.9848 10.9992 16.8773H12.75C13.1642 16.8773 13.5 16.5415 13.5 16.1273C13.5 15.7131 13.1642 15.3773 12.75 15.3773H10.5178C10.4941 15.1284 10.4941 14.8763 10.5178 14.6273H12.75C13.1642 14.6273 13.5 14.2915 13.5 13.8773C13.5 13.4631 13.1642 13.1273 12.75 13.1273H10.9992C11.0645 13.0198 11.1362 12.9168 11.2143 12.8192Z" fill="#111827"/>
<path d="M14.25 5.25232C14.25 3.93927 13.768 2.7388 12.9712 1.81822C16.3701 2.70609 19.0462 5.3822 19.9341 8.78113C19.0135 7.98436 17.8131 7.50232 16.5 7.50232H14.625C14.4179 7.50232 14.25 7.33443 14.25 7.12732V5.25232Z" fill="#111827"/>
</svg>
