<svg width="24" height="24" viewBox="0 0 24 24" fill="none" xmlns="http://www.w3.org/2000/svg">
<path fill-rule="evenodd" clip-rule="evenodd" d="M3.75 3.37732C3.75 2.34178 4.58947 1.50232 5.625 1.50232H9C11.0711 1.50232 12.75 3.18125 12.75 5.25232V7.12732C12.75 8.16285 13.5895 9.00232 14.625 9.00232H16.5C18.5711 9.00232 20.25 10.6813 20.25 12.7523V20.6273C20.25 21.6629 19.4105 22.5023 18.375 22.5023H5.625C4.58947 22.5023 3.75 21.6629 3.75 20.6273V3.37732ZM14.25 5.25232C14.25 3.93927 13.768 2.7388 12.9712 1.81822C16.3701 2.70609 19.0462 5.3822 19.9341 8.78113C19.0135 7.98436 17.8131 7.50232 16.5 7.50232H14.625C14.4179 7.50232 14.25 7.33443 14.25 7.12732V5.25232ZM12 10.5023C12.4142 10.5023 12.75 10.8381 12.75 11.2523V11.2808C13.3275 11.3247 13.8914 11.4191 14.4371 11.5595C14.8383 11.6628 15.0798 12.0717 14.9765 12.4728C14.8733 12.8739 14.4644 13.1154 14.0632 13.0122C13.6381 12.9028 13.1995 12.8263 12.75 12.7859V14.4665L13.7185 14.7985C14.3886 15.0283 15.0002 15.6474 15.0002 16.5023C15.0002 16.6599 14.9932 16.816 14.9795 16.9704C14.8971 17.9018 14.1491 18.5522 13.3111 18.6649C13.1256 18.6898 12.9385 18.7095 12.75 18.7239V18.7523C12.75 19.1665 12.4142 19.5023 12 19.5023C11.5858 19.5023 11.25 19.1665 11.25 18.7523V18.7239C10.6726 18.6799 10.1089 18.5855 9.56324 18.4451C9.1621 18.3419 8.92061 17.933 9.02385 17.5318C9.1271 17.1307 9.53599 16.8892 9.93713 16.9925C10.3621 17.1018 10.8007 17.1783 11.25 17.2187V15.538L10.2819 15.2061C9.61175 14.9764 9.00018 14.3572 9.00018 13.5023C9.00018 13.3447 9.00715 13.1886 9.02081 13.0342C9.10326 12.1028 9.85121 11.4525 10.6893 11.3398C10.8746 11.3148 11.0616 11.2951 11.25 11.2808V11.2523C11.25 10.8381 11.5858 10.5023 12 10.5023ZM10.8892 12.8264C11.0086 12.8103 11.1289 12.7968 11.25 12.7859V13.9523L10.7683 13.7872C10.5602 13.7158 10.5002 13.5759 10.5002 13.5023C10.5002 13.3889 10.5052 13.2769 10.515 13.1665C10.5279 13.0207 10.6555 12.8578 10.8892 12.8264ZM12.75 17.2188V16.0522L13.232 16.2175C13.4402 16.2888 13.5002 16.4287 13.5002 16.5023C13.5002 16.6157 13.4952 16.7277 13.4854 16.8382C13.4725 16.984 13.3448 17.1468 13.1112 17.1782C12.9916 17.1943 12.8712 17.2078 12.75 17.2188Z" fill="#111827"/>
</svg>
