<svg width="24" height="24" viewBox="0 0 24 24" fill="none" xmlns="http://www.w3.org/2000/svg">
<path fill-rule="evenodd" clip-rule="evenodd" d="M3.75 3.37732C3.75 2.34178 4.58947 1.50232 5.625 1.50232H9C11.0711 1.50232 12.75 3.18125 12.75 5.25232V7.12732C12.75 8.16285 13.5895 9.00232 14.625 9.00232H16.5C18.5711 9.00232 20.25 10.6813 20.25 12.7523V20.6273C20.25 21.6629 19.4105 22.5023 18.375 22.5023H5.625C4.58947 22.5023 3.75 21.6629 3.75 20.6273V3.37732ZM14.25 5.25232C14.25 3.93927 13.768 2.7388 12.9712 1.81822C16.3701 2.70609 19.0462 5.3822 19.9341 8.78113C19.0135 7.98436 17.8131 7.50232 16.5 7.50232H14.625C14.4179 7.50232 14.25 7.33443 14.25 7.12732V5.25232ZM10.5762 14.8349C10.3755 14.0823 10.571 13.2494 11.159 12.6613C12.0377 11.7826 13.4623 11.7826 14.341 12.6613C14.6339 12.9542 15.1088 12.9542 15.4017 12.6613C15.6945 12.3684 15.6945 11.8936 15.4017 11.6007C13.9372 10.1362 11.5628 10.1362 10.0983 11.6007C9.17361 12.5254 8.83365 13.8126 9.07544 15.0023H8.25C7.83579 15.0023 7.5 15.3381 7.5 15.7523C7.5 16.1665 7.83579 16.5023 8.25 16.5023H9.40607C9.4482 17.0281 9.37912 17.5595 9.20028 18.0611L9.04371 18.5003C8.94089 18.7887 9.0237 19.1106 9.25291 19.3136C9.48213 19.5166 9.81172 19.5599 10.0856 19.423L10.5249 19.2033C11.0261 18.9527 11.6064 18.9114 12.138 19.0887C13.047 19.3917 14.0392 19.3212 14.8962 18.8926L15.3356 18.673C15.7061 18.4877 15.8562 18.0372 15.671 17.6667C15.4857 17.2963 15.0352 17.1461 14.6647 17.3313L14.2254 17.551C13.7242 17.8016 13.144 17.8428 12.6123 17.6656C12.0453 17.4766 11.4459 17.433 10.8672 17.5308C10.9149 17.1902 10.9291 16.8457 10.9095 16.5023H12C12.4142 16.5023 12.75 16.1665 12.75 15.7523C12.75 15.3381 12.4142 15.0023 12 15.0023H10.6211L10.5763 14.8353L10.5762 14.8349Z" fill="#111827"/>
</svg>
