<svg width="24" height="24" viewBox="0 0 24 24" fill="none" xmlns="http://www.w3.org/2000/svg">
<path fill-rule="evenodd" clip-rule="evenodd" d="M3.75 3.37732C3.75 2.34178 4.58947 1.50232 5.625 1.50232H9C11.0711 1.50232 12.75 3.18125 12.75 5.25232V7.12732C12.75 8.16285 13.5895 9.00232 14.625 9.00232H16.5C18.5711 9.00232 20.25 10.6813 20.25 12.7523V20.6273C20.25 21.6629 19.4105 22.5023 18.375 22.5023H5.625C4.58947 22.5023 3.75 21.6629 3.75 20.6273V3.37732ZM14.25 5.25232C14.25 3.93927 13.768 2.7388 12.9712 1.81822C16.3701 2.70609 19.0462 5.3822 19.9341 8.78113C19.0135 7.98436 17.8131 7.50232 16.5 7.50232H14.625C14.4179 7.50232 14.25 7.33443 14.25 7.12732V5.25232ZM10.35 10.8024C10.1015 10.471 9.63141 10.4038 9.30004 10.6524C8.96867 10.9009 8.90152 11.371 9.15004 11.7024L11.0625 14.2524H9.75004C9.33583 14.2524 9.00004 14.5881 9.00004 15.0024C9.00004 15.4166 9.33583 15.7524 9.75004 15.7524H11.25V16.5024H9.75004C9.33583 16.5024 9.00004 16.8382 9.00004 17.2524C9.00004 17.6666 9.33583 18.0024 9.75004 18.0024H11.25V18.7524C11.25 19.1666 11.5858 19.5024 12 19.5024C12.4143 19.5024 12.75 19.1666 12.75 18.7524V18.0024H14.25C14.6643 18.0024 15 17.6666 15 17.2524C15 16.8382 14.6643 16.5024 14.25 16.5024H12.75V15.7524H14.25C14.6643 15.7524 15 15.4166 15 15.0024C15 14.5881 14.6643 14.2524 14.25 14.2524H12.9375L14.85 11.7024C15.0986 11.371 15.0314 10.9009 14.7 10.6524C14.3687 10.4038 13.8986 10.471 13.65 10.8024L12 13.0024L10.35 10.8024Z" fill="#111827"/>
</svg>
