<svg width="24" height="24" viewBox="0 0 24 24" fill="none" xmlns="http://www.w3.org/2000/svg">
<path fill-rule="evenodd" clip-rule="evenodd" d="M5.625 1.50232H9C11.0711 1.50232 12.75 3.18125 12.75 5.25232V7.12732C12.75 8.16285 13.5895 9.00232 14.625 9.00232H16.5C18.5711 9.00232 20.25 10.6813 20.25 12.7523V20.6273C20.25 21.6629 19.4105 22.5023 18.375 22.5023H5.625C4.58947 22.5023 3.75 21.6629 3.75 20.6273V3.37732C3.75 2.34178 4.58947 1.50232 5.625 1.50232ZM12.5303 11.472C12.3897 11.3313 12.1989 11.2523 12 11.2523C11.8011 11.2523 11.6103 11.3313 11.4697 11.472L8.46967 14.472C8.17678 14.7649 8.17678 15.2398 8.46967 15.5326C8.76256 15.8255 9.23744 15.8255 9.53033 15.5326L11.25 13.813L11.25 18.0023C11.25 18.4165 11.5858 18.7523 12 18.7523C12.4142 18.7523 12.75 18.4165 12.75 18.0023L12.75 13.813L14.4697 15.5326C14.7626 15.8255 15.2374 15.8255 15.5303 15.5326C15.8232 15.2398 15.8232 14.7649 15.5303 14.472L12.5303 11.472Z" fill="#111827"/>
<path d="M14.25 5.25232C14.25 3.93927 13.768 2.7388 12.9712 1.81822C16.3701 2.70609 19.0462 5.3822 19.9341 8.78113C19.0135 7.98436 17.8131 7.50232 16.5 7.50232H14.625C14.4179 7.50232 14.25 7.33443 14.25 7.12732V5.25232Z" fill="#111827"/>
</svg>
