<svg width="24" height="24" viewBox="0 0 24 24" fill="none" xmlns="http://www.w3.org/2000/svg">
<path fill-rule="evenodd" clip-rule="evenodd" d="M3.75 3.37732C3.75 2.34178 4.58947 1.50232 5.625 1.50232H9C11.0711 1.50232 12.75 3.18125 12.75 5.25232V7.12732C12.75 8.16285 13.5895 9.00232 14.625 9.00232H16.5C18.5711 9.00232 20.25 10.6813 20.25 12.7523V20.6273C20.25 21.6629 19.4105 22.5023 18.375 22.5023H5.625C4.58947 22.5023 3.75 21.6629 3.75 20.6273V3.37732ZM14.25 5.25232C14.25 3.93927 13.768 2.7388 12.9712 1.81822C16.3701 2.70609 19.0462 5.3822 19.9341 8.78113C19.0135 7.98436 17.8131 7.50232 16.5 7.50232H14.625C14.4179 7.50232 14.25 7.33443 14.25 7.12732V5.25232ZM10.5 10.8129C10.5 9.47659 8.88429 8.80734 7.93934 9.75228L7.71967 9.97195C7.42678 10.2648 7.42678 10.7397 7.71967 11.0326C8.01256 11.3255 8.48744 11.3255 8.78033 11.0326L9 10.8129L9 12.7524H8.25C7.83579 12.7524 7.5 13.0881 7.5 13.5024C7.5 13.9166 7.83579 14.2524 8.25 14.2524H9V17.2532C9 17.9234 9.30725 18.7052 10.0675 19.0672C10.6539 19.3464 11.3098 19.5023 12 19.5023C13.7911 19.5023 15.3364 18.4558 16.0604 16.9442C16.2935 16.4576 16.2019 15.9437 15.9247 15.5751C15.6576 15.2199 15.226 15.0024 14.7574 15.0024H14.25C13.8358 15.0024 13.5 15.3381 13.5 15.7524C13.5 16.1666 13.8358 16.5024 14.25 16.5024H14.5988C14.0793 17.4002 13.1093 18.0023 12 18.0023C11.5376 18.0023 11.1016 17.8982 10.7123 17.7129C10.6207 17.6692 10.5 17.5266 10.5 17.2532V14.2524H15.75C16.1642 14.2524 16.5 13.9166 16.5 13.5024C16.5 13.0881 16.1642 12.7524 15.75 12.7524H10.5V10.8129Z" fill="#111827"/>
</svg>
