<svg width="24" height="24" viewBox="0 0 24 24" fill="none" xmlns="http://www.w3.org/2000/svg">
    <path fill-rule="evenodd" clip-rule="evenodd"
          d="M5.625 1.50232H9C11.0711 1.50232 12.75 3.18125 12.75 5.25232V7.12732C12.75 8.16285 13.5895 9.00232 14.625 9.00232H16.5C18.5711 9.00232 20.25 10.6813 20.25 12.7523V20.6273C20.25 21.6629 19.4105 22.5023 18.375 22.5023H5.625C4.58947 22.5023 3.75 21.6629 3.75 20.6273V3.37732C3.75 2.34178 4.58947 1.50232 5.625 1.50232ZM9.75 14.2523C9.33579 14.2523 9 14.5881 9 15.0023C9 15.4165 9.33579 15.7523 9.75 15.7523H15C15.4142 15.7523 15.75 15.4165 15.75 15.0023C15.75 14.5881 15.4142 14.2523 15 14.2523H9.75Z"
          fill="#111827"/>
    <path d="M14.25 5.25232C14.25 3.93927 13.768 2.7388 12.9712 1.81822C16.3701 2.70609 19.0462 5.3822 19.9341 8.78113C19.0135 7.98436 17.8131 7.50232 16.5 7.50232H14.625C14.4179 7.50232 14.25 7.33443 14.25 7.12732V5.25232Z"
          fill="#111827"/>
</svg>
