<svg width="24" height="24" viewBox="0 0 24 24" fill="none" xmlns="http://www.w3.org/2000/svg">
<path d="M11.625 16.5023C12.6605 16.5023 13.5 15.6629 13.5 14.6273C13.5 13.5918 12.6605 12.7523 11.625 12.7523C10.5895 12.7523 9.75 13.5918 9.75 14.6273C9.75 15.6629 10.5895 16.5023 11.625 16.5023Z" fill="#111827"/>
<path fill-rule="evenodd" clip-rule="evenodd" d="M5.625 1.50232H9C11.0711 1.50232 12.75 3.18125 12.75 5.25232V7.12732C12.75 8.16285 13.5895 9.00232 14.625 9.00232H16.5C18.5711 9.00232 20.25 10.6813 20.25 12.7523V20.6273C20.25 21.6629 19.4105 22.5023 18.375 22.5023H5.625C4.58947 22.5023 3.75 21.6629 3.75 20.6273V3.37732C3.75 2.34178 4.58947 1.50232 5.625 1.50232ZM11.625 18.0023C12.2854 18.0023 12.9016 17.8126 13.4219 17.4847L14.4698 18.5327C14.7627 18.8256 15.2376 18.8256 15.5305 18.5327C15.8234 18.2398 15.8234 17.7649 15.5305 17.472L14.4825 16.424C14.8103 15.9038 15 15.2877 15 14.6273C15 12.7634 13.489 11.2523 11.625 11.2523C9.76104 11.2523 8.25 12.7634 8.25 14.6273C8.25 16.4913 9.76104 18.0023 11.625 18.0023Z" fill="#111827"/>
<path d="M14.25 5.25232C14.25 3.93927 13.768 2.7388 12.9712 1.81822C16.3701 2.70609 19.0462 5.3822 19.9341 8.78113C19.0135 7.98436 17.8131 7.50232 16.5 7.50232H14.625C14.4179 7.50232 14.25 7.33443 14.25 7.12732V5.25232Z" fill="#111827"/>
</svg>
