<svg width="24" height="24" viewBox="0 0 24 24" fill="none" xmlns="http://www.w3.org/2000/svg">
    <path d="M7.5 3.37732C7.5 2.34179 8.33947 1.50232 9.375 1.50232H9.75C11.8211 1.50232 13.5 3.18125 13.5 5.25232V7.12732C13.5 8.16285 14.3395 9.00232 15.375 9.00232H17.25C19.3211 9.00232 21 10.6813 21 12.7523V16.1273C21 17.1629 20.1605 18.0023 19.125 18.0023H9.375C8.33947 18.0023 7.5 17.1629 7.5 16.1273V3.37732Z"
          fill="#111827"/>
    <path d="M15 5.25232C15 3.93927 14.518 2.7388 13.7212 1.81822C17.1201 2.70609 19.7962 5.3822 20.6841 8.78113C19.7635 7.98436 18.5631 7.50232 17.25 7.50232H15.375C15.1679 7.50232 15 7.33443 15 7.12732V5.25232Z"
          fill="#111827"/>
    <path d="M4.875 6.00232H6V16.1273C6 17.9913 7.51104 19.5023 9.375 19.5023H16.5V20.6273C16.5 21.6629 15.6605 22.5023 14.625 22.5023H4.875C3.83947 22.5023 3 21.6629 3 20.6273V7.87732C3 6.84178 3.83947 6.00232 4.875 6.00232Z"
          fill="#111827"/>
</svg>
