<svg width="24" height="24" viewBox="0 0 24 24" fill="none" xmlns="http://www.w3.org/2000/svg">
    <path fill-rule="evenodd" clip-rule="evenodd"
          d="M3.75 3.37732C3.75 2.34178 4.58947 1.50232 5.625 1.50232H9C11.0711 1.50232 12.75 3.18125 12.75 5.25232V7.12732C12.75 8.16285 13.5895 9.00232 14.625 9.00232H16.5C18.5711 9.00232 20.25 10.6813 20.25 12.7523V20.6273C20.25 21.6629 19.4105 22.5023 18.375 22.5023H5.625C4.58947 22.5023 3.75 21.6629 3.75 20.6273V3.37732ZM14.25 5.25232C14.25 3.93927 13.768 2.7388 12.9712 1.81822C16.3701 2.70609 19.0462 5.3822 19.9341 8.78113C19.0135 7.98436 17.8131 7.50232 16.5 7.50232H14.625C14.4179 7.50232 14.25 7.33443 14.25 7.12732V5.25232ZM9.75002 10.5023C9.33581 10.5023 9.00002 10.8381 9.00002 11.2523C9.00002 11.6665 9.33581 12.0023 9.75002 12.0023H10.125C10.8939 12.0023 11.5547 12.4651 11.844 13.1273H9.75002C9.33581 13.1273 9.00002 13.4631 9.00002 13.8773C9.00002 14.2915 9.33581 14.6273 9.75002 14.6273H11.844C11.5547 15.2895 10.8939 15.7523 10.125 15.7523H9.75002C9.44668 15.7523 9.1732 15.9351 9.05711 16.2153C8.94103 16.4956 9.00519 16.8182 9.21969 17.0326L11.4697 19.2826C11.7626 19.5755 12.2375 19.5755 12.5304 19.2826C12.8232 18.9898 12.8232 18.5149 12.5304 18.222L11.3367 17.0283C12.375 16.6288 13.166 15.7307 13.4164 14.6273H14.25C14.6642 14.6273 15 14.2915 15 13.8773C15 13.4631 14.6642 13.1273 14.25 13.1273H13.4164C13.3238 12.7193 13.1573 12.3394 12.9317 12.0023H14.25C14.6642 12.0023 15 11.6665 15 11.2523C15 10.8381 14.6642 10.5023 14.25 10.5023H10.5C10.4593 10.5023 10.4193 10.5056 10.3803 10.5118C10.296 10.5055 10.2109 10.5023 10.125 10.5023H9.75002Z"
          fill="#111827"/>
</svg>
