<svg width="24" height="24" viewBox="0 0 24 24" fill="none" xmlns="http://www.w3.org/2000/svg">
    <path fill-rule="evenodd" clip-rule="evenodd"
          d="M9 1.50232H5.625C4.58947 1.50232 3.75 2.34178 3.75 3.37732V20.6273C3.75 21.6629 4.58947 22.5023 5.625 22.5023H18.375C19.4105 22.5023 20.25 21.6629 20.25 20.6273V12.7523C20.25 10.6813 18.5711 9.00232 16.5 9.00232H14.625C13.5895 9.00232 12.75 8.16285 12.75 7.12732V5.25232C12.75 3.18125 11.0711 1.50232 9 1.50232ZM15.6103 12.4382C15.8511 12.1012 15.773 11.6328 15.4359 11.392C15.0989 11.1513 14.6305 11.2293 14.3897 11.5664L11.1543 16.096L9.53033 14.472C9.23744 14.1791 8.76256 14.1791 8.46967 14.472C8.17678 14.7649 8.17678 15.2398 8.46967 15.5326L10.7197 17.7826C10.8756 17.9385 11.0921 18.0179 11.3119 17.9998C11.5316 17.9816 11.7322 17.8676 11.8603 17.6882L15.6103 12.4382Z"
          fill="#111827"/>
    <path d="M12.9712 1.81822C13.768 2.7388 14.25 3.93927 14.25 5.25232V7.12732C14.25 7.33443 14.4179 7.50232 14.625 7.50232H16.5C17.8131 7.50232 19.0135 7.98436 19.9341 8.78113C19.0462 5.3822 16.3701 2.70609 12.9712 1.81822Z"
          fill="#111827"/>
</svg>
