<svg width="24" height="24" viewBox="0 0 24 24" fill="none" xmlns="http://www.w3.org/2000/svg">
    <path fill-rule="evenodd" clip-rule="evenodd"
          d="M12 2.25232C6.61522 2.25232 2.25 6.61754 2.25 12.0023C2.25 17.3871 6.61522 21.7523 12 21.7523C17.3848 21.7523 21.75 17.3871 21.75 12.0023C21.75 6.61754 17.3848 2.25232 12 2.25232ZM12 10.8773C11.3787 10.8773 10.875 11.381 10.875 12.0023C10.875 12.6236 11.3787 13.1273 12 13.1273C12.6213 13.1273 13.125 12.6236 13.125 12.0023C13.125 11.381 12.6213 10.8773 12 10.8773ZM15.375 12.0023C15.375 11.381 15.8787 10.8773 16.5 10.8773C17.1213 10.8773 17.625 11.381 17.625 12.0023C17.625 12.6236 17.1213 13.1273 16.5 13.1273C15.8787 13.1273 15.375 12.6236 15.375 12.0023ZM7.5 10.8773C6.87868 10.8773 6.375 11.381 6.375 12.0023C6.375 12.6236 6.87868 13.1273 7.5 13.1273C8.12132 13.1273 8.625 12.6236 8.625 12.0023C8.625 11.381 8.12132 10.8773 7.5 10.8773Z"
          fill="#111827"/>
</svg>
