<svg width="24" height="24" viewBox="0 0 24 24" fill="none" xmlns="http://www.w3.org/2000/svg">
<path fill-rule="evenodd" clip-rule="evenodd" d="M4.5 12.0023C4.5 11.1739 5.17157 10.5023 6 10.5023C6.82843 10.5023 7.5 11.1739 7.5 12.0023C7.5 12.8307 6.82843 13.5023 6 13.5023C5.17157 13.5023 4.5 12.8307 4.5 12.0023ZM10.5 12.0023C10.5 11.1739 11.1716 10.5023 12 10.5023C12.8284 10.5023 13.5 11.1739 13.5 12.0023C13.5 12.8307 12.8284 13.5023 12 13.5023C11.1716 13.5023 10.5 12.8307 10.5 12.0023ZM16.5 12.0023C16.5 11.1739 17.1716 10.5023 18 10.5023C18.8284 10.5023 19.5 11.1739 19.5 12.0023C19.5 12.8307 18.8284 13.5023 18 13.5023C17.1716 13.5023 16.5 12.8307 16.5 12.0023Z" fill="#111827"/>
</svg>
