<svg width="24" height="24" viewBox="0 0 24 24" fill="none" xmlns="http://www.w3.org/2000/svg">
<path fill-rule="evenodd" clip-rule="evenodd" d="M10.5 6.00244C10.5 5.17401 11.1716 4.50244 12 4.50244C12.8284 4.50244 13.5 5.17401 13.5 6.00244C13.5 6.83087 12.8284 7.50244 12 7.50244C11.1716 7.50244 10.5 6.83087 10.5 6.00244ZM10.5 12.0024C10.5 11.174 11.1716 10.5024 12 10.5024C12.8284 10.5024 13.5 11.174 13.5 12.0024C13.5 12.8309 12.8284 13.5024 12 13.5024C11.1716 13.5024 10.5 12.8309 10.5 12.0024ZM10.5 18.0024C10.5 17.174 11.1716 16.5024 12 16.5024C12.8284 16.5024 13.5 17.174 13.5 18.0024C13.5 18.8309 12.8284 19.5024 12 19.5024C11.1716 19.5024 10.5 18.8309 10.5 18.0024Z" fill="#111827"/>
</svg>
