<svg width="24" height="24" viewBox="0 0 24 24" fill="none" xmlns="http://www.w3.org/2000/svg">
    <path d="M19.5 22.5024C21.1569 22.5024 22.5 21.1593 22.5 19.5024V11.3286L15.6212 15.3505L19.1056 17.2267C19.4703 17.4231 19.6067 17.8779 19.4104 18.2426C19.214 18.6073 18.7591 18.7438 18.3944 18.5474L12.7112 15.4872C12.2672 15.2481 11.7328 15.2481 11.2889 15.4872L5.60558 18.5474C5.24087 18.7438 4.78603 18.6073 4.58965 18.2426C4.39327 17.8779 4.52972 17.4231 4.89442 17.2267L8.37878 15.3505L1.5 11.3286V19.5024C1.5 21.1593 2.84315 22.5024 4.5 22.5024L19.5 22.5024Z"
          fill="#111827"/>
    <path d="M1.5 9.59105V8.84632C1.5 7.74268 2.10597 6.72815 3.0777 6.20491L10.5777 2.16645C11.4656 1.68833 12.5344 1.68833 13.4223 2.16645L20.9223 6.20491C21.894 6.72815 22.5 7.74268 22.5 8.84632V9.59105L14.0742 14.5175L13.4223 14.1665C12.5344 13.6884 11.4656 13.6884 10.5777 14.1665L9.92585 14.5175L1.5 9.59105Z"
          fill="#111827"/>
</svg>
