<svg width="24" height="24" viewBox="0 0 24 24" fill="none" xmlns="http://www.w3.org/2000/svg">
<path fill-rule="evenodd" clip-rule="evenodd" d="M9.40123 3.00584C10.5557 1.00473 13.4439 1.00473 14.5983 3.00584L21.9527 15.7533C23.1065 17.7533 21.6631 20.2525 19.3541 20.2525H4.64546C2.33649 20.2525 0.893061 17.7533 2.04691 15.7533L9.40123 3.00584ZM12 8.25244C12.4142 8.25244 12.75 8.58823 12.75 9.00244V12.7524C12.75 13.1667 12.4142 13.5024 12 13.5024C11.5858 13.5024 11.25 13.1667 11.25 12.7524V9.00244C11.25 8.58823 11.5858 8.25244 12 8.25244ZM12 16.5024C12.4142 16.5024 12.75 16.1667 12.75 15.7524C12.75 15.3382 12.4142 15.0024 12 15.0024C11.5858 15.0024 11.25 15.3382 11.25 15.7524C11.25 16.1667 11.5858 16.5024 12 16.5024Z" fill="#111827"/>
</svg>
