<svg width="24" height="24" viewBox="0 0 24 24" fill="none" xmlns="http://www.w3.org/2000/svg">
    <path fill-rule="evenodd" clip-rule="evenodd"
          d="M2.25 12.0024C2.25 6.61767 6.61522 2.25244 12 2.25244C17.3848 2.25244 21.75 6.61767 21.75 12.0024C21.75 17.3872 17.3848 21.7524 12 21.7524C6.61522 21.7524 2.25 17.3872 2.25 12.0024ZM12 8.25244C12.4142 8.25244 12.75 8.58823 12.75 9.00244V12.7524C12.75 13.1667 12.4142 13.5024 12 13.5024C11.5858 13.5024 11.25 13.1667 11.25 12.7524V9.00244C11.25 8.58823 11.5858 8.25244 12 8.25244ZM12 16.5024C12.4142 16.5024 12.75 16.1667 12.75 15.7524C12.75 15.3382 12.4142 15.0024 12 15.0024C11.5858 15.0024 11.25 15.3382 11.25 15.7524C11.25 16.1667 11.5858 16.5024 12 16.5024Z"
          fill="#111827"/>
</svg>
