<svg width="24" height="24" viewBox="0 0 24 24" fill="none" xmlns="http://www.w3.org/2000/svg">
    <path d="M3.53033 2.47211C3.23744 2.17922 2.76256 2.17922 2.46967 2.47211C2.17678 2.765 2.17678 3.23988 2.46967 3.53277L20.4697 21.5328C20.7626 21.8257 21.2374 21.8257 21.5303 21.5328C21.8232 21.2399 21.8232 20.765 21.5303 20.4721L3.53033 2.47211Z"
          fill="#111827"/>
    <path d="M22.6759 12.5557C22.1319 14.1911 21.2226 15.6599 20.0447 16.8652L16.9462 13.7667C17.1429 13.2153 17.25 12.6214 17.25 12.0024C17.25 9.10295 14.8995 6.75244 12 6.75244C11.3811 6.75244 10.7871 6.85955 10.2358 7.05623L7.75898 4.57944C9.06783 4.04625 10.4998 3.75244 12.0005 3.75244C16.9708 3.75244 21.1864 6.97516 22.6755 11.4429C22.7959 11.804 22.796 12.1946 22.6759 12.5557Z"
          fill="#111827"/>
    <path d="M15.75 12.0024C15.75 12.1826 15.7373 12.3598 15.7127 12.5332L11.4692 8.28971C11.6426 8.26515 11.8198 8.25244 12 8.25244C14.0711 8.25244 15.75 9.93137 15.75 12.0024Z"
          fill="#111827"/>
    <path d="M12.5308 15.7152L8.28727 11.4717C8.2627 11.6451 8.25 11.8223 8.25 12.0024C8.25 14.0735 9.92893 15.7524 12 15.7524C12.1802 15.7524 12.3574 15.7397 12.5308 15.7152Z"
          fill="#111827"/>
    <path d="M6.75 12.0024C6.75 11.3835 6.8571 10.7896 7.05379 10.2382L3.95492 7.13935C2.77687 8.34467 1.86747 9.81358 1.32341 11.4491C1.20328 11.8103 1.2034 12.2009 1.32374 12.562C2.81284 17.0297 7.02847 20.2524 11.9988 20.2524C13.4997 20.2524 14.9318 19.9586 16.2408 19.4252L13.7642 16.9487C13.2129 17.1453 12.6189 17.2524 12 17.2524C9.1005 17.2524 6.75 14.9019 6.75 12.0024Z"
          fill="#111827"/>
</svg>
