<svg width="24" height="24" viewBox="0 0 24 24" fill="none" xmlns="http://www.w3.org/2000/svg">
<path d="M12 15.0024C13.6569 15.0024 15 13.6593 15 12.0024C15 10.3456 13.6569 9.00244 12 9.00244C10.3431 9.00244 9 10.3456 9 12.0024C9 13.6593 10.3431 15.0024 12 15.0024Z" fill="#111827"/>
<path fill-rule="evenodd" clip-rule="evenodd" d="M1.32341 11.4491C2.81066 6.97815 7.02791 3.75244 12.0005 3.75244C16.9708 3.75244 21.1864 6.97516 22.6755 11.4429C22.7959 11.804 22.796 12.1946 22.6759 12.5557C21.1886 17.0267 16.9714 20.2524 11.9988 20.2524C7.02847 20.2524 2.81284 17.0297 1.32374 12.562C1.2034 12.2009 1.20328 11.8103 1.32341 11.4491ZM17.25 12.0024C17.25 14.9019 14.8995 17.2524 12 17.2524C9.1005 17.2524 6.75 14.9019 6.75 12.0024C6.75 9.10295 9.1005 6.75244 12 6.75244C14.8995 6.75244 17.25 9.10295 17.25 12.0024Z" fill="#111827"/>
</svg>
