<svg width="24" height="24" viewBox="0 0 24 24" fill="none" xmlns="http://www.w3.org/2000/svg">
    <path fill-rule="evenodd" clip-rule="evenodd"
          d="M12 2.25464C6.61522 2.25464 2.25 6.61986 2.25 12.0046C2.25 17.3894 6.61522 21.7546 12 21.7546C17.3848 21.7546 21.75 17.3894 21.75 12.0046C21.75 6.61986 17.3848 2.25464 12 2.25464ZM9.375 8.25464C8.83433 8.25464 8.54674 8.67345 8.43901 8.8889C8.30886 9.14921 8.25 9.45634 8.25 9.75464C8.25 10.0529 8.30886 10.3601 8.43901 10.6204C8.54674 10.8358 8.83433 11.2546 9.375 11.2546C9.91567 11.2546 10.2033 10.8358 10.311 10.6204C10.4411 10.3601 10.5 10.0529 10.5 9.75464C10.5 9.45634 10.4411 9.14921 10.311 8.8889C10.2033 8.67345 9.91567 8.25464 9.375 8.25464ZM13.689 8.8889C13.7967 8.67345 14.0843 8.25464 14.625 8.25464C15.1657 8.25464 15.4533 8.67345 15.561 8.8889C15.6911 9.14921 15.75 9.45634 15.75 9.75464C15.75 10.0529 15.6911 10.3601 15.561 10.6204C15.4533 10.8358 15.1657 11.2546 14.625 11.2546C14.0843 11.2546 13.7967 10.8358 13.689 10.6204C13.5589 10.3601 13.5 10.0529 13.5 9.75464C13.5 9.45634 13.5589 9.14921 13.689 8.8889ZM9.34869 16.8529C9.0558 17.1458 8.58092 17.1458 8.28803 16.8529C7.99514 16.56 7.99514 16.0851 8.28803 15.7922C9.31761 14.7626 10.6699 14.2499 12.0184 14.2546C13.3548 14.2591 14.6923 14.7718 15.7126 15.7922C16.0055 16.0851 16.0055 16.56 15.7126 16.8529C15.4198 17.1458 14.9449 17.1458 14.652 16.8529C13.9229 16.1238 12.9698 15.7578 12.0132 15.7545C11.048 15.7512 10.0843 16.1172 9.34869 16.8529Z"
          fill="#111827"/>
</svg>
