<svg width="24" height="24" viewBox="0 0 24 24" fill="none" xmlns="http://www.w3.org/2000/svg">
    <path fill-rule="evenodd" clip-rule="evenodd"
          d="M12.9633 2.29043C12.8416 2.12713 12.6586 2.02039 12.4565 1.99474C12.2545 1.96909 12.0506 2.02675 11.8919 2.15445C10.0218 3.65926 8.7174 5.8424 8.35322 8.33101C7.69665 7.85505 7.11999 7.27516 6.6476 6.61545C6.51764 6.43396 6.3136 6.3198 6.09095 6.30398C5.8683 6.28817 5.65017 6.37235 5.49587 6.53364C3.95047 8.14905 3 10.3415 3 12.7543C3 17.7249 7.02944 21.7543 12 21.7543C16.9706 21.7543 21 17.7249 21 12.7543C21 9.0934 18.8143 5.94463 15.6798 4.5387C14.5706 3.9972 13.6547 3.21748 12.9633 2.29043ZM15.75 14.2547C15.75 16.3258 14.0711 18.0047 12 18.0047C9.92893 18.0047 8.25 16.3258 8.25 14.2547C8.25 13.8453 8.31559 13.4513 8.43682 13.0826C9.06529 13.5472 9.78769 13.892 10.5703 14.0833C10.7862 12.6825 11.4866 11.4416 12.4949 10.537C14.3321 10.7793 15.75 12.3514 15.75 14.2547Z"
          fill="#111827"/>
</svg>
