<svg width="24" height="24" viewBox="0 0 24 24" fill="none" xmlns="http://www.w3.org/2000/svg">
<path fill-rule="evenodd" clip-rule="evenodd" d="M3 2.25464C3.41421 2.25464 3.75 2.59043 3.75 3.00464V3.54406L5.58819 3.08451C7.84613 2.52002 10.2315 2.78187 12.3132 3.82273L12.421 3.87659C14.1472 4.73971 16.1214 4.9703 18 4.52826L21.1096 3.79659C21.3465 3.74085 21.5958 3.80352 21.7781 3.96469C21.9605 4.12585 22.0533 4.36547 22.0271 4.60742C21.844 6.29777 21.75 8.01509 21.75 9.75464C21.75 11.5087 21.8455 13.2401 22.0317 14.9441C22.0728 15.3207 21.8266 15.6689 21.4579 15.7556L18.3436 16.4884C16.1234 17.0108 13.7902 16.7383 11.7501 15.7182L11.6424 15.6644C9.88097 14.7837 7.86256 14.5621 5.95199 15.0397L3.75 15.5902V21.0046C3.75 21.4189 3.41421 21.7546 3 21.7546C2.58579 21.7546 2.25 21.4189 2.25 21.0046V3.00464C2.25 2.59043 2.58579 2.25464 3 2.25464Z" fill="#111827"/>
</svg>
