<svg width="24" height="24" viewBox="0 0 24 24" fill="none" xmlns="http://www.w3.org/2000/svg">
<path fill-rule="evenodd" clip-rule="evenodd" d="M19.5 21.0046C21.1569 21.0046 22.5 19.6615 22.5 18.0046V9.00464C22.5 7.34778 21.1569 6.00464 19.5 6.00464H14.1213C13.9224 6.00464 13.7316 5.92562 13.591 5.78497L11.4697 3.66365C11.0477 3.24169 10.4754 3.00464 9.87868 3.00464H4.5C2.84315 3.00464 1.5 4.34778 1.5 6.00464V18.0046C1.5 19.6615 2.84315 21.0046 4.5 21.0046H19.5ZM12.75 10.5046C12.75 10.0904 12.4142 9.75464 12 9.75464C11.5858 9.75464 11.25 10.0904 11.25 10.5046L11.25 14.694L9.53033 12.9743C9.23744 12.6814 8.76256 12.6814 8.46967 12.9743C8.17678 13.2672 8.17678 13.7421 8.46967 14.035L11.4697 17.035C11.6103 17.1756 11.8011 17.2546 12 17.2546C12.1989 17.2546 12.3897 17.1756 12.5303 17.035L15.5303 14.035C15.8232 13.7421 15.8232 13.2672 15.5303 12.9743C15.2374 12.6814 14.7626 12.6814 14.4697 12.9743L12.75 14.694L12.75 10.5046Z" fill="#111827"/>
</svg>
