<svg width="24" height="24" viewBox="0 0 24 24" fill="none" xmlns="http://www.w3.org/2000/svg">
    <path fill-rule="evenodd" clip-rule="evenodd"
          d="M19.5 21.0046C21.1569 21.0046 22.5 19.6615 22.5 18.0046V9.00464C22.5 7.34778 21.1569 6.00464 19.5 6.00464H14.1213C13.9224 6.00464 13.7316 5.92562 13.591 5.78497L11.4697 3.66365C11.0477 3.24169 10.4754 3.00464 9.87868 3.00464H4.5C2.84315 3.00464 1.5 4.34778 1.5 6.00464V18.0046C1.5 19.6615 2.84315 21.0046 4.5 21.0046H19.5ZM9 12.7546C8.58579 12.7546 8.25 13.0904 8.25 13.5046C8.25 13.9189 8.58579 14.2546 9 14.2546H15C15.4142 14.2546 15.75 13.9189 15.75 13.5046C15.75 13.0904 15.4142 12.7546 15 12.7546H9Z"
          fill="#111827"/>
</svg>
