<svg width="24" height="24" viewBox="0 0 24 24" fill="none" xmlns="http://www.w3.org/2000/svg">
<path fill-rule="evenodd" clip-rule="evenodd" d="M3.79154 2.94288C6.46066 2.49026 9.20314 2.25464 12.0001 2.25464C14.7969 2.25464 17.5394 2.49025 20.2085 2.94286C21.1108 3.09588 21.75 3.8814 21.75 4.77866V5.82266C21.75 6.61831 21.4339 7.38137 20.8713 7.94398L14.6893 14.126C14.408 14.4073 14.25 14.7888 14.25 15.1866V18.1141C14.25 19.2504 13.608 20.2892 12.5916 20.7973L10.8354 21.6755C10.6029 21.7917 10.3268 21.7793 10.1057 21.6426C9.88459 21.506 9.75 21.2646 9.75 21.0046V15.1866C9.75 14.7888 9.59196 14.4073 9.31066 14.126L3.12868 7.94398C2.56607 7.38137 2.25 6.61831 2.25 5.82266V4.77868C2.25 3.88142 2.88917 3.09591 3.79154 2.94288Z" fill="#111827"/>
</svg>
