<svg width="24" height="24" viewBox="0 0 24 24" fill="none" xmlns="http://www.w3.org/2000/svg">
    <path fill-rule="evenodd" clip-rule="evenodd"
          d="M4.5 3.75464C2.84315 3.75464 1.5 5.09778 1.5 6.75464V17.2546C1.5 18.9115 2.84315 20.2546 4.5 20.2546H19.5C21.1569 20.2546 22.5 18.9115 22.5 17.2546V6.75464C22.5 5.09778 21.1569 3.75464 19.5 3.75464H4.5ZM13.5 8.25464C13.5 7.84043 13.1642 7.50464 12.75 7.50464C12.3358 7.50464 12 7.84043 12 8.25464V15.7546C12 16.1689 12.3358 16.5046 12.75 16.5046C13.1642 16.5046 13.5 16.1689 13.5 15.7546V8.25464ZM15 8.25464C15 7.84043 15.3358 7.50464 15.75 7.50464H18.75C19.1642 7.50464 19.5 7.84043 19.5 8.25464C19.5 8.66885 19.1642 9.00464 18.75 9.00464H16.5V11.2546H18C18.4142 11.2546 18.75 11.5904 18.75 12.0046C18.75 12.4189 18.4142 12.7546 18 12.7546H16.5V15.7546C16.5 16.1689 16.1642 16.5046 15.75 16.5046C15.3358 16.5046 15 16.1689 15 15.7546V8.25464ZM6.63565 9.7843C7.03978 9.20939 7.5033 9.00464 7.88604 9.00464C8.26878 9.00464 8.7323 9.20939 9.13643 9.7843C9.37463 10.1232 9.84244 10.2048 10.1813 9.96656C10.5202 9.72836 10.6018 9.26055 10.3636 8.92168C9.73827 8.03212 8.85254 7.50464 7.88604 7.50464C6.91953 7.50464 6.03381 8.03212 5.4085 8.92168C4.7885 9.80369 4.5 10.922 4.5 12.0046C4.5 13.0873 4.7885 14.2056 5.4085 15.0876C6.03381 15.9772 6.91953 16.5046 7.88604 16.5046C8.85254 16.5046 9.73827 15.9772 10.3636 15.0876C10.4524 14.9613 10.5 14.8107 10.5 14.6563V12.0046C10.5 11.5904 10.1642 11.2546 9.75 11.2546H8.25C7.83579 11.2546 7.5 11.5904 7.5 12.0046C7.5 12.4189 7.83579 12.7546 8.25 12.7546H9V14.4028C8.6305 14.8428 8.22634 15.0046 7.88604 15.0046C7.5033 15.0046 7.03978 14.7999 6.63565 14.225C6.22622 13.6425 6 12.8414 6 12.0046C6 11.1679 6.22622 10.3668 6.63565 9.7843Z"
          fill="#111827"/>
</svg>
