<svg width="24" height="24" viewBox="0 0 24 24" fill="none" xmlns="http://www.w3.org/2000/svg">
<path d="M9.375 3.00464C8.33947 3.00464 7.5 3.8441 7.5 4.87964C7.5 5.91517 8.33947 6.75464 9.375 6.75464H11.25V11.2546H3.375C2.33947 11.2546 1.5 10.4152 1.5 9.37964V8.62964C1.5 7.5941 2.33947 6.75464 3.375 6.75464H6.56833C6.20935 6.21835 6 5.57344 6 4.87964C6 3.01568 7.51104 1.50464 9.375 1.50464C10.4352 1.50464 11.3813 1.99351 12 2.75814C12.6187 1.99351 13.5648 1.50464 14.625 1.50464C16.489 1.50464 18 3.01568 18 4.87964C18 5.57344 17.7906 6.21835 17.4317 6.75464H21.375C22.4105 6.75464 23.25 7.5941 23.25 8.62964V9.37964C23.25 10.4152 22.4105 11.2546 21.375 11.2546H12.75V6.75464H14.625C15.6605 6.75464 16.5 5.91517 16.5 4.87964C16.5 3.8441 15.6605 3.00464 14.625 3.00464C13.5895 3.00464 12.75 3.8441 12.75 4.87964V6.75464H11.25V4.87964C11.25 3.8441 10.4105 3.00464 9.375 3.00464Z" fill="#111827"/>
<path d="M11.25 12.7546H3V19.5046C3 20.7473 4.00736 21.7546 5.25 21.7546H11.25V12.7546Z" fill="#111827"/>
<path d="M12.75 12.7546V21.7546H19.5C20.7426 21.7546 21.75 20.7473 21.75 19.5046V12.7546H12.75Z" fill="#111827"/>
</svg>
