<svg width="24" height="24" viewBox="0 0 24 24" fill="none" xmlns="http://www.w3.org/2000/svg">
    <path d="M11.25 3.00464V7.05103C10.0748 5.93174 8.21463 5.94908 7.06066 7.10304C5.91897 8.24473 5.88985 10.0777 6.9733 11.2546H1.5V5.25464C1.5 4.012 2.50736 3.00464 3.75 3.00464H11.25Z"
          fill="#111827"/>
    <path d="M12.75 3.00464V7.01565C13.927 5.93221 15.7599 5.96133 16.9016 7.10302C18.0433 8.24472 18.0724 10.0777 16.9889 11.2546H22.5V5.25464C22.5 4.012 21.4926 3.00464 20.25 3.00464H12.75Z"
          fill="#111827"/>
    <path d="M22.5 12.7546H13.5168C13.7063 14.8571 15.4732 16.5046 17.625 16.5046C18.0392 16.5046 18.375 16.8404 18.375 17.2546C18.375 17.6689 18.0392 18.0046 17.625 18.0046C15.5412 18.0046 13.722 16.8715 12.75 15.1878V21.0046H20.25C21.4926 21.0046 22.5 19.9973 22.5 18.7546V12.7546Z"
          fill="#111827"/>
    <path d="M11.25 21.0046V15.1878C10.278 16.8715 8.45885 18.0046 6.375 18.0046C5.96079 18.0046 5.625 17.6689 5.625 17.2546C5.625 16.8404 5.96079 16.5046 6.375 16.5046C8.52677 16.5046 10.2937 14.8571 10.4832 12.7546H1.5V18.7546C1.5 19.9973 2.50736 21.0046 3.75 21.0046H11.25Z"
          fill="#111827"/>
    <path d="M11.0855 10.3582C11.1154 10.656 11.1234 10.9332 11.1215 11.1639C10.8908 11.1658 10.6136 11.1578 10.3158 11.1278C9.48292 11.044 8.63902 10.8027 8.12132 10.285C7.53553 9.69924 7.53553 8.74949 8.12132 8.1637C8.70711 7.57792 9.65685 7.57792 10.2426 8.1637C10.7603 8.6814 11.0016 9.52531 11.0855 10.3582Z"
          fill="#111827"/>
    <path d="M12.8768 10.3582C12.8468 10.656 12.8389 10.9332 12.8408 11.1639C13.0714 11.1658 13.3486 11.1578 13.6464 11.1278C14.4793 11.044 15.3232 10.8027 15.8409 10.285C16.4267 9.69921 16.4267 8.74947 15.8409 8.16368C15.2551 7.57789 14.3054 7.57789 13.7196 8.16368C13.2019 8.68138 12.9606 9.52528 12.8768 10.3582Z"
          fill="#111827"/>
</svg>
