<svg width="24" height="24" viewBox="0 0 24 24" fill="none" xmlns="http://www.w3.org/2000/svg">
    <path d="M21.7214 12.7563C21.7404 12.5082 21.75 12.2575 21.75 12.0046C21.75 10.4804 21.4003 9.03792 20.7767 7.75299C19.5396 8.92733 18.0671 9.8561 16.4374 10.4612C16.4789 10.9702 16.5 11.4849 16.5 12.0046C16.5 13.1058 16.4051 14.1848 16.2229 15.2339C18.2163 14.7323 20.0717 13.8838 21.7214 12.7563Z"
          fill="#111827"/>
    <path d="M14.6343 15.5547C14.874 14.409 15 13.2215 15 12.0046C15 11.6362 14.9885 11.2705 14.9657 10.9078C14.0141 11.1345 13.021 11.2546 12 11.2546C10.979 11.2546 9.98594 11.1345 9.0343 10.9078C9.01155 11.2705 9 11.6362 9 12.0046C9 13.2215 9.12601 14.409 9.3657 15.5547C10.2246 15.6863 11.1043 15.7546 12 15.7546C12.8957 15.7546 13.7754 15.6863 14.6343 15.5547Z"
          fill="#111827"/>
    <path d="M9.77224 17.1236C10.5028 17.2101 11.2462 17.2546 12 17.2546C12.7538 17.2546 13.4972 17.2101 14.2278 17.1236C13.714 18.7793 12.9575 20.3281 12 21.7286C11.0425 20.3281 10.286 18.7793 9.77224 17.1236Z"
          fill="#111827"/>
    <path d="M7.77705 15.2339C7.59493 14.1848 7.5 13.1058 7.5 12.0046C7.5 11.4849 7.52114 10.9702 7.56261 10.4612C5.93286 9.8561 4.46039 8.92733 3.22333 7.75299C2.59973 9.03792 2.25 10.4804 2.25 12.0046C2.25 12.2575 2.25964 12.5082 2.27856 12.7563C3.92826 13.8838 5.78374 14.7323 7.77705 15.2339Z"
          fill="#111827"/>
    <path d="M21.3561 14.7571C20.3404 18.2151 17.4597 20.8752 13.8776 21.5739C14.744 20.1169 15.4185 18.5325 15.8664 16.8555C17.8263 16.4446 19.6736 15.7277 21.3561 14.7571Z"
          fill="#111827"/>
    <path d="M2.64395 14.7571C4.32642 15.7277 6.17372 16.4446 8.13356 16.8555C8.58146 18.5325 9.25602 20.1169 10.1224 21.5739C6.54027 20.8752 3.65964 18.2151 2.64395 14.7571Z"
          fill="#111827"/>
    <path d="M13.8776 2.43519C16.3991 2.92709 18.5731 4.39084 19.9937 6.42063C18.9351 7.48948 17.6637 8.34715 16.2483 8.9248C15.862 6.58746 15.0435 4.39596 13.8776 2.43519Z"
          fill="#111827"/>
    <path d="M12 2.28052C13.4287 4.37011 14.4097 6.79001 14.805 9.40208C13.9083 9.6322 12.9684 9.75457 12 9.75457C11.0316 9.75457 10.0917 9.6322 9.19503 9.40208C9.5903 6.79001 10.5713 4.37011 12 2.28052Z"
          fill="#111827"/>
    <path d="M10.1224 2.43519C8.95648 4.39596 8.13795 6.58746 7.75171 8.9248C6.33629 8.34715 5.06489 7.48948 4.00635 6.42063C5.42689 4.39084 7.60085 2.92709 10.1224 2.43519Z"
          fill="#111827"/>
</svg>
