<svg width="24" height="24" viewBox="0 0 24 24" fill="none" xmlns="http://www.w3.org/2000/svg">
    <path d="M15.7498 8.25464C16.164 8.25464 16.4998 8.59042 16.4998 9.00464C16.4998 10.1248 16.0077 11.1309 15.2304 11.8169C14.9199 12.091 14.4459 12.0615 14.1718 11.7509C13.8977 11.4404 13.9273 10.9664 14.2378 10.6923C14.7062 10.279 14.9998 9.67655 14.9998 9.00464C14.9998 8.59042 15.3356 8.25464 15.7498 8.25464Z"
          fill="#111827"/>
    <path fill-rule="evenodd" clip-rule="evenodd"
          d="M12 2.25464C6.61522 2.25464 2.25 6.61986 2.25 12.0046C2.25 17.3894 6.61522 21.7546 12 21.7546C17.3848 21.7546 21.75 17.3894 21.75 12.0046C21.75 6.61986 17.3848 2.25464 12 2.25464ZM4.5749 15.6048C5.91195 18.3573 8.7344 20.2546 12 20.2546C12.6623 20.2546 13.3063 20.1766 13.9234 20.0292C13.6364 19.2649 12.9044 18.7546 12.0828 18.7546C11.6022 18.7546 11.1921 18.4072 11.1131 17.9331L11.0401 17.4954C10.9461 16.931 11.2906 16.3859 11.8408 16.2287L12.8295 15.9462C13.2567 15.8241 13.6131 15.5284 13.8119 15.1309L13.8484 15.0579C14.0945 14.5656 14.5977 14.2546 15.1481 14.2546C15.5335 14.2546 15.9031 14.4077 16.1756 14.6803L16.5 15.0046H17.1283C17.9669 15.0046 18.724 15.4693 19.1108 16.1904C19.8347 14.9633 20.25 13.5325 20.25 12.0046C20.25 7.70644 16.963 4.17596 12.7656 3.7897C12.81 4.05266 12.9468 4.29364 13.1548 4.46697L14.2234 5.35747C14.6651 5.72554 14.7582 6.36739 14.4393 6.84576L13.9282 7.6123C13.6507 8.02861 13.2423 8.34054 12.7676 8.49876L12.6254 8.54618C11.9327 8.77707 11.6492 9.60341 12.0542 10.2109C12.4237 10.7651 12.2238 11.5177 11.6281 11.8156L9 13.1296L9.4234 14.1881C9.608 14.6496 9.40803 15.1756 8.96343 15.3979C8.5503 15.6045 8.04855 15.486 7.77142 15.1165L7.09217 14.2109C6.59039 13.5418 5.55995 13.6347 5.18594 14.3828L4.5749 15.6048Z"
          fill="#111827"/>
</svg>
