<svg width="24" height="24" viewBox="0 0 24 24" fill="none" xmlns="http://www.w3.org/2000/svg">
    <path fill-rule="evenodd" clip-rule="evenodd"
          d="M12 2.25464C6.61522 2.25464 2.25 6.61986 2.25 12.0046C2.25 17.3894 6.61522 21.7546 12 21.7546C17.3848 21.7546 21.75 17.3894 21.75 12.0046C21.75 6.61986 17.3848 2.25464 12 2.25464ZM8.54688 4.50989C5.71517 5.81673 3.75 8.68119 3.75 12.0046C3.75 16.561 7.44365 20.2546 12 20.2546C16.3141 20.2546 19.8548 16.9433 20.2191 12.7237L19.7582 12.2628C19.5872 12.0918 19.4449 11.8944 19.3367 11.6781L18.2567 9.51794C18.1304 9.26542 17.7939 9.2108 17.5942 9.41044C17.3818 9.62288 17.0709 9.70345 16.782 9.62091L15.5091 9.25723C15.0257 9.11911 14.524 9.40888 14.402 9.89664C14.3109 10.2612 14.4588 10.6438 14.7715 10.8523L15.3582 11.2434C15.9489 11.6372 16.0317 12.473 15.5297 12.975L15.3295 13.1751C15.1186 13.3861 15 13.6723 15 13.9706V14.3814C15 14.7892 14.8892 15.1894 14.6794 15.539L13.3648 17.7301C12.9834 18.3657 12.2965 18.7546 11.5552 18.7546C10.9724 18.7546 10.5 18.2822 10.5 17.6995V16.528C10.5 15.6079 9.93989 14.7806 9.08565 14.4389L8.43151 14.1772C7.44978 13.7845 6.87393 12.7612 7.04776 11.7183L7.05479 11.676C7.1012 11.3976 7.19959 11.1304 7.34482 10.8883L7.43423 10.7393C7.92346 9.92392 8.87244 9.50412 9.80485 9.6906L10.9827 9.92617C11.5574 10.0411 12.124 9.6956 12.285 9.13208L12.4935 8.40238C12.6423 7.88184 12.3991 7.3292 11.9149 7.08709L11.25 6.75464L11.159 6.84563C10.7371 7.26759 10.1648 7.50464 9.56805 7.50464H9.38712C9.13927 7.50464 8.90098 7.60369 8.72572 7.77894C8.44225 8.06241 8.00817 8.13371 7.64961 7.95443C7.16435 7.7118 6.98836 7.10742 7.26749 6.64221L8.54688 4.50989Z"
          fill="#111827"/>
</svg>
