<svg width="24" height="24" viewBox="0 0 24 24" fill="none" xmlns="http://www.w3.org/2000/svg">
<path d="M21.9997 12.23C21.9997 11.5502 21.9435 10.8668 21.8235 10.1981H12.2012V14.0487H17.7114C17.4828 15.2907 16.7481 16.3893 15.6723 17.0874V19.5859H18.9597C20.8901 17.8443 21.9997 15.2723 21.9997 12.23Z" fill="#4285F4"/>
<path d="M12.2012 22C14.9526 22 17.2729 21.1145 18.9635 19.586L15.6761 17.0874C14.7614 17.6974 13.5807 18.0428 12.205 18.0428C9.54357 18.0428 7.28699 16.2828 6.47732 13.9165H3.08495V16.4922C4.81674 19.8689 8.34406 22 12.2012 22Z" fill="#34A853"/>
<path d="M6.47379 13.9165C6.04647 12.6746 6.04647 11.3298 6.47379 10.0879V7.51221H3.08517C1.63826 10.3378 1.63804 13.6667 3.08495 16.4922L6.47379 13.9165Z" fill="#FBBC04"/>
<path d="M12.2012 5.95791C13.6556 5.93586 15.0613 6.47231 16.1146 7.45703L19.0272 4.60209C17.183 2.90456 14.7352 1.97128 12.2012 2.00067C8.34406 2.00067 4.81697 4.13184 3.08517 7.51221L6.47379 10.0879C7.27971 7.71797 9.53982 5.95791 12.2012 5.95791Z" fill="#EA4335"/>
</svg>
