<svg width="24" height="24" viewBox="0 0 24 24" fill="none" xmlns="http://www.w3.org/2000/svg">
<path fill-rule="evenodd" clip-rule="evenodd" d="M2.24585 3.74579C2.66006 3.74579 2.99585 4.08158 2.99585 4.49581V11.2465H11.9961V4.49581C11.9961 4.08158 12.3319 3.74579 12.7461 3.74579C13.1603 3.74579 13.4961 4.08158 13.4961 4.49581V19.4973C13.4961 19.9115 13.1603 20.2473 12.7461 20.2473C12.3319 20.2473 11.9961 19.9115 11.9961 19.4973V12.7465H2.99585V19.4973C2.99585 19.9115 2.66006 20.2473 2.24585 20.2473C1.83164 20.2473 1.49585 19.9115 1.49585 19.4973V4.49581C1.49585 4.08158 1.83164 3.74579 2.24585 3.74579ZM18.75 10.5026C18.0227 10.5026 17.3087 10.557 16.6115 10.6619C16.2019 10.7235 15.8199 10.4414 15.7583 10.0318C15.6967 9.62214 15.9788 9.24013 16.3884 9.17851C17.1592 9.06257 17.9478 9.00254 18.75 9.00254C19.1788 9.00254 19.6037 9.01969 20.0242 9.05338C21.1725 9.14537 22.1769 9.97615 22.3718 11.1684C22.4562 11.6845 22.5 12.2137 22.5 12.7526C22.5 13.8176 21.8238 14.6793 20.9687 15.1068L18.0792 16.5517C17.571 16.8058 17.25 17.3252 17.25 17.8933V18.7528H21.75C22.1642 18.7528 22.5 19.0886 22.5 19.5028C22.5 19.917 22.1642 20.2528 21.75 20.2528H16.5C16.0858 20.2528 15.75 19.917 15.75 19.5028V17.8933C15.75 16.757 16.392 15.7182 17.4083 15.21L20.2979 13.7652C20.7459 13.5412 21 13.1446 21 12.7526C21 12.2951 20.9628 11.8468 20.8915 11.4105C20.8168 10.9537 20.4216 10.5901 19.9044 10.5486C19.5237 10.5181 19.1388 10.5026 18.75 10.5026Z" fill="#111827"/>
</svg>
