<svg width="24" height="24" viewBox="0 0 24 24" fill="none" xmlns="http://www.w3.org/2000/svg">
    <path fill-rule="evenodd" clip-rule="evenodd"
          d="M12.7489 3.74736C13.1631 3.74736 13.4989 4.08316 13.4989 4.4974V19.4988C13.4989 19.9131 13.1631 20.2489 12.7489 20.2489C12.3347 20.2489 11.9989 19.9131 11.9989 19.4988V12.7489H2.99724V19.4996C2.99724 19.9138 2.66144 20.2496 2.24721 20.2496C1.83299 20.2496 1.49719 19.9138 1.49719 19.4996V4.49812C1.49719 4.08389 1.83299 3.74808 2.24721 3.74808C2.66144 3.74808 2.99724 4.08389 2.99724 4.49812V11.2488H11.9989V4.4974C11.9989 4.08316 12.3347 3.74736 12.7489 3.74736Z"
          fill="#111827"/>
    <path fill-rule="evenodd" clip-rule="evenodd"
          d="M18.75 10.5049C18.0228 10.5049 17.3087 10.5593 16.6116 10.6642C16.202 10.7258 15.82 10.4437 15.7583 10.0341C15.6967 9.62445 15.9788 9.24245 16.3884 9.18083C17.1592 9.06489 17.9478 9.00486 18.75 9.00486C19.2414 9.00486 19.7277 9.02738 20.2079 9.07148C21.159 9.15884 22.1345 9.77645 22.3757 10.8648C22.4572 11.2325 22.5 11.6142 22.5 12.0049C22.5 12.9603 22.2442 13.8575 21.7975 14.63C22.2442 15.4025 22.5 16.2997 22.5 17.2551C22.5 17.6458 22.4572 18.0275 22.3757 18.3952C22.1345 19.4835 21.159 20.1011 20.2079 20.1885C19.7277 20.2326 19.2414 20.2551 18.75 20.2551C17.9478 20.2551 17.1592 20.1951 16.3884 20.0792C15.9788 20.0175 15.6967 19.6355 15.7583 19.2259C15.82 18.8163 16.202 18.5342 16.6116 18.5958C17.3087 18.7007 18.0228 18.7551 18.75 18.7551C19.1955 18.7551 19.636 18.7347 20.0707 18.6947C20.5381 18.6518 20.8442 18.3732 20.9112 18.0707C20.9692 17.8088 21 17.536 21 17.2551C21 16.5711 20.8175 15.9313 20.4985 15.38H18C17.5858 15.38 17.25 15.0442 17.25 14.63C17.25 14.2158 17.5858 13.88 18 13.88H20.4985C20.8175 13.3287 21 12.6889 21 12.0049C21 11.724 20.9692 11.4512 20.9112 11.1893C20.8442 10.8868 20.5381 10.6082 20.0707 10.5652C19.636 10.5253 19.1955 10.5049 18.75 10.5049Z"
          fill="#111827"/>
</svg>
