<svg width="24" height="24" viewBox="0 0 24 24" fill="none" xmlns="http://www.w3.org/2000/svg">
<path d="M15.7307 5.50693L16.7652 5.50693C17.546 6.69035 18.0005 8.10807 18.0005 9.63193C18.0005 11.1558 17.546 12.5735 16.7652 13.7569L16.6179 13.7569C15.8116 13.7569 15.084 14.2028 14.5864 14.8373C13.8132 15.8231 12.8388 16.6435 11.725 17.2367C11.0028 17.6213 10.3762 18.1926 10.0723 18.9523C9.85972 19.4838 9.75049 20.0511 9.75049 20.6236V21.2569C9.75049 21.6711 9.4147 22.0069 9.00049 22.0069C7.75784 22.0069 6.75049 20.9996 6.75049 19.7569C6.75049 18.6053 7.01005 17.5143 7.47386 16.5392C7.73944 15.9809 7.36687 15.2569 6.74858 15.2569L3.62276 15.2569C2.59612 15.2569 1.67719 14.5629 1.5685 13.5421C1.52354 13.1198 1.50049 12.6911 1.50049 12.2569C1.50049 9.40931 2.49237 6.79335 4.14949 4.73571C4.53709 4.25441 5.1363 4.00693 5.75426 4.00693L9.77024 4.00693C10.2539 4.00693 10.7344 4.0849 11.1933 4.23785L14.3077 5.27601C14.7666 5.42895 15.2471 5.50693 15.7307 5.50693Z" fill="#111827"/>
<path d="M21.669 14.0298C22.2057 12.668 22.5005 11.1844 22.5005 9.63193C22.5005 8.41185 22.3184 7.2343 21.9799 6.12497C21.7206 5.27495 20.8963 4.75693 20.0076 4.75693L19.0998 4.75693C18.6543 4.75693 18.3791 5.2552 18.5763 5.65473C19.168 6.85401 19.5005 8.20414 19.5005 9.63193C19.5005 11.3401 19.0246 12.9371 18.1982 14.2977C17.9532 14.701 18.2264 15.2569 18.6984 15.2569H19.7511C20.5832 15.2569 21.3639 14.8039 21.669 14.0298Z" fill="#111827"/>
</svg>
