<svg width="24" height="24" viewBox="0 0 24 24" fill="none" xmlns="http://www.w3.org/2000/svg">
<g clip-path="url(#clip0_4117_938)">
<path d="M10.5005 1.88193C10.5005 1.26061 11.0042 0.756927 11.6255 0.756927C12.2468 0.756927 12.7505 1.26061 12.7505 1.88193V10.1008C13.2679 10.263 13.7713 10.4826 14.2505 10.7596V3.38193C14.2505 2.76061 14.7542 2.25693 15.3755 2.25693C15.9968 2.25693 16.5005 2.76061 16.5005 3.38193V14.3191C15.0826 14.557 13.8896 15.4579 13.2511 16.6921C14.4559 16.0935 15.8139 15.7569 17.2505 15.7569C17.6647 15.7569 18.0005 15.4211 18.0005 15.0069V12.7569L18.0005 12.7406C18.0047 11.884 18.3344 11.025 18.989 10.3704C19.4283 9.93109 20.1406 9.93109 20.58 10.3704C21.0193 10.8098 21.0193 11.5221 20.58 11.9614C20.3615 12.1799 20.2519 12.4637 20.2505 12.7514L20.2505 12.7569L20.2505 15.7569H20.2459C20.1868 17.2627 19.5628 18.6946 18.4931 19.7643L16.7578 21.4996C15.6326 22.6248 14.1065 23.2569 12.5152 23.2569H10.5005C6.35835 23.2569 3.00049 19.8991 3.00049 15.7569V6.38193C3.00049 5.76061 3.50417 5.25693 4.12549 5.25693C4.74681 5.25693 5.25049 5.76061 5.25049 6.38193V11.9008C5.71127 11.449 6.21589 11.0686 6.75049 10.7596V3.38193C6.75049 2.76061 7.25417 2.25693 7.87549 2.25693C8.49681 2.25693 9.00049 2.76061 9.00049 3.38193V9.90762C9.49504 9.80716 9.99776 9.75693 10.5005 9.75693V1.88193Z" fill="#111827"/>
</g>
<defs>
<clipPath id="clip0_4117_938">
<rect width="24" height="24" fill="white" transform="translate(0.000488281 0.00692749)"/>
</clipPath>
</defs>
</svg>
