<svg width="24" height="24" viewBox="0 0 24 24" fill="none" xmlns="http://www.w3.org/2000/svg">
    <path d="M7.49329 18.507C7.06872 18.507 6.67345 18.2705 6.51808 17.8753C6.18398 17.0256 6.00049 16.1002 6.00049 15.132C6.00049 13.3829 6.59923 11.7736 7.60293 10.498C7.75383 10.3062 7.97505 10.189 8.20263 10.1009C8.67544 9.91787 9.09302 9.58664 9.41459 9.17663C10.1877 8.1908 11.1622 7.37035 12.276 6.77717C12.9982 6.39259 13.6248 5.82124 13.9286 5.06159C14.1413 4.53005 14.2505 3.96282 14.2505 3.39034V2.75696C14.2505 2.34274 14.5863 2.00696 15.0005 2.00696C16.2431 2.00696 17.2505 3.01432 17.2505 4.25696C17.2505 5.40859 16.9909 6.49959 16.5271 7.47466C16.2615 8.033 16.6341 8.75696 17.2524 8.75696H20.3782C21.4049 8.75696 22.3238 9.45095 22.4325 10.4718C22.4774 10.894 22.5005 11.3228 22.5005 11.757C22.5005 14.6046 21.5086 17.2205 19.8515 19.2782C19.4639 19.7595 18.8647 20.007 18.2467 20.007H14.2307C13.7471 20.007 13.2666 19.929 12.8077 19.776L9.69326 18.7379C9.23441 18.5849 8.75391 18.507 8.27024 18.507H7.49329Z"
          fill="#111827"/>
    <path d="M2.33198 10.7341C1.79529 12.0959 1.50049 13.5795 1.50049 15.132C1.50049 16.352 1.68257 17.5296 2.02105 18.6389C2.2804 19.4889 3.10466 20.007 3.99338 20.007H4.90116C5.34669 20.007 5.62186 19.5087 5.42472 19.1092C4.83296 17.9099 4.50049 16.5597 4.50049 15.132C4.50049 13.4238 4.97637 11.8267 5.80279 10.4662C6.04779 10.0629 5.77452 9.50696 5.3026 9.50696H4.24984C3.41782 9.50696 2.63704 9.95999 2.33198 10.7341Z"
          fill="#111827"/>
</svg>
