<svg width="24" height="24" viewBox="0 0 24 24" fill="none" xmlns="http://www.w3.org/2000/svg">
    <path fill-rule="evenodd" clip-rule="evenodd"
          d="M11.0979 1.52152C11.504 1.60276 11.7675 1.99788 11.6862 2.40404L10.6656 7.50696H15.1356L16.2151 2.10987C16.2963 1.7037 16.6914 1.44029 17.0976 1.52152C17.5037 1.60276 17.7672 1.99788 17.6859 2.40404L16.6653 7.50696H20.2505C20.6647 7.50696 21.0005 7.84274 21.0005 8.25696C21.0005 8.67117 20.6647 9.00696 20.2505 9.00696H16.3653L15.1653 15.007H18.7505C19.1647 15.007 19.5005 15.3427 19.5005 15.757C19.5005 16.1712 19.1647 16.507 18.7505 16.507H14.8653L13.7859 21.904C13.7047 22.3102 13.3096 22.5736 12.9034 22.4924C12.4972 22.4112 12.2338 22.016 12.3151 21.6099L13.3356 16.507H8.86563L7.78622 21.904C7.70498 22.3102 7.30986 22.5736 6.90369 22.4924C6.49752 22.4112 6.23411 22.016 6.31535 21.6099L7.33593 16.507H3.75049C3.33627 16.507 3.00049 16.1712 3.00049 15.757C3.00049 15.3427 3.33627 15.007 3.75049 15.007H7.63593L8.83593 9.00696H5.25049C4.83627 9.00696 4.50049 8.67117 4.50049 8.25696C4.50049 7.84274 4.83627 7.50696 5.25049 7.50696H9.13593L10.2153 2.10987C10.2966 1.7037 10.6917 1.44029 11.0979 1.52152ZM10.3656 9.00696L9.16563 15.007H13.6356L14.8356 9.00696H10.3656Z"
          fill="#111827"/>
</svg>
