<svg width="24" height="24" viewBox="0 0 24 24" fill="none" xmlns="http://www.w3.org/2000/svg">
<path d="M11.6455 20.9176L11.6389 20.9141L11.6163 20.9019C11.597 20.8914 11.5694 20.8762 11.5341 20.8565C11.4634 20.8171 11.3617 20.7594 11.2334 20.6839C10.977 20.533 10.6137 20.3109 10.179 20.0219C9.31123 19.445 8.1517 18.5971 6.98908 17.5133C4.6883 15.3685 2.25049 12.1821 2.25049 8.25696C2.25049 5.3289 4.71409 3.00696 7.68799 3.00696C9.43687 3.00696 11.0028 3.80605 12.0005 5.05855C12.9982 3.80605 14.5641 3.00696 16.313 3.00696C19.2869 3.00696 21.7505 5.3289 21.7505 8.25696C21.7505 12.1821 19.3127 15.3685 17.0119 17.5133C15.8493 18.5971 14.6897 19.445 13.8219 20.0219C13.3873 20.3109 13.024 20.533 12.7675 20.6839C12.6393 20.7594 12.5376 20.8171 12.4669 20.8565C12.4316 20.8762 12.404 20.8914 12.3847 20.9019L12.3621 20.9141L12.3555 20.9176L12.3528 20.9191C12.1328 21.0359 11.8682 21.0359 11.6482 20.9191L11.6455 20.9176Z" fill="#111827"/>
</svg>
