<svg width="24" height="24" viewBox="0 0 24 24" fill="none" xmlns="http://www.w3.org/2000/svg">
<path d="M11.4702 3.84795C11.7631 3.55506 12.2379 3.55506 12.5308 3.84795L21.2202 12.5373C21.5131 12.8302 21.9879 12.8302 22.2808 12.5373C22.5737 12.2444 22.5737 11.7695 22.2808 11.4766L13.5915 2.78729C12.7128 1.90861 11.2882 1.90861 10.4095 2.78729L1.72016 11.4766C1.42726 11.7695 1.42726 12.2444 1.72016 12.5373C2.01305 12.8302 2.48793 12.8302 2.78082 12.5373L11.4702 3.84795Z" fill="#111827"/>
<path d="M12.0005 5.43894L20.1595 13.598C20.1892 13.6277 20.2196 13.6564 20.2505 13.6841V19.882C20.2505 20.9175 19.411 21.757 18.3755 21.757H15.0005C14.5863 21.757 14.2505 21.4212 14.2505 21.007V16.507C14.2505 16.0927 13.9147 15.757 13.5005 15.757H10.5005C10.0863 15.757 9.75049 16.0927 9.75049 16.507V21.007C9.75049 21.4212 9.4147 21.757 9.00049 21.757H5.62549C4.58995 21.757 3.75049 20.9175 3.75049 19.882V13.6841C3.78141 13.6564 3.81176 13.6277 3.84148 13.598L12.0005 5.43894Z" fill="#111827"/>
</svg>
