<svg width="24" height="24" viewBox="0 0 24 24" fill="none" xmlns="http://www.w3.org/2000/svg">
<path d="M19.0066 3.71179C19.3959 3.57024 19.5967 3.13992 19.4552 2.75064C19.3136 2.36137 18.8833 2.16055 18.494 2.3021L6.00049 6.84521V3.00695C6.00049 2.59274 5.6647 2.25695 5.25049 2.25695H3.75049C3.33627 2.25695 3.00049 2.59274 3.00049 3.00695V7.93611L1.99402 8.3021C1.60474 8.44366 1.40393 8.87398 1.54548 9.26326C1.68704 9.65253 2.11736 9.85335 2.50663 9.71179L19.0066 3.71179Z" fill="#111827"/>
<path fill-rule="evenodd" clip-rule="evenodd" d="M3.01944 11.1215L18.0005 5.67382V9.09532L22.0066 10.5521C22.3959 10.6937 22.5967 11.124 22.4552 11.5133C22.3136 11.9025 21.8833 12.1033 21.494 11.9618L21.0003 11.7823V20.257H21.7505C22.1647 20.257 22.5005 20.5927 22.5005 21.007C22.5005 21.4212 22.1647 21.757 21.7505 21.757H2.25049C1.83627 21.757 1.50049 21.4212 1.50049 21.007C1.50049 20.5927 1.83627 20.257 2.25049 20.257H3.00049V11.1283L3.01944 11.1215ZM18.0005 20.257V10.6914L19.5003 11.2368V20.257H18.0005ZM9.00049 14.257C8.58628 14.257 8.25049 14.5927 8.25049 15.007V19.507C8.25049 19.9212 8.58628 20.257 9.00049 20.257H12.0005C12.4147 20.257 12.7505 19.9212 12.7505 19.507V15.007C12.7505 14.5927 12.4147 14.257 12.0005 14.257H9.00049Z" fill="#111827"/>
</svg>
