<svg width="24" height="24" viewBox="0 0 24 24" fill="none" xmlns="http://www.w3.org/2000/svg">
    <path fill-rule="evenodd" clip-rule="evenodd"
          d="M4.50049 3.75696C2.84363 3.75696 1.50049 5.1001 1.50049 6.75696V17.257C1.50049 18.9138 2.84363 20.257 4.50049 20.257H19.5005C21.1573 20.257 22.5005 18.9138 22.5005 17.257V6.75696C22.5005 5.1001 21.1573 3.75696 19.5005 3.75696H4.50049ZM8.62549 6.75696C7.38285 6.75696 6.37549 7.76432 6.37549 9.00696C6.37549 10.2496 7.38285 11.257 8.62549 11.257C9.86813 11.257 10.8755 10.2496 10.8755 9.00696C10.8755 7.76432 9.86813 6.75696 8.62549 6.75696ZM4.7524 15.4597C5.33138 13.8834 6.84591 12.757 8.62544 12.757C10.405 12.757 11.9195 13.8834 12.4985 15.4597C12.6276 15.8113 12.4776 16.2042 12.1471 16.3803C11.0963 16.94 9.89676 17.257 8.62544 17.257C7.35413 17.257 6.15462 16.94 5.1038 16.3803C4.77327 16.2042 4.62328 15.8113 4.7524 15.4597ZM15.0005 8.25696C14.5863 8.25696 14.2505 8.59274 14.2505 9.00696C14.2505 9.42117 14.5863 9.75696 15.0005 9.75696H18.7505C19.1647 9.75696 19.5005 9.42117 19.5005 9.00696C19.5005 8.59274 19.1647 8.25696 18.7505 8.25696H15.0005ZM14.2505 12.007C14.2505 11.5927 14.5863 11.257 15.0005 11.257H18.7505C19.1647 11.257 19.5005 11.5927 19.5005 12.007C19.5005 12.4212 19.1647 12.757 18.7505 12.757H15.0005C14.5863 12.757 14.2505 12.4212 14.2505 12.007ZM15.0005 14.257C14.5863 14.257 14.2505 14.5927 14.2505 15.007C14.2505 15.4212 14.5863 15.757 15.0005 15.757H18.7505C19.1647 15.757 19.5005 15.4212 19.5005 15.007C19.5005 14.5927 19.1647 14.257 18.7505 14.257H15.0005Z"
          fill="#111827"/>
</svg>
