<svg width="24" height="24" viewBox="0 0 24 24" fill="none" xmlns="http://www.w3.org/2000/svg">
    <path fill-rule="evenodd" clip-rule="evenodd"
          d="M6.91228 3.00696C5.59527 3.00696 4.43226 3.86593 4.04494 5.1247L1.63315 12.963C1.5452 13.2489 1.50049 13.5462 1.50049 13.8453V18.007C1.50049 19.6638 2.84363 21.007 4.50049 21.007H19.5005C21.1573 21.007 22.5005 19.6638 22.5005 18.007V13.8453C22.5005 13.5462 22.4558 13.2489 22.3678 12.963L19.956 5.1247C19.5687 3.86593 18.4057 3.00696 17.0887 3.00696H6.91228ZM20.735 12.757L18.5224 5.56583C18.3287 4.93644 17.7472 4.50696 17.0887 4.50696H6.91228C6.25377 4.50696 5.67227 4.93644 5.47861 5.56583L3.26596 12.757H6.10991C7.24623 12.757 8.28502 13.399 8.79319 14.4153L9.04942 14.9278C9.30351 15.436 9.82291 15.757 10.3911 15.757H13.6099C14.1781 15.757 14.6975 15.436 14.9516 14.9278L15.2078 14.4153C15.716 13.399 16.7547 12.757 17.8911 12.757H20.735Z"
          fill="#111827"/>
</svg>
