<svg width="24" height="24" viewBox="0 0 24 24" fill="none" xmlns="http://www.w3.org/2000/svg">
    <path fill-rule="evenodd" clip-rule="evenodd"
          d="M5.47861 5.56583C5.67227 4.93644 6.25377 4.50696 6.91228 4.50696H9.00049C9.4147 4.50696 9.75049 4.17117 9.75049 3.75696C9.75049 3.34274 9.4147 3.00696 9.00049 3.00696H6.91228C5.59527 3.00696 4.43226 3.86593 4.04494 5.1247L1.63315 12.963C1.5452 13.2489 1.50049 13.5462 1.50049 13.8453V18.007C1.50049 19.6638 2.84363 21.007 4.50049 21.007H19.5005C21.1573 21.007 22.5005 19.6638 22.5005 18.007V13.8453C22.5005 13.5462 22.4558 13.2489 22.3678 12.963L19.956 5.1247C19.5687 3.86593 18.4057 3.00696 17.0887 3.00696H15.0005C14.5863 3.00696 14.2505 3.34274 14.2505 3.75696C14.2505 4.17117 14.5863 4.50696 15.0005 4.50696H17.0887C17.7472 4.50696 18.3287 4.93644 18.5224 5.56583L20.735 12.757H17.8911C16.7547 12.757 15.716 13.399 15.2078 14.4153L14.9516 14.9278C14.6975 15.436 14.1781 15.757 13.6099 15.757H10.3911C9.82291 15.757 9.30351 15.436 9.04942 14.9278L8.79319 14.4153C8.28502 13.399 7.24623 12.757 6.10991 12.757H3.26596L5.47861 5.56583Z"
          fill="#111827"/>
    <path fill-rule="evenodd" clip-rule="evenodd"
          d="M12.0005 2.25696C12.4147 2.25696 12.7505 2.59274 12.7505 3.00696V9.4463L14.4702 7.72663C14.7631 7.43373 15.2379 7.43373 15.5308 7.72663C15.8237 8.01952 15.8237 8.4944 15.5308 8.78729L12.5308 11.7873C12.2379 12.0802 11.7631 12.0802 11.4702 11.7873L8.47016 8.78729C8.17727 8.4944 8.17727 8.01952 8.47016 7.72663C8.76305 7.43373 9.23793 7.43373 9.53082 7.72663L11.2505 9.4463V3.00696C11.2505 2.59274 11.5863 2.25696 12.0005 2.25696Z"
          fill="#111827"/>
</svg>
