<svg width="24" height="24" viewBox="0 0 24 24" fill="none" xmlns="http://www.w3.org/2000/svg">
    <path fill-rule="evenodd" clip-rule="evenodd"
          d="M1.50049 9.83929V11.632C1.50049 12.6675 2.33995 13.507 3.37549 13.507H20.6255C21.661 13.507 22.5005 12.6675 22.5005 11.632V9.83929C22.5005 9.12315 22.2443 8.43064 21.7783 7.88691L18.4934 4.05458C17.9235 3.38965 17.0914 3.00696 16.2156 3.00696H7.78534C6.90957 3.00696 6.07752 3.38965 5.50757 4.05458L2.22272 7.88691C1.75666 8.43064 1.50049 9.12315 1.50049 9.83929ZM7.78534 4.50696C7.34745 4.50696 6.93143 4.6983 6.64646 5.03077L3.88115 8.25696H7.04632C8.04938 8.25696 8.98608 8.75826 9.54248 9.59286L9.70658 9.83901C9.98478 10.2563 10.4531 10.507 10.9547 10.507H13.0463C13.5479 10.507 14.0162 10.2563 14.2944 9.83901L14.4585 9.59286C15.0149 8.75826 15.9516 8.25696 16.9547 8.25696H20.1198L17.3545 5.03077C17.0695 4.6983 16.6535 4.50696 16.2156 4.50696H7.78534Z"
          fill="#111827"/>
    <path d="M2.81299 15.007C2.08811 15.007 1.50049 15.5946 1.50049 16.3195V18.007C1.50049 19.6638 2.84363 21.007 4.50049 21.007H19.5005C21.1573 21.007 22.5005 19.6638 22.5005 18.007V16.3195C22.5005 15.5946 21.9129 15.007 21.188 15.007H16.9547C15.9516 15.007 15.0149 15.5083 14.4585 16.3429L14.2944 16.589C14.0162 17.0063 13.5479 17.257 13.0463 17.257H10.9547C10.4531 17.257 9.98478 17.0063 9.70658 16.589L9.54248 16.3429C8.98608 15.5083 8.04938 15.007 7.04632 15.007H2.81299Z"
          fill="#111827"/>
</svg>
