<svg width="24" height="24" viewBox="0 0 24 24" fill="none" xmlns="http://www.w3.org/2000/svg">
    <path fill-rule="evenodd" clip-rule="evenodd"
          d="M2.25049 12.007C2.25049 6.62218 6.61571 2.25696 12.0005 2.25696C17.3853 2.25696 21.7505 6.62218 21.7505 12.007C21.7505 17.3917 17.3853 21.757 12.0005 21.757C6.61571 21.757 2.25049 17.3917 2.25049 12.007ZM10.9567 10.5654C12.103 9.99229 13.3936 11.0276 13.0828 12.2709L12.3738 15.1069L12.4152 15.0862C12.7857 14.9009 13.2362 15.0511 13.4215 15.4216C13.6067 15.792 13.4565 16.2425 13.0861 16.4278L13.0446 16.4485C11.8983 17.0217 10.6077 15.9864 10.9185 14.7431L11.6276 11.907L11.5861 11.9278C11.2156 12.113 10.7651 11.9629 10.5798 11.5924C10.3946 11.2219 10.5448 10.7714 10.9152 10.5862L10.9567 10.5654ZM12.0005 9.00696C12.4147 9.00696 12.7505 8.67117 12.7505 8.25696C12.7505 7.84274 12.4147 7.50696 12.0005 7.50696C11.5863 7.50696 11.2505 7.84274 11.2505 8.25696C11.2505 8.67117 11.5863 9.00696 12.0005 9.00696Z"
          fill="#111827"/>
</svg>
