<svg width="24" height="24" viewBox="0 0 24 24" fill="none" xmlns="http://www.w3.org/2000/svg">
<path fill-rule="evenodd" clip-rule="evenodd" d="M10.4973 3.75126C10.4973 3.33702 10.8331 3.00122 11.2473 3.00122H18.7472C19.1614 3.00122 19.4972 3.33702 19.4972 3.75126C19.4972 4.1655 19.1614 4.5013 18.7472 4.5013H15.4723L10.1152 19.5028H12.7473C13.1615 19.5028 13.4973 19.8386 13.4973 20.2528C13.4973 20.6671 13.1615 21.0029 12.7473 21.0029H5.24745C4.83323 21.0029 4.49744 20.6671 4.49744 20.2528C4.49744 19.8386 4.83323 19.5028 5.24745 19.5028H8.52238L13.8794 4.5013H11.2473C10.8331 4.5013 10.4973 4.1655 10.4973 3.75126Z" fill="#111827"/>
</svg>
