<svg width="24" height="24" viewBox="0 0 24 24" fill="none" xmlns="http://www.w3.org/2000/svg">
<path fill-rule="evenodd" clip-rule="evenodd" d="M15.7505 1.50928C12.0226 1.50928 9.00049 4.53136 9.00049 8.25928C9.00049 8.653 9.03428 9.03943 9.09928 9.41567C9.16647 9.80455 9.06727 10.1318 8.87816 10.3209L2.37917 16.8199C1.81656 17.3825 1.50049 18.1456 1.50049 18.9413V21.7593C1.50049 22.1735 1.83627 22.5093 2.25049 22.5093H6.00049C6.4147 22.5093 6.75049 22.1735 6.75049 21.7593V20.2593H8.25049C8.6647 20.2593 9.00049 19.9235 9.00049 19.5093V18.0093H10.5005C10.6994 18.0093 10.8902 17.9303 11.0308 17.7896L13.6888 15.1316C13.8779 14.9425 14.2052 14.8433 14.5941 14.9105C14.9703 14.9755 15.3568 15.0093 15.7505 15.0093C19.4784 15.0093 22.5005 11.9872 22.5005 8.25928C22.5005 4.53136 19.4784 1.50928 15.7505 1.50928ZM15.7505 4.50928C15.3363 4.50928 15.0005 4.84506 15.0005 5.25928C15.0005 5.67349 15.3363 6.00928 15.7505 6.00928C16.9931 6.00928 18.0005 7.01664 18.0005 8.25928C18.0005 8.67349 18.3363 9.00928 18.7505 9.00928C19.1647 9.00928 19.5005 8.67349 19.5005 8.25928C19.5005 6.18821 17.8216 4.50928 15.7505 4.50928Z" fill="#111827"/>
</svg>
