<svg width="24" height="24" viewBox="0 0 24 24" fill="none" xmlns="http://www.w3.org/2000/svg">
<path fill-rule="evenodd" clip-rule="evenodd" d="M9.00046 2.25928C9.41468 2.25928 9.75046 2.59506 9.75046 3.00928V4.51493C10.6348 4.52827 11.5136 4.56517 12.3861 4.62504C13.2955 4.68743 14.1981 4.77478 15.0933 4.8864C15.5043 4.93766 15.796 5.31241 15.7447 5.72344C15.6934 6.13447 15.3187 6.42613 14.9077 6.37488C14.2481 6.29264 13.5844 6.22398 12.9166 6.16921C12.3259 8.47898 11.3065 10.6166 9.9484 12.4927C10.2652 12.8759 10.5983 13.2453 10.9467 13.5997C11.237 13.8952 11.2329 14.37 10.9374 14.6603C10.642 14.9507 10.1672 14.9466 9.87682 14.6511C9.57394 14.3429 9.28163 14.0243 9.00046 13.6958C7.42933 15.5313 5.50987 17.0594 3.34469 18.1779C2.97668 18.368 2.52423 18.2238 2.33412 17.8558C2.14401 17.4878 2.28822 17.0353 2.65623 16.8452C4.73802 15.7698 6.57258 14.283 8.05254 12.4927C7.18644 11.2962 6.45803 9.99328 5.89067 8.60701C5.73378 8.22366 5.91735 7.78571 6.3007 7.62882C6.68405 7.47192 7.12201 7.6555 7.2789 8.03885C7.74122 9.16847 8.32002 10.2383 9.00045 11.2334C10.0653 9.67602 10.8815 7.93531 11.3917 6.06872C10.5996 6.02925 9.80242 6.00928 9.00046 6.00928C6.9996 6.00928 5.02812 6.1336 3.09327 6.37488C2.68224 6.42613 2.30748 6.13447 2.25623 5.72344C2.20497 5.31241 2.49663 4.93766 2.90766 4.8864C4.6616 4.66769 6.44425 4.54218 8.25046 4.51493V3.00928C8.25046 2.59506 8.58625 2.25928 9.00046 2.25928ZM15.7505 9.00928C16.0419 9.00928 16.3069 9.17806 16.4301 9.44211L21.6801 20.6921C21.8553 21.0675 21.693 21.5138 21.3176 21.6889C20.9423 21.8641 20.496 21.7018 20.3208 21.3264L19.1228 18.7593H12.3781L11.1801 21.3264C11.0049 21.7018 10.5587 21.8641 10.1833 21.6889C9.80794 21.5138 9.64566 21.0675 9.82083 20.6921L15.0708 9.44211C15.1941 9.17806 15.4591 9.00928 15.7505 9.00928ZM13.0781 17.2593H18.4228L15.7505 11.5328L13.0781 17.2593Z" fill="#111827"/>
</svg>
