<svg width="24" height="24" viewBox="0 0 24 24" fill="none" xmlns="http://www.w3.org/2000/svg">
<path fill-rule="evenodd" clip-rule="evenodd" d="M19.4495 8.45745L16.3883 11.0084C16.5379 11.6667 16.5379 12.3518 16.3883 13.0101L19.4495 15.5611C20.5175 13.321 20.5175 10.6975 19.4495 8.45745ZM15.5523 19.4583L13.0013 16.3971C12.343 16.5467 11.6579 16.5467 10.9997 16.3971L8.44866 19.4583C10.6887 20.5263 13.3123 20.5263 15.5523 19.4583ZM4.55151 15.5611L7.61269 13.0101C7.46309 12.3518 7.46309 11.6667 7.61269 11.0084L4.55151 8.45745C3.48348 10.6975 3.48348 13.321 4.55151 15.5611ZM8.44866 4.5603L10.9997 7.62148C11.6579 7.47188 12.343 7.47188 13.0013 7.62148L15.5523 4.5603C13.3122 3.49227 10.6887 3.49227 8.44866 4.5603ZM17.106 3.70048C17.7429 4.09253 18.344 4.5642 18.8948 5.11499C19.4456 5.66577 19.9172 6.26683 20.3093 6.90376C22.2309 10.0256 22.2309 13.993 20.3093 17.1148C19.9172 17.7517 19.4456 18.3528 18.8948 18.9036C18.344 19.4544 17.7429 19.926 17.106 20.3181C13.9842 22.2397 10.0168 22.2397 6.89497 20.3181C6.25804 19.926 5.65698 19.4544 5.1062 18.9036C4.55541 18.3528 4.08374 17.7517 3.69169 17.1148C1.77009 13.993 1.77009 10.0256 3.69169 6.90376C4.08374 6.26683 4.55541 5.66577 5.1062 5.11499C5.65698 4.5642 6.25804 4.09253 6.89497 3.70048C10.0168 1.77888 13.9842 1.77888 17.106 3.70048ZM14.1218 9.88796C13.7963 9.5624 13.4163 9.32834 13.0119 9.18399C12.3595 8.95104 11.6415 8.95104 10.989 9.18399C10.5847 9.32834 10.2047 9.5624 9.87917 9.88796C9.55362 10.2135 9.31956 10.5935 9.1752 10.9978C8.94225 11.6503 8.94225 12.3683 9.1752 13.0207C9.31956 13.425 9.55362 13.805 9.87917 14.1306C10.2047 14.4562 10.5847 14.6902 10.989 14.8346C11.6415 15.0675 12.3595 15.0675 13.0119 14.8346C13.4163 14.6902 13.7963 14.4562 14.1218 14.1306C14.4474 13.805 14.6814 13.425 14.8258 13.0207C15.0587 12.3683 15.0587 11.6503 14.8258 10.9978C14.6814 10.5935 14.4474 10.2135 14.1218 9.88796Z" fill="#111827"/>
</svg>
