<svg width="24" height="24" viewBox="0 0 24 24" fill="none" xmlns="http://www.w3.org/2000/svg">
    <g clip-path="url(#clip0_4117_1014)">
        <path d="M12.0005 0.759277C7.44414 0.759277 3.75049 4.45293 3.75049 9.00928C3.75049 12.06 5.4068 14.7231 7.86565 16.1497C8.55111 16.5474 8.98034 17.1577 8.99977 17.7718C9.01048 18.1106 9.24705 18.4001 9.57689 18.478C9.92827 18.5611 10.2863 18.6264 10.6501 18.6732C10.9737 18.7147 11.2507 18.4555 11.2507 18.1293V13.4682C10.9314 13.4329 10.6185 13.3753 10.3137 13.2968C9.91259 13.1936 9.6711 12.7847 9.77434 12.3836C9.87759 11.9824 10.2865 11.7409 10.6876 11.8442C11.1064 11.952 11.5462 12.0095 12.0007 12.0095C12.4551 12.0095 12.8949 11.952 13.3137 11.8442C13.7149 11.7409 14.1238 11.9824 14.227 12.3836C14.3302 12.7847 14.0888 13.1936 13.6876 13.2968C13.3828 13.3753 13.07 13.4329 12.7507 13.4682V18.1292C12.7507 18.4555 13.0277 18.7147 13.3513 18.6731C13.7149 18.6264 14.0728 18.561 14.4241 18.478C14.7539 18.4001 14.9905 18.1106 15.0012 17.7718C15.0206 17.1577 15.4499 16.5474 16.1353 16.1497C18.5942 14.7231 20.2505 12.06 20.2505 9.00928C20.2505 4.45293 16.5568 0.759277 12.0005 0.759277Z"
              fill="#111827"/>
        <path fill-rule="evenodd" clip-rule="evenodd"
              d="M9.01363 19.9089C9.09083 19.502 9.48331 19.2347 9.89027 19.3118C10.5732 19.4414 11.2786 19.5093 12.0005 19.5093C12.7224 19.5093 13.4277 19.4414 14.1107 19.3118C14.5177 19.2347 14.9102 19.502 14.9874 19.9089C15.0645 20.3159 14.7972 20.7084 14.3903 20.7856C13.6156 20.9325 12.8167 21.0093 12.0005 21.0093C11.1843 21.0093 10.3854 20.9325 9.61071 20.7856C9.20375 20.7084 8.93643 20.3159 9.01363 19.9089Z"
              fill="#111827"/>
        <path fill-rule="evenodd" clip-rule="evenodd"
              d="M9.75456 22.3532C9.79766 21.9413 10.1666 21.6423 10.5785 21.6853C11.0456 21.7342 11.52 21.7593 12.0005 21.7593C12.481 21.7593 12.9554 21.7342 13.4225 21.6853C13.8344 21.6423 14.2033 21.9413 14.2464 22.3532C14.2895 22.7652 13.9905 23.1341 13.5785 23.1772C13.0597 23.2315 12.5332 23.2593 12.0005 23.2593C11.4678 23.2593 10.9413 23.2315 10.4225 23.1772C10.0105 23.1341 9.71146 22.7652 9.75456 22.3532Z"
              fill="#111827"/>
    </g>
    <defs>
        <clipPath id="clip0_4117_1014">
            <rect width="24" height="24" fill="white" transform="translate(0.000488281 0.00927734)"/>
        </clipPath>
    </defs>
</svg>
