<svg width="24" height="24" viewBox="0 0 24 24" fill="none" xmlns="http://www.w3.org/2000/svg">
<path fill-rule="evenodd" clip-rule="evenodd" d="M19.9021 4.10763C18.4377 2.64316 16.0633 2.64316 14.5988 4.10763L10.0988 8.60763C8.63437 10.0721 8.63437 12.4465 10.0988 13.9109C10.4097 14.2218 10.7603 14.4658 11.1335 14.6441C11.5073 14.8227 11.6655 15.2704 11.487 15.6441C11.3084 16.0179 10.8607 16.1762 10.4869 15.9976C9.96218 15.7469 9.47112 15.4045 9.03818 14.9716C6.98793 12.9213 6.98793 9.59722 9.03818 7.54697L13.5382 3.04697C15.5884 0.996714 18.9125 0.996714 20.9628 3.04697C23.0131 5.09722 23.0131 8.42134 20.9628 10.4716L19.2058 12.2286C18.9129 12.5215 18.4381 12.5215 18.1452 12.2286C17.8523 11.9357 17.8523 11.4608 18.1452 11.1679L19.9021 9.41093C21.3666 7.94646 21.3666 5.57209 19.9021 4.10763ZM12.514 8.37441C12.6925 8.00065 13.1403 7.8424 13.514 8.02095C14.0388 8.27163 14.5299 8.61403 14.9628 9.04697C17.0131 11.0972 17.0131 14.4213 14.9628 16.4716L10.4628 20.9716C8.41255 23.0218 5.08843 23.0218 3.03818 20.9716C0.987925 18.9213 0.987925 15.5972 3.03818 13.547L4.79515 11.79C5.08804 11.4971 5.56292 11.4971 5.85581 11.79C6.1487 12.0829 6.1487 12.5578 5.85581 12.8507L4.09884 14.6076C2.63437 16.0721 2.63437 18.4465 4.09884 19.9109C5.5633 21.3754 7.93767 21.3754 9.40214 19.9109L13.9021 15.4109C15.3666 13.9465 15.3666 11.5721 13.9021 10.1076C13.5913 9.79676 13.2407 9.55275 12.8675 9.37444C12.4937 9.1959 12.3355 8.74817 12.514 8.37441Z" fill="#111827"/>
</svg>
