<svg width="24" height="25" viewBox="0 0 24 25" fill="none" xmlns="http://www.w3.org/2000/svg">
    <path fill-rule="evenodd" clip-rule="evenodd"
          d="M19.8923 4.09944C18.4279 2.63485 16.0536 2.63485 14.5892 4.09944L10.0893 8.59987C10.0152 8.67394 9.94498 8.75025 9.87852 8.82855L14.8439 13.7945C15.2098 12.5249 14.8922 11.0999 13.8924 10.1C13.5816 9.78911 13.231 9.54509 12.8578 9.36677C12.484 9.1882 12.3258 8.74044 12.5043 8.36667C12.6829 7.9929 13.1306 7.83466 13.5044 8.01322C14.0292 8.26393 14.5202 8.60636 14.9532 9.03934C16.5539 10.6403 16.9042 13.0164 16.0066 14.9573L21.521 20.4724C21.8139 20.7653 21.8139 21.2402 21.521 21.5331C21.2281 21.826 20.7532 21.826 20.4603 21.5331L2.46067 3.53136C2.16778 3.23844 2.1678 2.76354 2.46071 2.47065C2.75362 2.17775 3.22851 2.17777 3.5214 2.47069L8.81534 7.76525C8.8838 7.68829 8.95487 7.6129 9.02856 7.5392L13.5285 3.03877C15.5787 0.988298 18.9028 0.988298 20.953 3.03877C23.0032 5.0892 23.0032 8.41358 20.953 10.464L19.1961 12.2212C18.9032 12.5141 18.4283 12.5141 18.1354 12.2212C17.8425 11.9283 17.8425 11.4534 18.1354 11.1605L19.8923 9.40334C21.3568 7.93872 21.3568 5.56406 19.8923 4.09944ZM5.8463 11.7826C6.13921 12.0755 6.13923 12.5504 5.84634 12.8433L4.08941 14.6004C2.62495 16.0651 2.62495 18.4397 4.08941 19.9044C5.55383 21.3689 7.92809 21.3689 9.39251 19.9044L12.5211 16.7754C12.814 16.4824 13.2889 16.4824 13.5818 16.7753C13.8747 17.0682 13.8747 17.5431 13.5819 17.836L10.4532 20.965C8.40301 23.0155 5.0789 23.0155 3.02867 20.965C0.978479 18.9146 0.978479 15.5902 3.02867 13.5398L4.78561 11.7826C5.0785 11.4897 5.55338 11.4897 5.8463 11.7826ZM8.24743 12.0428C8.63813 11.9052 9.0664 12.1104 9.204 12.5011C9.38409 13.0125 9.67858 13.493 10.0893 13.9038C10.4002 14.2147 10.7507 14.4587 11.1239 14.637C11.4977 14.8156 11.6559 15.2633 11.4774 15.6371C11.2988 16.0109 10.8511 16.1691 10.4773 15.9906C9.95254 15.7399 9.46149 15.3974 9.02856 14.9644C8.45589 14.3917 8.04215 13.7178 7.78915 12.9994C7.65155 12.6087 7.85673 12.1804 8.24743 12.0428Z"
          fill="#111827"/>
</svg>
