<svg width="24" height="25" viewBox="0 0 24 25" fill="none" xmlns="http://www.w3.org/2000/svg">
<path fill-rule="evenodd" clip-rule="evenodd" d="M2.62549 6.7616C2.62549 6.14028 3.12917 5.6366 3.75049 5.6366C4.37181 5.6366 4.87549 6.14028 4.87549 6.7616C4.87549 7.38292 4.37181 7.8866 3.75049 7.8866C3.12917 7.8866 2.62549 7.38292 2.62549 6.7616ZM7.50049 6.7616C7.50049 6.34738 7.83627 6.0116 8.25049 6.0116H20.2505C20.6647 6.0116 21.0005 6.34738 21.0005 6.7616C21.0005 7.17581 20.6647 7.5116 20.2505 7.5116H8.25049C7.83627 7.5116 7.50049 7.17581 7.50049 6.7616ZM2.62549 12.0116C2.62549 11.3903 3.12917 10.8866 3.75049 10.8866C4.37181 10.8866 4.87549 11.3903 4.87549 12.0116C4.87549 12.6329 4.37181 13.1366 3.75049 13.1366C3.12917 13.1366 2.62549 12.6329 2.62549 12.0116ZM7.50049 12.0116C7.50049 11.5974 7.83627 11.2616 8.25049 11.2616H20.2505C20.6647 11.2616 21.0005 11.5974 21.0005 12.0116C21.0005 12.4258 20.6647 12.7616 20.2505 12.7616H8.25049C7.83627 12.7616 7.50049 12.4258 7.50049 12.0116ZM2.62549 17.2616C2.62549 16.6403 3.12917 16.1366 3.75049 16.1366C4.37181 16.1366 4.87549 16.6403 4.87549 17.2616C4.87549 17.8829 4.37181 18.3866 3.75049 18.3866C3.12917 18.3866 2.62549 17.8829 2.62549 17.2616ZM7.50049 17.2616C7.50049 16.8474 7.83627 16.5116 8.25049 16.5116H20.2505C20.6647 16.5116 21.0005 16.8474 21.0005 17.2616C21.0005 17.6758 20.6647 18.0116 20.2505 18.0116H8.25049C7.83627 18.0116 7.50049 17.6758 7.50049 17.2616Z" fill="#111827"/>
</svg>
