<svg width="24" height="24" viewBox="0 0 24 24" fill="none" xmlns="http://www.w3.org/2000/svg">
    <path fill-rule="evenodd" clip-rule="evenodd"
          d="M3.09523 10.4806C3.50798 10.5154 3.81441 10.8782 3.77965 11.2909C3.39731 15.8312 6.76799 19.8218 11.3083 20.2041C15.8485 20.5864 19.8391 17.2158 20.2215 12.6755C20.6038 8.1352 17.2331 4.14463 12.6928 3.76229C12.2801 3.72753 11.9737 3.36475 12.0084 2.952C12.0432 2.53925 12.406 2.23282 12.8187 2.26758C18.1845 2.71943 22.168 7.43556 21.7162 12.8013C21.2643 18.1671 16.5482 22.1507 11.1824 21.6988C5.81661 21.247 1.83308 16.5308 2.28494 11.165C2.3197 10.7523 2.68248 10.4459 3.09523 10.4806Z"
          fill="#111827"/>
</svg>
