<svg width="24" height="25" viewBox="0 0 24 25" fill="none" xmlns="http://www.w3.org/2000/svg">
    <g clip-path="url(#clip0_4117_1033)">
        <path d="M18.0005 1.5116C20.9 1.5116 23.2505 3.8621 23.2505 6.7616V10.5116C23.2505 10.9258 22.9147 11.2616 22.5005 11.2616C22.0863 11.2616 21.7505 10.9258 21.7505 10.5116V6.7616C21.7505 4.69053 20.0716 3.0116 18.0005 3.0116C15.9294 3.0116 14.2505 4.69053 14.2505 6.7616V9.7616C15.9073 9.7616 17.2505 11.1047 17.2505 12.7616V19.5116C17.2505 21.1685 15.9073 22.5116 14.2505 22.5116H3.75049C2.09363 22.5116 0.750488 21.1685 0.750488 19.5116V12.7616C0.750488 11.1047 2.09363 9.7616 3.75049 9.7616H12.7505V6.7616C12.7505 3.8621 15.101 1.5116 18.0005 1.5116Z"
              fill="#111827"/>
    </g>
    <defs>
        <clipPath id="clip0_4117_1033">
            <rect width="24" height="24" fill="white" transform="translate(0.000488281 0.0115967)"/>
        </clipPath>
    </defs>
</svg>
