<svg width="24" height="25" viewBox="0 0 24 25" fill="none" xmlns="http://www.w3.org/2000/svg">
<path fill-rule="evenodd" clip-rule="evenodd" d="M12.0005 1.5116C9.10099 1.5116 6.75049 3.8621 6.75049 6.7616V9.7616C5.09363 9.7616 3.75049 11.1047 3.75049 12.7616V19.5116C3.75049 21.1685 5.09363 22.5116 6.75049 22.5116H17.2505C18.9073 22.5116 20.2505 21.1685 20.2505 19.5116V12.7616C20.2505 11.1047 18.9073 9.7616 17.2505 9.7616V6.7616C17.2505 3.8621 14.9 1.5116 12.0005 1.5116ZM15.7505 9.7616V6.7616C15.7505 4.69053 14.0716 3.0116 12.0005 3.0116C9.92942 3.0116 8.25049 4.69053 8.25049 6.7616V9.7616H15.7505Z" fill="#111827"/>
</svg>
