<svg width="24" height="25" viewBox="0 0 24 25" fill="none" xmlns="http://www.w3.org/2000/svg">
    <path d="M8.25049 10.8866C8.25049 9.43685 9.42574 8.2616 10.8755 8.2616C12.3252 8.2616 13.5005 9.43685 13.5005 10.8866C13.5005 11.6117 13.2075 12.2669 12.7316 12.7428C12.2558 13.2186 11.6006 13.5116 10.8755 13.5116C9.42574 13.5116 8.25049 12.3363 8.25049 10.8866Z"
          fill="#111827"/>
    <path fill-rule="evenodd" clip-rule="evenodd"
          d="M12.0005 2.2616C6.61571 2.2616 2.25049 6.62682 2.25049 12.0116C2.25049 17.3964 6.61571 21.7616 12.0005 21.7616C17.3853 21.7616 21.7505 17.3964 21.7505 12.0116C21.7505 6.62682 17.3853 2.2616 12.0005 2.2616ZM10.8755 6.7616C8.59731 6.7616 6.75049 8.60842 6.75049 10.8866C6.75049 13.1648 8.59731 15.0116 10.8755 15.0116C11.7433 15.0116 12.5492 14.7431 13.2136 14.2853L15.2202 16.2919C15.5131 16.5848 15.9879 16.5848 16.2808 16.2919C16.5737 15.999 16.5737 15.5242 16.2808 15.2313L14.2742 13.2247C14.7319 12.5603 15.0005 11.7544 15.0005 10.8866C15.0005 8.60842 13.1537 6.7616 10.8755 6.7616Z"
          fill="#111827"/>
</svg>
