<svg width="24" height="25" viewBox="0 0 24 25" fill="none" xmlns="http://www.w3.org/2000/svg">
    <path fill-rule="evenodd" clip-rule="evenodd"
          d="M10.5005 3.7616C6.77257 3.7616 3.75049 6.78367 3.75049 10.5116C3.75049 14.2395 6.77257 17.2616 10.5005 17.2616C12.3647 17.2616 14.0511 16.5069 15.2735 15.2846C16.4958 14.0622 17.2505 12.3758 17.2505 10.5116C17.2505 6.78367 14.2284 3.7616 10.5005 3.7616ZM2.25049 10.5116C2.25049 5.95525 5.94414 2.2616 10.5005 2.2616C15.0568 2.2616 18.7505 5.95525 18.7505 10.5116C18.7505 12.5194 18.0325 14.3607 16.8404 15.7909L21.5308 20.4813C21.8237 20.7742 21.8237 21.249 21.5308 21.5419C21.2379 21.8348 20.7631 21.8348 20.4702 21.5419L15.7798 16.8515C14.3495 18.0436 12.5083 18.7616 10.5005 18.7616C5.94414 18.7616 2.25049 15.0679 2.25049 10.5116ZM6.75049 10.5116C6.75049 10.0974 7.08627 9.7616 7.50049 9.7616H13.5005C13.9147 9.7616 14.2505 10.0974 14.2505 10.5116C14.2505 10.9258 13.9147 11.2616 13.5005 11.2616H7.50049C7.08627 11.2616 6.75049 10.9258 6.75049 10.5116Z"
          fill="#111827"/>
</svg>
