<svg width="24" height="25" viewBox="0 0 24 25" fill="none" xmlns="http://www.w3.org/2000/svg">
<path fill-rule="evenodd" clip-rule="evenodd" d="M11.5402 22.3626C11.5704 22.3801 11.5942 22.3936 11.611 22.4031L11.6389 22.4187C11.8618 22.541 12.1382 22.5401 12.3613 22.4191L12.39 22.4031C12.4068 22.3936 12.4305 22.3801 12.4607 22.3626C12.5211 22.3276 12.6075 22.2766 12.716 22.2098C12.933 22.0762 13.2392 21.8792 13.6051 21.6207C14.3356 21.1047 15.3102 20.339 16.287 19.3389C18.2312 17.3484 20.2505 14.3578 20.2505 10.5116C20.2505 5.95525 16.5568 2.2616 12.0005 2.2616C7.44414 2.2616 3.75049 5.95525 3.75049 10.5116C3.75049 14.3578 5.76981 17.3484 7.71394 19.3389C8.69074 20.339 9.6654 21.1047 10.3959 21.6207C10.7617 21.8792 11.068 22.0762 11.285 22.2098C11.3935 22.2766 11.4798 22.3276 11.5402 22.3626ZM12.0005 13.5116C13.6573 13.5116 15.0005 12.1685 15.0005 10.5116C15.0005 8.85474 13.6573 7.5116 12.0005 7.5116C10.3436 7.5116 9.00049 8.85474 9.00049 10.5116C9.00049 12.1685 10.3436 13.5116 12.0005 13.5116Z" fill="#111827"/>
</svg>
