<svg width="24" height="25" viewBox="0 0 24 25" fill="none" xmlns="http://www.w3.org/2000/svg">
    <path fill-rule="evenodd" clip-rule="evenodd"
          d="M8.16196 2.59236C8.68983 2.32843 9.31115 2.32843 9.83901 2.59236L14.8328 5.08924C14.9384 5.14203 15.0626 5.14203 15.1682 5.08924L19.037 3.15486C20.2837 2.53151 21.7505 3.43807 21.7505 4.83191V17.3163C21.7505 18.0265 21.3492 18.6758 20.714 18.9934L15.839 21.4309C15.3111 21.6948 14.6898 21.6948 14.162 21.4309L9.16819 18.934C9.06262 18.8812 8.93836 18.8812 8.83278 18.934L4.96401 20.8684C3.71732 21.4917 2.25049 20.5852 2.25049 19.1913V6.70691C2.25049 5.99671 2.65174 5.34747 3.28696 5.02986L8.16196 2.59236ZM9.00049 6.01161C9.4147 6.01161 9.75049 6.3474 9.75049 6.76161V15.0116C9.75049 15.4258 9.4147 15.7616 9.00049 15.7616C8.58627 15.7616 8.25049 15.4258 8.25049 15.0116V6.76161C8.25049 6.3474 8.58627 6.01161 9.00049 6.01161ZM15.7505 9.01161C15.7505 8.5974 15.4147 8.26161 15.0005 8.26161C14.5863 8.26161 14.2505 8.5974 14.2505 9.01161V17.2616C14.2505 17.6758 14.5863 18.0116 15.0005 18.0116C15.4147 18.0116 15.7505 17.6758 15.7505 17.2616V9.01161Z"
          fill="#111827"/>
</svg>
