<svg width="24" height="25" viewBox="0 0 24 25" fill="none" xmlns="http://www.w3.org/2000/svg">
    <path d="M16.8817 4.35709C14.8105 5.18567 12.5922 5.72486 10.2765 5.92467C9.60896 5.98227 8.93325 6.01168 8.25049 6.01168H7.50049C4.60099 6.01168 2.25049 8.36218 2.25049 11.2617C2.25049 13.8613 4.13993 16.0196 6.62046 16.4382C6.95473 17.8072 7.41854 19.1254 7.99813 20.3791C8.4622 21.3828 9.6723 21.6991 10.5808 21.1746L11.2371 20.7957C12.1172 20.2876 12.4028 19.203 12.0092 18.3276C11.7743 17.8052 11.5647 17.269 11.3819 16.7207C13.2993 16.9787 15.1424 17.4704 16.8817 18.1663C17.6074 15.9969 18.0005 13.6752 18.0005 11.2617C18.0005 8.84814 17.6074 6.52644 16.8817 4.35709Z"
          fill="#111827"/>
    <path d="M18.2611 3.75238C19.0646 6.10808 19.5005 8.63396 19.5005 11.2617C19.5005 13.8894 19.0646 16.4153 18.2611 18.771C18.2059 18.9327 18.1492 19.0938 18.0906 19.2539C17.9482 19.6428 18.1481 20.0736 18.5371 20.216C18.9261 20.3584 19.3568 20.1585 19.4992 19.7695C19.6392 19.387 19.7701 19 19.8915 18.609C20.4151 16.9222 20.7632 15.1585 20.9145 13.3394C21.4314 12.801 21.7505 12.0683 21.7505 11.2617C21.7505 10.455 21.4314 9.72239 20.9145 9.18393C20.7632 7.36485 20.4151 5.60114 19.8915 3.91439C19.7701 3.52331 19.6392 3.13638 19.4992 2.75387C19.3568 2.3649 18.9261 2.165 18.5371 2.30738C18.1481 2.44976 17.9482 2.88051 18.0906 3.26948C18.1492 3.4296 18.2059 3.59063 18.2611 3.75238Z"
          fill="#111827"/>
</svg>
