<svg width="24" height="25" viewBox="0 0 24 25" fill="none" xmlns="http://www.w3.org/2000/svg">
<g clip-path="url(#clip0_4117_1067)">
<path d="M8.25049 4.5116C8.25049 2.44053 9.92942 0.761597 12.0005 0.761597C14.0716 0.761597 15.7505 2.44053 15.7505 4.5116V12.7616C15.7505 14.8327 14.0716 16.5116 12.0005 16.5116C9.92942 16.5116 8.25049 14.8327 8.25049 12.7616V4.5116Z" fill="#111827"/>
<path d="M6.00049 10.5116C6.4147 10.5116 6.75049 10.8474 6.75049 11.2616V12.7616C6.75049 15.6611 9.10099 18.0116 12.0005 18.0116C14.9 18.0116 17.2505 15.6611 17.2505 12.7616V11.2616C17.2505 10.8474 17.5863 10.5116 18.0005 10.5116C18.4147 10.5116 18.7505 10.8474 18.7505 11.2616V12.7616C18.7505 16.236 16.1255 19.0973 12.7505 19.4704V21.7616H15.7505C16.1647 21.7616 16.5005 22.0974 16.5005 22.5116C16.5005 22.9258 16.1647 23.2616 15.7505 23.2616H8.25049C7.83627 23.2616 7.50049 22.9258 7.50049 22.5116C7.50049 22.0974 7.83627 21.7616 8.25049 21.7616H11.2505V19.4704C7.87553 19.0973 5.25049 16.236 5.25049 12.7616V11.2616C5.25049 10.8474 5.58627 10.5116 6.00049 10.5116Z" fill="#111827"/>
</g>
<defs>
<clipPath id="clip0_4117_1067">
<rect width="24" height="24" fill="white" transform="translate(0.000488281 0.0115967)"/>
</clipPath>
</defs>
</svg>
