<svg width="24" height="25" viewBox="0 0 24 25" fill="none" xmlns="http://www.w3.org/2000/svg">
    <path fill-rule="evenodd" clip-rule="evenodd"
          d="M9.52887 1.72958C9.74388 1.94458 9.80779 2.26812 9.6907 2.54873C9.24629 3.61376 9.00049 4.78315 9.00049 6.01185C9.00049 10.9824 13.0299 15.0119 18.0005 15.0119C19.2292 15.0119 20.3986 14.766 21.4636 14.3216C21.7442 14.2045 22.0678 14.2685 22.2828 14.4835C22.4978 14.6985 22.5617 15.022 22.4446 15.3026C20.8623 19.0945 17.1188 21.7619 12.7505 21.7619C6.9515 21.7619 2.25049 17.0608 2.25049 11.2619C2.25049 6.89356 4.91783 3.15001 8.70972 1.56775C8.99033 1.45066 9.31387 1.51458 9.52887 1.72958Z"
          fill="#111827"/>
</svg>
