<svg width="24" height="25" viewBox="0 0 24 25" fill="none" xmlns="http://www.w3.org/2000/svg">
<path fill-rule="evenodd" clip-rule="evenodd" d="M19.9521 1.66296C20.14 1.80469 20.2505 2.02638 20.2505 2.26173V5.99516C20.2507 6.00648 20.2507 6.01778 20.2505 6.02904V16.3145C20.2505 17.654 19.3626 18.8311 18.0746 19.1991L16.7547 19.5763C15.1239 20.0422 13.5005 18.8177 13.5005 17.1216C13.5005 15.9818 14.2561 14.9801 15.352 14.667L17.6626 14.0068C18.3065 13.8228 18.7505 13.2343 18.7505 12.5645V7.00602L9.75049 9.57745V19.3145C9.75049 20.654 8.86255 21.8311 7.57465 22.1991L6.25467 22.5763C4.62386 23.0422 3.00049 21.8177 3.00049 20.1216C3.00049 18.9818 3.75608 17.9801 4.85202 17.667L7.16257 17.0068C7.80652 16.8228 8.25049 16.2343 8.25049 15.5645V9.02831C8.25023 9.01698 8.25023 9.00567 8.25049 8.9944V5.26173C8.25049 4.92687 8.47247 4.63258 8.79445 4.54058L19.2944 1.54058C19.5207 1.47593 19.7642 1.52124 19.9521 1.66296Z" fill="#111827"/>
</svg>
