<svg width="24" height="25" viewBox="0 0 24 25" fill="none" xmlns="http://www.w3.org/2000/svg">
<path fill-rule="evenodd" clip-rule="evenodd" d="M4.12549 3.01172C3.08995 3.01172 2.25049 3.85118 2.25049 4.88672V18.0117C2.25049 19.6686 3.59363 21.0117 5.25049 21.0117H20.2505C18.5936 21.0117 17.2505 19.6686 17.2505 18.0117V4.88672C17.2505 3.85119 16.411 3.01172 15.3755 3.01172H4.12549ZM12.0005 9.76172C11.5863 9.76172 11.2505 10.0975 11.2505 10.5117C11.2505 10.9259 11.5863 11.2617 12.0005 11.2617H13.5005C13.9147 11.2617 14.2505 10.9259 14.2505 10.5117C14.2505 10.0975 13.9147 9.76172 13.5005 9.76172H12.0005ZM11.2505 7.51172C11.2505 7.09751 11.5863 6.76172 12.0005 6.76172H13.5005C13.9147 6.76172 14.2505 7.09751 14.2505 7.51172C14.2505 7.92593 13.9147 8.26172 13.5005 8.26172H12.0005C11.5863 8.26172 11.2505 7.92593 11.2505 7.51172ZM6.00049 12.7617C5.58627 12.7617 5.25049 13.0975 5.25049 13.5117C5.25049 13.9259 5.58627 14.2617 6.00049 14.2617H13.5005C13.9147 14.2617 14.2505 13.9259 14.2505 13.5117C14.2505 13.0975 13.9147 12.7617 13.5005 12.7617H6.00049ZM5.25049 16.5117C5.25049 16.0975 5.58627 15.7617 6.00049 15.7617H13.5005C13.9147 15.7617 14.2505 16.0975 14.2505 16.5117C14.2505 16.9259 13.9147 17.2617 13.5005 17.2617H6.00049C5.58627 17.2617 5.25049 16.9259 5.25049 16.5117ZM6.00049 6.76172C5.58627 6.76172 5.25049 7.09751 5.25049 7.51172V10.5117C5.25049 10.9259 5.58627 11.2617 6.00049 11.2617H9.00049C9.4147 11.2617 9.75049 10.9259 9.75049 10.5117V7.51172C9.75049 7.09751 9.4147 6.76172 9.00049 6.76172H6.00049Z" fill="#111827"/>
<path d="M18.7505 6.76172H20.6255C21.2468 6.76172 21.7505 7.2654 21.7505 7.88672V18.0117C21.7505 18.8401 21.0789 19.5117 20.2505 19.5117C19.4221 19.5117 18.7505 18.8401 18.7505 18.0117V6.76172Z" fill="#111827"/>
</svg>
