<svg width="24" height="25" viewBox="0 0 24 25" fill="none" xmlns="http://www.w3.org/2000/svg">
<path fill-rule="evenodd" clip-rule="evenodd" d="M6.72097 5.67154L18.3407 17.2912C21.046 14.05 20.8772 9.22114 17.8341 6.17809C14.7911 3.13503 9.9622 2.96618 6.72097 5.67154ZM17.28 18.3519L5.66031 6.7322C2.95495 9.97343 3.1238 14.8023 6.16686 17.8453C9.20991 20.8884 14.0388 21.0573 17.28 18.3519ZM5.1062 5.11743C8.91381 1.30982 15.0872 1.30982 18.8948 5.11743C22.7024 8.92504 22.7024 15.0984 18.8948 18.906C15.0872 22.7136 8.91381 22.7136 5.1062 18.906C1.29859 15.0984 1.29859 8.92504 5.1062 5.11743Z" fill="#111827"/>
</svg>
