<svg width="24" height="25" viewBox="0 0 24 25" fill="none" xmlns="http://www.w3.org/2000/svg">
    <path fill-rule="evenodd" clip-rule="evenodd"
          d="M7.49197 6.00343C7.49197 5.58919 7.82776 5.25339 8.24199 5.25339H20.2418C20.656 5.25339 20.9918 5.58919 20.9918 6.00343C20.9918 6.41766 20.656 6.75347 20.2418 6.75347H8.24199C7.82776 6.75347 7.49197 6.41766 7.49197 6.00343Z"
          fill="#111827"/>
    <path fill-rule="evenodd" clip-rule="evenodd"
          d="M7.49131 12.0062C7.49131 11.5919 7.8271 11.2561 8.24132 11.2561H20.2411C20.6553 11.2561 20.9911 11.5919 20.9911 12.0062C20.9911 12.4204 20.6553 12.7562 20.2411 12.7562H8.24132C7.8271 12.7562 7.49131 12.4204 7.49131 12.0062Z"
          fill="#111827"/>
    <path fill-rule="evenodd" clip-rule="evenodd"
          d="M7.49197 18.0052C7.49197 17.591 7.82776 17.2552 8.24199 17.2552H20.2418C20.656 17.2552 20.9918 17.591 20.9918 18.0052C20.9918 18.4194 20.656 18.7552 20.2418 18.7552H8.24199C7.82776 18.7552 7.49197 18.4194 7.49197 18.0052Z"
          fill="#111827"/>
    <path fill-rule="evenodd" clip-rule="evenodd"
          d="M2.24084 3.75675C2.24084 3.34252 2.57664 3.00671 2.99086 3.00671H4.11584C4.53006 3.00671 4.86586 3.34252 4.86586 3.75675V6.75707H5.24082C5.65504 6.75707 5.99084 7.09288 5.99084 7.50711C5.99084 7.92135 5.65504 8.25715 5.24082 8.25715H2.99086C2.57664 8.25715 2.24084 7.92135 2.24084 7.50711C2.24084 7.09288 2.57664 6.75707 2.99086 6.75707H3.36582V4.50679H2.99086C2.57664 4.50679 2.24084 4.17099 2.24084 3.75675Z"
          fill="#111827"/>
    <path fill-rule="evenodd" clip-rule="evenodd"
          d="M2.7911 10.6135C2.49821 10.3206 2.49821 9.8457 2.7911 9.55278C3.52331 8.82048 4.71048 8.82048 5.44269 9.55278C6.17491 10.2851 6.17491 11.4724 5.44269 12.2047L4.89345 12.754L5.24203 12.754C5.65623 12.7541 5.99198 13.0899 5.99194 13.5042C5.99191 13.9184 5.6561 14.2542 5.24189 14.2542L3.08292 14.254C2.77959 14.2539 2.50615 14.0712 2.39008 13.7909C2.27402 13.5106 2.33819 13.188 2.55267 12.9735L4.38206 11.1439C4.5285 10.9975 4.5285 10.76 4.38206 10.6135C4.23561 10.4671 3.99818 10.4671 3.85174 10.6135C3.55885 10.9065 3.08398 10.9065 2.7911 10.6135Z"
          fill="#111827"/>
    <path fill-rule="evenodd" clip-rule="evenodd"
          d="M2.24084 15.7563C2.24084 15.342 2.57664 15.0062 2.99086 15.0062H4.11574C5.15133 15.0062 5.99084 15.8458 5.99084 16.8814C5.99084 17.3031 5.85165 17.6922 5.6167 18.0055C5.85165 18.3187 5.99084 18.7079 5.99084 19.1296C5.99084 20.1652 5.15133 21.0047 4.11574 21.0047H2.99086C2.57664 21.0047 2.24084 20.6689 2.24084 20.2547C2.24084 19.8404 2.57664 19.5046 2.99086 19.5046H4.11574C4.32288 19.5046 4.4908 19.3367 4.4908 19.1296C4.4908 18.9345 4.34191 18.7742 4.15159 18.7562C4.13967 18.7564 4.12772 18.7565 4.11574 18.7565H3.74085C3.32662 18.7565 2.99083 18.4207 2.99083 18.0065L2.99083 18.0055L2.99083 18.0045C2.99083 17.5902 3.32662 17.2544 3.74085 17.2544H4.11574C4.12772 17.2544 4.13967 17.2545 4.15159 17.2548C4.34191 17.2367 4.4908 17.0764 4.4908 16.8814C4.4908 16.6742 4.32288 16.5063 4.11574 16.5063H2.99086C2.57664 16.5063 2.24084 16.1705 2.24084 15.7563Z"
          fill="#111827"/>
</svg>
