<svg width="24" height="25" viewBox="0 0 24 25" fill="none" xmlns="http://www.w3.org/2000/svg">
    <g clip-path="url(#clip0_4117_1101)">
        <path fill-rule="evenodd" clip-rule="evenodd"
              d="M20.5991 1.51392C20.2237 1.51392 19.8567 1.62503 19.5444 1.83325L14.4654 5.21925C13.1858 6.07227 12.0208 7.07632 10.9935 8.20609C13.1069 9.19782 14.8165 10.9075 15.8083 13.0209C16.938 11.9936 17.9421 10.8285 18.7951 9.54899L22.1811 4.47C22.3893 4.15767 22.5004 3.79069 22.5004 3.4153C22.5004 2.3652 21.6492 1.51392 20.5991 1.51392ZM12.3 15.5388C12.9573 15.1736 13.5902 14.7703 14.1959 14.3314C13.3841 12.2719 11.7424 10.6303 9.68295 9.81847C9.2441 10.4241 8.84072 11.0571 8.47555 11.7144L8.19702 12.2157C9.93351 12.7124 11.302 14.0808 11.7986 15.8173L12.3 15.5388ZM6.75044 13.5139C4.67935 13.5139 3.00044 15.1928 3.00044 17.2639C3.00044 18.0923 2.32887 18.7639 1.50044 18.7639C1.46648 18.7639 1.43267 18.7628 1.39909 18.7606C1.12294 18.7423 0.85917 18.8776 0.712906 19.1126C0.566643 19.3475 0.561654 19.6439 0.699929 19.8836C1.60573 21.4541 3.30386 22.5139 5.25044 22.5139C8.14995 22.5139 10.5004 20.1634 10.5004 17.2639C10.5004 15.1928 8.82153 13.5139 6.75044 13.5139Z"
              fill="#111827"/>
    </g>
    <defs>
        <clipPath id="clip0_4117_1101">
            <rect width="24" height="24" fill="white" transform="translate(0.000488281 0.013916)"/>
        </clipPath>
    </defs>
</svg>
