<svg width="24" height="25" viewBox="0 0 24 25" fill="none" xmlns="http://www.w3.org/2000/svg">
    <path fill-rule="evenodd" clip-rule="evenodd"
          d="M18.9701 3.67292C18.0914 2.79425 16.6668 2.79425 15.7881 3.67292L4.84884 14.6123C3.38437 16.0767 3.38437 18.4511 4.84884 19.9156C6.3133 21.38 8.68767 21.38 10.1521 19.9156L17.8451 12.2226C18.138 11.9297 18.6129 11.9297 18.9058 12.2226C19.1987 12.5155 19.1987 12.9903 18.9058 13.2832L11.2128 20.9762C9.16255 23.0265 5.83843 23.0265 3.78818 20.9762C1.73793 18.926 1.73793 15.6019 3.78818 13.5516L14.7274 2.61227C16.1919 1.1478 18.5663 1.1478 20.0307 2.61226C21.4952 4.07673 21.4952 6.4511 20.0307 7.91557L9.09784 18.8485C9.09501 18.8514 9.09215 18.8542 9.08927 18.8571L9.0824 18.8639L9.08019 18.8661L9.07795 18.8683C8.19813 19.7336 6.78368 19.7291 5.9095 18.8549C5.03082 17.9762 5.03082 16.5516 5.90949 15.6729L13.72 7.86224C14.0129 7.56935 14.4878 7.56934 14.7807 7.86223C15.0735 8.15512 15.0736 8.62999 14.7807 8.92289L6.97017 16.7336C6.67727 17.0265 6.67727 17.5013 6.97016 17.7942C7.2609 18.085 7.73105 18.0871 8.02432 17.8007L18.9701 6.8549C19.8488 5.97623 19.8488 4.5516 18.9701 3.67292Z"
          fill="#111827"/>
</svg>
