<svg width="24" height="25" viewBox="0 0 24 25" fill="none" xmlns="http://www.w3.org/2000/svg">
<path d="M3.47853 2.41822C3.21379 2.34132 2.9282 2.41585 2.73481 2.61232C2.54141 2.80879 2.4714 3.09552 2.55247 3.35901L4.98475 11.2639H13.5005C13.9147 11.2639 14.2505 11.5997 14.2505 12.0139C14.2505 12.4281 13.9147 12.7639 13.5005 12.7639H4.98476L2.55256 20.6686C2.47149 20.9321 2.54151 21.2188 2.7349 21.4153C2.9283 21.6117 3.21389 21.6863 3.47863 21.6093C10.1772 19.6634 16.3979 16.5953 21.9238 12.6226C22.1198 12.4817 22.236 12.2551 22.236 12.0137C22.236 11.7723 22.1198 11.5456 21.9237 11.4047C16.3979 7.43208 10.1771 4.36413 3.47853 2.41822Z" fill="#111827"/>
</svg>
