<svg width="24" height="25" viewBox="0 0 24 25" fill="none" xmlns="http://www.w3.org/2000/svg">
<path fill-rule="evenodd" clip-rule="evenodd" d="M2.25049 12.0139C2.25049 6.62914 6.61571 2.26392 12.0005 2.26392C17.3853 2.26392 21.7505 6.62914 21.7505 12.0139C21.7505 17.3987 17.3853 21.7639 12.0005 21.7639C6.61571 21.7639 2.25049 17.3987 2.25049 12.0139ZM9.00049 8.26392C8.58627 8.26392 8.25049 8.5997 8.25049 9.01392V15.0139C8.25049 15.4281 8.58627 15.7639 9.00049 15.7639H9.75049C10.1647 15.7639 10.5005 15.4281 10.5005 15.0139V9.01392C10.5005 8.5997 10.1647 8.26392 9.75049 8.26392H9.00049ZM14.2505 8.26392C13.8363 8.26392 13.5005 8.5997 13.5005 9.01392V15.0139C13.5005 15.4281 13.8363 15.7639 14.2505 15.7639H15.0005C15.4147 15.7639 15.7505 15.4281 15.7505 15.0139V9.01392C15.7505 8.5997 15.4147 8.26392 15.0005 8.26392H14.2505Z" fill="#111827"/>
</svg>
