<svg width="24" height="25" viewBox="0 0 24 25" fill="none" xmlns="http://www.w3.org/2000/svg">
<path fill-rule="evenodd" clip-rule="evenodd" d="M6.75049 5.26392C6.75049 4.8497 7.08628 4.51392 7.50049 4.51392H9.00049C9.4147 4.51392 9.75049 4.8497 9.75049 5.26392V18.7639C9.75049 19.1781 9.4147 19.5139 9.00049 19.5139H7.50049C7.30158 19.5139 7.11081 19.4349 6.97016 19.2942C6.82951 19.1536 6.75049 18.9628 6.75049 18.7639L6.75049 5.26392ZM14.2505 5.26392C14.2505 4.8497 14.5863 4.51392 15.0005 4.51392H16.5005C16.6994 4.51392 16.8902 4.59293 17.0308 4.73359C17.1715 4.87424 17.2505 5.065 17.2505 5.26392V18.7639C17.2505 19.1781 16.9147 19.5139 16.5005 19.5139H15.0005C14.5863 19.5139 14.2505 19.1781 14.2505 18.7639V5.26392Z" fill="#111827"/>
</svg>
