<svg width="24" height="25" viewBox="0 0 24 25" fill="none" xmlns="http://www.w3.org/2000/svg">
<path d="M21.7316 2.28276C20.7065 1.25763 19.0445 1.25763 18.0193 2.28276L16.8622 3.43991L20.5745 7.15222L21.7316 5.99507C22.7568 4.96995 22.7568 3.30789 21.7316 2.28276Z" fill="#111827"/>
<path d="M19.5138 8.21288L15.8015 4.50057L7.40068 12.9014C6.78389 13.5182 6.3305 14.279 6.08148 15.1149L5.2817 17.7998C5.20308 18.0637 5.27543 18.3495 5.47016 18.5442C5.66489 18.739 5.95068 18.8113 6.21461 18.7327L8.8995 17.9329C9.73547 17.6839 10.4962 17.2305 11.113 16.6137L19.5138 8.21288Z" fill="#111827"/>
<path d="M5.25049 5.26391C3.59363 5.26391 2.25049 6.60705 2.25049 8.26391V18.7639C2.25049 20.4208 3.59363 21.7639 5.25049 21.7639H15.7505C17.4073 21.7639 18.7505 20.4208 18.7505 18.7639V13.5139C18.7505 13.0997 18.4147 12.7639 18.0005 12.7639C17.5863 12.7639 17.2505 13.0997 17.2505 13.5139V18.7639C17.2505 19.5923 16.5789 20.2639 15.7505 20.2639H5.25049C4.42206 20.2639 3.75049 19.5923 3.75049 18.7639V8.26391C3.75049 7.43548 4.42206 6.76391 5.25049 6.76391H10.5005C10.9147 6.76391 11.2505 6.42812 11.2505 6.01391C11.2505 5.59969 10.9147 5.26391 10.5005 5.26391H5.25049Z" fill="#111827"/>
</svg>
