<svg width="24" height="25" viewBox="0 0 24 25" fill="none" xmlns="http://www.w3.org/2000/svg">
    <path fill-rule="evenodd" clip-rule="evenodd"
          d="M15.2202 3.23578C15.5131 2.94289 15.9879 2.94289 16.2808 3.23578L18.0005 4.95545L19.7202 3.23578C20.0131 2.94289 20.4879 2.94289 20.7808 3.23578C21.0737 3.52868 21.0737 4.00355 20.7808 4.29644L19.0611 6.01611L20.7808 7.73578C21.0737 8.02868 21.0737 8.50355 20.7808 8.79644C20.4879 9.08934 20.0131 9.08934 19.7202 8.79644L18.0005 7.07677L16.2808 8.79644C15.9879 9.08934 15.5131 9.08934 15.2202 8.79644C14.9273 8.50355 14.9273 8.02868 15.2202 7.73578L16.9398 6.01611L15.2202 4.29644C14.9273 4.00355 14.9273 3.52868 15.2202 3.23578Z"
          fill="#111827"/>
    <path fill-rule="evenodd" clip-rule="evenodd"
          d="M1.50049 4.51611C1.50049 2.85926 2.84363 1.51611 4.50049 1.51611H5.87212C6.73249 1.51611 7.48246 2.10167 7.69113 2.93636L8.79693 7.35954C8.9799 8.09141 8.70643 8.86166 8.10291 9.3143L6.80929 10.2845C6.67496 10.3853 6.64576 10.5328 6.68349 10.6358C7.819 13.7356 10.281 16.1976 13.3808 17.3331C13.4838 17.3708 13.6313 17.3416 13.7321 17.2073L14.7023 15.9137C15.1549 15.3102 15.9252 15.0367 16.6571 15.2197L21.0802 16.3255C21.9149 16.5341 22.5005 17.2841 22.5005 18.1445V19.5161C22.5005 21.173 21.1573 22.5161 19.5005 22.5161H17.2505C8.552 22.5161 1.50049 15.4646 1.50049 6.76611V4.51611Z"
          fill="#111827"/>
</svg>
