<svg width="24" height="25" viewBox="0 0 24 25" fill="none" xmlns="http://www.w3.org/2000/svg">
<path fill-rule="evenodd" clip-rule="evenodd" d="M19.5005 9.76611C19.5005 10.1803 19.1647 10.5161 18.7505 10.5161L14.2505 10.5161C13.8363 10.5161 13.5005 10.1803 13.5005 9.76611V5.26611C13.5005 4.8519 13.8363 4.51611 14.2505 4.51611C14.6647 4.51611 15.0005 4.8519 15.0005 5.26611V7.95545L19.7202 3.23578C20.0131 2.94289 20.4879 2.94289 20.7808 3.23578C21.0737 3.52868 21.0737 4.00355 20.7808 4.29644L16.0611 9.01611L18.7505 9.01611C19.1647 9.01611 19.5005 9.3519 19.5005 9.76611Z" fill="#111827"/>
<path fill-rule="evenodd" clip-rule="evenodd" d="M1.50049 4.51611C1.50049 2.85926 2.84363 1.51611 4.50049 1.51611H5.87212C6.73249 1.51611 7.48246 2.10167 7.69113 2.93636L8.79693 7.35954C8.9799 8.09141 8.70643 8.86166 8.10291 9.3143L6.80929 10.2845C6.67496 10.3853 6.64576 10.5328 6.68349 10.6358C7.819 13.7356 10.281 16.1976 13.3808 17.3331C13.4838 17.3708 13.6313 17.3416 13.7321 17.2073L14.7023 15.9137C15.1549 15.3102 15.9252 15.0367 16.6571 15.2197L21.0802 16.3255C21.9149 16.5341 22.5005 17.2841 22.5005 18.1445V19.5161C22.5005 21.173 21.1573 22.5161 19.5005 22.5161H17.2505C8.552 22.5161 1.50049 15.4646 1.50049 6.76611V4.51611Z" fill="#111827"/>
</svg>
