<svg width="24" height="25" viewBox="0 0 24 25" fill="none" xmlns="http://www.w3.org/2000/svg">
<path fill-rule="evenodd" clip-rule="evenodd" d="M1.50049 6.01611C1.50049 4.77347 2.50785 3.76611 3.75049 3.76611H20.2505C21.4931 3.76611 22.5005 4.77347 22.5005 6.01611V18.0161C22.5005 19.2588 21.4931 20.2661 20.2505 20.2661H3.75049C2.50785 20.2661 1.50049 19.2588 1.50049 18.0161V6.01611ZM3.00049 16.0768V18.0161C3.00049 18.4303 3.33627 18.7661 3.75049 18.7661H20.2505C20.6647 18.7661 21.0005 18.4303 21.0005 18.0161V16.0768L18.3111 13.3874C17.7254 12.8016 16.7756 12.8016 16.1898 13.3874L15.3111 14.2661L16.2808 15.2358C16.5737 15.5287 16.5737 16.0036 16.2808 16.2964C15.9879 16.5893 15.5131 16.5893 15.2202 16.2964L10.0611 11.1374C9.47536 10.5516 8.52562 10.5516 7.93983 11.1374L3.00049 16.0768ZM13.1255 8.26611C13.1255 7.64479 13.6292 7.14111 14.2505 7.14111C14.8718 7.14111 15.3755 7.64479 15.3755 8.26611C15.3755 8.88743 14.8718 9.39111 14.2505 9.39111C13.6292 9.39111 13.1255 8.88743 13.1255 8.26611Z" fill="#111827"/>
</svg>
