<svg width="24" height="25" viewBox="0 0 24 25" fill="none" xmlns="http://www.w3.org/2000/svg">
    <path d="M15.0005 6.76611C14.5863 6.76611 14.2505 7.1019 14.2505 7.51611V18.0161C14.2505 18.215 14.3295 18.4058 14.4702 18.5464C14.6108 18.6871 14.8016 18.7661 15.0005 18.7661H15.7505C16.1647 18.7661 16.5005 18.4303 16.5005 18.0161V7.51611C16.5005 7.1019 16.1647 6.76611 15.7505 6.76611H15.0005Z"
          fill="#111827"/>
    <path d="M20.2505 6.76611C19.8363 6.76611 19.5005 7.1019 19.5005 7.51611V18.0161C19.5005 18.4303 19.8363 18.7661 20.2505 18.7661H21.0005C21.4147 18.7661 21.7505 18.4303 21.7505 18.0161L21.7505 7.51611C21.7505 7.3172 21.6715 7.12644 21.5308 6.98578C21.3902 6.84513 21.1994 6.76611 21.0005 6.76611H20.2505Z"
          fill="#111827"/>
    <path d="M5.05575 7.07672C3.80577 6.36244 2.25049 7.26501 2.25049 8.70467V16.8275C2.25049 18.2672 3.80577 19.1698 5.05575 18.4555L12.1632 14.3941C13.4229 13.6743 13.4229 11.8579 12.1632 11.1381L5.05575 7.07672Z"
          fill="#111827"/>
</svg>
