<svg width="24" height="25" viewBox="0 0 24 25" fill="none" xmlns="http://www.w3.org/2000/svg">
    <path fill-rule="evenodd" clip-rule="evenodd"
          d="M12 3.76611C12.4142 3.76611 12.75 4.1019 12.75 4.51611V11.2661H19.5C19.9142 11.2661 20.25 11.6019 20.25 12.0161C20.25 12.4303 19.9142 12.7661 19.5 12.7661H12.75V19.5161C12.75 19.9303 12.4142 20.2661 12 20.2661C11.5858 20.2661 11.25 19.9303 11.25 19.5161V12.7661H4.5C4.08579 12.7661 3.75 12.4303 3.75 12.0161C3.75 11.6019 4.08579 11.2661 4.5 11.2661H11.25V4.51611C11.25 4.1019 11.5858 3.76611 12 3.76611Z"
          fill="#111827"/>
</svg>
