<svg width="24" height="25" viewBox="0 0 24 25" fill="none" xmlns="http://www.w3.org/2000/svg">
    <path fill-rule="evenodd" clip-rule="evenodd"
          d="M12.0005 2.26611C6.61571 2.26611 2.25049 6.63134 2.25049 12.0161C2.25049 17.4009 6.61571 21.7661 12.0005 21.7661C17.3853 21.7661 21.7505 17.4009 21.7505 12.0161C21.7505 6.63134 17.3853 2.26611 12.0005 2.26611ZM12.7505 9.01611C12.7505 8.6019 12.4147 8.26611 12.0005 8.26611C11.5863 8.26611 11.2505 8.6019 11.2505 9.01611V11.2661H9.00049C8.58628 11.2661 8.25049 11.6019 8.25049 12.0161C8.25049 12.4303 8.58627 12.7661 9.00049 12.7661H11.2505V15.0161C11.2505 15.4303 11.5863 15.7661 12.0005 15.7661C12.4147 15.7661 12.7505 15.4303 12.7505 15.0161V12.7661H15.0005C15.4147 12.7661 15.7505 12.4303 15.7505 12.0161C15.7505 11.6019 15.4147 11.2661 15.0005 11.2661H12.7505V9.01611Z"
          fill="#111827"/>
</svg>
