<svg width="24" height="25" viewBox="0 0 24 25" fill="none" xmlns="http://www.w3.org/2000/svg">
    <path fill-rule="evenodd" clip-rule="evenodd"
          d="M12 2.26611C12.4142 2.26611 12.75 2.6019 12.75 3.01611V12.0161C12.75 12.4303 12.4142 12.7661 12 12.7661C11.5858 12.7661 11.25 12.4303 11.25 12.0161V3.01611C11.25 2.6019 11.5858 2.26611 12 2.26611ZM6.16637 5.12182C6.45926 5.41472 6.45926 5.88959 6.16637 6.18248C2.94454 9.40431 2.94454 14.6279 6.16637 17.8497C9.38819 21.0716 14.6118 21.0716 17.8336 17.8497C21.0555 14.6279 21.0555 9.40431 17.8336 6.18248C17.5407 5.88959 17.5407 5.41472 17.8336 5.12182C18.1265 4.82893 18.6014 4.82893 18.8943 5.12182C22.7019 8.92943 22.7019 15.1028 18.8943 18.9104C15.0867 22.718 8.91332 22.718 5.10571 18.9104C1.2981 15.1028 1.2981 8.92943 5.10571 5.12182C5.3986 4.82893 5.87348 4.82893 6.16637 5.12182Z"
          fill="#111827"/>
</svg>
