<svg width="24" height="25" viewBox="0 0 24 25" fill="none" xmlns="http://www.w3.org/2000/svg">
    <path fill-rule="evenodd" clip-rule="evenodd"
          d="M2.25049 2.26611C1.83627 2.26611 1.50049 2.6019 1.50049 3.01611C1.50049 3.43033 1.83627 3.76611 2.25049 3.76611H3.00049V14.2661C3.00049 15.923 4.34363 17.2661 6.00049 17.2661H7.20992L6.03898 20.7789C5.90799 21.1719 6.12036 21.5966 6.51332 21.7276C6.90627 21.8586 7.33101 21.6462 7.462 21.2533L7.79106 20.2661H16.2099L16.539 21.2533C16.67 21.6462 17.0947 21.8586 17.4877 21.7276C17.8806 21.5966 18.093 21.1719 17.962 20.7789L16.7911 17.2661H18.0005C19.6573 17.2661 21.0005 15.923 21.0005 14.2661V3.76611H21.7505C22.1647 3.76611 22.5005 3.43033 22.5005 3.01611C22.5005 2.6019 22.1647 2.26611 21.7505 2.26611H2.25049ZM8.79106 17.2661H15.2099L15.7099 18.7661H8.29106L8.79106 17.2661ZM16.876 8.27079C17.2346 8.06338 17.3571 7.60458 17.1497 7.24604C16.9423 6.88749 16.4835 6.76497 16.1249 6.97238C14.7582 7.76299 13.5522 8.79982 12.5672 10.0223L11.0308 8.48587C10.7379 8.19297 10.2631 8.19297 9.97016 8.48587L6.97016 11.4859C6.67727 11.7788 6.67727 12.2536 6.97016 12.5465C7.26305 12.8394 7.73793 12.8394 8.03082 12.5465L10.5005 10.0769L12.1178 11.6941C12.2747 11.8511 12.4932 11.9305 12.7143 11.9109C12.9354 11.8913 13.1365 11.7747 13.2634 11.5926C14.2075 10.2378 15.4419 9.10039 16.876 8.27079Z"
          fill="#111827"/>
</svg>
