<svg width="24" height="25" viewBox="0 0 24 25" fill="none" xmlns="http://www.w3.org/2000/svg">
    <path fill-rule="evenodd" clip-rule="evenodd"
          d="M2.25049 2.26611C1.83627 2.26611 1.50049 2.6019 1.50049 3.01611C1.50049 3.43033 1.83627 3.76611 2.25049 3.76611H3.00049V14.2661C3.00049 15.923 4.34363 17.2661 6.00049 17.2661H7.20992L6.03898 20.7789C5.90799 21.1719 6.12036 21.5966 6.51332 21.7276C6.90627 21.8586 7.33101 21.6462 7.462 21.2533L7.79106 20.2661H16.2099L16.539 21.2533C16.67 21.6462 17.0947 21.8586 17.4877 21.7276C17.8806 21.5966 18.093 21.1719 17.962 20.7789L16.7911 17.2661H18.0005C19.6573 17.2661 21.0005 15.923 21.0005 14.2661V3.76611H21.7505C22.1647 3.76611 22.5005 3.43033 22.5005 3.01611C22.5005 2.6019 22.1647 2.26611 21.7505 2.26611H2.25049ZM8.29106 18.7661L8.79106 17.2661H15.2099L15.7099 18.7661H8.29106ZM15.7505 6.76611C15.7505 6.3519 15.4147 6.01611 15.0005 6.01611C14.5863 6.01611 14.2505 6.3519 14.2505 6.76611V12.7661C14.2505 13.1803 14.5863 13.5161 15.0005 13.5161C15.4147 13.5161 15.7505 13.1803 15.7505 12.7661V6.76611ZM12.7505 9.01611C12.7505 8.6019 12.4147 8.26611 12.0005 8.26611C11.5863 8.26611 11.2505 8.6019 11.2505 9.01611V12.7661C11.2505 13.1803 11.5863 13.5161 12.0005 13.5161C12.4147 13.5161 12.7505 13.1803 12.7505 12.7661V9.01611ZM9.75049 11.2661C9.75049 10.8519 9.4147 10.5161 9.00049 10.5161C8.58627 10.5161 8.25049 10.8519 8.25049 11.2661V12.7661C8.25049 13.1803 8.58627 13.5161 9.00049 13.5161C9.4147 13.5161 9.75049 13.1803 9.75049 12.7661V11.2661Z"
          fill="#111827"/>
</svg>
