<svg width="24" height="25" viewBox="0 0 24 25" fill="none" xmlns="http://www.w3.org/2000/svg">
    <path fill-rule="evenodd" clip-rule="evenodd"
          d="M7.87549 1.51611C6.83995 1.51611 6.00049 2.35558 6.00049 3.39111V6.38176C5.57409 6.4341 5.14939 6.49195 4.72645 6.55523C3.2724 6.77279 2.25049 8.03775 2.25049 9.4718V15.7661C2.25049 17.423 3.59363 18.7661 5.25049 18.7661H5.52012L5.3651 20.4714C5.26528 21.5694 6.12984 22.5161 7.2324 22.5161H16.7686C17.8711 22.5161 18.7357 21.5694 18.6359 20.4714L18.4809 18.7661H18.7505C20.4073 18.7661 21.7505 17.423 21.7505 15.7661V9.4718C21.7505 8.03775 20.7286 6.77279 19.2745 6.55523C18.8516 6.49195 18.4269 6.4341 18.0005 6.38176V3.39111C18.0005 2.35558 17.161 1.51611 16.1255 1.51611H7.87549ZM16.5005 6.22109V3.39111C16.5005 3.18401 16.3326 3.01611 16.1255 3.01611H7.87549C7.66838 3.01611 7.50049 3.18401 7.50049 3.39111V6.22109C8.98246 6.08543 10.4835 6.01611 12.0005 6.01611C13.5175 6.01611 15.0185 6.08543 16.5005 6.22109ZM16.2839 14.4858C16.4612 14.5041 16.6001 14.6459 16.6162 14.8234L17.142 20.6072C17.162 20.8268 16.9891 21.0161 16.7686 21.0161H7.2324C7.01189 21.0161 6.83898 20.8268 6.85894 20.6072L7.38474 14.8234C7.40088 14.6459 7.53975 14.5041 7.71707 14.4858C9.12487 14.3406 10.5539 14.2661 12.0005 14.2661C13.4471 14.2661 14.8761 14.3406 16.2839 14.4858ZM17.2505 10.5161C17.2505 10.1019 17.5863 9.76611 18.0005 9.76611H18.008C18.4222 9.76611 18.758 10.1019 18.758 10.5161V10.5236C18.758 10.9378 18.4222 11.2736 18.008 11.2736H18.0005C17.5863 11.2736 17.2505 10.9378 17.2505 10.5236V10.5161ZM15.0005 9.76611C14.5863 9.76611 14.2505 10.1019 14.2505 10.5161V10.5236C14.2505 10.9378 14.5863 11.2736 15.0005 11.2736H15.008C15.4222 11.2736 15.758 10.9378 15.758 10.5236V10.5161C15.758 10.1019 15.4222 9.76611 15.008 9.76611H15.0005Z"
          fill="#111827"/>
</svg>
