<svg width="24" height="25" viewBox="0 0 24 25" fill="none" xmlns="http://www.w3.org/2000/svg">
    <path d="M11.2505 5.35305C11.2505 4.9979 11.0644 4.67688 10.8493 4.39431C10.6284 4.10421 10.5005 3.76011 10.5005 3.39111C10.5005 2.35558 11.5078 1.51611 12.7505 1.51611C13.9931 1.51611 15.0005 2.35558 15.0005 3.39111C15.0005 3.76011 14.8726 4.10421 14.6517 4.39431C14.4365 4.67688 14.2505 4.9979 14.2505 5.35305C14.2505 5.6854 14.5282 5.95071 14.86 5.93092C16.7706 5.81691 18.6503 5.5894 20.4927 5.2551C20.6954 5.21831 20.9044 5.26656 21.0705 5.38852C21.2366 5.51049 21.3452 5.69541 21.3708 5.89988C21.5948 7.68935 21.7218 9.50874 21.7464 11.3526C21.7512 11.7189 21.4538 12.016 21.0874 12.0161C20.7323 12.0161 20.4113 11.8301 20.1287 11.6149C19.8386 11.394 19.4945 11.2661 19.1255 11.2661C18.09 11.2661 17.2505 12.2735 17.2505 13.5161C17.2505 14.7588 18.09 15.7661 19.1255 15.7661C19.4945 15.7661 19.8386 15.6382 20.1287 15.4173C20.4113 15.2022 20.7323 15.0161 21.0874 15.0161C21.3978 15.0161 21.6443 15.2778 21.6219 15.5874C21.5033 17.2259 21.3036 18.8422 21.0268 20.4322C20.9726 20.7441 20.7284 20.9883 20.4165 21.0425C18.5974 21.3591 16.7439 21.5748 14.862 21.6838C14.529 21.703 14.2505 21.4366 14.2505 21.1031C14.2505 20.7479 14.4365 20.4269 14.6517 20.1443C14.8726 19.8542 15.0005 19.5101 15.0005 19.1411C15.0005 18.1056 13.9931 17.2661 12.7505 17.2661C11.5078 17.2661 10.5005 18.1056 10.5005 19.1411C10.5005 19.5101 10.6284 19.8542 10.8493 20.1443C11.0644 20.4269 11.2505 20.7479 11.2505 21.1031C11.2505 21.4646 10.9544 21.7566 10.593 21.7464C9.00352 21.7013 7.43287 21.5801 5.88462 21.3863C5.68015 21.3607 5.49522 21.2521 5.37326 21.086C5.2513 20.9199 5.20305 20.7109 5.23984 20.5082C5.53272 18.8942 5.74364 17.2515 5.86809 15.5845C5.89107 15.2766 5.64611 15.0161 5.33742 15.0161C4.98227 15.0161 4.66125 15.2022 4.37869 15.4173C4.08859 15.6382 3.74449 15.7661 3.37549 15.7661C2.33995 15.7661 1.50049 14.7588 1.50049 13.5161C1.50049 12.2735 2.33995 11.2661 3.37549 11.2661C3.74449 11.2661 4.08859 11.394 4.37869 11.6149C4.66125 11.8301 4.98227 12.0161 5.33743 12.0161C5.70379 12.0161 6.00126 11.7191 5.99622 11.3528C5.97383 9.72456 5.86911 8.11637 5.68608 6.5324C5.65979 6.30492 5.73887 6.0779 5.90079 5.91598C6.06271 5.75405 6.28973 5.67498 6.51721 5.70126C7.85951 5.85637 9.21909 5.95524 10.5936 5.99543C10.9546 6.00599 11.2505 5.71429 11.2505 5.35305Z"
          fill="#111827"/>
</svg>
