<svg width="24" height="25" viewBox="0 0 24 25" fill="none" xmlns="http://www.w3.org/2000/svg">
    <path fill-rule="evenodd" clip-rule="evenodd"
          d="M3 4.89111C3 3.85558 3.83947 3.01611 4.875 3.01611H9.375C10.4105 3.01611 11.25 3.85558 11.25 4.89111V9.39111C11.25 10.4266 10.4105 11.2661 9.375 11.2661H4.875C3.83947 11.2661 3 10.4266 3 9.39111V4.89111ZM4.875 4.51611C4.66789 4.51611 4.5 4.68401 4.5 4.89111V9.39111C4.5 9.59822 4.66789 9.76611 4.875 9.76611H9.375C9.58211 9.76611 9.75 9.59822 9.75 9.39111V4.89111C9.75 4.68401 9.58211 4.51611 9.375 4.51611H4.875ZM12.75 4.89111C12.75 3.85558 13.5895 3.01611 14.625 3.01611H19.125C20.1605 3.01611 21 3.85558 21 4.89111V9.39111C21 10.4266 20.1605 11.2661 19.125 11.2661H14.625C13.5895 11.2661 12.75 10.4266 12.75 9.39111V4.89111ZM14.625 4.51611C14.4179 4.51611 14.25 4.68401 14.25 4.89111V9.39111C14.25 9.59822 14.4179 9.76611 14.625 9.76611H19.125C19.3321 9.76611 19.5 9.59822 19.5 9.39111V4.89111C19.5 4.68401 19.3321 4.51611 19.125 4.51611H14.625ZM6 6.76611C6 6.3519 6.33579 6.01611 6.75 6.01611H7.5C7.91421 6.01611 8.25 6.3519 8.25 6.76611V7.51611C8.25 7.93033 7.91421 8.26611 7.5 8.26611H6.75C6.33579 8.26611 6 7.93033 6 7.51611V6.76611ZM15.75 6.76611C15.75 6.3519 16.0858 6.01611 16.5 6.01611H17.25C17.6642 6.01611 18 6.3519 18 6.76611V7.51611C18 7.93033 17.6642 8.26611 17.25 8.26611H16.5C16.0858 8.26611 15.75 7.93033 15.75 7.51611V6.76611ZM3 14.6411C3 13.6056 3.83947 12.7661 4.875 12.7661H9.375C10.4105 12.7661 11.25 13.6056 11.25 14.6411V19.1411C11.25 20.1766 10.4105 21.0161 9.375 21.0161H4.875C3.83947 21.0161 3 20.1766 3 19.1411V14.6411ZM4.875 14.2661C4.66789 14.2661 4.5 14.434 4.5 14.6411V19.1411C4.5 19.3482 4.66789 19.5161 4.875 19.5161H9.375C9.58211 19.5161 9.75 19.3482 9.75 19.1411V14.6411C9.75 14.434 9.58211 14.2661 9.375 14.2661H4.875ZM12.75 13.5161C12.75 13.1019 13.0858 12.7661 13.5 12.7661H14.25C14.6642 12.7661 15 13.1019 15 13.5161V14.2661C15 14.6803 14.6642 15.0161 14.25 15.0161H13.5C13.0858 15.0161 12.75 14.6803 12.75 14.2661V13.5161ZM18.75 13.5161C18.75 13.1019 19.0858 12.7661 19.5 12.7661H20.25C20.6642 12.7661 21 13.1019 21 13.5161V14.2661C21 14.6803 20.6642 15.0161 20.25 15.0161H19.5C19.0858 15.0161 18.75 14.6803 18.75 14.2661V13.5161ZM6 16.5161C6 16.1019 6.33579 15.7661 6.75 15.7661H7.5C7.91421 15.7661 8.25 16.1019 8.25 16.5161V17.2661C8.25 17.6803 7.91421 18.0161 7.5 18.0161H6.75C6.33579 18.0161 6 17.6803 6 17.2661V16.5161ZM15.75 16.5161C15.75 16.1019 16.0858 15.7661 16.5 15.7661H17.25C17.6642 15.7661 18 16.1019 18 16.5161V17.2661C18 17.6803 17.6642 18.0161 17.25 18.0161H16.5C16.0858 18.0161 15.75 17.6803 15.75 17.2661V16.5161ZM12.75 19.5161C12.75 19.1019 13.0858 18.7661 13.5 18.7661H14.25C14.6642 18.7661 15 19.1019 15 19.5161V20.2661C15 20.6803 14.6642 21.0161 14.25 21.0161H13.5C13.0858 21.0161 12.75 20.6803 12.75 20.2661V19.5161ZM18.75 19.5161C18.75 19.1019 19.0858 18.7661 19.5 18.7661H20.25C20.6642 18.7661 21 19.1019 21 19.5161V20.2661C21 20.6803 20.6642 21.0161 20.25 21.0161H19.5C19.0858 21.0161 18.75 20.6803 18.75 20.2661V19.5161Z"
          fill="#111827"/>
</svg>
