<svg width="24" height="24" viewBox="0 0 24 24" fill="none" xmlns="http://www.w3.org/2000/svg">
<path d="M13.5 4.06301C13.5 2.72665 11.8843 2.05739 10.9393 3.00234L6.43934 7.50235H4.50905C3.36772 7.50235 2.19106 8.16679 1.8493 9.4074C1.62147 10.2345 1.5 11.1048 1.5 12.0023C1.5 12.8999 1.62147 13.7702 1.8493 14.5973C2.19106 15.8379 3.36772 16.5023 4.50905 16.5023H6.43934L10.9393 21.0023C11.8843 21.9473 13.5 21.278 13.5 19.9417V4.06301Z" fill="#111827"/>
<path d="M17.7803 9.222C17.4874 8.92911 17.0126 8.92911 16.7197 9.222C16.4268 9.5149 16.4268 9.98977 16.7197 10.2827L18.4393 12.0023L16.7197 13.722C16.4268 14.0149 16.4268 14.4898 16.7197 14.7827C17.0126 15.0756 17.4874 15.0756 17.7803 14.7827L19.5 13.063L21.2197 14.7827C21.5126 15.0756 21.9874 15.0756 22.2803 14.7827C22.5732 14.4898 22.5732 14.0149 22.2803 13.722L20.5607 12.0023L22.2803 10.2827C22.5732 9.98977 22.5732 9.5149 22.2803 9.222C21.9874 8.92911 21.5126 8.92911 21.2197 9.222L19.5 10.9417L17.7803 9.222Z" fill="#111827"/>
</svg>
