<svg width="24" height="24" viewBox="0 0 24 24" fill="none" xmlns="http://www.w3.org/2000/svg">
<path d="M16.5 6.00232C16.5 4.34547 15.1569 3.00232 13.5 3.00232H6C4.34315 3.00232 3 4.34547 3 6.00232V13.5023C3 15.1592 4.34315 16.5023 6 16.5023V10.5023C6 8.01704 8.01472 6.00232 10.5 6.00232H16.5Z" fill="#111827"/>
<path d="M18 7.50232C19.6569 7.50232 21 8.84547 21 10.5023V18.0023C21 19.6592 19.6569 21.0023 18 21.0023H10.5C8.84315 21.0023 7.5 19.6592 7.5 18.0023V10.5023C7.5 8.84547 8.84315 7.50232 10.5 7.50232H18Z" fill="#111827"/>
</svg>
