<svg width="24" height="24" viewBox="0 0 24 24" fill="none" xmlns="http://www.w3.org/2000/svg">
    <path d="M6 3.00232C4.34315 3.00232 3 4.34546 3 6.00232V8.25232C3 9.90917 4.34315 11.2523 6 11.2523H8.25C9.90685 11.2523 11.25 9.90917 11.25 8.25232V6.00232C11.25 4.34547 9.90685 3.00232 8.25 3.00232H6Z"
          fill="#111827"/>
    <path d="M15.75 3.00232C14.0931 3.00232 12.75 4.34546 12.75 6.00232V8.25232C12.75 9.90917 14.0931 11.2523 15.75 11.2523H18C19.6569 11.2523 21 9.90917 21 8.25232V6.00232C21 4.34547 19.6569 3.00232 18 3.00232H15.75Z"
          fill="#111827"/>
    <path d="M6 12.7523C4.34315 12.7523 3 14.0955 3 15.7523V18.0023C3 19.6592 4.34315 21.0023 6 21.0023H8.25C9.90685 21.0023 11.25 19.6592 11.25 18.0023V15.7523C11.25 14.0955 9.90685 12.7523 8.25 12.7523H6Z"
          fill="#111827"/>
    <path d="M17.625 13.5023C17.625 13.0881 17.2892 12.7523 16.875 12.7523C16.4608 12.7523 16.125 13.0881 16.125 13.5023V16.1273H13.5C13.0858 16.1273 12.75 16.4631 12.75 16.8773C12.75 17.2915 13.0858 17.6273 13.5 17.6273H16.125V20.2523C16.125 20.6665 16.4608 21.0023 16.875 21.0023C17.2892 21.0023 17.625 20.6665 17.625 20.2523V17.6273H20.25C20.6642 17.6273 21 17.2915 21 16.8773C21 16.4631 20.6642 16.1273 20.25 16.1273H17.625V13.5023Z"
          fill="#111827"/>
</svg>
