<svg width="24" height="24" viewBox="0 0 24 24" fill="none" xmlns="http://www.w3.org/2000/svg">
<path fill-rule="evenodd" clip-rule="evenodd" d="M3 6.00232C3 4.34546 4.34315 3.00232 6 3.00232H8.25C9.90685 3.00232 11.25 4.34547 11.25 6.00232V8.25232C11.25 9.90917 9.90685 11.2523 8.25 11.2523H6C4.34315 11.2523 3 9.90917 3 8.25232V6.00232ZM12.75 6.00232C12.75 4.34546 14.0931 3.00232 15.75 3.00232H18C19.6569 3.00232 21 4.34547 21 6.00232V8.25232C21 9.90917 19.6569 11.2523 18 11.2523H15.75C14.0931 11.2523 12.75 9.90917 12.75 8.25232V6.00232ZM3 15.7523C3 14.0955 4.34315 12.7523 6 12.7523H8.25C9.90685 12.7523 11.25 14.0955 11.25 15.7523V18.0023C11.25 19.6592 9.90685 21.0023 8.25 21.0023H6C4.34315 21.0023 3 19.6592 3 18.0023V15.7523ZM12.75 15.7523C12.75 14.0955 14.0931 12.7523 15.75 12.7523H18C19.6569 12.7523 21 14.0955 21 15.7523V18.0023C21 19.6592 19.6569 21.0023 18 21.0023H15.75C14.0931 21.0023 12.75 19.6592 12.75 18.0023V15.7523Z" fill="#111827"/>
</svg>
