<svg width="24" height="24" viewBox="0 0 24 24" fill="none" xmlns="http://www.w3.org/2000/svg">
<path fill-rule="evenodd" clip-rule="evenodd" d="M9.65713 4.73049C8.57175 5.11504 7.89121 5.78724 7.67872 6.5803C7.46425 7.38073 7.72443 8.31354 8.48844 9.19622C9.23495 10.0587 10.4178 10.8084 11.8763 11.1992C11.9465 11.218 12.0167 11.2358 12.0867 11.2526H20.2499C20.6641 11.2526 20.9999 11.5884 20.9999 12.0026C20.9999 12.4168 20.6641 12.7526 20.2499 12.7526H12.0103C12.0037 12.7527 11.997 12.7527 11.9903 12.7526H3.75C3.33578 12.7526 3 12.4168 3 12.0026C3 11.5884 3.33578 11.2526 3.75 11.2526H8.52919C8.08497 10.9271 7.69007 10.5659 7.3543 10.1779C6.3727 9.04386 5.84907 7.61316 6.22984 6.19206C6.60698 4.78451 7.75762 3.81209 9.15621 3.31657C10.5586 2.81971 12.2835 2.76709 14.0115 3.23013C15.1186 3.52678 16.1146 4.0047 16.9404 4.6038C17.2756 4.84704 17.3502 5.31603 17.107 5.65131C16.8638 5.98659 16.3948 6.0612 16.0595 5.81795C15.3886 5.3312 14.561 4.93031 13.6233 4.67905C12.1506 4.28442 10.7387 4.34729 9.65713 4.73049ZM16.1904 14.3618C16.5443 14.1465 17.0057 14.259 17.2209 14.6129C17.8126 15.5859 18.0662 16.7066 17.7697 17.813C17.3926 19.2205 16.2419 20.1929 14.8433 20.6884C13.441 21.1853 11.7161 21.2379 9.98802 20.7749C8.27623 20.3162 6.82045 19.421 5.85425 18.3047C5.58317 17.9915 5.6173 17.5178 5.93048 17.2467C6.24366 16.9757 6.71731 17.0098 6.98839 17.323C7.7349 18.1854 8.91771 18.9351 10.3762 19.326C11.849 19.7206 13.2609 19.6577 14.3424 19.2745C15.4278 18.89 16.1083 18.2178 16.3208 17.4247C16.4893 16.7959 16.3665 16.0948 15.9393 15.3923C15.7241 15.0384 15.8365 14.577 16.1904 14.3618Z" fill="#111827"/>
</svg>
