<svg width="24" height="24" viewBox="0 0 24 24" fill="none" xmlns="http://www.w3.org/2000/svg">
    <path fill-rule="evenodd" clip-rule="evenodd"
          d="M2.25 4.12964C2.25 3.0941 3.08947 2.25464 4.125 2.25464H9.375C10.4105 2.25464 11.25 3.0941 11.25 4.12964V17.2546C11.25 19.7399 9.23528 21.7546 6.75 21.7546C4.26472 21.7546 2.25 19.7399 2.25 17.2546V4.12964ZM6.75 18.3796C7.37132 18.3796 7.875 17.876 7.875 17.2546C7.875 16.6333 7.37132 16.1296 6.75 16.1296C6.12868 16.1296 5.625 16.6333 5.625 17.2546C5.625 17.876 6.12868 18.3796 6.75 18.3796Z"
          fill="#111827"/>
    <path d="M10.719 21.7546H19.8751C20.9106 21.7546 21.7501 20.9152 21.7501 19.8796V14.6296C21.7501 13.5941 20.9106 12.7546 19.8751 12.7546H19.7353L10.9927 21.4973C10.9035 21.5865 10.8122 21.6722 10.719 21.7546Z"
          fill="#111827"/>
    <path d="M12.7383 17.6301L19.2125 11.1558C19.9448 10.4236 19.9448 9.23642 19.2125 8.50419L15.5002 4.79188C14.768 4.05965 13.5808 4.05965 12.8486 4.79188L12.7498 4.89062V17.2546C12.7498 17.3807 12.7459 17.5059 12.7383 17.6301Z"
          fill="#111827"/>
</svg>
