<svg width="24" height="24" viewBox="0 0 24 24" fill="none" xmlns="http://www.w3.org/2000/svg">
    <path fill-rule="evenodd" clip-rule="evenodd"
          d="M1.5 5.62964C1.5 4.5941 2.33947 3.75464 3.375 3.75464H20.625C21.6605 3.75464 22.5 4.5941 22.5 5.62964V18.3796C22.5 19.4152 21.6605 20.2546 20.625 20.2546H3.375C2.33947 20.2546 1.5 19.4152 1.5 18.3796V5.62964ZM21 9.37964C21 9.17253 20.8321 9.00464 20.625 9.00464H13.125C12.9179 9.00464 12.75 9.17253 12.75 9.37964V10.8796C12.75 11.0867 12.9179 11.2546 13.125 11.2546H20.625C20.8321 11.2546 21 11.0867 21 10.8796V9.37964ZM21 13.1296C21 12.9225 20.8321 12.7546 20.625 12.7546H13.125C12.9179 12.7546 12.75 12.9225 12.75 13.1296V14.6296C12.75 14.8367 12.9179 15.0046 13.125 15.0046H20.625C20.8321 15.0046 21 14.8367 21 14.6296V13.1296ZM21 16.8796C21 16.6725 20.8321 16.5046 20.625 16.5046H13.125C12.9179 16.5046 12.75 16.6725 12.75 16.8796V18.3796C12.75 18.5867 12.9179 18.7546 13.125 18.7546H20.625C20.8321 18.7546 21 18.5867 21 18.3796V16.8796ZM10.875 18.7546C11.0821 18.7546 11.25 18.5867 11.25 18.3796V16.8796C11.25 16.6725 11.0821 16.5046 10.875 16.5046H3.375C3.16789 16.5046 3 16.6725 3 16.8796V18.3796C3 18.5867 3.16789 18.7546 3.375 18.7546H10.875ZM3.375 15.0046H10.875C11.0821 15.0046 11.25 14.8367 11.25 14.6296V13.1296C11.25 12.9225 11.0821 12.7546 10.875 12.7546H3.375C3.16789 12.7546 3 12.9225 3 13.1296V14.6296C3 14.8367 3.16789 15.0046 3.375 15.0046ZM3.375 11.2546H10.875C11.0821 11.2546 11.25 11.0867 11.25 10.8796V9.37964C11.25 9.17253 11.0821 9.00464 10.875 9.00464H3.375C3.16789 9.00464 3 9.17253 3 9.37964V10.8796C3 11.0867 3.16789 11.2546 3.375 11.2546Z"
          fill="#111827"/>
</svg>
