<svg width="24" height="24" viewBox="0 0 24 24" fill="none" xmlns="http://www.w3.org/2000/svg">
<path fill-rule="evenodd" clip-rule="evenodd" d="M5.25 2.25464C3.59315 2.25464 2.25 3.59778 2.25 5.25464V9.57266C2.25 10.3683 2.56607 11.1314 3.12868 11.694L12.7098 21.2751C13.6291 22.1944 15.0989 22.461 16.2573 21.7026C18.4242 20.284 20.2793 18.4289 21.698 16.262C22.4564 15.1036 22.1898 13.6338 21.2705 12.7144L11.6893 3.13332C11.1267 2.57071 10.3637 2.25464 9.56802 2.25464H5.25ZM6.375 7.50464C6.99632 7.50464 7.5 7.00096 7.5 6.37964C7.5 5.75832 6.99632 5.25464 6.375 5.25464C5.75368 5.25464 5.25 5.75832 5.25 6.37964C5.25 7.00096 5.75368 7.50464 6.375 7.50464Z" fill="#111827"/>
</svg>
