<svg width="24" height="24" viewBox="0 0 24 24" fill="none" xmlns="http://www.w3.org/2000/svg">
    <path fill-rule="evenodd" clip-rule="evenodd"
          d="M16.5001 4.48283V4.70962C17.4548 4.79701 18.4017 4.91194 19.3398 5.05362C19.6871 5.10607 20.0332 5.16219 20.3781 5.22194C20.7863 5.29263 21.0598 5.6808 20.9891 6.08894C20.9184 6.49708 20.5302 6.77062 20.1221 6.69992C20.0525 6.68787 19.9829 6.67596 19.9131 6.66421L18.9077 19.7347C18.7875 21.2977 17.4842 22.5046 15.9166 22.5046H8.08369C6.51608 22.5046 5.21276 21.2977 5.09253 19.7347L4.0871 6.66421C4.0174 6.67596 3.94774 6.68787 3.87813 6.69992C3.47 6.77062 3.08183 6.49708 3.01113 6.08894C2.94043 5.68081 3.21398 5.29263 3.62211 5.22194C3.96701 5.16219 4.31315 5.10607 4.66048 5.05362C5.59858 4.91194 6.5454 4.79701 7.50012 4.70962V4.48283C7.50012 2.91835 8.71265 1.58282 10.3156 1.53155C10.8749 1.51365 11.4365 1.50464 12.0001 1.50464C12.5638 1.50464 13.1253 1.51365 13.6847 1.53155C15.2876 1.58282 16.5001 2.91835 16.5001 4.48283ZM10.3635 3.03078C10.9069 3.0134 11.4525 3.00464 12.0001 3.00464C12.5478 3.00464 13.0934 3.0134 13.6367 3.03078C14.3913 3.05492 15.0001 3.68857 15.0001 4.48283V4.59546C14.0078 4.5352 13.0075 4.50464 12.0001 4.50464C10.9928 4.50464 9.99249 4.5352 9.00012 4.59546V4.48283C9.00012 3.68857 9.6089 3.05492 10.3635 3.03078ZM10.0087 8.97581C9.9928 8.56191 9.64436 8.23927 9.23045 8.25519C8.81654 8.27111 8.49391 8.61956 8.50983 9.03346L8.85599 18.0335C8.8719 18.4474 9.22035 18.77 9.63426 18.7541C10.0482 18.7382 10.3708 18.3897 10.3549 17.9758L10.0087 8.97581ZM15.4895 9.03346C15.5054 8.61956 15.1828 8.27111 14.7689 8.25519C14.355 8.23927 14.0065 8.56191 13.9906 8.97581L13.6444 17.9758C13.6285 18.3897 13.9512 18.7382 14.3651 18.7541C14.779 18.77 15.1274 18.4474 15.1433 18.0335L15.4895 9.03346Z"
          fill="#111827"/>
</svg>
