<svg width="24" height="24" viewBox="0 0 24 24" fill="none" xmlns="http://www.w3.org/2000/svg">
    <path d="M3.375 4.50464C2.33947 4.50464 1.5 5.3441 1.5 6.37964V13.5046H13.5V6.37964C13.5 5.3441 12.6605 4.50464 11.625 4.50464H3.375Z"
          fill="#111827"/>
    <path d="M13.5 15.0046H1.5V17.6296C1.5 18.6652 2.33947 19.5046 3.375 19.5046H3.75C3.75 17.8478 5.09315 16.5046 6.75 16.5046C8.40685 16.5046 9.75 17.8478 9.75 19.5046H12.75C13.1642 19.5046 13.5 19.1689 13.5 18.7546V15.0046Z"
          fill="#111827"/>
    <path d="M8.25 19.5046C8.25 18.6762 7.57843 18.0046 6.75 18.0046C5.92157 18.0046 5.25 18.6762 5.25 19.5046C5.25 20.3331 5.92157 21.0046 6.75 21.0046C7.57843 21.0046 8.25 20.3331 8.25 19.5046Z"
          fill="#111827"/>
    <path d="M15.75 6.75464C15.3358 6.75464 15 7.09043 15 7.50464V18.7546C15 18.8414 15.0147 18.9248 15.0419 19.0023C15.2809 17.5846 16.5143 16.5046 18 16.5046C19.6442 16.5046 20.9794 17.8273 20.9998 19.4666C21.8531 19.2916 22.5224 18.5312 22.464 17.5841C22.231 13.8037 20.8775 10.3257 18.7324 7.47954C18.378 7.00927 17.8265 6.75464 17.2621 6.75464H15.75Z"
          fill="#111827"/>
    <path d="M19.5 19.5046C19.5 18.6762 18.8284 18.0046 18 18.0046C17.1716 18.0046 16.5 18.6762 16.5 19.5046C16.5 20.3331 17.1716 21.0046 18 21.0046C18.8284 21.0046 19.5 20.3331 19.5 19.5046Z"
          fill="#111827"/>
</svg>
