<svg width="24" height="24" viewBox="0 0 24 24" fill="none" xmlns="http://www.w3.org/2000/svg">
<path d="M19.5 6.00464H4.5V15.0046H19.5V6.00464Z" fill="#111827"/>
<path fill-rule="evenodd" clip-rule="evenodd" d="M3.375 3.00464C2.33947 3.00464 1.5 3.8441 1.5 4.87964V16.1296C1.5 17.1652 2.33947 18.0046 3.375 18.0046H9.75V19.5046H6C5.58579 19.5046 5.25 19.8404 5.25 20.2546C5.25 20.6689 5.58579 21.0046 6 21.0046H18C18.4142 21.0046 18.75 20.6689 18.75 20.2546C18.75 19.8404 18.4142 19.5046 18 19.5046H14.25V18.0046H20.625C21.6605 18.0046 22.5 17.1652 22.5 16.1296V4.87964C22.5 3.84411 21.6605 3.00464 20.625 3.00464H3.375ZM3.375 16.5046H20.625C20.8321 16.5046 21 16.3367 21 16.1296V4.87964C21 4.67253 20.8321 4.50464 20.625 4.50464H3.375C3.16789 4.50464 3 4.67253 3 4.87964V16.1296C3 16.3367 3.16789 16.5046 3.375 16.5046Z" fill="#111827"/>
</svg>
