<svg width="24" height="24" viewBox="0 0 24 24" fill="none" xmlns="http://www.w3.org/2000/svg">
<path fill-rule="evenodd" clip-rule="evenodd" d="M5.99534 2.9989C6.40956 2.9989 6.74535 3.33471 6.74535 3.74894V11.2497C6.74535 14.1495 9.09586 16.5002 11.9952 16.5002C14.8946 16.5002 17.2451 14.1495 17.2451 11.2497V3.74894C17.2451 3.33471 17.5809 2.9989 17.9951 2.9989C18.4093 2.9989 18.7451 3.33471 18.7451 3.74894V11.2497C18.7451 14.9779 15.7231 18.0003 11.9952 18.0003C8.26729 18.0003 5.24532 14.9779 5.24532 11.2497V3.74894C5.24532 3.33471 5.58111 2.9989 5.99534 2.9989ZM2.99536 20.2505C2.99536 19.8363 3.33116 19.5005 3.74538 19.5005H20.2451C20.6593 19.5005 20.9951 19.8363 20.9951 20.2505C20.9951 20.6648 20.6593 21.0006 20.2451 21.0006H3.74538C3.33116 21.0006 2.99536 20.6648 2.99536 20.2505Z" fill="#111827"/>
</svg>
