<svg width="24" height="24" viewBox="0 0 24 24" fill="none" xmlns="http://www.w3.org/2000/svg">
    <path d="M5.25 6.37183C5.25 4.09365 7.09683 2.24683 9.375 2.24683C11.6532 2.24683 13.5 4.09365 13.5 6.37183C13.5 8.65 11.6532 10.4968 9.375 10.4968C7.09683 10.4968 5.25 8.65 5.25 6.37183Z"
          fill="#111827"/>
    <path d="M2.25 19.1218C2.25 15.1868 5.43997 11.9968 9.375 11.9968C13.31 11.9968 16.5 15.1868 16.5 19.1218V19.1244C16.5 19.1642 16.4996 19.2042 16.499 19.2438C16.4946 19.5023 16.3574 19.7403 16.1359 19.8737C14.1607 21.0629 11.8466 21.7468 9.375 21.7468C6.90343 21.7468 4.5893 21.0629 2.61406 19.8737C2.39256 19.7403 2.25537 19.5023 2.25103 19.2438C2.25034 19.2032 2.25 19.1626 2.25 19.1218Z"
          fill="#111827"/>
    <path d="M18.75 7.49683C18.75 7.08261 18.4142 6.74683 18 6.74683C17.5858 6.74683 17.25 7.08261 17.25 7.49683V9.74683H15C14.5858 9.74683 14.25 10.0826 14.25 10.4968C14.25 10.911 14.5858 11.2468 15 11.2468H17.25V13.4968C17.25 13.911 17.5858 14.2468 18 14.2468C18.4142 14.2468 18.75 13.911 18.75 13.4968V11.2468H21C21.4142 11.2468 21.75 10.911 21.75 10.4968C21.75 10.0826 21.4142 9.74683 21 9.74683H18.75V7.49683Z"
          fill="#111827"/>
</svg>
