<svg width="24" height="24" viewBox="0 0 24 24" fill="none" xmlns="http://www.w3.org/2000/svg">
<path d="M4.5 6.37183C4.5 4.09365 6.34683 2.24683 8.625 2.24683C10.9032 2.24683 12.75 4.09365 12.75 6.37183C12.75 8.65 10.9032 10.4968 8.625 10.4968C6.34683 10.4968 4.5 8.65 4.5 6.37183Z" fill="#111827"/>
<path d="M14.25 8.62183C14.25 6.75786 15.761 5.24683 17.625 5.24683C19.489 5.24683 21 6.75786 21 8.62183C21 10.4858 19.489 11.9968 17.625 11.9968C15.761 11.9968 14.25 10.4858 14.25 8.62183Z" fill="#111827"/>
<path d="M1.5 19.1218C1.5 15.1868 4.68997 11.9968 8.625 11.9968C12.56 11.9968 15.75 15.1868 15.75 19.1218V19.1244C15.75 19.1642 15.7496 19.2042 15.749 19.2438C15.7446 19.5023 15.6074 19.7403 15.3859 19.8737C13.4107 21.0629 11.0966 21.7468 8.625 21.7468C6.15343 21.7468 3.8393 21.0629 1.86406 19.8737C1.64256 19.7403 1.50537 19.5023 1.50103 19.2438C1.50034 19.2032 1.5 19.1626 1.5 19.1218Z" fill="#111827"/>
<path d="M17.2498 19.125C17.2498 19.173 17.2494 19.2212 17.2486 19.269C17.2429 19.6076 17.1612 19.9346 17.0157 20.2288C17.2172 20.2408 17.4203 20.2468 17.6248 20.2468C19.2206 20.2468 20.732 19.8772 22.0764 19.2181C22.3234 19.097 22.4843 18.8504 22.4957 18.5755C22.4984 18.5079 22.4998 18.44 22.4998 18.3718C22.4998 15.6794 20.3172 13.4968 17.6248 13.4968C16.8784 13.4968 16.1711 13.6646 15.5387 13.9645C16.6135 15.403 17.2498 17.1881 17.2498 19.1218V19.125Z" fill="#111827"/>
</svg>
