<svg width="24" height="24" viewBox="0 0 24 24" fill="none" xmlns="http://www.w3.org/2000/svg">
    <path fill-rule="evenodd" clip-rule="evenodd"
          d="M7.49996 5.99683C7.49996 3.51154 9.51468 1.49683 12 1.49683C14.4852 1.49683 16.5 3.51154 16.5 5.99683C16.5 8.48211 14.4852 10.4968 12 10.4968C9.51468 10.4968 7.49996 8.48211 7.49996 5.99683Z"
          fill="#111827"/>
    <path fill-rule="evenodd" clip-rule="evenodd"
          d="M3.75121 20.1022C3.82855 15.6124 7.49195 11.9968 12 11.9968C16.5081 11.9968 20.1716 15.6126 20.2487 20.1025C20.2538 20.4002 20.0823 20.6728 19.8116 20.797C17.4327 21.8886 14.7865 22.4968 12.0003 22.4968C9.21382 22.4968 6.5674 21.8885 4.18829 20.7967C3.91762 20.6725 3.74608 20.3999 3.75121 20.1022Z"
          fill="#111827"/>
</svg>
