<svg width="24" height="24" viewBox="0 0 24 24" fill="none" xmlns="http://www.w3.org/2000/svg">
<path fill-rule="evenodd" clip-rule="evenodd" d="M8.25 6.74683C8.25 4.67576 9.92893 2.99683 12 2.99683C14.0711 2.99683 15.75 4.67576 15.75 6.74683C15.75 8.81789 14.0711 10.4968 12 10.4968C9.92893 10.4968 8.25 8.81789 8.25 6.74683Z" fill="#111827"/>
<path fill-rule="evenodd" clip-rule="evenodd" d="M15.75 9.74683C15.75 8.08997 17.0931 6.74683 18.75 6.74683C20.4069 6.74683 21.75 8.08997 21.75 9.74683C21.75 11.4037 20.4069 12.7468 18.75 12.7468C17.0931 12.7468 15.75 11.4037 15.75 9.74683Z" fill="#111827"/>
<path fill-rule="evenodd" clip-rule="evenodd" d="M2.25 9.74683C2.25 8.08997 3.59315 6.74683 5.25 6.74683C6.90685 6.74683 8.25 8.08997 8.25 9.74683C8.25 11.4037 6.90685 12.7468 5.25 12.7468C3.59315 12.7468 2.25 11.4037 2.25 9.74683Z" fill="#111827"/>
<path fill-rule="evenodd" clip-rule="evenodd" d="M6.30986 15.1143C7.50783 13.2412 9.60835 11.9968 12 11.9968C14.3919 11.9968 16.4927 13.2415 17.6906 15.115C18.5187 16.4103 18.877 17.972 18.709 19.4948C18.6827 19.7327 18.5444 19.9438 18.3368 20.063C16.4694 21.1344 14.3051 21.7468 12 21.7468C9.69492 21.7468 7.53059 21.1344 5.66325 20.063C5.45559 19.9438 5.3173 19.7327 5.29103 19.4948C5.12293 17.9717 5.48141 16.4097 6.30986 15.1143Z" fill="#111827"/>
<path d="M5.08228 14.2505C5.07024 14.269 5.05827 14.2876 5.04638 14.3062C4.08091 15.8157 3.63908 17.6135 3.77471 19.3858C3.16667 19.2935 2.5767 19.1449 2.01043 18.9455L1.89547 18.905C1.68576 18.8312 1.53923 18.6407 1.52159 18.4191L1.51192 18.2976C1.50402 18.1982 1.5 18.0979 1.5 17.9968C1.5 15.982 3.08905 14.3382 5.08228 14.2505Z" fill="#111827"/>
<path d="M20.2256 19.3858C20.3612 17.6138 19.9196 15.8164 18.9545 14.307C18.9424 14.2881 18.9303 14.2693 18.9181 14.2505C20.9111 14.3384 22.5 15.9821 22.5 17.9968C22.5 18.0979 22.496 18.1982 22.4881 18.2976L22.4784 18.4191C22.4608 18.6407 22.3142 18.8312 22.1045 18.905L21.9896 18.9455C21.4234 19.1449 20.8336 19.2934 20.2256 19.3858Z" fill="#111827"/>
</svg>
