<svg width="24" height="24" viewBox="0 0 24 24" fill="none" xmlns="http://www.w3.org/2000/svg">
<path d="M10.375 2.24683C8.09683 2.24683 6.25 4.09365 6.25 6.37183C6.25 8.65 8.09683 10.4968 10.375 10.4968C12.6532 10.4968 14.5 8.65 14.5 6.37183C14.5 4.09365 12.6532 2.24683 10.375 2.24683Z" fill="#111827"/>
<path d="M10.375 11.9968C6.43997 11.9968 3.25 15.1868 3.25 19.1218C3.25 19.1626 3.25034 19.2032 3.25103 19.2438C3.25537 19.5023 3.39256 19.7403 3.61406 19.8737C5.5893 21.0629 7.90343 21.7468 10.375 21.7468C12.8466 21.7468 15.1607 21.0629 17.1359 19.8737C17.3574 19.7403 17.4946 19.5023 17.499 19.2438C17.4996 19.2042 17.5 19.1642 17.5 19.1244V19.1218C17.5 15.1868 14.31 11.9968 10.375 11.9968Z" fill="#111827"/>
<path d="M16 9.74683C15.5858 9.74683 15.25 10.0826 15.25 10.4968C15.25 10.911 15.5858 11.2468 16 11.2468H22C22.4142 11.2468 22.75 10.911 22.75 10.4968C22.75 10.0826 22.4142 9.74683 22 9.74683H16Z" fill="#111827"/>
</svg>
