<svg width="24" height="24" viewBox="0 0 24 24" fill="none" xmlns="http://www.w3.org/2000/svg">
<path fill-rule="evenodd" clip-rule="evenodd" d="M18.6854 19.0939C20.5721 17.3159 21.75 14.7939 21.75 11.9968C21.75 6.61205 17.3848 2.24683 12 2.24683C6.61522 2.24683 2.25 6.61205 2.25 11.9968C2.25 14.7939 3.42785 17.3159 5.31463 19.0939C7.06012 20.7388 9.41234 21.7468 12 21.7468C14.5877 21.7468 16.9399 20.7388 18.6854 19.0939ZM6.14512 17.8091C7.51961 16.0946 9.63161 14.9968 12 14.9968C14.3684 14.9968 16.4804 16.0946 17.8549 17.8091C16.3603 19.3146 14.289 20.2468 12 20.2468C9.711 20.2468 7.63973 19.3146 6.14512 17.8091ZM15.75 8.99683C15.75 11.0679 14.0711 12.7468 12 12.7468C9.92893 12.7468 8.25 11.0679 8.25 8.99683C8.25 6.92576 9.92893 5.24683 12 5.24683C14.0711 5.24683 15.75 6.92576 15.75 8.99683Z" fill="#111827"/>
</svg>
