<svg width="24" height="24" viewBox="0 0 24 24" fill="none" xmlns="http://www.w3.org/2000/svg">
    <path fill-rule="evenodd" clip-rule="evenodd"
          d="M19.2535 2.28846C19.6447 2.15231 20.0722 2.35906 20.2083 2.75026C21.2033 5.609 21.75 8.73035 21.75 11.9968C21.75 15.2632 21.2033 18.3846 20.2083 21.2433C20.0722 21.6345 19.6447 21.8413 19.2535 21.7051C18.8623 21.569 18.6555 21.1415 18.7917 20.7503C19.7313 18.0504 20.25 15.0957 20.25 11.9968C20.25 8.89782 19.7313 5.94316 18.7917 3.24332C18.6555 2.85212 18.8623 2.42462 19.2535 2.28846ZM5.02596 2.30158C5.40991 2.457 5.59517 2.89425 5.43975 3.2782C4.3503 5.9696 3.75 8.91216 3.75 11.9968C3.75 15.0814 4.3503 18.024 5.43975 20.7154C5.59517 21.0993 5.40991 21.5366 5.02596 21.692C4.64201 21.8474 4.20477 21.6621 4.04935 21.2782C2.88874 18.411 2.25 15.2776 2.25 11.9968C2.25 8.716 2.88874 5.58256 4.04935 2.71538C4.20477 2.33142 4.64201 2.14616 5.02596 2.30158ZM9.30143 7.35373C10.1246 6.84717 11.205 7.23994 11.5106 8.15688L12.2266 10.3048L13.601 8.24319C14.2504 7.26907 15.5007 6.89424 16.5789 7.35041L16.7922 7.44068C17.1737 7.60207 17.3521 8.04215 17.1907 8.42363C17.0293 8.80511 16.5892 8.98352 16.2078 8.82213L15.9944 8.73186C15.5797 8.55641 15.0989 8.70058 14.8491 9.07524L12.8275 12.1076L13.9124 15.3624L15.3569 14.4734C15.7097 14.2563 16.1717 14.3663 16.3887 14.7191C16.6058 15.0719 16.4958 15.5338 16.1431 15.7509L14.6986 16.6398C13.8754 17.1464 12.795 16.7536 12.4894 15.8367L11.7734 13.6887L10.399 15.7504C9.74958 16.7245 8.49934 17.0993 7.42112 16.6432L7.20777 16.5529C6.82629 16.3915 6.64788 15.9514 6.80927 15.5699C6.97067 15.1885 7.41075 15.0101 7.79223 15.1714L8.00558 15.2617C8.42028 15.4372 8.90114 15.293 9.15091 14.9183L11.1725 11.886L10.0876 8.63122L8.64307 9.52014C8.2903 9.73723 7.82834 9.62724 7.61126 9.27447C7.39417 8.92171 7.50416 8.45975 7.85693 8.24266L9.30143 7.35373Z"
          fill="#111827"/>
</svg>
