<svg width="24" height="24" viewBox="0 0 24 24" fill="none" xmlns="http://www.w3.org/2000/svg">
    <path d="M0.96967 3.9665C1.26256 3.6736 1.73744 3.6736 2.03033 3.9665L17.0303 18.9665C17.3232 19.2594 17.3232 19.7343 17.0303 20.0272C16.7374 20.32 16.2626 20.32 15.9697 20.0272L0.96967 5.02716C0.676777 4.73426 0.676777 4.25939 0.96967 3.9665Z"
          fill="#111827"/>
    <path d="M17.25 16.0575L19.9393 18.7468C20.8843 19.6917 22.5 19.0225 22.5 17.6861V6.30745C22.5 4.9711 20.8843 4.30184 19.9393 5.24679L17.25 7.93613V16.0575Z"
          fill="#111827"/>
    <path d="M15.75 7.49683V15.5648L4.68198 4.49683H12.75C14.4069 4.49683 15.75 5.83997 15.75 7.49683Z" fill="#111827"/>
    <path d="M1.5 16.4968V7.67881L13.2727 19.4515C13.1029 19.4813 12.9283 19.4968 12.75 19.4968H4.5C2.84315 19.4968 1.5 18.1537 1.5 16.4968Z"
          fill="#111827"/>
</svg>
