<svg width="24" height="24" viewBox="0 0 24 24" fill="none" xmlns="http://www.w3.org/2000/svg">
<path d="M6 2.99683C4.34315 2.99683 3 4.33997 3 5.99683V7.49683C3 7.91104 3.33579 8.24683 3.75 8.24683C4.16421 8.24683 4.5 7.91104 4.5 7.49683V5.99683C4.5 5.1684 5.17157 4.49683 6 4.49683H7.5C7.91421 4.49683 8.25 4.16104 8.25 3.74683C8.25 3.33261 7.91421 2.99683 7.5 2.99683H6Z" fill="#111827"/>
<path d="M16.5 2.99683C16.0858 2.99683 15.75 3.33261 15.75 3.74683C15.75 4.16104 16.0858 4.49683 16.5 4.49683H18C18.8284 4.49683 19.5 5.1684 19.5 5.99683V7.49683C19.5 7.91104 19.8358 8.24683 20.25 8.24683C20.6642 8.24683 21 7.91104 21 7.49683V5.99683C21 4.33997 19.6569 2.99683 18 2.99683H16.5Z" fill="#111827"/>
<path d="M12 8.24683C9.92893 8.24683 8.25 9.92576 8.25 11.9968C8.25 14.0679 9.92893 15.7468 12 15.7468C14.0711 15.7468 15.75 14.0679 15.75 11.9968C15.75 9.92576 14.0711 8.24683 12 8.24683Z" fill="#111827"/>
<path d="M4.5 16.4968C4.5 16.0826 4.16421 15.7468 3.75 15.7468C3.33579 15.7468 3 16.0826 3 16.4968V17.9968C3 19.6537 4.34315 20.9968 6 20.9968H7.5C7.91421 20.9968 8.25 20.661 8.25 20.2468C8.25 19.8326 7.91421 19.4968 7.5 19.4968H6C5.17157 19.4968 4.5 18.8253 4.5 17.9968V16.4968Z" fill="#111827"/>
<path d="M21 16.4968C21 16.0826 20.6642 15.7468 20.25 15.7468C19.8358 15.7468 19.5 16.0826 19.5 16.4968V17.9968C19.5 18.8253 18.8284 19.4968 18 19.4968H16.5C16.0858 19.4968 15.75 19.8326 15.75 20.2468C15.75 20.661 16.0858 20.9968 16.5 20.9968H18C19.6569 20.9968 21 19.6537 21 17.9968V16.4968Z" fill="#111827"/>
</svg>
