<svg width="24" height="24" viewBox="0 0 24 24" fill="none" xmlns="http://www.w3.org/2000/svg">
    <path d="M2.27307 5.62206C3.06638 4.92176 4.10851 4.49683 5.24989 4.49683H18.7499C19.8913 4.49683 20.9334 4.92177 21.7267 5.62206C21.5423 4.14208 20.2798 2.99683 18.7499 2.99683H5.24989C3.71995 2.99683 2.4575 4.14208 2.27307 5.62206Z"
          fill="#111827"/>
    <path d="M2.27307 8.62206C3.06638 7.92176 4.10851 7.49683 5.24989 7.49683H18.7499C19.8913 7.49683 20.9334 7.92177 21.7267 8.62206C21.5423 7.14208 20.2798 5.99683 18.7499 5.99683H5.24989C3.71995 5.99683 2.4575 7.14208 2.27307 8.62206Z"
          fill="#111827"/>
    <path d="M5.25 8.99683C3.59315 8.99683 2.25 10.34 2.25 11.9968V17.9968C2.25 19.6537 3.59315 20.9968 5.25 20.9968H18.75C20.4069 20.9968 21.75 19.6537 21.75 17.9968V11.9968C21.75 10.34 20.4069 8.99683 18.75 8.99683H15C14.5858 8.99683 14.25 9.33261 14.25 9.74683C14.25 10.9895 13.2426 11.9968 12 11.9968C10.7574 11.9968 9.75 10.9895 9.75 9.74683C9.75 9.33261 9.41421 8.99683 9 8.99683H5.25Z"
          fill="#111827"/>
</svg>
