<svg width="24" height="24" viewBox="0 0 24 24" fill="none" xmlns="http://www.w3.org/2000/svg">
    <path fill-rule="evenodd" clip-rule="evenodd"
          d="M1.37128 8.14022C7.22915 2.28236 16.7266 2.28236 22.5845 8.14022C22.8774 8.43311 22.8774 8.90797 22.5845 9.20086L22.0542 9.73124C21.9135 9.8719 21.7228 9.95092 21.5238 9.95093C21.3249 9.95093 21.1341 9.87192 20.9935 9.73126C16.0143 4.75207 7.94146 4.75207 2.96227 9.73126C2.82162 9.87192 2.63084 9.95093 2.43193 9.95093C2.23301 9.95092 2.04224 9.8719 1.90159 9.73124L1.37126 9.20086C1.07839 8.90797 1.0784 8.43311 1.37128 8.14022ZM4.55326 11.3223C8.65377 7.22175 15.302 7.22175 19.4025 11.3223C19.6954 11.6151 19.6954 12.09 19.4025 12.3829L18.8722 12.9132C18.7316 13.0539 18.5408 13.1329 18.3419 13.1329C18.143 13.1329 17.9522 13.0539 17.8115 12.9132C14.5897 9.69142 9.3661 9.69142 6.14427 12.9132C5.85139 13.2061 5.37652 13.2061 5.08362 12.9133L4.55327 12.3829C4.41262 12.2423 4.33359 12.0515 4.33359 11.8526C4.33359 11.6537 4.41261 11.4629 4.55326 11.3223ZM7.75733 14.5042C10.1005 12.161 13.8995 12.161 16.2426 14.5042C16.5355 14.7971 16.5355 15.272 16.2426 15.5648L15.7123 16.0952C15.5716 16.2358 15.3809 16.3148 15.182 16.3148C14.983 16.3148 14.7923 16.2358 14.6516 16.0952C13.1872 14.6307 10.8128 14.6307 9.34832 16.0952C9.05543 16.3881 8.58055 16.3881 8.28766 16.0952L7.75733 15.5648C7.46444 15.272 7.46444 14.7971 7.75733 14.5042ZM10.9393 17.6862C11.5251 17.1004 12.4748 17.1004 13.0606 17.6862C13.3535 17.9791 13.3535 18.4539 13.0606 18.7468L12.5303 19.2772C12.3896 19.4178 12.1989 19.4968 12 19.4968C11.8011 19.4968 11.6103 19.4178 11.4696 19.2772L10.9393 18.7468C10.6464 18.4539 10.6464 17.9791 10.9393 17.6862Z"
          fill="#111827"/>
</svg>
