<svg width="24" height="24" viewBox="0 0 24 24" fill="none" xmlns="http://www.w3.org/2000/svg">
    <path fill-rule="evenodd" clip-rule="evenodd"
          d="M12 6.74683C12 3.84733 14.3505 1.49683 17.25 1.49683C17.7791 1.49683 18.2913 1.57534 18.7747 1.72187C19.027 1.79833 19.2206 2.00162 19.2847 2.25731C19.3488 2.513 19.2739 2.78357 19.0875 2.96996L15.7688 6.28866C15.8305 6.76424 16.0438 7.22264 16.409 7.58782C16.7742 7.95299 17.2326 8.1663 17.7082 8.22799L21.0269 4.9093C21.2133 4.72291 21.4838 4.64805 21.7395 4.71213C21.9952 4.77621 22.1985 4.96981 22.275 5.22208C22.4215 5.70553 22.5 6.21769 22.5 6.74683C22.5 9.64632 20.1495 11.9968 17.25 11.9968C17.0995 11.9968 16.9503 11.9905 16.8027 11.978C15.7855 11.892 14.9338 12.0785 14.4944 12.612L7.34327 21.2955C6.71684 22.0562 5.78308 22.4968 4.79769 22.4968C2.97642 22.4968 1.5 21.0204 1.5 19.1991C1.5 18.2137 1.94067 17.28 2.70132 16.6536L11.3849 9.5024C11.9184 9.06305 12.1048 8.21135 12.0188 7.19411C12.0064 7.04651 12 6.89732 12 6.74683ZM4.11723 19.1219C4.11723 18.7077 4.45302 18.3719 4.86723 18.3719H4.87473C5.28895 18.3719 5.62473 18.7077 5.62473 19.1219V19.1294C5.62473 19.5436 5.28895 19.8794 4.87473 19.8794H4.86723C4.45302 19.8794 4.11723 19.5436 4.11723 19.1294V19.1219Z"
          fill="#111827"/>
    <path d="M10.076 8.63714L7.87502 6.43618V4.87184C7.87502 4.6084 7.73679 4.36427 7.51089 4.22872L3.76089 1.97872C3.46578 1.80166 3.08804 1.84816 2.84469 2.09151L2.09469 2.84151C1.85133 3.08486 1.80483 3.46261 1.9819 3.75771L4.2319 7.50771C4.36744 7.73362 4.61157 7.87184 4.87502 7.87184H6.43936L8.50138 9.93386L10.076 8.63714Z"
          fill="#111827"/>
    <path fill-rule="evenodd" clip-rule="evenodd"
          d="M12.5559 17.3255L16.7386 21.5082C18.0567 22.8263 20.1936 22.8263 21.5116 21.5082C22.8296 20.1902 22.8296 18.0533 21.5116 16.7353L18.206 13.4296C17.8937 13.4739 17.5746 13.4968 17.2501 13.4968C17.0574 13.4968 16.866 13.4886 16.6765 13.4726C16.2822 13.4393 15.994 13.4664 15.8089 13.5145C15.7053 13.5414 15.6574 13.5681 15.6419 13.5783L12.5559 17.3255ZM15.9698 15.9665C16.2627 15.6736 16.7375 15.6736 17.0304 15.9665L18.9054 17.8415C19.1983 18.1344 19.1983 18.6093 18.9054 18.9022C18.6125 19.195 18.1377 19.195 17.8448 18.9022L15.9698 17.0272C15.6769 16.7343 15.6769 16.2594 15.9698 15.9665Z"
          fill="#111827"/>
</svg>
