<svg width="24" height="24" viewBox="0 0 24 24" fill="none" xmlns="http://www.w3.org/2000/svg">
<path fill-rule="evenodd" clip-rule="evenodd" d="M12 2.24683C6.61522 2.24683 2.25 6.61205 2.25 11.9968C2.25 17.3816 6.61522 21.7468 12 21.7468C17.3848 21.7468 21.75 17.3816 21.75 11.9968C21.75 6.61205 17.3848 2.24683 12 2.24683ZM10.2803 9.2165C9.98744 8.9236 9.51256 8.9236 9.21967 9.2165C8.92678 9.50939 8.92678 9.98426 9.21967 10.2772L10.9393 11.9968L9.21967 13.7165C8.92678 14.0094 8.92678 14.4843 9.21967 14.7772C9.51256 15.07 9.98744 15.07 10.2803 14.7772L12 13.0575L13.7197 14.7772C14.0126 15.07 14.4874 15.07 14.7803 14.7772C15.0732 14.4843 15.0732 14.0094 14.7803 13.7165L13.0607 11.9968L14.7803 10.2772C15.0732 9.98426 15.0732 9.50939 14.7803 9.2165C14.4874 8.9236 14.0126 8.9236 13.7197 9.2165L12 10.9362L10.2803 9.2165Z" fill="#111827"/>
</svg>
