<svg width="24" height="24" viewBox="0 0 24 24" fill="none" xmlns="http://www.w3.org/2000/svg">
<path fill-rule="evenodd" clip-rule="evenodd" d="M5.46967 5.4665C5.76256 5.1736 6.23744 5.1736 6.53033 5.4665L12 10.9362L17.4697 5.4665C17.7626 5.1736 18.2374 5.1736 18.5303 5.4665C18.8232 5.75939 18.8232 6.23426 18.5303 6.52716L13.0607 11.9968L18.5303 17.4665C18.8232 17.7594 18.8232 18.2343 18.5303 18.5272C18.2374 18.82 17.7626 18.82 17.4697 18.5272L12 13.0575L6.53033 18.5272C6.23744 18.82 5.76256 18.82 5.46967 18.5272C5.17678 18.2343 5.17678 17.7594 5.46967 17.4665L10.9393 11.9968L5.46967 6.52716C5.17678 6.23426 5.17678 5.75939 5.46967 5.4665Z" fill="#111827"/>
</svg>
