<svg width="24" height="24" viewBox="0 0 24 24" fill="none" xmlns="http://www.w3.org/2000/svg">
<path fill-rule="evenodd" clip-rule="evenodd" d="M11.6998 2.80529C11.8912 2.72164 12.1089 2.72164 12.3003 2.80529C16.0192 4.43011 19.5437 6.41637 22.8295 8.71956C23.0673 8.88623 23.1875 9.1752 23.1381 9.46135C23.0887 9.7475 22.8785 9.97941 22.5986 10.0567C21.9137 10.2457 21.2346 10.4489 20.5618 10.6659C20.7917 12.5767 20.933 14.5147 20.9813 16.4755C20.9889 16.7847 20.8059 17.0669 20.5205 17.1861C17.6693 18.3764 14.9574 19.834 12.4159 21.5277C12.1641 21.6955 11.836 21.6955 11.5841 21.5277C10.0521 20.5067 8.45807 19.5715 6.80897 18.7289C6.49041 19.3768 6.06175 19.9842 5.52299 20.523C5.2301 20.8159 4.75523 20.8159 4.46233 20.523C4.16944 20.2301 4.16944 19.7552 4.46233 19.4623C4.88146 19.0432 5.21489 18.5711 5.46264 18.0675C4.80955 17.7592 4.1484 17.4653 3.4796 17.1861C3.19416 17.0669 3.01116 16.7847 3.01878 16.4755C3.06709 14.5147 3.20833 12.5767 3.43829 10.6659C2.76546 10.4489 2.08644 10.2457 1.40154 10.0567C1.12162 9.9794 0.911461 9.74749 0.86204 9.46134C0.812619 9.17519 0.932824 8.88622 1.17061 8.71955C4.45645 6.41636 7.98097 4.43011 11.6998 2.80529ZM4.89061 11.159C4.70713 12.7552 4.58707 14.3709 4.53302 16.0033C5.00132 16.2046 5.46588 16.413 5.92657 16.6282C5.97554 16.3378 6.00002 16.0439 6.00002 15.75V15.5493C5.55167 15.29 5.25002 14.8052 5.25002 14.25C5.25002 13.6948 5.55167 13.21 6.00002 12.9507V11.5698C5.63228 11.4287 5.26246 11.2917 4.89061 11.159ZM8.67521 11.0454C9.86427 10.3593 11.0815 9.71651 12.3248 9.11935C12.6981 8.94001 12.8554 8.49194 12.6761 8.11857C12.4967 7.74519 12.0487 7.5879 11.6753 7.76724C10.053 8.54646 8.47393 9.40118 6.94258 10.3268C6.13749 10.01 5.32254 9.71278 4.49831 9.43573C4.11246 9.30604 3.72458 9.18077 3.33473 9.05998C6.0725 7.24744 8.96945 5.6563 12.0001 4.31201C15.0307 5.6563 17.9276 7.24745 20.6654 9.05999C20.2755 9.18079 19.8876 9.30607 19.5017 9.43577C16.9028 10.3094 14.3961 11.3836 12.0001 12.64C10.914 12.0705 9.8051 11.5384 8.67521 11.0454ZM7.50002 12.1735V12.9507C7.94838 13.21 8.25002 13.6948 8.25002 14.25C8.25002 14.8052 7.94838 15.29 7.50002 15.5493V15.75C7.50002 16.2721 7.43973 16.7944 7.31915 17.3056C8.93223 18.1218 10.4945 19.0237 12 20.0053C14.3575 18.4683 16.8541 17.1266 19.467 16.0033C19.413 14.3709 19.2929 12.7553 19.1094 11.1591C16.7729 11.9928 14.516 12.9947 12.3535 14.1501C12.1327 14.2681 11.8675 14.2681 11.6466 14.1501C10.2998 13.4305 8.91646 12.7705 7.50002 12.1735Z" fill="#111827"/>
</svg>
