<svg width="24" height="24" viewBox="0 0 24 24" fill="none" xmlns="http://www.w3.org/2000/svg">
    <path fill-rule="evenodd" clip-rule="evenodd"
          d="M1.5 4.875C1.5 3.83947 2.33947 3 3.375 3H20.625C21.6605 3 22.5 3.83947 22.5 4.875V6.375C22.5 7.29657 21.8351 8.06285 20.9589 8.22035L20.3733 18.1762C20.28 19.7619 18.9669 21 17.3785 21H6.62154C5.03311 21 3.71999 19.7619 3.62671 18.1762L3.04108 8.22035C2.16485 8.06285 1.5 7.29657 1.5 6.375V4.875ZM3.75659 6.75C3.75266 6.74997 3.74873 6.74997 3.74479 6.75H3.375C3.16789 6.75 3 6.58211 3 6.375V4.875C3 4.66789 3.16789 4.5 3.375 4.5H20.625C20.8321 4.5 21 4.66789 21 4.875V6.375C21 6.58211 20.8321 6.75 20.625 6.75H20.2552C20.2513 6.74997 20.2473 6.74997 20.2434 6.75H3.75659ZM4.54541 8.25L5.12412 18.0881C5.17076 18.8809 5.82732 19.5 6.62154 19.5H17.3785C18.1727 19.5 18.8292 18.8809 18.8759 18.0881L19.4546 8.25H4.54541ZM9.21967 11.0947C9.51256 10.8018 9.98744 10.8018 10.2803 11.0947L12 12.8143L13.7197 11.0947C14.0126 10.8018 14.4874 10.8018 14.7803 11.0947C15.0732 11.3876 15.0732 11.8624 14.7803 12.1553L13.0607 13.875L14.7803 15.5947C15.0732 15.8876 15.0732 16.3624 14.7803 16.6553C14.4874 16.9482 14.0126 16.9482 13.7197 16.6553L12 14.9357L10.2803 16.6553C9.98744 16.9482 9.51256 16.9482 9.21967 16.6553C8.92678 16.3624 8.92678 15.8876 9.21967 15.5947L10.9393 13.875L9.21967 12.1553C8.92678 11.8624 8.92678 11.3876 9.21967 11.0947Z"
          fill="#111827"/>
</svg>
