<svg width="24" height="25" viewBox="0 0 24 25" fill="none" xmlns="http://www.w3.org/2000/svg">
    <g clip-path="url(#clip0_4117_240)">
        <path fill-rule="evenodd" clip-rule="evenodd"
              d="M9.96967 0.988225C10.2626 0.695331 10.7374 0.695331 11.0303 0.988225L14.0303 3.98823C14.3232 4.28112 14.3232 4.75599 14.0303 5.04889C13.7374 5.34178 13.2626 5.34178 12.9697 5.04889L11.25 3.32921L11.25 12.7686C11.25 13.1828 10.9142 13.5186 10.5 13.5186C10.0858 13.5186 9.75 13.1828 9.75 12.7686L9.75 3.32921L8.03033 5.04888C7.73744 5.34178 7.26256 5.34178 6.96967 5.04888C6.67678 4.75599 6.67678 4.28112 6.96967 3.98822L9.96967 0.988225ZM6.75 8.26855C5.92157 8.26855 5.25 8.94013 5.25 9.76855V17.2686C5.25 18.097 5.92157 18.7686 6.75 18.7686H14.25C15.0784 18.7686 15.75 18.097 15.75 17.2686V9.76855C15.75 8.94013 15.0784 8.26855 14.25 8.26855H13.5C13.0858 8.26855 12.75 7.93277 12.75 7.51855C12.75 7.10434 13.0858 6.76855 13.5 6.76855H14.25C15.9069 6.76855 17.25 8.1117 17.25 9.76855C18.9069 9.76855 20.25 11.1117 20.25 12.7686V20.2686C20.25 21.9254 18.9069 23.2686 17.25 23.2686H9.75C8.09315 23.2686 6.75 21.9254 6.75 20.2686C5.09315 20.2686 3.75 18.9254 3.75 17.2686V9.76855C3.75 8.1117 5.09315 6.76855 6.75 6.76855H7.5C7.91421 6.76855 8.25 7.10434 8.25 7.51855C8.25 7.93277 7.91421 8.26855 7.5 8.26855H6.75ZM8.25 20.2686C8.25 21.097 8.92157 21.7686 9.75 21.7686H17.25C18.0784 21.7686 18.75 21.097 18.75 20.2686V12.7686C18.75 11.9401 18.0784 11.2686 17.25 11.2686V17.2686C17.25 18.9254 15.9069 20.2686 14.25 20.2686H8.25Z"
              fill="#111827"/>
    </g>
    <defs>
        <clipPath id="clip0_4117_240">
            <rect width="24" height="24" fill="white" transform="translate(0 0.0185547)"/>
        </clipPath>
    </defs>
</svg>
