<svg width="24" height="24" viewBox="0 0 24 24" fill="none" xmlns="http://www.w3.org/2000/svg">
<path fill-rule="evenodd" clip-rule="evenodd" d="M11.5 3C11.9142 3 12.25 3.33579 12.25 3.75L12.25 14.6893L13.9697 12.9697C14.2626 12.6768 14.7374 12.6768 15.0303 12.9697C15.3232 13.2626 15.3232 13.7374 15.0303 14.0303L12.0303 17.0303C11.8897 17.171 11.6989 17.25 11.5 17.25C11.3011 17.25 11.1103 17.171 10.9697 17.0303L7.96967 14.0303C7.67678 13.7374 7.67678 13.2626 7.96967 12.9697C8.26256 12.6768 8.73744 12.6768 9.03033 12.9697L10.75 14.6893L10.75 3.75C10.75 3.33579 11.0858 3 11.5 3ZM7 10.5C6.17157 10.5 5.5 11.1716 5.5 12V21C5.5 21.8284 6.17157 22.5 7 22.5H16C16.8284 22.5 17.5 21.8284 17.5 21V12C17.5 11.1716 16.8284 10.5 16 10.5H14.5C14.0858 10.5 13.75 10.1642 13.75 9.75C13.75 9.33579 14.0858 9 14.5 9H16C17.6569 9 19 10.3431 19 12V21C19 22.6569 17.6569 24 16 24H7C5.34315 24 4 22.6569 4 21V12C4 10.3431 5.34315 9 7 9H8.5C8.91421 9 9.25 9.33579 9.25 9.75C9.25 10.1642 8.91421 10.5 8.5 10.5H7Z" fill="#111827"/>
</svg>
