<svg width="24" height="25" viewBox="0 0 24 25" fill="none" xmlns="http://www.w3.org/2000/svg">
    <path fill-rule="evenodd" clip-rule="evenodd"
          d="M12 3.76855C7.44365 3.76855 3.75 7.46221 3.75 12.0186C3.75 16.5749 7.44365 20.2686 12 20.2686C16.5563 20.2686 20.25 16.5749 20.25 12.0186C20.25 7.46221 16.5563 3.76855 12 3.76855ZM2.25 12.0186C2.25 6.63378 6.61522 2.26855 12 2.26855C17.3848 2.26855 21.75 6.63378 21.75 12.0186C21.75 17.4033 17.3848 21.7686 12 21.7686C6.61522 21.7686 2.25 17.4033 2.25 12.0186ZM8.46967 10.7382L11.4697 7.73822C11.7626 7.44533 12.2374 7.44533 12.5303 7.73822L15.5303 10.7382C15.8232 11.0311 15.8232 11.506 15.5303 11.7989C15.2374 12.0918 14.7626 12.0918 14.4697 11.7989L12.75 10.0792L12.75 15.7686C12.75 16.1828 12.4142 16.5186 12 16.5186C11.5858 16.5186 11.25 16.1828 11.25 15.7686L11.25 10.0792L9.53033 11.7989C9.23744 12.0918 8.76256 12.0918 8.46967 11.7989C8.17678 11.506 8.17678 11.0311 8.46967 10.7382Z"
          fill="#111827"/>
</svg>
