<svg width="24" height="25" viewBox="0 0 24 25" fill="none" xmlns="http://www.w3.org/2000/svg">
    <path fill-rule="evenodd" clip-rule="evenodd"
          d="M9.19475 6.24981C10.4447 5.53554 12 6.4381 12 7.87777V10.2182L18.9447 6.24981C20.1947 5.53554 21.75 6.4381 21.75 7.87777V16.0006C21.75 17.4403 20.1947 18.3428 18.9447 17.6286L12 13.6601V16.0006C12 17.4403 10.4447 18.3428 9.19475 17.6286L2.08726 13.5671C0.827603 12.8473 0.827605 11.031 2.08726 10.3112L9.19475 6.24981ZM10.5 7.87777C10.5 7.58984 10.189 7.40932 9.93896 7.55218L2.83147 11.6136C2.57953 11.7576 2.57953 12.1208 2.83146 12.2648L9.93896 16.3262C10.189 16.4691 10.5 16.2886 10.5 16.0006L10.5 7.87777ZM20.25 7.87777C20.25 7.58984 19.939 7.40932 19.689 7.55218L12.5815 11.6136C12.3295 11.7576 12.3295 12.1208 12.5815 12.2648L19.689 16.3262C19.939 16.4691 20.25 16.2886 20.25 16.0006V7.87777Z"
          fill="#111827"/>
</svg>
