<svg width="24" height="25" viewBox="0 0 24 25" fill="none" xmlns="http://www.w3.org/2000/svg">
<path fill-rule="evenodd" clip-rule="evenodd" d="M1.5 5.64355C1.5 4.60802 2.33947 3.76855 3.375 3.76855H20.625C21.6605 3.76855 22.5 4.60802 22.5 5.64355V15.3936C22.5 16.4291 21.6605 17.2686 20.625 17.2686H3.375C2.33947 17.2686 1.5 16.4291 1.5 15.3936V5.64355ZM19.5 15.7686H4.5C4.5 14.9401 3.82843 14.2686 3 14.2686V6.76855C3.82843 6.76855 4.5 6.09698 4.5 5.26855H19.5C19.5 6.09698 20.1716 6.76855 21 6.76855V14.2686C20.1716 14.2686 19.5 14.9401 19.5 15.7686ZM12 8.26855C10.7574 8.26855 9.75 9.27591 9.75 10.5186C9.75 11.7612 10.7574 12.7686 12 12.7686C13.2426 12.7686 14.25 11.7612 14.25 10.5186C14.25 9.27591 13.2426 8.26855 12 8.26855ZM8.25 10.5186C8.25 8.44749 9.92893 6.76855 12 6.76855C14.0711 6.76855 15.75 8.44749 15.75 10.5186C15.75 12.5896 14.0711 14.2686 12 14.2686C9.92893 14.2686 8.25 12.5896 8.25 10.5186ZM5.25 10.5186C5.25 10.1043 5.58579 9.76856 6 9.76856H6.0075C6.42171 9.76856 6.7575 10.1043 6.7575 10.5186V10.5261C6.7575 10.9403 6.42171 11.2761 6.0075 11.2761H6C5.58579 11.2761 5.25 10.9403 5.25 10.5261V10.5186ZM17.25 10.5186C17.25 10.1043 17.5858 9.76856 18 9.76856H18.0075C18.4217 9.76856 18.7575 10.1043 18.7575 10.5186V10.5261C18.7575 10.9403 18.4217 11.2761 18.0075 11.2761H18C17.5858 11.2761 17.25 10.9403 17.25 10.5261V10.5186ZM1.5 18.7686C1.5 18.3543 1.83579 18.0186 2.25 18.0186C7.78434 18.0186 13.147 18.7588 18.2437 20.1461C18.5072 20.2178 18.75 20.0189 18.75 19.7737V18.7686C18.75 18.3543 19.0858 18.0186 19.5 18.0186C19.9142 18.0186 20.25 18.3543 20.25 18.7686V19.7737C20.25 21.0353 19.0404 21.9175 17.8498 21.5934C12.8802 20.2408 7.65005 19.5186 2.25 19.5186C1.83579 19.5186 1.5 19.1828 1.5 18.7686Z" fill="#111827"/>
</svg>
