<svg width="24" height="24" viewBox="0 0 24 24" fill="none" xmlns="http://www.w3.org/2000/svg">
    <path fill-rule="evenodd" clip-rule="evenodd"
          d="M12 3.75C9.10051 3.75 6.75 6.10051 6.75 9L6.74981 9.75C6.74981 9.74993 6.74981 9.75007 6.74981 9.75C6.74976 11.8594 6.07916 13.8136 4.94025 15.4091C6.31913 15.848 7.75394 16.1617 9.23147 16.337C10.139 16.4446 11.0628 16.5 11.9998 16.5C12.937 16.5 13.8609 16.4446 14.7685 16.3369C16.2459 16.1617 17.6806 15.8479 19.0594 15.4091C17.9204 13.8136 17.2498 11.8595 17.2498 9.75V9.04316L17.25 9C17.25 6.10051 14.8995 3.75 12 3.75ZM5.25 8.9998C5.25011 5.27197 8.27215 2.25 12 2.25C15.7279 2.25 18.75 5.27208 18.75 9L18.7498 9.04919V9.75C18.7498 11.8731 19.5508 13.8074 20.8684 15.2699C21.0349 15.4547 21.0989 15.71 21.0393 15.9516C20.9797 16.1931 20.8042 16.3893 20.5709 16.4755C19.0269 17.0455 17.4105 17.4659 15.7396 17.7192C15.7465 17.812 15.75 17.9056 15.75 18C15.75 20.0711 14.0711 21.75 12 21.75C9.92894 21.75 8.25 20.0711 8.25 18C8.25 17.9056 8.25351 17.812 8.26039 17.7192C6.58933 17.4659 4.97287 17.0455 3.42874 16.4755C3.19538 16.3893 3.01992 16.1931 2.96032 15.9516C2.90073 15.71 2.96476 15.4547 3.13126 15.2699C4.44879 13.8074 5.24981 11.8731 5.24981 9.75L5.25 8.9998C5.25 8.99987 5.25 8.99974 5.25 8.9998ZM9.75221 17.8993C9.75074 17.9326 9.75 17.9662 9.75 18C9.75 19.2426 10.7574 20.25 12 20.25C13.2426 20.25 14.25 19.2426 14.25 18C14.25 17.9662 14.2493 17.9326 14.2478 17.8992C13.5072 17.9659 12.7574 18 11.9998 18C11.2423 18 10.4927 17.966 9.75221 17.8993ZM9.75 8.25C9.75 7.83579 10.0858 7.5 10.5 7.5H13.5C13.7766 7.5 14.0307 7.65224 14.1613 7.89611C14.2918 8.13997 14.2775 8.43588 14.124 8.66603L11.9014 12H13.5C13.9142 12 14.25 12.3358 14.25 12.75C14.25 13.1642 13.9142 13.5 13.5 13.5H10.5C10.2234 13.5 9.96926 13.3478 9.83875 13.1039C9.70823 12.86 9.72254 12.5641 9.87597 12.334L12.0986 9H10.5C10.0858 9 9.75 8.66421 9.75 8.25Z"
          fill="#111827"/>
</svg>
