<svg width="24" height="24" viewBox="0 0 24 24" fill="none" xmlns="http://www.w3.org/2000/svg">
<path fill-rule="evenodd" clip-rule="evenodd" d="M5.79187 2.44115C6.10051 2.71739 6.12678 3.19154 5.85053 3.50018C4.83319 4.63685 4.12721 6.0558 3.8641 7.62409C3.79557 8.0326 3.40885 8.3082 3.00035 8.23966C2.59184 8.17113 2.31624 7.78441 2.38478 7.37591C2.69623 5.51947 3.53188 3.84162 4.73283 2.49981C5.00908 2.19117 5.48322 2.1649 5.79187 2.44115ZM18.2081 2.44115C18.5168 2.1649 18.9909 2.19117 19.2672 2.49981C20.4681 3.84162 21.3038 5.51947 21.6152 7.37591C21.6838 7.78441 21.4082 8.17113 20.9997 8.23966C20.5912 8.3082 20.2044 8.0326 20.1359 7.62409C19.8728 6.0558 19.1668 4.63685 18.1495 3.50018C17.8732 3.19154 17.8995 2.71739 18.2081 2.44115ZM12 3.75C9.10051 3.75 6.75 6.1005 6.75 9L6.7498 9.75C6.7498 9.74993 6.7498 9.75007 6.7498 9.75C6.74976 11.8594 6.07915 13.8136 4.94025 15.4091C6.31913 15.848 7.75394 16.1617 9.23147 16.337C10.139 16.4446 11.0628 16.5 11.9998 16.5C12.937 16.5 13.8609 16.4446 14.7685 16.3369C16.2459 16.1617 17.6806 15.8479 19.0594 15.4091C17.9204 13.8136 17.2498 11.8595 17.2498 9.75V9.04316L17.25 9C17.25 6.1005 14.8995 3.75 12 3.75ZM5.25 9C5.25 5.27208 8.27208 2.25 12 2.25C15.7279 2.25 18.75 5.27208 18.75 9L18.7498 9.04919V9.75C18.7498 11.8731 19.5508 13.8074 20.8684 15.2699C21.0349 15.4547 21.0989 15.71 21.0393 15.9516C20.9797 16.1931 20.8042 16.3893 20.5709 16.4755C19.0269 17.0454 17.4105 17.4659 15.7396 17.7192C15.7465 17.812 15.75 17.9056 15.75 18C15.75 20.0711 14.0711 21.75 12 21.75C9.92893 21.75 8.25 20.0711 8.25 18C8.25 17.9056 8.2535 17.812 8.26039 17.7192C6.58933 17.4659 4.97286 17.0455 3.42874 16.4755C3.19538 16.3893 3.01991 16.1931 2.96032 15.9516C2.90072 15.71 2.96475 15.4547 3.13125 15.2699C4.44879 13.8074 5.2498 11.8731 5.2498 9.75L5.25 9ZM9.7522 17.8993C9.75074 17.9326 9.75 17.9662 9.75 18C9.75 19.2426 10.7574 20.25 12 20.25C13.2426 20.25 14.25 19.2426 14.25 18C14.25 17.9662 14.2493 17.9326 14.2478 17.8992C13.5072 17.9659 12.7574 18 11.9998 18C11.2423 18 10.4927 17.966 9.7522 17.8993Z" fill="#111827"/>
</svg>
