<svg width="24" height="24" viewBox="0 0 24 24" fill="none" xmlns="http://www.w3.org/2000/svg">
    <path fill-rule="evenodd" clip-rule="evenodd"
          d="M14.6152 1.59724C14.9164 1.76518 15.0643 2.11692 14.9736 2.44965L12.9819 9.75231H20.25C20.5486 9.75231 20.8188 9.9295 20.9379 10.2034C21.0569 10.4773 21.0021 10.7957 20.7983 11.0141L10.2983 22.2641C10.063 22.5162 9.68603 22.5753 9.38479 22.4074C9.08355 22.2394 8.93568 21.8877 9.02643 21.555L11.0181 14.2523H3.75C3.45135 14.2523 3.18117 14.0751 3.06214 13.8012C2.94312 13.5273 2.99794 13.2089 3.20171 12.9906L13.7017 1.74058C13.937 1.48844 14.314 1.4293 14.6152 1.59724ZM5.47592 12.7523H12C12.2338 12.7523 12.4541 12.8613 12.596 13.0471C12.7379 13.2328 12.7851 13.4741 12.7236 13.6997L11.2719 19.0225L18.5241 11.2523H12C11.7662 11.2523 11.5459 11.1433 11.404 10.9576C11.2621 10.7718 11.2149 10.5305 11.2764 10.305L12.7281 4.98209L5.47592 12.7523Z"
          fill="#111827"/>
</svg>
