<svg width="24" height="24" viewBox="0 0 24 24" fill="none" xmlns="http://www.w3.org/2000/svg">
    <path fill-rule="evenodd" clip-rule="evenodd"
          d="M14.6152 1.59724C14.9164 1.76518 15.0643 2.11692 14.9736 2.44965L12.9819 9.75231H20.25C20.5486 9.75231 20.8188 9.9295 20.9379 10.2034C21.0569 10.4773 21.0021 10.7957 20.7983 11.0141L16.5858 15.5274L21.5303 20.472C21.8232 20.7649 21.8232 21.2397 21.5303 21.5326C21.2374 21.8255 20.7626 21.8255 20.4697 21.5326L2.46967 3.53264C2.17678 3.23975 2.17678 2.76488 2.46967 2.47198C2.76256 2.17909 3.23744 2.17909 3.53033 2.47198L8.43829 7.37995L13.7017 1.74058C13.937 1.48844 14.314 1.4293 14.6152 1.59724ZM9.49958 8.44124L11.295 10.2367L12.7281 4.98209L9.49958 8.44124ZM12.3107 11.2523L15.5245 14.4662L18.5241 11.2523H12.3107ZM6.92046 10.1054C7.22328 10.388 7.23964 10.8626 6.95702 11.1654L5.47591 12.7523H9.25736C9.67157 12.7523 10.0074 13.0881 10.0074 13.5023C10.0074 13.9165 9.67157 14.2523 9.25736 14.2523H3.75C3.45135 14.2523 3.18117 14.0751 3.06214 13.8012C2.94311 13.5273 2.99794 13.2089 3.20171 12.9906L5.86043 10.1419C6.14306 9.83913 6.61765 9.82276 6.92046 10.1054ZM11.6096 14.9337C12.0092 15.0427 12.2449 15.455 12.1359 15.8546L11.2719 19.0225L12.9466 17.2281C13.2293 16.9253 13.7039 16.909 14.0067 17.1916C14.3095 17.4742 14.3258 17.9488 14.0432 18.2516L10.2983 22.2641C10.063 22.5162 9.68603 22.5753 9.38479 22.4074C9.08355 22.2394 8.93568 21.8877 9.02643 21.555L10.6887 15.4599C10.7977 15.0603 11.21 14.8247 11.6096 14.9337Z"
          fill="#111827"/>
</svg>
