<svg width="24" height="24" viewBox="0 0 24 24" fill="none" xmlns="http://www.w3.org/2000/svg">
<path fill-rule="evenodd" clip-rule="evenodd" d="M2.46967 2.47199C2.76256 2.1791 3.23744 2.1791 3.53033 2.47199L4.54143 3.48309C4.99219 2.99726 5.6091 2.66226 6.32022 2.57973C8.18374 2.36346 10.079 2.25232 12 2.25232C13.921 2.25232 15.8163 2.36346 17.6798 2.57973C19.1772 2.75351 20.25 4.03954 20.25 5.50931V19.1917L21.5303 20.472C21.8232 20.7649 21.8232 21.2398 21.5303 21.5326C21.2374 21.8255 20.7626 21.8255 20.4697 21.5326L2.46967 3.53265C2.17678 3.23976 2.17678 2.76488 2.46967 2.47199ZM18.75 17.6917V5.50931C18.75 4.7631 18.2107 4.15141 17.5069 4.06973C15.7006 3.86011 13.8631 3.75232 12 3.75232C10.137 3.75232 8.29938 3.86011 6.49314 4.06973C6.13775 4.11097 5.82609 4.28553 5.60336 4.54502L18.75 17.6917ZM4.5 7.99469C4.91421 7.99469 5.25 8.33048 5.25 8.74469V19.7888L11.6646 16.5815C11.8757 16.4759 12.1243 16.4759 12.3354 16.5815L14.3507 17.5891C14.7212 17.7744 14.8713 18.2249 14.6861 18.5954C14.5008 18.9658 14.0503 19.116 13.6798 18.9308L12 18.0908L4.83541 21.6731C4.60292 21.7894 4.32681 21.777 4.1057 21.6403C3.88459 21.5037 3.75 21.2623 3.75 21.0023V8.74469C3.75 8.33048 4.08579 7.99469 4.5 7.99469Z" fill="#111827"/>
</svg>
