<svg width="24" height="24" viewBox="0 0 24 24" fill="none" xmlns="http://www.w3.org/2000/svg">
    <path fill-rule="evenodd" clip-rule="evenodd"
          d="M3 6.00232C3 4.34546 4.34315 3.00232 6 3.00232H18C19.6569 3.00232 21 4.34547 21 6.00232V18.0023C21 19.6592 19.6569 21.0023 18 21.0023H6C4.34315 21.0023 3 19.6592 3 18.0023V6.00232ZM6 4.50232C5.17157 4.50232 4.5 5.17389 4.5 6.00232V18.0023C4.5 18.8307 5.17157 19.5023 6 19.5023H18C18.8284 19.5023 19.5 18.8307 19.5 18.0023V6.00232C19.5 5.17389 18.8284 4.50232 18 4.50232H17.25V16.5023C17.25 16.7623 17.1154 17.0037 16.8943 17.1403C16.6732 17.277 16.3971 17.2894 16.1646 17.1731L12 15.0908L7.83541 17.1731C7.60292 17.2894 7.32681 17.277 7.1057 17.1403C6.88459 17.0037 6.75 16.7623 6.75 16.5023V4.50232H6ZM8.25 4.50232V15.2888L11.6646 13.5815C11.8757 13.4759 12.1243 13.4759 12.3354 13.5815L15.75 15.2888V4.50232H8.25Z"
          fill="#111827"/>
</svg>
