<svg width="24" height="24" viewBox="0 0 24 24" fill="none" xmlns="http://www.w3.org/2000/svg">
    <path fill-rule="evenodd" clip-rule="evenodd"
          d="M3.75 4.81267V17.5134C4.47281 17.3426 5.22624 17.2523 6 17.2523C7.93246 17.2523 9.73455 17.8151 11.25 18.7852V6.38803C9.82325 5.20958 7.99501 4.50232 6 4.50232C5.21909 4.50232 4.46454 4.61061 3.75 4.81267ZM12.75 6.38803V18.7852C14.2655 17.8151 16.0675 17.2523 18 17.2523C18.7738 17.2523 19.5272 17.3426 20.25 17.5134V4.81267C19.5355 4.61061 18.7809 4.50232 18 4.50232C16.005 4.50232 14.1768 5.20958 12.75 6.38803ZM12 5.06661C10.3458 3.77357 8.26223 3.00232 6 3.00232C4.86178 3.00232 3.76756 3.19767 2.75007 3.55731C2.45037 3.66323 2.25 3.94657 2.25 4.26444V18.5144C2.25 18.7579 2.36818 18.9862 2.56696 19.1268C2.76574 19.2674 3.02039 19.3027 3.24993 19.2216C4.10911 18.9179 5.03441 18.7523 6 18.7523C8.11345 18.7523 10.0397 19.546 11.4998 20.8529C11.7846 21.1077 12.2154 21.1077 12.5002 20.8529C13.9603 19.546 15.8865 18.7523 18 18.7523C18.9656 18.7523 19.8909 18.9179 20.7501 19.2216C20.9796 19.3027 21.2343 19.2674 21.433 19.1268C21.6318 18.9862 21.75 18.7579 21.75 18.5144V4.26444C21.75 3.94657 21.5496 3.66323 21.2499 3.55731C20.2324 3.19767 19.1382 3.00232 18 3.00232C15.7378 3.00232 13.6542 3.77357 12 5.06661Z"
          fill="#111827"/>
</svg>
