<svg width="24" height="24" viewBox="0 0 24 24" fill="none" xmlns="http://www.w3.org/2000/svg">
<path fill-rule="evenodd" clip-rule="evenodd" d="M7.5 5.25232C7.5 3.59546 8.84315 2.25232 10.5 2.25232H13.5C15.1569 2.25232 16.5 3.59547 16.5 5.25232V5.4573C17.4325 5.54266 18.3574 5.65428 19.274 5.79144C20.7281 6.009 21.75 7.27395 21.75 8.70801V12.4912C21.75 13.2277 21.4809 13.9338 21 14.4668V18.4023C21 19.8542 19.9528 21.1298 18.4769 21.3258C16.3575 21.6071 14.1955 21.7523 12 21.7523C9.80447 21.7523 7.64246 21.6071 5.52314 21.3258C4.04724 21.1298 3 19.8542 3 18.4023V14.4668C2.51911 13.9338 2.25 13.2277 2.25 12.4912V8.70801C2.25 7.27395 3.27191 6.009 4.72596 5.79144C5.64259 5.65428 6.56752 5.54266 7.5 5.4573V5.25232ZM9 5.34314C9.99236 5.28288 10.9927 5.25232 12 5.25232C13.0073 5.25232 14.0076 5.28288 15 5.34314V5.25232C15 4.42389 14.3284 3.75232 13.5 3.75232H10.5C9.67157 3.75232 9 4.42389 9 5.25232V5.34314ZM4.5 15.3454V18.4023C4.5 19.1393 5.02655 19.7467 5.72056 19.8388C7.77461 20.1115 9.87067 20.2523 12 20.2523C14.1293 20.2523 16.2254 20.1115 18.2794 19.8388C18.9734 19.7467 19.5 19.1393 19.5 18.4023V15.3454C17.1334 16.097 14.6134 16.5023 12 16.5023C9.38667 16.5023 6.8666 16.097 4.5 15.3454ZM12 6.75232C10.7573 6.75232 9.52602 6.80027 8.30778 6.89441C7.17611 6.98186 6.0557 7.10917 4.94793 7.27492C4.2639 7.37727 3.75 7.98019 3.75 8.70801V12.4912C3.75 12.9295 3.93773 13.3267 4.23655 13.5815C4.3585 13.6854 4.50029 13.7671 4.6595 13.82C6.96597 14.5868 9.43371 15.0023 12 15.0023C14.5663 15.0023 17.034 14.5868 19.3405 13.82C19.4997 13.7671 19.6415 13.6854 19.7635 13.5815C20.0623 13.3268 20.25 12.9295 20.25 12.4912V8.70801C20.25 7.98018 19.7361 7.37727 19.0521 7.27492C17.9443 7.10917 16.8239 6.98186 15.6922 6.89441C14.474 6.80027 13.2427 6.75232 12 6.75232ZM11.25 12.7523C11.25 12.3381 11.5858 12.0023 12 12.0023H12.0075C12.4217 12.0023 12.7575 12.3381 12.7575 12.7523V12.7598C12.7575 13.174 12.4217 13.5098 12.0075 13.5098H12C11.5858 13.5098 11.25 13.174 11.25 12.7598V12.7523Z" fill="#111827"/>
</svg>
