<svg width="24" height="24" viewBox="0 0 24 24" fill="none" xmlns="http://www.w3.org/2000/svg">
    <path fill-rule="evenodd" clip-rule="evenodd"
          d="M8.47761 1.60312C8.83616 1.81053 8.95868 2.26932 8.75127 2.62787C8.5527 2.97113 8.40711 3.34856 8.3255 3.74942C8.38406 3.80689 8.44395 3.86299 8.50513 3.91769C9.32957 2.90244 10.5885 2.25232 12.0002 2.25232C13.4129 2.25232 14.6728 2.90349 15.4972 3.92014C15.5579 3.86597 15.6173 3.8104 15.6754 3.75349C15.594 3.35111 15.4481 2.97229 15.2488 2.62787C15.0414 2.26932 15.1639 1.81053 15.5225 1.60312C15.881 1.39571 16.3398 1.51823 16.5472 1.87678C16.9024 2.49074 17.137 3.18367 17.2183 3.92226C17.2416 4.13417 17.1737 4.346 17.0314 4.50479C16.7896 4.77473 16.5263 5.02509 16.2442 5.25322C16.41 5.72269 16.5002 6.22751 16.5002 6.75232C16.5002 6.95588 16.4866 7.15666 16.4602 7.35373C16.3543 8.14546 15.7073 8.64812 15.0428 8.75658C14.8614 8.7862 14.6791 8.81321 14.4959 8.83758C14.6477 9.0647 14.7692 9.31369 14.8549 9.57884C16.1694 9.41793 17.4498 9.14733 18.6867 8.77655C18.6212 7.88324 18.5053 7.00416 18.3417 6.1421C18.2645 5.73514 18.5319 5.34266 18.9388 5.26546C19.3458 5.18827 19.7383 5.45559 19.8155 5.86254C20.0269 6.97737 20.1636 8.11841 20.2201 9.28018C20.2365 9.6176 20.0253 9.92435 19.7043 10.0294C18.1774 10.5291 16.5854 10.8843 14.9444 11.0789C14.8703 11.4597 14.7242 11.8147 14.5208 12.1292C16.5869 12.3383 18.5788 12.8016 20.464 13.4876C20.7756 13.601 20.9758 13.9056 20.9562 14.2367C20.8278 16.4064 20.4197 18.5017 19.7674 20.4865C19.638 20.88 19.2142 21.0942 18.8207 20.9648C18.4272 20.8355 18.213 20.4116 18.3424 20.0181C18.8983 18.3268 19.2654 16.5495 19.4187 14.7108C18.9182 14.5424 18.4101 14.3906 17.895 14.256C17.9627 14.4906 17.9993 14.7403 17.9993 15.0023C17.9993 18.9581 15.4775 22.5023 11.9993 22.5023C8.52107 22.5023 5.99927 18.9581 5.99927 15.0023C5.99927 14.7405 6.03583 14.4909 6.10347 14.2564C5.58887 14.3909 5.08126 14.5426 4.58127 14.7108C4.73456 16.5495 5.10171 18.3268 5.65763 20.0181C5.78696 20.4116 5.57282 20.8355 5.17931 20.9648C4.78581 21.0942 4.36196 20.88 4.23263 20.4865C3.58025 18.5017 3.1722 16.4064 3.04379 14.2367C3.0242 13.9056 3.22437 13.601 3.53601 13.4876C5.12193 12.9105 6.78313 12.491 8.5006 12.2479C8.5038 12.2474 8.507 12.2469 8.51019 12.2465C8.75634 12.2117 9.00363 12.1806 9.25201 12.1532C9.32749 12.1449 9.40307 12.1369 9.47876 12.1292C9.27538 11.8147 9.12926 11.4596 9.05514 11.0789C7.41419 10.8843 5.82213 10.5291 4.29529 10.0294C3.97423 9.92435 3.76304 9.6176 3.77945 9.28018C3.83597 8.11841 3.97264 6.97737 4.18412 5.86254C4.26131 5.45559 4.6538 5.18827 5.06075 5.26546C5.46771 5.34266 5.73503 5.73514 5.65784 6.1421C5.49431 7.00416 5.37835 7.88324 5.31284 8.77655C6.54976 9.14734 7.83017 9.41793 9.14472 9.57885C9.23045 9.31366 9.35208 9.06464 9.50388 8.83752C9.32092 8.81317 9.13877 8.78618 8.95748 8.75658C8.29302 8.64812 7.646 8.14546 7.54008 7.35373C7.51372 7.15666 7.50016 6.95588 7.50016 6.75232C7.50016 6.2264 7.59067 5.72055 7.75718 5.25023C7.47454 5.02134 7.21082 4.77011 6.96867 4.49923C6.82659 4.34028 6.75887 4.12838 6.78243 3.91649C6.86433 3.18005 7.09863 2.48914 7.45286 1.87678C7.66027 1.51823 8.11906 1.39571 8.47761 1.60312ZM12.0002 9.00232C11.195 9.00232 10.5375 9.63696 10.5014 10.4325C10.5003 10.4556 10.4998 10.4789 10.4998 10.5023C10.4998 11.3308 11.1713 12.0023 11.9997 12.0023C12.8282 12.0023 13.4998 11.3307 13.4998 10.5023C13.4998 10.4786 13.4993 10.4553 13.4982 10.4325C13.4621 9.63665 12.805 9.00232 12.0002 9.00232ZM8.71259 13.7328C7.98971 13.8381 7.49927 14.3897 7.49927 15.0023C7.49927 18.5024 9.67848 21.0023 11.9993 21.0023C14.3201 21.0023 16.4993 18.5024 16.4993 15.0023C16.4993 14.3876 16.0055 13.8342 15.2785 13.7316C15.0108 13.6938 14.7416 13.6606 14.471 13.632C13.6592 13.5463 12.8347 13.5023 11.9997 13.5023C11.1709 13.5023 10.3524 13.5457 9.54628 13.6302C9.26686 13.6595 8.98894 13.6937 8.71259 13.7328ZM12.0002 3.75232C10.8503 3.75232 9.85038 4.39895 9.34622 5.35192C9.12548 5.76917 9.00016 6.245 9.00016 6.75232C9.00016 6.88918 9.00927 7.02352 9.02684 7.15484C9.02891 7.1703 9.03568 7.18956 9.06109 7.2132C9.0893 7.23945 9.13686 7.26601 9.19913 7.27618C10.1103 7.42491 11.0459 7.50232 12.0002 7.50232C12.9544 7.50232 13.89 7.42491 14.8012 7.27618C14.8635 7.26601 14.911 7.23945 14.9392 7.2132C14.9646 7.18956 14.9714 7.1703 14.9735 7.15484C14.991 7.02352 15.0002 6.88918 15.0002 6.75232C15.0002 6.24576 14.8752 5.77058 14.6551 5.35378C14.1512 4.3998 13.1507 3.75232 12.0002 3.75232Z"
          fill="#111827"/>
</svg>
