<svg width="24" height="24" viewBox="0 0 24 24" fill="none" xmlns="http://www.w3.org/2000/svg">
    <path fill-rule="evenodd" clip-rule="evenodd"
          d="M2.25 3.00232C2.25 2.58811 2.58579 2.25232 3 2.25232H15C15.4142 2.25232 15.75 2.58811 15.75 3.00232C15.75 3.41653 15.4142 3.75232 15 3.75232V6.75232H21C21.4142 6.75232 21.75 7.08811 21.75 7.50232C21.75 7.91653 21.4142 8.25232 21 8.25232V20.2523H21.75C22.1642 20.2523 22.5 20.5881 22.5 21.0023C22.5 21.4165 22.1642 21.7523 21.75 21.7523H2.25C1.83579 21.7523 1.5 21.4165 1.5 21.0023C1.5 20.5881 1.83579 20.2523 2.25 20.2523H3V3.75232C2.58579 3.75232 2.25 3.41653 2.25 3.00232ZM4.5 3.75232V20.2523H6V17.6273C6 16.5918 6.83947 15.7523 7.875 15.7523H10.125C11.1605 15.7523 12 16.5918 12 17.6273V20.2523H13.5V3.75232H4.5ZM15 8.25232V20.2523H19.5V8.25232H15ZM10.5 20.2523V17.6273C10.5 17.4202 10.3321 17.2523 10.125 17.2523H7.875C7.66789 17.2523 7.5 17.4202 7.5 17.6273V20.2523H10.5ZM6 6.75232C6 6.33811 6.33579 6.00232 6.75 6.00232H7.5C7.91421 6.00232 8.25 6.33811 8.25 6.75232C8.25 7.16653 7.91421 7.50232 7.5 7.50232H6.75C6.33579 7.50232 6 7.16653 6 6.75232ZM9.75 6.75232C9.75 6.33811 10.0858 6.00232 10.5 6.00232H11.25C11.6642 6.00232 12 6.33811 12 6.75232C12 7.16653 11.6642 7.50232 11.25 7.50232H10.5C10.0858 7.50232 9.75 7.16653 9.75 6.75232ZM6 9.75232C6 9.33811 6.33579 9.00232 6.75 9.00232H7.5C7.91421 9.00232 8.25 9.33811 8.25 9.75232C8.25 10.1665 7.91421 10.5023 7.5 10.5023H6.75C6.33579 10.5023 6 10.1665 6 9.75232ZM9.75 9.75232C9.75 9.33811 10.0858 9.00232 10.5 9.00232H11.25C11.6642 9.00232 12 9.33811 12 9.75232C12 10.1665 11.6642 10.5023 11.25 10.5023H10.5C10.0858 10.5023 9.75 10.1665 9.75 9.75232ZM16.5 11.2523C16.5 10.8381 16.8358 10.5023 17.25 10.5023H17.2575C17.6717 10.5023 18.0075 10.8381 18.0075 11.2523V11.2598C18.0075 11.674 17.6717 12.0098 17.2575 12.0098H17.25C16.8358 12.0098 16.5 11.674 16.5 11.2598V11.2523ZM6 12.7523C6 12.3381 6.33579 12.0023 6.75 12.0023H7.5C7.91421 12.0023 8.25 12.3381 8.25 12.7523C8.25 13.1665 7.91421 13.5023 7.5 13.5023H6.75C6.33579 13.5023 6 13.1665 6 12.7523ZM9.75 12.7523C9.75 12.3381 10.0858 12.0023 10.5 12.0023H11.25C11.6642 12.0023 12 12.3381 12 12.7523C12 13.1665 11.6642 13.5023 11.25 13.5023H10.5C10.0858 13.5023 9.75 13.1665 9.75 12.7523ZM16.5 14.2523C16.5 13.8381 16.8358 13.5023 17.25 13.5023H17.2575C17.6717 13.5023 18.0075 13.8381 18.0075 14.2523V14.2598C18.0075 14.674 17.6717 15.0098 17.2575 15.0098H17.25C16.8358 15.0098 16.5 14.674 16.5 14.2598V14.2523ZM16.5 17.2523C16.5 16.8381 16.8358 16.5023 17.25 16.5023H17.2575C17.6717 16.5023 18.0075 16.8381 18.0075 17.2523V17.2598C18.0075 17.674 17.6717 18.0098 17.2575 18.0098H17.25C16.8358 18.0098 16.5 17.674 16.5 17.2598V17.2523Z"
          fill="#111827"/>
</svg>
