<svg width="24" height="24" viewBox="0 0 24 24" fill="none" xmlns="http://www.w3.org/2000/svg">
<path fill-rule="evenodd" clip-rule="evenodd" d="M3.75 3.00232C3.75 2.58811 4.08579 2.25232 4.5 2.25232H19.5C19.9142 2.25232 20.25 2.58811 20.25 3.00232C20.25 3.41653 19.9142 3.75232 19.5 3.75232V20.2523H20.25C20.6642 20.2523 21 20.5881 21 21.0023C21 21.4165 20.6642 21.7523 20.25 21.7523H3.75C3.33579 21.7523 3 21.4165 3 21.0023C3 20.5881 3.33579 20.2523 3.75 20.2523H4.5V3.75232C4.08579 3.75232 3.75 3.41653 3.75 3.00232ZM6 3.75232V20.2523H8.25V17.6273C8.25 16.5918 9.08947 15.7523 10.125 15.7523H13.875C14.9105 15.7523 15.75 16.5918 15.75 17.6273V20.2523H18V3.75232H6ZM14.25 20.2523V17.6273C14.25 17.4202 14.0821 17.2523 13.875 17.2523H10.125C9.91789 17.2523 9.75 17.4202 9.75 17.6273V20.2523H14.25ZM8.25 6.75232C8.25 6.33811 8.58579 6.00232 9 6.00232H10.5C10.9142 6.00232 11.25 6.33811 11.25 6.75232C11.25 7.16653 10.9142 7.50232 10.5 7.50232H9C8.58579 7.50232 8.25 7.16653 8.25 6.75232ZM12.75 6.75232C12.75 6.33811 13.0858 6.00232 13.5 6.00232H15C15.4142 6.00232 15.75 6.33811 15.75 6.75232C15.75 7.16653 15.4142 7.50232 15 7.50232H13.5C13.0858 7.50232 12.75 7.16653 12.75 6.75232ZM8.25 9.75232C8.25 9.33811 8.58579 9.00232 9 9.00232H10.5C10.9142 9.00232 11.25 9.33811 11.25 9.75232C11.25 10.1665 10.9142 10.5023 10.5 10.5023H9C8.58579 10.5023 8.25 10.1665 8.25 9.75232ZM12.75 9.75232C12.75 9.33811 13.0858 9.00232 13.5 9.00232H15C15.4142 9.00232 15.75 9.33811 15.75 9.75232C15.75 10.1665 15.4142 10.5023 15 10.5023H13.5C13.0858 10.5023 12.75 10.1665 12.75 9.75232ZM8.25 12.7523C8.25 12.3381 8.58579 12.0023 9 12.0023H10.5C10.9142 12.0023 11.25 12.3381 11.25 12.7523C11.25 13.1665 10.9142 13.5023 10.5 13.5023H9C8.58579 13.5023 8.25 13.1665 8.25 12.7523ZM12.75 12.7523C12.75 12.3381 13.0858 12.0023 13.5 12.0023H15C15.4142 12.0023 15.75 12.3381 15.75 12.7523C15.75 13.1665 15.4142 13.5023 15 13.5023H13.5C13.0858 13.5023 12.75 13.1665 12.75 12.7523Z" fill="#111827"/>
</svg>
