<svg width="24" height="24" viewBox="0 0 24 24" fill="none" xmlns="http://www.w3.org/2000/svg">
    <path fill-rule="evenodd" clip-rule="evenodd"
          d="M11.584 2.37828C11.8359 2.21033 12.1641 2.21033 12.416 2.37828L21.416 8.37828C21.7607 8.60805 21.8538 9.0737 21.624 9.41834C21.3943 9.76299 20.9286 9.85612 20.584 9.62636L12 3.90371L3.41603 9.62636C3.07138 9.85612 2.60573 9.76299 2.37597 9.41834C2.1462 9.0737 2.23933 8.60805 2.58398 8.37828L11.584 2.37828ZM11.25 6.75232C11.25 6.33811 11.5858 6.00232 12 6.00232H12.0075C12.4217 6.00232 12.7575 6.33811 12.7575 6.75232V6.75982C12.7575 7.17403 12.4217 7.50982 12.0075 7.50982H12C11.5858 7.50982 11.25 7.17403 11.25 6.75982V6.75232ZM5.25 10.9807V20.2523H7.5V12.7523C7.5 12.3381 7.83579 12.0023 8.25 12.0023C8.66422 12.0023 9 12.3381 9 12.7523V20.2523H11.25V12.7523C11.25 12.3381 11.5858 12.0023 12 12.0023C12.4142 12.0023 12.75 12.3381 12.75 12.7523V20.2523H15V12.7523C15 12.3381 15.3358 12.0023 15.75 12.0023C16.1642 12.0023 16.5 12.3381 16.5 12.7523V20.2523H18.75V10.9807C16.5458 10.6655 14.2922 10.5023 12 10.5023C9.70784 10.5023 7.45421 10.6655 5.25 10.9807ZM20.25 20.2523V10.3348C20.25 9.96549 19.9811 9.65114 19.6163 9.59389C17.1342 9.20443 14.5905 9.00232 12 9.00232C9.40955 9.00232 6.86578 9.20443 4.38374 9.59389C4.01888 9.65114 3.75 9.96549 3.75 10.3348V20.2523H3C2.58579 20.2523 2.25 20.5881 2.25 21.0023C2.25 21.4165 2.58579 21.7523 3 21.7523H21C21.4142 21.7523 21.75 21.4165 21.75 21.0023C21.75 20.5881 21.4142 20.2523 21 20.2523H20.25Z"
          fill="#111827"/>
</svg>
