<svg width="24" height="24" viewBox="0 0 24 24" fill="none" xmlns="http://www.w3.org/2000/svg">
    <path fill-rule="evenodd" clip-rule="evenodd"
          d="M5.37863 3.75244C5.17971 3.75244 4.98895 3.83146 4.8483 3.97211L3.65901 5.1614C2.78033 6.04008 2.78033 7.4647 3.65901 8.34338C3.80236 8.48673 3.95933 8.60605 4.12532 8.70199C4.98601 9.19947 6.10557 9.07879 6.84099 8.34338C6.87469 8.30968 6.90704 8.27525 6.93805 8.24015C7.08046 8.07898 7.2852 7.98671 7.50027 7.98676C7.71534 7.98682 7.92004 8.0792 8.06237 8.24044C8.47574 8.70875 9.07812 9.0023 9.75 9.0023C10.4219 9.0023 11.0243 8.70872 11.4377 8.24037C11.5801 8.07906 11.7849 7.98667 12 7.98667C12.2151 7.98667 12.4199 8.07906 12.5623 8.24037C12.9757 8.70872 13.5781 9.0023 14.25 9.0023C14.9218 9.0023 15.5242 8.70879 15.9376 8.24052C16.0799 8.0793 16.2846 7.98693 16.4996 7.98687C16.7147 7.98681 16.9194 8.07907 17.0618 8.24021C17.0928 8.27528 17.1251 8.30966 17.1587 8.34329C17.8942 9.07877 19.0139 9.1994 19.8746 8.70178C20.0405 8.60586 20.1974 8.48659 20.3407 8.34329C21.2194 7.46461 21.2194 6.03999 20.3407 5.16131L19.1515 3.97211C19.0109 3.83146 18.8201 3.75244 18.6212 3.75244H5.37863ZM16.4996 9.75279C15.8732 10.223 15.0939 10.5023 14.25 10.5023C13.4059 10.5023 12.6265 10.2228 12 9.75246C11.3736 10.2228 10.5941 10.5023 9.75 10.5023C8.90602 10.5023 8.12675 10.223 7.50036 9.75273C6.62479 10.4112 5.5271 10.6356 4.5 10.4268V20.2523H12.75V13.5023C12.75 12.6739 13.4216 12.0023 14.25 12.0023H17.25C18.0784 12.0023 18.75 12.6739 18.75 13.5023V20.2523H19.5V10.4267C18.4729 10.6355 17.3752 10.4112 16.4996 9.75279ZM21 9.75257C21.1401 9.64727 21.2743 9.53103 21.4014 9.40395C22.8658 7.93949 22.8658 5.56512 21.4014 4.10065L20.2122 2.91145C19.7902 2.4895 19.2179 2.25244 18.6212 2.25244H5.37863C4.78189 2.25244 4.20959 2.48949 3.78764 2.91145L2.59835 4.10074C1.13388 5.5652 1.13388 7.93957 2.59835 9.40404C2.72551 9.5312 2.8598 9.64751 3 9.75286V20.2523H2.36088C1.94667 20.2523 1.61088 20.5881 1.61088 21.0023C1.61088 21.4165 1.94667 21.7523 2.36088 21.7523H21.6391C22.0533 21.7523 22.3891 21.4165 22.3891 21.0023C22.3891 20.5881 22.0533 20.2523 21.6391 20.2523H21V9.75257ZM17.25 20.2523V13.5023H14.25V20.2523H17.25ZM5.25 13.5023C5.25 12.6739 5.92157 12.0023 6.75 12.0023H10.5C11.3284 12.0023 12 12.6739 12 13.5023V17.2523C12 18.0807 11.3284 18.7523 10.5 18.7523H6.75C5.92157 18.7523 5.25 18.0807 5.25 17.2523V13.5023ZM10.5 13.5023H6.75V17.2523L10.5 17.2523V13.5023Z"
          fill="#111827"/>
</svg>
