<svg width="24" height="24" viewBox="0 0 24 24" fill="none" xmlns="http://www.w3.org/2000/svg">
    <path fill-rule="evenodd" clip-rule="evenodd"
          d="M9.00004 2.09698C9.19896 2.09698 9.38973 2.176 9.53038 2.31665L9.00005 2.84698L8.46971 2.31666C8.61036 2.17601 8.80113 2.09699 9.00004 2.09698ZM12 2.09698C12.199 2.09698 12.3897 2.176 12.5304 2.31665L12 2.84698L11.4697 2.31666C11.6104 2.17601 11.8011 2.09699 12 2.09698ZM15 2.09698C15.199 2.09698 15.3897 2.176 15.5304 2.31666L15.0001 2.84698L14.4697 2.31666C14.6104 2.17601 14.8011 2.09699 15 2.09698ZM9.79555 2.58182C10.2349 3.02116 10.2349 3.73347 9.79555 4.17281C9.35621 4.61215 8.6439 4.61215 8.20456 4.17281C7.76522 3.73347 7.76522 3.02116 8.20456 2.58182L8.46971 2.31666L9.00005 2.84698L9.53038 2.31665L9.79555 2.58182ZM12.7955 2.58182C13.2349 3.02116 13.2349 3.73347 12.7955 4.17281C12.3562 4.61215 11.6439 4.61215 11.2046 4.17281C10.7652 3.73347 10.7652 3.02116 11.2046 2.58182L11.4697 2.31666L12 2.84698L12.5304 2.31665L12.7955 2.58182ZM15.7955 2.58182C16.2349 3.02116 16.2349 3.73347 15.7955 4.17281C15.3562 4.61215 14.6439 4.61215 14.2046 4.17281C13.7652 3.73347 13.7652 3.02116 14.2046 2.58182L14.4697 2.31666L15.0001 2.84698L15.5304 2.31666L15.7955 2.58182ZM9 6.00232C9.41421 6.00232 9.75 6.3381 9.75 6.75232V7.55333C10.2481 7.5307 10.7481 7.51554 11.25 7.50797V6.75232C11.25 6.3381 11.5858 6.00232 12 6.00232C12.4142 6.00232 12.75 6.3381 12.75 6.75232V7.50797C13.2519 7.51554 13.7519 7.5307 14.25 7.55333V6.75232C14.25 6.3381 14.5858 6.00232 15 6.00232C15.4142 6.00232 15.75 6.3381 15.75 6.75232V7.64444C15.8621 7.65297 15.9741 7.66188 16.0859 7.67116C17.6252 7.79892 18.75 9.10514 18.75 10.6105V12.4659C18.925 12.4902 19.0996 12.5153 19.274 12.5414C20.7281 12.759 21.75 14.0239 21.75 15.458V16.4861C21.7502 16.4965 21.7502 16.507 21.75 16.5174V20.6273C21.75 21.6629 20.9105 22.5023 19.875 22.5023H4.125C3.08946 22.5023 2.25 21.6629 2.25 20.6273V16.5174C2.24978 16.507 2.24978 16.4965 2.25 16.4861V15.458C2.25 14.0239 3.27194 12.759 4.72598 12.5414C4.90035 12.5153 5.07503 12.4902 5.25 12.4659V10.6105C5.25 9.10514 6.37475 7.79892 7.91405 7.67116C8.02592 7.66188 8.13791 7.65297 8.25 7.64444V6.75232C8.25 6.3381 8.58578 6.00232 9 6.00232ZM6.75 12.2818C8.47491 12.097 10.2265 12.0023 12 12.0023C13.7735 12.0023 15.5251 12.097 17.25 12.2818V10.6105C17.25 9.84597 16.6848 9.22602 15.9619 9.16602C14.6558 9.05762 13.3344 9.00232 12 9.00232C10.6656 9.00232 9.34423 9.05762 8.03812 9.16602C7.31523 9.22602 6.75 9.84597 6.75 10.6105V12.2818ZM3.75 17.7158V20.6273C3.75 20.8344 3.91789 21.0023 4.125 21.0023H19.875C20.0821 21.0023 20.25 20.8344 20.25 20.6273V17.7158L19.8354 17.9231C18.68 18.5008 17.32 18.5008 16.1646 17.9231C15.4315 17.5566 14.5685 17.5566 13.8354 17.9231C12.68 18.5008 11.32 18.5008 10.1646 17.9231C9.43146 17.5566 8.56853 17.5566 7.83541 17.9231C6.67999 18.5008 5.32 18.5008 4.16459 17.9231L3.75 17.7158ZM20.25 16.0388L19.1646 16.5815C18.4315 16.9481 17.5685 16.9481 16.8354 16.5815C15.68 16.0038 14.32 16.0038 13.1646 16.5815C12.4315 16.9481 11.5685 16.9481 10.8354 16.5815C9.67999 16.0038 8.32 16.0038 7.16459 16.5815C6.43146 16.9481 5.56853 16.9481 4.83541 16.5815L3.75 16.0388V15.458C3.75 14.7302 4.26391 14.1273 4.94795 14.0249C5.3281 13.968 5.70973 13.9157 6.0928 13.8679C8.02765 13.6266 9.99913 13.5023 12 13.5023C14.0009 13.5023 15.9723 13.6266 17.9072 13.8679C18.2903 13.9157 18.6719 13.968 19.052 14.0249C19.7361 14.1273 20.25 14.7302 20.25 15.458V16.0388Z"
          fill="#111827"/>
</svg>
