<svg width="24" height="24" viewBox="0 0 24 24" fill="none" xmlns="http://www.w3.org/2000/svg">
<path fill-rule="evenodd" clip-rule="evenodd" d="M12 3.00232C10.137 3.00232 8.29938 3.11011 6.49314 3.31973C5.78933 3.40141 5.25 4.0131 5.25 4.75931V19.5023C5.25 20.3307 5.92157 21.0023 6.75 21.0023H17.25C18.0784 21.0023 18.75 20.3307 18.75 19.5023V4.75931C18.75 4.0131 18.2107 3.40141 17.5069 3.31973C15.7006 3.11011 13.863 3.00232 12 3.00232ZM6.32022 1.82973C8.18374 1.61346 10.079 1.50232 12 1.50232C13.921 1.50232 15.8163 1.61346 17.6798 1.82973C19.1772 2.00351 20.25 3.28954 20.25 4.75931V19.5023C20.25 21.1592 18.9069 22.5023 17.25 22.5023H6.75C5.09315 22.5023 3.75 21.1592 3.75 19.5023V4.75931C3.75 3.28954 4.82283 2.00351 6.32022 1.82973ZM7.5 6.00232C7.5 5.58811 7.83579 5.25232 8.25 5.25232H15.75C16.1642 5.25232 16.5 5.58811 16.5 6.00232V8.25232C16.5 8.66653 16.1642 9.00232 15.75 9.00232H8.25C7.83579 9.00232 7.5 8.66653 7.5 8.25232V6.00232ZM9 6.75232V7.50232H15V6.75232H9ZM7.5 11.2523C7.5 10.8381 7.83579 10.5023 8.25 10.5023H8.2575C8.67171 10.5023 9.0075 10.8381 9.0075 11.2523V11.2598C9.0075 11.674 8.67171 12.0098 8.2575 12.0098H8.25C7.83579 12.0098 7.5 11.674 7.5 11.2598V11.2523ZM9.99756 11.2523C9.99756 10.8381 10.3333 10.5023 10.7476 10.5023H10.7551C11.1693 10.5023 11.5051 10.8381 11.5051 11.2523V11.2598C11.5051 11.674 11.1693 12.0098 10.7551 12.0098H10.7476C10.3333 12.0098 9.99756 11.674 9.99756 11.2598V11.2523ZM12.5024 11.2523C12.5024 10.8381 12.8382 10.5023 13.2524 10.5023H13.2599C13.6742 10.5023 14.0099 10.8381 14.0099 11.2523V11.2598C14.0099 11.674 13.6742 12.0098 13.2599 12.0098H13.2524C12.8382 12.0098 12.5024 11.674 12.5024 11.2598V11.2523ZM15 11.2523C15 10.8381 15.3358 10.5023 15.75 10.5023H15.7575C16.1717 10.5023 16.5075 10.8381 16.5075 11.2523V11.2598C16.5075 11.674 16.1717 12.0098 15.7575 12.0098H15.75C15.3358 12.0098 15 11.674 15 11.2598V11.2523ZM7.5 13.5023C7.5 13.0881 7.83579 12.7523 8.25 12.7523H8.2575C8.67171 12.7523 9.0075 13.0881 9.0075 13.5023V13.5098C9.0075 13.924 8.67171 14.2598 8.2575 14.2598H8.25C7.83579 14.2598 7.5 13.924 7.5 13.5098V13.5023ZM9.99756 13.5023C9.99756 13.0881 10.3333 12.7523 10.7476 12.7523H10.7551C11.1693 12.7523 11.5051 13.0881 11.5051 13.5023V13.5098C11.5051 13.924 11.1693 14.2598 10.7551 14.2598H10.7476C10.3333 14.2598 9.99756 13.924 9.99756 13.5098V13.5023ZM12.5024 13.5023C12.5024 13.0881 12.8382 12.7523 13.2524 12.7523H13.2599C13.6742 12.7523 14.0099 13.0881 14.0099 13.5023V13.5098C14.0099 13.924 13.6742 14.2598 13.2599 14.2598H13.2524C12.8382 14.2598 12.5024 13.924 12.5024 13.5098V13.5023ZM15 13.5023C15 13.0881 15.3358 12.7523 15.75 12.7523H15.7575C16.1717 12.7523 16.5075 13.0881 16.5075 13.5023V13.5098C16.5075 13.924 16.1717 14.2598 15.7575 14.2598H15.75C15.3358 14.2598 15 13.924 15 13.5098V13.5023ZM7.5 15.7523C7.5 15.3381 7.83579 15.0023 8.25 15.0023H8.2575C8.67171 15.0023 9.0075 15.3381 9.0075 15.7523V15.7598C9.0075 16.174 8.67171 16.5098 8.2575 16.5098H8.25C7.83579 16.5098 7.5 16.174 7.5 15.7598V15.7523ZM9.99756 15.7523C9.99756 15.3381 10.3333 15.0023 10.7476 15.0023H10.7551C11.1693 15.0023 11.5051 15.3381 11.5051 15.7523V15.7598C11.5051 16.174 11.1693 16.5098 10.7551 16.5098H10.7476C10.3333 16.5098 9.99756 16.174 9.99756 15.7598V15.7523ZM12.5024 15.7523C12.5024 15.3381 12.8382 15.0023 13.2524 15.0023H13.2599C13.6742 15.0023 14.0099 15.3381 14.0099 15.7523V15.7598C14.0099 16.174 13.6742 16.5098 13.2599 16.5098H13.2524C12.8382 16.5098 12.5024 16.174 12.5024 15.7598V15.7523ZM15.75 15.0023C16.1642 15.0023 16.5 15.3381 16.5 15.7523V18.0023C16.5 18.4165 16.1642 18.7523 15.75 18.7523C15.3358 18.7523 15 18.4165 15 18.0023V15.7523C15 15.3381 15.3358 15.0023 15.75 15.0023ZM7.5 18.0023C7.5 17.5881 7.83579 17.2523 8.25 17.2523H8.2575C8.67171 17.2523 9.0075 17.5881 9.0075 18.0023V18.0098C9.0075 18.424 8.67171 18.7598 8.2575 18.7598H8.25C7.83579 18.7598 7.5 18.424 7.5 18.0098V18.0023ZM9.99756 18.0023C9.99756 17.5881 10.3333 17.2523 10.7476 17.2523H10.7551C11.1693 17.2523 11.5051 17.5881 11.5051 18.0023V18.0098C11.5051 18.424 11.1693 18.7598 10.7551 18.7598H10.7476C10.3333 18.7598 9.99756 18.424 9.99756 18.0098V18.0023ZM12.5024 18.0023C12.5024 17.5881 12.8382 17.2523 13.2524 17.2523H13.2599C13.6742 17.2523 14.0099 17.5881 14.0099 18.0023V18.0098C14.0099 18.424 13.6742 18.7598 13.2599 18.7598H13.2524C12.8382 18.7598 12.5024 18.424 12.5024 18.0098V18.0023Z" fill="#111827"/>
</svg>
