<svg width="24" height="24" viewBox="0 0 24 24" fill="none" xmlns="http://www.w3.org/2000/svg">
    <path fill-rule="evenodd" clip-rule="evenodd"
          d="M6.75 2.25464C7.16421 2.25464 7.5 2.59043 7.5 3.00464V4.50464H16.5V3.00464C16.5 2.59043 16.8358 2.25464 17.25 2.25464C17.6642 2.25464 18 2.59043 18 3.00464V4.50464H18.75C20.4069 4.50464 21.75 5.84778 21.75 7.50464V18.7546C21.75 20.4115 20.4069 21.7546 18.75 21.7546H5.25C3.59315 21.7546 2.25 20.4115 2.25 18.7546V7.50464C2.25 5.84778 3.59315 4.50464 5.25 4.50464H6V3.00464C6 2.59043 6.33579 2.25464 6.75 2.25464ZM5.25 6.00464C4.42157 6.00464 3.75 6.67621 3.75 7.50464V8.65599C4.19126 8.40073 4.70357 8.25464 5.25 8.25464H18.75C19.2964 8.25464 19.8087 8.40073 20.25 8.65599V7.50464C20.25 6.67621 19.5784 6.00464 18.75 6.00464H5.25ZM20.25 11.2546C20.25 10.4262 19.5784 9.75464 18.75 9.75464H5.25C4.42157 9.75464 3.75 10.4262 3.75 11.2546V18.7546C3.75 19.5831 4.42157 20.2546 5.25 20.2546H18.75C19.5784 20.2546 20.25 19.5831 20.25 18.7546V11.2546ZM11.25 12.7546C11.25 12.3404 11.5858 12.0046 12 12.0046H12.0075C12.4217 12.0046 12.7575 12.3404 12.7575 12.7546V12.7621C12.7575 13.1764 12.4217 13.5121 12.0075 13.5121H12C11.5858 13.5121 11.25 13.1764 11.25 12.7621V12.7546ZM13.5 12.7546C13.5 12.3404 13.8358 12.0046 14.25 12.0046H14.2575C14.6717 12.0046 15.0075 12.3404 15.0075 12.7546V12.7621C15.0075 13.1764 14.6717 13.5121 14.2575 13.5121H14.25C13.8358 13.5121 13.5 13.1764 13.5 12.7621V12.7546ZM15.75 12.7546C15.75 12.3404 16.0858 12.0046 16.5 12.0046H16.5075C16.9217 12.0046 17.2575 12.3404 17.2575 12.7546V12.7621C17.2575 13.1764 16.9217 13.5121 16.5075 13.5121H16.5C16.0858 13.5121 15.75 13.1764 15.75 12.7621V12.7546ZM6.75 15.0046C6.75 14.5904 7.08579 14.2546 7.5 14.2546H7.5075C7.92171 14.2546 8.2575 14.5904 8.2575 15.0046V15.0121C8.2575 15.4264 7.92171 15.7621 7.5075 15.7621H7.5C7.08579 15.7621 6.75 15.4264 6.75 15.0121V15.0046ZM9 15.0046C9 14.5904 9.33579 14.2546 9.75 14.2546H9.7575C10.1717 14.2546 10.5075 14.5904 10.5075 15.0046V15.0121C10.5075 15.4264 10.1717 15.7621 9.7575 15.7621H9.75C9.33579 15.7621 9 15.4264 9 15.0121V15.0046ZM11.25 15.0046C11.25 14.5904 11.5858 14.2546 12 14.2546H12.0075C12.4217 14.2546 12.7575 14.5904 12.7575 15.0046V15.0121C12.7575 15.4264 12.4217 15.7621 12.0075 15.7621H12C11.5858 15.7621 11.25 15.4264 11.25 15.0121V15.0046ZM13.5 15.0046C13.5 14.5904 13.8358 14.2546 14.25 14.2546H14.2575C14.6717 14.2546 15.0075 14.5904 15.0075 15.0046V15.0121C15.0075 15.4264 14.6717 15.7621 14.2575 15.7621H14.25C13.8358 15.7621 13.5 15.4264 13.5 15.0121V15.0046ZM15.75 15.0046C15.75 14.5904 16.0858 14.2546 16.5 14.2546H16.5075C16.9217 14.2546 17.2575 14.5904 17.2575 15.0046V15.0121C17.2575 15.4264 16.9217 15.7621 16.5075 15.7621H16.5C16.0858 15.7621 15.75 15.4264 15.75 15.0121V15.0046ZM6.75 17.2546C6.75 16.8404 7.08579 16.5046 7.5 16.5046H7.5075C7.92171 16.5046 8.2575 16.8404 8.2575 17.2546V17.2621C8.2575 17.6764 7.92171 18.0121 7.5075 18.0121H7.5C7.08579 18.0121 6.75 17.6764 6.75 17.2621V17.2546ZM9 17.2546C9 16.8404 9.33579 16.5046 9.75 16.5046H9.7575C10.1717 16.5046 10.5075 16.8404 10.5075 17.2546V17.2621C10.5075 17.6764 10.1717 18.0121 9.7575 18.0121H9.75C9.33579 18.0121 9 17.6764 9 17.2621V17.2546ZM11.25 17.2546C11.25 16.8404 11.5858 16.5046 12 16.5046H12.0075C12.4217 16.5046 12.7575 16.8404 12.7575 17.2546V17.2621C12.7575 17.6764 12.4217 18.0121 12.0075 18.0121H12C11.5858 18.0121 11.25 17.6764 11.25 17.2621V17.2546ZM13.5 17.2546C13.5 16.8404 13.8358 16.5046 14.25 16.5046H14.2575C14.6717 16.5046 15.0075 16.8404 15.0075 17.2546V17.2621C15.0075 17.6764 14.6717 18.0121 14.2575 18.0121H14.25C13.8358 18.0121 13.5 17.6764 13.5 17.2621V17.2546Z"
          fill="#111827"/>
</svg>
