<svg width="24" height="24" viewBox="0 0 24 24" fill="none" xmlns="http://www.w3.org/2000/svg">
<path fill-rule="evenodd" clip-rule="evenodd" d="M17.2496 2.24548C17.6638 2.24548 17.9996 2.58127 17.9996 2.99548V4.49429H18.7476C20.4045 4.49429 21.7477 5.8375 21.7477 7.49441V18.7457C21.7477 20.4026 20.4045 21.7458 18.7476 21.7458H5.24781C3.5909 21.7458 2.24771 20.4026 2.24771 18.7457V7.49441C2.24771 5.8375 3.59089 4.49429 5.24781 4.49429H5.99925V2.99682C5.99925 2.58261 6.33504 2.24682 6.74925 2.24682C7.16347 2.24682 7.49925 2.58261 7.49925 2.99682V4.49429H16.4996V2.99548C16.4996 2.58127 16.8354 2.24548 17.2496 2.24548ZM17.2032 5.99429H6.81392C6.79261 5.99611 6.77104 5.99704 6.74925 5.99704C6.72747 5.99704 6.7059 5.99611 6.68459 5.99429H5.24781C4.41933 5.99429 3.74771 6.66591 3.74771 7.49441V8.64653C4.189 8.39124 4.70134 8.24514 5.24781 8.24514H18.7476C19.2941 8.24514 19.8064 8.39124 20.2477 8.64653V7.49441C20.2477 6.66591 19.5761 5.99429 18.7476 5.99429H17.2959C17.2806 5.99523 17.2651 5.9957 17.2496 5.9957C17.234 5.9957 17.2185 5.99523 17.2032 5.99429ZM20.2477 11.2453C20.2477 10.4168 19.5761 9.74514 18.7476 9.74514H5.24781C4.41933 9.74514 3.74771 10.4168 3.74771 11.2453V18.7457C3.74771 19.5742 4.41934 20.2458 5.24781 20.2458H18.7476C19.5761 20.2458 20.2477 19.5742 20.2477 18.7457V11.2453ZM11.2498 12.7453C11.2498 12.331 11.5856 11.9953 11.9998 11.9953H12.0054C12.4196 11.9953 12.7554 12.331 12.7554 12.7453V12.7509C12.7554 13.1651 12.4196 13.5009 12.0054 13.5009H11.9998C11.5856 13.5009 11.2498 13.1651 11.2498 12.7509V12.7453ZM13.4977 12.7453C13.4977 12.331 13.8335 11.9953 14.2477 11.9953H16.4977C16.9119 11.9953 17.2477 12.331 17.2477 12.7453C17.2477 13.1595 16.9119 13.4953 16.4977 13.4953H14.2477C13.8335 13.4953 13.4977 13.1595 13.4977 12.7453ZM6.74767 14.9955C6.74767 14.5813 7.08346 14.2455 7.49767 14.2455H11.9977C12.4119 14.2455 12.7477 14.5813 12.7477 14.9955C12.7477 15.4097 12.4119 15.7455 11.9977 15.7455H7.49767C7.08346 15.7455 6.74767 15.4097 6.74767 14.9955ZM15.7498 14.9978C15.7498 14.5836 16.0856 14.2478 16.4998 14.2478H16.5054C16.9196 14.2478 17.2554 14.5836 17.2554 14.9978V15.0034C17.2554 15.4176 16.9196 15.7534 16.5054 15.7534H16.4998C16.0856 15.7534 15.7498 15.4176 15.7498 15.0034V14.9978ZM13.4987 14.9992C13.4987 14.585 13.8345 14.2492 14.2487 14.2492H14.2543C14.6685 14.2492 15.0043 14.585 15.0043 14.9992V15.0049C15.0043 15.4191 14.6685 15.7549 14.2543 15.7549H14.2487C13.8345 15.7549 13.4987 15.4191 13.4987 15.0049V14.9992ZM6.74839 17.246C6.74839 16.8318 7.08418 16.496 7.49839 16.496H7.50402C7.91823 16.496 8.25402 16.8318 8.25402 17.246V17.2516C8.25402 17.6658 7.91823 18.0016 7.50402 18.0016H7.49839C7.08418 18.0016 6.74839 17.6658 6.74839 17.2516V17.246ZM11.2491 17.246C11.2491 16.8318 11.5849 16.496 11.9991 16.496H12.0047C12.4189 16.496 12.7547 16.8318 12.7547 17.246V17.2516C12.7547 17.6658 12.4189 18.0016 12.0047 18.0016H11.9991C11.5849 18.0016 11.2491 17.6658 11.2491 17.2516V17.246ZM8.99874 17.2467C8.99874 16.8325 9.33452 16.4967 9.74874 16.4967H9.75436C10.1686 16.4967 10.5044 16.8325 10.5044 17.2467V17.2523C10.5044 17.6665 10.1686 18.0023 9.75436 18.0023H9.74874C9.33452 18.0023 8.99874 17.6665 8.99874 17.2523V17.2467ZM13.4995 17.2467C13.4995 16.8325 13.8353 16.4967 14.2495 16.4967H14.2551C14.6693 16.4967 15.0051 16.8325 15.0051 17.2467V17.2524C15.0051 17.6666 14.6693 18.0024 14.2551 18.0024H14.2495C13.8353 18.0024 13.4995 17.6666 13.4995 17.2524V17.2467Z" fill="#111827"/>
</svg>
