<svg width="24" height="24" viewBox="0 0 24 24" fill="none" xmlns="http://www.w3.org/2000/svg">
    <path fill-rule="evenodd" clip-rule="evenodd"
          d="M6.75 2.25232C7.16421 2.25232 7.5 2.58811 7.5 3.00232V4.50232H16.5V3.00232C16.5 2.58811 16.8358 2.25232 17.25 2.25232C17.6642 2.25232 18 2.58811 18 3.00232V4.50232H18.75C20.4069 4.50232 21.75 5.84547 21.75 7.50232V18.7523C21.75 20.4092 20.4069 21.7523 18.75 21.7523H5.25C3.59315 21.7523 2.25 20.4092 2.25 18.7523V7.50232C2.25 5.84547 3.59315 4.50232 5.25 4.50232H6V3.00232C6 2.58811 6.33579 2.25232 6.75 2.25232ZM5.25 6.00232C4.42157 6.00232 3.75 6.67389 3.75 7.50232V8.65367C4.19126 8.39841 4.70357 8.25232 5.25 8.25232H18.75C19.2964 8.25232 19.8087 8.39841 20.25 8.65367V7.50232C20.25 6.67389 19.5784 6.00232 18.75 6.00232H5.25ZM20.25 11.2523C20.25 10.4239 19.5784 9.75232 18.75 9.75232H5.25C4.42157 9.75232 3.75 10.4239 3.75 11.2523V18.7523C3.75 19.5807 4.42157 20.2523 5.25 20.2523H18.75C19.5784 20.2523 20.25 19.5807 20.25 18.7523V11.2523Z"
          fill="#111827"/>
</svg>
