<svg width="24" height="24" viewBox="0 0 24 24" fill="none" xmlns="http://www.w3.org/2000/svg">
<path fill-rule="evenodd" clip-rule="evenodd" d="M9.09429 3.32113C9.97361 3.27391 10.859 3.25 11.75 3.25C12.641 3.25 13.5264 3.27391 14.4057 3.32113C15.3733 3.37309 16.2354 3.90612 16.7382 4.71184L17.5594 6.02786C17.7985 6.41099 18.2044 6.67131 18.6695 6.73741C19.0549 6.79218 19.4388 6.85145 19.8213 6.91518C21.2531 7.15378 22.25 8.40785 22.25 9.82403V18.25C22.25 19.9069 20.9069 21.25 19.25 21.25H4.25C2.59315 21.25 1.25 19.9069 1.25 18.25V9.82402C1.25 8.40784 2.24686 7.15377 3.67872 6.91517C4.06116 6.85144 4.4451 6.79217 4.83048 6.7374C5.29556 6.67131 5.70152 6.41099 5.94061 6.02785L6.76181 4.71184C7.2646 3.90612 8.12667 3.37309 9.09429 3.32113ZM11.75 4.75C10.8859 4.75 10.0273 4.77319 9.17472 4.81897C8.71453 4.84368 8.28855 5.09861 8.03437 5.50594L7.21317 6.82195C6.73009 7.59608 5.92699 8.09665 5.04153 8.22248C4.66801 8.27556 4.29591 8.33301 3.92527 8.39477C3.25138 8.50706 2.75 9.10541 2.75 9.82402V18.25C2.75 19.0784 3.42157 19.75 4.25 19.75H19.25C20.0784 19.75 20.75 19.0784 20.75 18.25V9.82403C20.75 9.10542 20.2486 8.50707 19.5747 8.39478C19.2041 8.33302 18.832 8.27557 18.4585 8.22249C17.573 8.09665 16.7699 7.59609 16.2868 6.82195L15.4656 5.50594C15.2114 5.09861 14.7855 4.84368 14.3253 4.81897C13.4727 4.77319 12.6141 4.75 11.75 4.75ZM11.75 9.25C9.67893 9.25 8 10.9289 8 13C8 15.0711 9.67893 16.75 11.75 16.75C13.8211 16.75 15.5 15.0711 15.5 13C15.5 10.9289 13.8211 9.25 11.75 9.25ZM6.5 13C6.5 10.1005 8.8505 7.75 11.75 7.75C14.6495 7.75 17 10.1005 17 13C17 15.8995 14.6495 18.25 11.75 18.25C8.8505 18.25 6.5 15.8995 6.5 13ZM17.75 10.75C17.75 10.3358 18.0858 10 18.5 10H18.5075C18.9217 10 19.2575 10.3358 19.2575 10.75V10.7575C19.2575 11.1717 18.9217 11.5075 18.5075 11.5075H18.5C18.0858 11.5075 17.75 11.1717 17.75 10.7575V10.75Z" fill="#111827"/>
</svg>
