<svg width="24" height="24" viewBox="0 0 24 24" fill="none" xmlns="http://www.w3.org/2000/svg">
<path fill-rule="evenodd" clip-rule="evenodd" d="M12.75 3.00464C12.75 2.59043 13.0858 2.25464 13.5 2.25464C18.0563 2.25464 21.75 5.94829 21.75 10.5046C21.75 10.9189 21.4142 11.2546 21 11.2546H13.5C13.0858 11.2546 12.75 10.9189 12.75 10.5046V3.00464ZM14.25 3.79584V9.75464H20.2088C19.8629 6.62593 17.3787 4.1417 14.25 3.79584ZM9.75 6.79584C6.37504 7.16892 3.75 10.0302 3.75 13.5046C3.75 17.2326 6.77208 20.2546 10.5 20.2546C13.9744 20.2546 16.8357 17.6296 17.2088 14.2546H10.5C10.0858 14.2546 9.75 13.9189 9.75 13.5046V6.79584ZM2.25 13.5046C2.25 8.94829 5.94365 5.25464 10.5 5.25464C10.9142 5.25464 11.25 5.59043 11.25 6.00464V12.7546H18C18.4142 12.7546 18.75 13.0904 18.75 13.5046C18.75 18.061 15.0563 21.7546 10.5 21.7546C5.94365 21.7546 2.25 18.061 2.25 13.5046Z" fill="#111827"/>
</svg>
