<svg width="24" height="24" viewBox="0 0 24 24" fill="none" xmlns="http://www.w3.org/2000/svg">
    <path fill-rule="evenodd" clip-rule="evenodd"
          d="M15.75 4.12964C15.75 3.0941 16.5895 2.25464 17.625 2.25464H19.875C20.9105 2.25464 21.75 3.0941 21.75 4.12964V19.8796C21.75 20.9152 20.9105 21.7546 19.875 21.7546H17.625C16.5895 21.7546 15.75 20.9152 15.75 19.8796V4.12964ZM17.625 3.75464C17.4179 3.75464 17.25 3.92253 17.25 4.12964V19.8796C17.25 20.0867 17.4179 20.2546 17.625 20.2546H19.875C20.0821 20.2546 20.25 20.0867 20.25 19.8796V4.12964C20.25 3.92253 20.0821 3.75464 19.875 3.75464H17.625ZM9 8.62964C9 7.5941 9.83947 6.75464 10.875 6.75464H13.125C14.1605 6.75464 15 7.5941 15 8.62964V19.8796C15 20.9152 14.1605 21.7546 13.125 21.7546H10.875C9.83947 21.7546 9 20.9152 9 19.8796V8.62964ZM10.875 8.25464C10.6679 8.25464 10.5 8.42253 10.5 8.62964V19.8796C10.5 20.0867 10.6679 20.2546 10.875 20.2546H13.125C13.3321 20.2546 13.5 20.0867 13.5 19.8796V8.62964C13.5 8.42253 13.3321 8.25464 13.125 8.25464H10.875ZM2.25 13.1296C2.25 12.0941 3.08947 11.2546 4.125 11.2546H6.375C7.41053 11.2546 8.25 12.0941 8.25 13.1296V19.8796C8.25 20.9152 7.41053 21.7546 6.375 21.7546H4.125C3.08947 21.7546 2.25 20.9152 2.25 19.8796V13.1296ZM4.125 12.7546C3.91789 12.7546 3.75 12.9225 3.75 13.1296V19.8796C3.75 20.0867 3.91789 20.2546 4.125 20.2546H6.375C6.58211 20.2546 6.75 20.0867 6.75 19.8796V13.1296C6.75 12.9225 6.58211 12.7546 6.375 12.7546H4.125Z"
          fill="#111827"/>
</svg>
