<svg width="24" height="24" viewBox="0 0 24 24" fill="none" xmlns="http://www.w3.org/2000/svg">
    <path fill-rule="evenodd" clip-rule="evenodd"
          d="M4.84836 2.77564C7.18302 2.43237 9.57113 2.25464 12.0003 2.25464C14.4292 2.25464 16.8171 2.43234 19.1516 2.77555C21.1299 3.06641 22.5 4.79909 22.5 6.7452V12.7641C22.5 14.7102 21.1299 16.4429 19.1516 16.7337C17.2123 17.0189 15.2361 17.1897 13.2302 17.2394C13.1266 17.242 13.0318 17.2835 12.9638 17.3515L8.78033 21.535C8.56583 21.7495 8.24324 21.8136 7.96299 21.6975C7.68273 21.5815 7.5 21.308 7.5 21.0046V17.0496C6.60901 16.9681 5.72491 16.8625 4.84836 16.7336C2.87004 16.4427 1.5 14.7101 1.5 12.764V6.74528C1.5 4.79919 2.87004 3.06652 4.84836 2.77564ZM12.0003 3.75464C9.64439 3.75464 7.32921 3.927 5.06657 4.25969C3.87679 4.43462 3 5.48921 3 6.74528V12.764C3 14.0201 3.87679 15.0746 5.06656 15.2496C6.13567 15.4068 7.2165 15.5282 8.30779 15.6125C8.69842 15.6427 9 15.9685 9 16.3603V19.194L11.9032 16.2908C12.2486 15.9454 12.7121 15.7518 13.193 15.7399C15.1382 15.6917 17.0539 15.526 18.9334 15.2497C20.1232 15.0748 21 14.0202 21 12.7641V6.7452C21 5.48911 20.1232 4.43452 18.9334 4.2596C16.6709 3.92697 14.356 3.75464 12.0003 3.75464ZM7.125 9.75464C7.125 9.13332 7.62868 8.62964 8.25 8.62964C8.87132 8.62964 9.375 9.13332 9.375 9.75464C9.375 10.376 8.87132 10.8796 8.25 10.8796C7.62868 10.8796 7.125 10.376 7.125 9.75464ZM10.875 9.75464C10.875 9.13332 11.3787 8.62964 12 8.62964C12.6213 8.62964 13.125 9.13332 13.125 9.75464C13.125 10.376 12.6213 10.8796 12 10.8796C11.3787 10.8796 10.875 10.376 10.875 9.75464ZM14.625 9.75464C14.625 9.13332 15.1287 8.62964 15.75 8.62964C16.3713 8.62964 16.875 9.13332 16.875 9.75464C16.875 10.376 16.3713 10.8796 15.75 10.8796C15.1287 10.8796 14.625 10.376 14.625 9.75464Z"
          fill="#111827"/>
</svg>
