<svg width="24" height="24" viewBox="0 0 24 24" fill="none" xmlns="http://www.w3.org/2000/svg">
<path fill-rule="evenodd" clip-rule="evenodd" d="M12.0003 3.75464C9.64439 3.75464 7.32921 3.927 5.06657 4.25969C3.87679 4.43462 3 5.48921 3 6.74528V12.764C3 14.0201 3.87679 15.0746 5.06656 15.2496C6.11787 15.4042 7.18051 15.5241 8.25329 15.6083C8.94318 15.6624 9.58127 16.0245 9.97204 16.6106L12 19.6526L14.0279 16.6107C14.4187 16.0245 15.0568 15.6624 15.7467 15.6083C16.8195 15.5242 17.8821 15.4043 18.9334 15.2497C20.1232 15.0748 21 14.0202 21 12.7641V6.7452C21 5.48911 20.1232 4.43452 18.9334 4.2596C16.6709 3.92697 14.356 3.75464 12.0003 3.75464ZM4.84836 2.77564C7.18302 2.43237 9.57113 2.25464 12.0003 2.25464C14.4292 2.25464 16.8171 2.43234 19.1516 2.77555C21.1299 3.06641 22.5 4.79909 22.5 6.7452V12.7641C22.5 14.7102 21.1299 16.4429 19.1516 16.7337C18.0669 16.8932 16.9706 17.017 15.864 17.1037C15.6203 17.1228 15.4047 17.2497 15.276 17.4427L12.624 21.4207C12.4849 21.6293 12.2508 21.7546 12 21.7546C11.7492 21.7546 11.5151 21.6293 11.376 21.4207L8.72397 17.4427C8.5953 17.2497 8.37967 17.1228 8.13599 17.1037C7.02939 17.0169 5.93309 16.8931 4.84836 16.7336C2.87004 16.4427 1.5 14.7101 1.5 12.764V6.74528C1.5 4.79919 2.87004 3.06652 4.84836 2.77564Z" fill="#111827"/>
</svg>
