<svg width="24" height="24" viewBox="0 0 24 24" fill="none" xmlns="http://www.w3.org/2000/svg">
    <path fill-rule="evenodd" clip-rule="evenodd"
          d="M12 4.50464C7.38089 4.50464 3.75 7.9226 3.75 12.0046C3.75 13.8972 4.52135 15.6337 5.81107 16.963C6.31827 17.4857 6.83561 18.3374 6.58585 19.3118C6.50236 19.6376 6.38845 19.951 6.24738 20.2489C7.27513 20.2013 8.22415 19.8588 9.01402 19.3038C9.19635 19.1757 9.42619 19.1353 9.64126 19.1936C10.3875 19.3957 11.179 19.5046 12 19.5046C16.6191 19.5046 20.25 16.0867 20.25 12.0046C20.25 7.9226 16.6191 4.50464 12 4.50464ZM5.33678 21.7224C5.15724 21.7049 4.97926 21.6803 4.80365 21.6489C4.5396 21.6016 4.3209 21.4169 4.23008 21.1645C4.13927 20.9121 4.19016 20.6304 4.36357 20.4258C4.72409 20.0003 4.99059 19.4943 5.13282 18.9394C5.19154 18.7103 5.09249 18.3764 4.73452 18.0075C3.19647 16.4223 2.25 14.3193 2.25 12.0046C2.25 6.97398 6.67799 3.00464 12 3.00464C17.322 3.00464 21.75 6.97398 21.75 12.0046C21.75 17.0353 17.322 21.0046 12 21.0046C11.1668 21.0046 10.3569 20.9081 9.58316 20.726C8.54446 21.3777 7.3153 21.7546 6 21.7546C5.77643 21.7546 5.55508 21.7437 5.33678 21.7224Z"
          fill="#111827"/>
</svg>
