<svg width="24" height="24" viewBox="0 0 24 24" fill="none" xmlns="http://www.w3.org/2000/svg">
<path fill-rule="evenodd" clip-rule="evenodd" d="M12.0003 3.75464C9.64439 3.75464 7.32921 3.927 5.06657 4.25969C3.87679 4.43462 3 5.48921 3 6.74528V12.764C3 14.0201 3.87679 15.0746 5.06656 15.2496C6.13567 15.4068 7.2165 15.5282 8.30779 15.6125C8.69842 15.6427 9 15.9685 9 16.3603V19.194L11.7957 16.3983C12.2104 15.9836 12.7663 15.752 13.3426 15.7359C15.2364 15.6831 17.1021 15.5189 18.9334 15.2497C20.1232 15.0748 21 14.0202 21 12.7641V6.7452C21 5.48911 20.1232 4.43452 18.9334 4.2596C16.6709 3.92697 14.356 3.75464 12.0003 3.75464ZM4.84836 2.77564C7.18302 2.43237 9.57113 2.25464 12.0003 2.25464C14.4292 2.25464 16.8171 2.43234 19.1516 2.77555C21.1299 3.06641 22.5 4.79909 22.5 6.7452V12.7641C22.5 14.7102 21.1299 16.4429 19.1516 16.7337C17.262 17.0115 15.3374 17.1809 13.3844 17.2354C13.1814 17.241 12.993 17.3223 12.8564 17.4589L8.78033 21.535C8.56583 21.7495 8.24324 21.8136 7.96299 21.6975C7.68273 21.5815 7.5 21.308 7.5 21.0046V17.0496C6.60901 16.9681 5.72491 16.8625 4.84836 16.7336C2.87004 16.4427 1.5 14.7101 1.5 12.764V6.74528C1.5 4.79919 2.87004 3.06652 4.84836 2.77564Z" fill="#111827"/>
</svg>
