<svg width="24" height="24" viewBox="0 0 24 24" fill="none" xmlns="http://www.w3.org/2000/svg">
    <path fill-rule="evenodd" clip-rule="evenodd"
          d="M4.91307 2.66287C6.9877 2.39352 9.10296 2.25464 11.2503 2.25464C13.3974 2.25464 15.5124 2.39349 17.5869 2.66279C19.5953 2.92352 21 4.67127 21 6.64195V8.02821C21.9113 8.53786 22.5 9.52154 22.5 10.6129V14.8984C22.5 16.4061 21.372 17.7131 19.8307 17.8389C19.7206 17.8479 19.6103 17.8565 19.5 17.8647V20.2546C19.5 20.558 19.3173 20.8315 19.037 20.9475C18.7568 21.0636 18.4342 20.9995 18.2197 20.785L15.4384 18.0037C14.17 17.9958 12.9131 17.9403 11.6692 17.8388C11.4677 17.8223 11.2724 17.7854 11.0853 17.73L7.28033 21.535C7.06583 21.7495 6.74324 21.8136 6.46299 21.6975C6.18273 21.5815 6 21.308 6 21.0046V16.9752C5.63649 16.9362 5.27417 16.8933 4.91308 16.8464C2.90466 16.5857 1.5 14.8379 1.5 12.8673V6.64202C1.5 4.67136 2.90466 2.92362 4.91307 2.66287ZM9.78068 16.9133C9.29126 16.3801 9 15.6666 9 14.8983V10.6129C9 9.10745 10.1248 7.80124 11.6641 7.67348C13.0114 7.56166 14.3741 7.50464 15.75 7.50464C17.0116 7.50464 18.2622 7.55258 19.5 7.64676V6.64195C19.5 5.36979 18.6012 4.30705 17.3938 4.15031C15.3832 3.8893 13.3327 3.75464 11.2503 3.75464C9.16771 3.75464 7.11695 3.88933 5.1062 4.15039C3.8988 4.30714 3 5.36988 3 6.64202V12.8673C3 14.1394 3.8988 15.2022 5.1062 15.3589C5.67416 15.4326 6.2453 15.4963 6.81944 15.5497C7.20508 15.5855 7.5 15.9092 7.5 16.2965V19.194L9.78068 16.9133ZM15.75 9.00464C14.4156 9.00464 13.0942 9.05994 11.7881 9.16834C11.0652 9.22834 10.5 9.84828 10.5 10.6129V14.8983C10.5 15.4594 10.8079 15.9481 11.2577 16.1879C11.4175 16.273 11.5969 16.3279 11.7912 16.3437C13.0963 16.4503 14.4166 16.5046 15.75 16.5046C15.9489 16.5046 16.1397 16.5837 16.2803 16.7243L18 18.444V17.1639C18 16.7673 18.3087 16.4393 18.7046 16.4153C19.0403 16.3949 19.375 16.3711 19.7087 16.3438C20.4332 16.2847 21 15.664 21 14.8984V10.6129C21 9.96202 20.5872 9.41203 20.0203 9.22963C19.923 9.19832 19.8199 9.17732 19.7119 9.16835C18.4058 9.05994 17.0844 9.00464 15.75 9.00464Z"
          fill="#111827"/>
</svg>
