<svg width="24" height="24" viewBox="0 0 24 24" fill="none" xmlns="http://www.w3.org/2000/svg">
    <path fill-rule="evenodd" clip-rule="evenodd"
          d="M12 4.50464C7.38089 4.50464 3.75 7.9226 3.75 12.0046C3.75 13.9733 4.58481 15.7738 5.96997 17.1221C6.4057 17.5463 6.808 18.2325 6.64955 19.0314C6.56488 19.4582 6.42854 19.8664 6.24738 20.2489C7.27513 20.2013 8.22415 19.8588 9.01402 19.3038C9.19635 19.1757 9.42619 19.1353 9.64126 19.1936C10.3875 19.3957 11.179 19.5046 12 19.5046C16.6191 19.5046 20.25 16.0867 20.25 12.0046C20.25 7.9226 16.6191 4.50464 12 4.50464ZM5.33678 21.7224C5.15724 21.7049 4.97926 21.6803 4.80365 21.6489C4.5396 21.6016 4.3209 21.4169 4.23008 21.1645C4.13927 20.9121 4.19016 20.6304 4.36357 20.4258C4.76687 19.9498 5.05254 19.3731 5.17822 18.7395C5.20107 18.6243 5.15571 18.4228 4.92371 18.197C3.2746 16.5918 2.25 14.4132 2.25 12.0046C2.25 6.97398 6.67799 3.00464 12 3.00464C17.322 3.00464 21.75 6.97398 21.75 12.0046C21.75 17.0353 17.322 21.0046 12 21.0046C11.1668 21.0046 10.3569 20.9081 9.58316 20.726C8.54446 21.3777 7.3153 21.7546 6 21.7546C5.77643 21.7546 5.55508 21.7437 5.33678 21.7224ZM7.125 12.0046C7.125 11.3833 7.62868 10.8796 8.25 10.8796C8.87132 10.8796 9.375 11.3833 9.375 12.0046C9.375 12.626 8.87132 13.1296 8.25 13.1296C7.62868 13.1296 7.125 12.626 7.125 12.0046ZM10.875 12.0046C10.875 11.3833 11.3787 10.8796 12 10.8796C12.6213 10.8796 13.125 11.3833 13.125 12.0046C13.125 12.626 12.6213 13.1296 12 13.1296C11.3787 13.1296 10.875 12.626 10.875 12.0046ZM14.625 12.0046C14.625 11.3833 15.1287 10.8796 15.75 10.8796C16.3713 10.8796 16.875 11.3833 16.875 12.0046C16.875 12.626 16.3713 13.1296 15.75 13.1296C15.1287 13.1296 14.625 12.626 14.625 12.0046Z"
          fill="#111827"/>
</svg>
