<svg width="24" height="24" viewBox="0 0 24 24" fill="none" xmlns="http://www.w3.org/2000/svg">
<path fill-rule="evenodd" clip-rule="evenodd" d="M12 3.75464C7.44365 3.75464 3.75 7.44829 3.75 12.0046C3.75 16.561 7.44365 20.2546 12 20.2546C16.5563 20.2546 20.25 16.561 20.25 12.0046C20.25 7.44829 16.5563 3.75464 12 3.75464ZM2.25 12.0046C2.25 6.61986 6.61522 2.25464 12 2.25464C17.3848 2.25464 21.75 6.61986 21.75 12.0046C21.75 17.3894 17.3848 21.7546 12 21.7546C6.61522 21.7546 2.25 17.3894 2.25 12.0046ZM15.4359 9.14434C15.773 9.3851 15.8511 9.85351 15.6103 10.1906L11.8603 15.4406C11.7322 15.62 11.5316 15.7339 11.3119 15.7521C11.0921 15.7703 10.8756 15.6909 10.7197 15.535L8.46967 13.285C8.17678 12.9921 8.17678 12.5172 8.46967 12.2243C8.76256 11.9314 9.23744 11.9314 9.53033 12.2243L11.1543 13.8483L14.3897 9.31871C14.6305 8.98165 15.0989 8.90358 15.4359 9.14434Z" fill="#111827"/>
</svg>
