<svg width="24" height="24" viewBox="0 0 24 24" fill="none" xmlns="http://www.w3.org/2000/svg">
    <path d="M12.5303 4.72431C12.2374 4.43142 11.7626 4.43142 11.4697 4.72431L3.96967 12.2243C3.67678 12.5172 3.67678 12.9921 3.96967 13.285C4.26256 13.5779 4.73744 13.5779 5.03033 13.285L12 6.3153L18.9697 13.285C19.2626 13.5779 19.7374 13.5779 20.0303 13.285C20.3232 12.9921 20.3232 12.5172 20.0303 12.2243L12.5303 4.72431Z"
          fill="#111827"/>
    <path d="M20.0303 18.2243L12.5303 10.7243C12.2374 10.4314 11.7626 10.4314 11.4697 10.7243L3.96967 18.2243C3.67678 18.5172 3.67678 18.9921 3.96967 19.285C4.26256 19.5779 4.73744 19.5779 5.03033 19.285L12 12.3153L18.9697 19.285C19.2626 19.5779 19.7374 19.5779 20.0303 19.285C20.3232 18.9921 20.3232 18.5172 20.0303 18.2243Z"
          fill="#111827"/>
</svg>
