<svg width="24" height="24" viewBox="0 0 24 24" fill="none" xmlns="http://www.w3.org/2000/svg">
    <path fill-rule="evenodd" clip-rule="evenodd"
          d="M6.50178 4.13364C5.08855 4.84026 4.5 5.67767 4.5 6.37964C4.5 7.0816 5.08855 7.91902 6.50178 8.62563C7.87015 9.30982 9.81301 9.75464 12 9.75464C14.187 9.75464 16.1299 9.30982 17.4982 8.62563C18.9114 7.91902 19.5 7.0816 19.5 6.37964C19.5 5.67767 18.9114 4.84026 17.4982 4.13364C16.1299 3.44946 14.187 3.00464 12 3.00464C9.81301 3.00464 7.87015 3.44946 6.50178 4.13364ZM19.5 9.12257C19.1041 9.44372 18.6513 9.72613 18.169 9.96727C16.5515 10.776 14.3694 11.2546 12 11.2546C9.63064 11.2546 7.4485 10.776 5.83096 9.96727C5.34866 9.72613 4.89594 9.44372 4.5 9.12257V10.1296C4.5 10.8316 5.08855 11.669 6.50178 12.3756C7.87015 13.0598 9.81301 13.5046 12 13.5046C14.187 13.5046 16.1299 13.0598 17.4982 12.3756C18.9114 11.669 19.5 10.8316 19.5 10.1296V9.12257ZM19.5 12.8726C19.1041 13.1937 18.6513 13.4761 18.169 13.7173C16.5515 14.526 14.3694 15.0046 12 15.0046C9.63064 15.0046 7.4485 14.526 5.83096 13.7173C5.34866 13.4761 4.89594 13.1937 4.5 12.8726V13.8796C4.5 14.5816 5.08855 15.419 6.50178 16.1256C7.87015 16.8098 9.81301 17.2546 12 17.2546C14.187 17.2546 16.1299 16.8098 17.4982 16.1256C18.9114 15.419 19.5 14.5816 19.5 13.8796V12.8726ZM19.5 16.6226C19.1041 16.9437 18.6513 17.2261 18.169 17.4673C16.5515 18.276 14.3694 18.7546 12 18.7546C9.63064 18.7546 7.4485 18.276 5.83096 17.4673C5.34866 17.2261 4.89594 16.9437 4.5 16.6226V17.6296C4.5 18.3316 5.08855 19.169 6.50178 19.8756C7.87015 20.5598 9.81301 21.0046 12 21.0046C14.187 21.0046 16.1299 20.5598 17.4982 19.8756C18.9114 19.169 19.5 18.3316 19.5 17.6296V16.6226ZM3 6.37964C3 4.80343 4.25827 3.57835 5.83096 2.792C7.4485 1.98323 9.63064 1.50464 12 1.50464C14.3694 1.50464 16.5515 1.98323 18.169 2.792C19.7417 3.57835 21 4.80343 21 6.37964V17.6296C21 19.2058 19.7417 20.4309 18.169 21.2173C16.5515 22.026 14.3694 22.5046 12 22.5046C9.63064 22.5046 7.4485 22.026 5.83096 21.2173C4.25827 20.4309 3 19.2058 3 17.6296V6.37964Z"
          fill="#111827"/>
</svg>
