<svg width="24" height="24" viewBox="0 0 24 24" fill="none" xmlns="http://www.w3.org/2000/svg">
<path fill-rule="evenodd" clip-rule="evenodd" d="M10.837 3.12228C11.3367 2.16157 12.3409 1.50464 13.5 1.50464H15C16.1591 1.50464 17.1633 2.16157 17.663 3.12228C17.8877 3.13783 18.1121 3.1549 18.3359 3.17348C19.8752 3.30124 21 4.60746 21 6.11286V15.7546C21 17.4115 19.6569 18.7546 18 18.7546H16.5V20.6296C16.5 21.6652 15.6605 22.5046 14.625 22.5046H4.875C3.83947 22.5046 3 21.6652 3 20.6296V8.62964C3 7.5941 3.83947 6.75464 4.875 6.75464H6.75C7.00235 6.75464 7.25247 6.76423 7.5 6.78306V6.11286C7.5 4.60746 8.62475 3.30124 10.164 3.17348C10.3879 3.1549 10.6123 3.13783 10.837 3.12228ZM10.5 4.65123C10.4293 4.65678 10.3587 4.66248 10.2881 4.66834C9.56523 4.72834 9 5.34829 9 6.11286V7.01554C13.3 8.03128 16.5 11.8943 16.5 16.5046V17.2546H18C18.8284 17.2546 19.5 16.5831 19.5 15.7546V6.11286C19.5 5.34829 18.9348 4.72834 18.2119 4.66834C18.1413 4.66248 18.0707 4.65678 18 4.65123V5.25464C18 5.66885 17.6642 6.00464 17.25 6.00464H11.25C10.8358 6.00464 10.5 5.66885 10.5 5.25464V4.65123ZM16.5 4.50464H12C12 4.34933 12.0234 4.20086 12.0662 4.06181C12.2552 3.44876 12.8267 3.00464 13.5 3.00464H15C15.6733 3.00464 16.2448 3.44876 16.4338 4.06181C16.4766 4.20086 16.5 4.34933 16.5 4.50464ZM14.3322 13.2476C13.4988 11.3101 11.9445 9.75587 10.007 8.92249C10.3215 9.50483 10.5 10.1714 10.5 10.8796V12.3796C10.5 12.5867 10.6679 12.7546 10.875 12.7546H12.375C13.0832 12.7546 13.7498 12.9331 14.3322 13.2476ZM6.375 8.25464H4.875C4.66789 8.25464 4.5 8.42253 4.5 8.62964V20.6296C4.5 20.8367 4.66789 21.0046 4.875 21.0046H14.625C14.8321 21.0046 15 20.8367 15 20.6296V16.8796C15 15.4299 13.8247 14.2546 12.375 14.2546H10.875C9.83947 14.2546 9 13.4152 9 12.3796V10.8796C9 9.42989 7.82475 8.25464 6.375 8.25464Z" fill="#111827"/>
</svg>
