<svg width="24" height="24" viewBox="0 0 24 24" fill="none" xmlns="http://www.w3.org/2000/svg">
<path fill-rule="evenodd" clip-rule="evenodd" d="M10.5 3.00464C9.81411 3.00464 9.23394 3.46563 9.0561 4.09613C9.01971 4.22514 9 4.36197 9 4.50464H15C15 4.36197 14.9803 4.22514 14.9439 4.09613C14.7661 3.46563 14.1859 3.00464 13.5 3.00464H10.5ZM7.80654 3.18253C8.29511 2.189 9.31692 1.50464 10.5 1.50464H13.5C14.6831 1.50464 15.7049 2.189 16.1935 3.18253C16.6911 3.22493 17.1865 3.27481 17.6798 3.33205C19.1772 3.50583 20.25 4.79186 20.25 6.26163V19.5046C20.25 21.1615 18.9069 22.5046 17.25 22.5046H6.75C5.09315 22.5046 3.75 21.1615 3.75 19.5046V6.26163C3.75 4.79186 4.82283 3.50582 6.32022 3.33205C6.81347 3.27481 7.30895 3.22493 7.80654 3.18253ZM7.51459 4.71471C7.17303 4.74687 6.83253 4.78266 6.49314 4.82205C5.78933 4.90373 5.25 5.51542 5.25 6.26163V19.5046C5.25 20.3331 5.92157 21.0046 6.75 21.0046H17.25C18.0784 21.0046 18.75 20.3331 18.75 19.5046V6.26163C18.75 5.51542 18.2107 4.90373 17.5069 4.82205C17.1675 4.78266 16.827 4.74687 16.4854 4.71471C16.3832 5.44368 15.7571 6.00464 15 6.00464H9C8.24287 6.00464 7.61676 5.44368 7.51459 4.71471Z" fill="#111827"/>
</svg>
