<svg width="24" height="24" viewBox="0 0 24 24" fill="none" xmlns="http://www.w3.org/2000/svg">
<path fill-rule="evenodd" clip-rule="evenodd" d="M13.5 3.00464C12.8267 3.00464 12.2552 3.44876 12.0662 4.06181C12.0234 4.20086 12 4.34933 12 4.50464H16.5C16.5 4.34933 16.4766 4.20086 16.4338 4.06181C16.2448 3.44876 15.6733 3.00464 15 3.00464H13.5ZM10.837 3.12228C11.3367 2.16157 12.3409 1.50464 13.5 1.50464H15C16.1591 1.50464 17.1633 2.16157 17.663 3.12228C17.8877 3.13783 18.1121 3.1549 18.3359 3.17348C19.8752 3.30124 21 4.60746 21 6.11286V16.5046C21 18.1615 19.6569 19.5046 18 19.5046H16.5V20.6296C16.5 21.6652 15.6605 22.5046 14.625 22.5046H4.875C3.83947 22.5046 3 21.6652 3 20.6296V9.37964C3 8.3441 3.83947 7.50464 4.875 7.50464H7.5V6.11286C7.5 4.60746 8.62475 3.30124 10.164 3.17348C10.3879 3.1549 10.6123 3.13783 10.837 3.12228ZM10.507 4.65068C10.434 4.6564 10.361 4.66229 10.2881 4.66834C9.56523 4.72834 9 5.34829 9 6.11286V7.50464H14.625C15.6605 7.50464 16.5 8.3441 16.5 9.37964V18.0046H18C18.8284 18.0046 19.5 17.3331 19.5 16.5046V6.11286C19.5 5.34829 18.9348 4.72834 18.2119 4.66834C18.139 4.66229 18.066 4.6564 17.993 4.65068C17.9196 5.41058 17.2792 6.00464 16.5 6.00464H12C11.2208 6.00464 10.5804 5.41058 10.507 4.65068ZM15 9.37964C15 9.17253 14.8321 9.00464 14.625 9.00464H4.875C4.66789 9.00464 4.5 9.17253 4.5 9.37964V20.6296C4.5 20.8367 4.66789 21.0046 4.875 21.0046H14.625C14.8321 21.0046 15 20.8367 15 20.6296V9.37964ZM6 12.0046C6 11.5904 6.33579 11.2546 6.75 11.2546H6.7575C7.17171 11.2546 7.5075 11.5904 7.5075 12.0046V12.0121C7.5075 12.4264 7.17171 12.7621 6.7575 12.7621H6.75C6.33579 12.7621 6 12.4264 6 12.0121V12.0046ZM8.25 12.0046C8.25 11.5904 8.58579 11.2546 9 11.2546H12.75C13.1642 11.2546 13.5 11.5904 13.5 12.0046C13.5 12.4189 13.1642 12.7546 12.75 12.7546H9C8.58579 12.7546 8.25 12.4189 8.25 12.0046ZM6 15.0046C6 14.5904 6.33579 14.2546 6.75 14.2546H6.7575C7.17171 14.2546 7.5075 14.5904 7.5075 15.0046V15.0121C7.5075 15.4264 7.17171 15.7621 6.7575 15.7621H6.75C6.33579 15.7621 6 15.4264 6 15.0121V15.0046ZM8.25 15.0046C8.25 14.5904 8.58579 14.2546 9 14.2546H12.75C13.1642 14.2546 13.5 14.5904 13.5 15.0046C13.5 15.4189 13.1642 15.7546 12.75 15.7546H9C8.58579 15.7546 8.25 15.4189 8.25 15.0046ZM6 18.0046C6 17.5904 6.33579 17.2546 6.75 17.2546H6.7575C7.17171 17.2546 7.5075 17.5904 7.5075 18.0046V18.0121C7.5075 18.4264 7.17171 18.7621 6.7575 18.7621H6.75C6.33579 18.7621 6 18.4264 6 18.0121V18.0046ZM8.25 18.0046C8.25 17.5904 8.58579 17.2546 9 17.2546H12.75C13.1642 17.2546 13.5 17.5904 13.5 18.0046C13.5 18.4189 13.1642 18.7546 12.75 18.7546H9C8.58579 18.7546 8.25 18.4189 8.25 18.0046Z" fill="#111827"/>
</svg>
