<svg width="24" height="24" viewBox="0 0 24 24" fill="none" xmlns="http://www.w3.org/2000/svg">
    <path fill-rule="evenodd" clip-rule="evenodd"
          d="M13.5 3.00464C12.8267 3.00464 12.2552 3.44876 12.0662 4.06181C12.0234 4.20086 12 4.34933 12 4.50464H16.5C16.5 4.34933 16.4766 4.20086 16.4338 4.06181C16.2448 3.44876 15.6733 3.00464 15 3.00464H13.5ZM10.837 3.12228C11.3367 2.16157 12.3409 1.50464 13.5 1.50464H15C16.1591 1.50464 17.1633 2.16157 17.663 3.12228C17.8877 3.13783 18.1121 3.1549 18.3359 3.17348C19.8752 3.30124 21 4.60746 21 6.11286V16.5046C21 18.1615 19.6569 19.5046 18 19.5046H16.5V20.6296C16.5 21.6652 15.6605 22.5046 14.625 22.5046H4.875C3.83947 22.5046 3 21.6652 3 20.6296V9.37964C3 8.3441 3.83947 7.50464 4.875 7.50464H7.5V6.11286C7.5 4.60746 8.62475 3.30124 10.164 3.17348C10.3879 3.1549 10.6123 3.13783 10.837 3.12228ZM10.507 4.65068C10.434 4.6564 10.361 4.66229 10.2881 4.66834C9.56523 4.72834 9 5.34829 9 6.11286V7.50464H14.625C15.6605 7.50464 16.5 8.3441 16.5 9.37964V18.0046H18C18.8284 18.0046 19.5 17.3331 19.5 16.5046V6.11286C19.5 5.34829 18.9348 4.72834 18.2119 4.66834C18.139 4.66229 18.066 4.6564 17.993 4.65068C17.9196 5.41058 17.2792 6.00464 16.5 6.00464H12C11.2208 6.00464 10.5804 5.41058 10.507 4.65068ZM4.875 9.00464C4.66789 9.00464 4.5 9.17253 4.5 9.37964V20.6296C4.5 20.8367 4.66789 21.0046 4.875 21.0046H14.625C14.8321 21.0046 15 20.8367 15 20.6296V9.37964C15 9.17253 14.8321 9.00464 14.625 9.00464H4.875ZM12.4685 12.919C12.792 13.1777 12.8444 13.6497 12.5857 13.9732L9.58565 17.7232C9.45238 17.8897 9.25448 17.9917 9.04148 18.0035C8.82847 18.0153 8.62052 17.9358 8.46967 17.785L6.96967 16.285C6.67678 15.9921 6.67678 15.5172 6.96967 15.2243C7.26256 14.9314 7.73744 14.9314 8.03033 15.2243L8.93781 16.1318L11.4143 13.0361C11.6731 12.7127 12.1451 12.6602 12.4685 12.919Z"
          fill="#111827"/>
</svg>
