<svg width="24" height="24" viewBox="0 0 24 24" fill="none" xmlns="http://www.w3.org/2000/svg">
    <path fill-rule="evenodd" clip-rule="evenodd"
          d="M12 3.75464C7.44365 3.75464 3.75 7.44829 3.75 12.0046C3.75 16.561 7.44365 20.2546 12 20.2546C16.5563 20.2546 20.25 16.561 20.25 12.0046C20.25 7.44829 16.5563 3.75464 12 3.75464ZM2.25 12.0046C2.25 6.61986 6.61522 2.25464 12 2.25464C17.3848 2.25464 21.75 6.61986 21.75 12.0046C21.75 17.3894 17.3848 21.7546 12 21.7546C6.61522 21.7546 2.25 17.3894 2.25 12.0046ZM12 5.25464C12.4142 5.25464 12.75 5.59043 12.75 6.00464V11.2546H16.5C16.9142 11.2546 17.25 11.5904 17.25 12.0046C17.25 12.4189 16.9142 12.7546 16.5 12.7546H12C11.5858 12.7546 11.25 12.4189 11.25 12.0046V6.00464C11.25 5.59043 11.5858 5.25464 12 5.25464Z"
          fill="#111827"/>
</svg>
