<svg width="24" height="24" viewBox="0 0 24 24" fill="none" xmlns="http://www.w3.org/2000/svg">
    <path fill-rule="evenodd" clip-rule="evenodd"
          d="M10.5 5.25464C8.01472 5.25464 6 7.26936 6 9.75464C6 10.0412 6.02669 10.3208 6.07751 10.5914C6.1469 10.9608 5.93213 11.3245 5.57515 11.4421C4.07863 11.9353 3 13.345 3 15.0046C3 17.0757 4.67893 18.7546 6.75 18.7546H18C19.6569 18.7546 21 17.4115 21 15.7546C21 14.4741 20.1974 13.3792 19.0653 12.9491C18.6851 12.8046 18.4893 12.3835 18.6239 11.9997C18.7054 11.7675 18.75 11.5171 18.75 11.2546C18.75 10.012 17.7426 9.00464 16.5 9.00464C16.2563 9.00464 16.023 9.04313 15.805 9.1138C15.6092 9.17731 15.3959 9.15754 15.2151 9.05911C15.0343 8.96069 14.9019 8.79227 14.8489 8.59334C14.337 6.6704 12.5829 5.25464 10.5 5.25464ZM4.5 9.75464C4.5 6.44093 7.18629 3.75464 10.5 3.75464C13.028 3.75464 15.1893 5.31746 16.0733 7.52872C16.2135 7.5128 16.3559 7.50464 16.5 7.50464C18.5711 7.50464 20.25 9.18357 20.25 11.2546C20.25 11.4506 20.2349 11.6433 20.2058 11.8316C21.5744 12.6028 22.5 14.0699 22.5 15.7546C22.5 18.2399 20.4853 20.2546 18 20.2546H6.75C3.85051 20.2546 1.5 17.9041 1.5 15.0046C1.5 12.9015 2.73627 11.0887 4.52024 10.2505C4.50683 10.0869 4.5 9.92149 4.5 9.75464ZM12 9.00464C12.4142 9.00464 12.75 9.34043 12.75 9.75464V14.694L14.4697 12.9743C14.7626 12.6814 15.2374 12.6814 15.5303 12.9743C15.8232 13.2672 15.8232 13.7421 15.5303 14.035L12.5303 17.035C12.2374 17.3279 11.7626 17.3279 11.4697 17.035L8.46967 14.035C8.17678 13.7421 8.17678 13.2672 8.46967 12.9743C8.76256 12.6814 9.23744 12.6814 9.53033 12.9743L11.25 14.694V9.75464C11.25 9.34043 11.5858 9.00464 12 9.00464Z"
          fill="#111827"/>
</svg>
