<svg width="24" height="24" viewBox="0 0 24 24" fill="none" xmlns="http://www.w3.org/2000/svg">
<path fill-rule="evenodd" clip-rule="evenodd" d="M9.60283 3.82139C9.75351 2.91729 10.5357 2.25464 11.4523 2.25464H12.5463C13.4629 2.25464 14.2451 2.91729 14.3958 3.82139L14.5447 4.7152C14.5657 4.84104 14.6713 4.99138 14.8734 5.07529C15.0705 5.15713 15.2466 5.1271 15.3538 5.05051L16.0914 4.52367C16.8372 3.99093 17.8589 4.07548 18.507 4.7236L19.2806 5.49715C19.9287 6.14526 20.0133 7.16695 19.4805 7.91279L18.9535 8.65063C18.877 8.75777 18.8469 8.93369 18.9287 9.13069C19.0126 9.33267 19.1628 9.43821 19.2886 9.45917L20.1825 9.60817C21.0866 9.75885 21.7493 10.5411 21.7493 11.4577V12.5516C21.7493 13.4682 21.0866 14.2504 20.1825 14.4011L19.2887 14.5501C19.1629 14.5711 19.0126 14.6767 18.9287 14.8787C18.8468 15.0759 18.8768 15.2519 18.9534 15.3591L19.4802 16.0965C20.0129 16.8424 19.9284 17.8641 19.2802 18.5122L18.5067 19.2857C17.8586 19.9339 16.8369 20.0184 16.0911 19.4857L15.3534 18.9588C15.2463 18.8823 15.0703 18.8522 14.8733 18.934C14.6713 19.0179 14.5657 19.1682 14.5448 19.294L14.3958 20.1879C14.2451 21.092 13.4629 21.7546 12.5463 21.7546H11.4523C10.5357 21.7546 9.75351 21.092 9.60283 20.1879L9.45386 19.2941C9.43288 19.1682 9.32727 19.0179 9.12519 18.934C8.92808 18.8522 8.75205 18.8822 8.64483 18.9588L7.90721 19.4856C7.16136 20.0184 6.13967 19.9338 5.49156 19.2857L4.71801 18.5122C4.06989 17.8641 3.98534 16.8424 4.51809 16.0965L5.04512 15.3587C5.12165 15.2515 5.15167 15.0756 5.06988 14.8786C4.98602 14.6766 4.83577 14.5711 4.71002 14.5501L3.81605 14.4011C2.91195 14.2504 2.2493 13.4682 2.2493 12.5516V11.4577C2.2493 10.5411 2.91195 9.75885 3.81605 9.60817L4.70986 9.4592C4.8357 9.43823 4.98604 9.3326 5.06995 9.13051C5.1518 8.93339 5.12177 8.75734 5.04517 8.6501L4.51848 7.91273C3.98573 7.16688 4.07029 6.1452 4.7184 5.49708L5.49195 4.72353C6.14007 4.07542 7.16175 3.99086 7.9076 4.52361L8.6452 5.05046C8.75235 5.12701 8.9283 5.15703 9.12532 5.07523C9.32732 4.99136 9.43288 4.8411 9.45384 4.71534L9.60283 3.82139ZM11.4523 3.75464C11.269 3.75464 11.1126 3.88717 11.0824 4.06799L10.9334 4.96194C10.813 5.68455 10.2928 6.21465 9.70048 6.46058C9.10285 6.70869 8.36633 6.69463 7.77334 6.27106L7.03574 5.74421C6.88657 5.63766 6.68223 5.65457 6.55261 5.78419L5.77906 6.55774C5.64944 6.68737 5.63253 6.8917 5.73908 7.04087L6.26577 7.77825C6.68941 8.37134 6.70345 9.10799 6.45529 9.7057C6.20932 10.2981 5.67916 10.8183 4.95645 10.9388L4.06265 11.0878C3.88183 11.1179 3.7493 11.2743 3.7493 11.4577V12.5516C3.7493 12.7349 3.88183 12.8914 4.06265 12.9215L4.95662 13.0705C5.67922 13.1909 6.20931 13.7111 6.45523 14.3034C6.70334 14.9011 6.68927 15.6376 6.26572 16.2305L5.73868 16.9684C5.63214 17.1175 5.64905 17.3219 5.77867 17.4515L6.55222 18.2251C6.68184 18.3547 6.88618 18.3716 7.03535 18.265L7.77297 17.7382C8.36604 17.3145 9.10268 17.3005 9.70038 17.5487C10.2928 17.7946 10.813 18.3248 10.9334 19.0475L11.0824 19.9413C11.1126 20.1221 11.269 20.2546 11.4523 20.2546H12.5463C12.7296 20.2546 12.886 20.1221 12.9162 19.9413L13.0652 19.0474C13.1856 18.3247 13.7058 17.7946 14.2981 17.5487C14.8958 17.3006 15.6323 17.3146 16.2253 17.7382L16.9629 18.2651C17.1121 18.3716 17.3164 18.3547 17.446 18.2251L18.2196 17.4515C18.3492 17.3219 18.3661 17.1176 18.2596 16.9684L17.7328 16.231C17.3092 15.6379 17.2952 14.9013 17.5433 14.3036C17.7893 13.7112 18.3194 13.1909 19.0421 13.0705L19.9359 12.9215C20.1168 12.8914 20.2493 12.7349 20.2493 12.5516V11.4577C20.2493 11.2743 20.1168 11.1179 19.9359 11.0878L19.042 10.9388C18.3194 10.8183 17.7893 10.2982 17.5434 9.70585C17.2953 9.10824 17.3093 8.37174 17.7329 7.77878L18.2599 7.04094C18.3665 6.89177 18.3496 6.68743 18.2199 6.55781L17.4464 5.78426C17.3168 5.65464 17.1124 5.63772 16.9632 5.74427L16.2257 6.27111C15.6326 6.69474 14.8959 6.70879 14.2982 6.46063C13.7058 6.21466 13.1856 5.6845 13.0651 4.9618L12.9162 4.06799C12.886 3.88717 12.7296 3.75464 12.5463 3.75464H11.4523ZM12 9.75466C10.7574 9.75466 9.75 10.762 9.75 12.0047C9.75 13.2473 10.7574 14.2547 12 14.2547C13.2426 14.2547 14.25 13.2473 14.25 12.0047C14.25 10.762 13.2426 9.75466 12 9.75466ZM8.25 12.0047C8.25 9.93359 9.92893 8.25466 12 8.25466C14.0711 8.25466 15.75 9.93359 15.75 12.0047C15.75 14.0757 14.0711 15.7547 12 15.7547C9.92893 15.7547 8.25 14.0757 8.25 12.0047Z" fill="#111827"/>
</svg>
