<svg width="24" height="24" viewBox="0 0 24 24" fill="none" xmlns="http://www.w3.org/2000/svg">
    <path fill-rule="evenodd" clip-rule="evenodd"
          d="M8.85376 3.82139C9.00444 2.91729 9.78667 2.25464 10.7032 2.25464H13.2972C14.2138 2.25464 14.996 2.91729 15.1467 3.82139L15.3602 5.10244C15.3791 5.21593 15.4632 5.34775 15.6277 5.43882C15.7101 5.48445 15.7916 5.53158 15.8721 5.58018C16.033 5.67736 16.1893 5.68438 16.2972 5.64396L17.5141 5.18808C18.3724 4.86653 19.3374 5.21264 19.7957 6.00641L21.0927 8.25285C21.551 9.04663 21.3682 10.0554 20.6606 10.6379L19.6562 11.4647C19.5673 11.5379 19.4955 11.6764 19.4989 11.8633C19.4998 11.9103 19.5002 11.9574 19.5002 12.0046C19.5002 12.0518 19.4998 12.099 19.4989 12.146C19.4955 12.3329 19.5673 12.4713 19.6562 12.5445L20.6606 13.3713C21.3682 13.9539 21.551 14.9626 21.0927 15.7564L19.7957 18.0029C19.3374 18.7966 18.3724 19.1427 17.5141 18.8212L16.2972 18.3653C16.1894 18.3249 16.0331 18.3319 15.8721 18.4291C15.7916 18.4777 15.7101 18.5248 15.6277 18.5705C15.4632 18.6615 15.3791 18.7933 15.3602 18.9068L15.1467 20.1879C14.996 21.092 14.2138 21.7546 13.2972 21.7546H10.7032C9.78667 21.7546 9.00444 21.092 8.85376 20.1879L8.64025 18.9068C8.62134 18.7933 8.53726 18.6615 8.37274 18.5705C8.29031 18.5248 8.20884 18.4777 8.12835 18.4291C7.96742 18.3319 7.81112 18.3249 7.70323 18.3653L6.48636 18.8212C5.62804 19.1427 4.66305 18.7966 4.20477 18.0029L2.90779 15.7564C2.4495 14.9627 2.63225 13.9539 3.33989 13.3713L3.81657 13.9504L3.33989 13.3713L4.34424 12.5445C4.43314 12.4713 4.505 12.3329 4.50154 12.146C4.50067 12.099 4.50023 12.0519 4.50023 12.0046C4.50023 11.9574 4.50067 11.9103 4.50154 11.8633C4.505 11.6764 4.43314 11.5379 4.34424 11.4648L3.33989 10.6379C2.63225 10.0554 2.4495 9.04664 2.90779 8.25287L4.20477 6.00643C4.66305 5.21265 5.62804 4.86654 6.48636 5.1881L7.70321 5.64397C7.8111 5.68439 7.9674 5.67737 8.12834 5.58019C8.20883 5.53159 8.29031 5.48445 8.37274 5.43882C8.53726 5.34776 8.62133 5.21593 8.64025 5.10244L8.85376 3.82139ZM10.7032 3.75464C10.5199 3.75464 10.3635 3.88717 10.3333 4.06799L10.1198 5.34904C10.0141 5.98363 9.59821 6.47495 9.09919 6.75118C9.03326 6.78767 8.9681 6.82537 8.90371 6.86425C8.41458 7.15961 7.78021 7.27463 7.17698 7.04864L5.96012 6.59276C5.78846 6.52845 5.59546 6.59767 5.50381 6.75643L4.20682 9.00287C4.11517 9.16162 4.15172 9.36337 4.29324 9.47988L5.2976 10.3067C5.79371 10.7151 6.01185 11.3204 6.00128 11.8911C6.00058 11.9288 6.00023 11.9667 6.00023 12.0046C6.00023 12.0426 6.00058 12.0805 6.00128 12.1182C6.01185 12.6889 5.79371 13.2942 5.2976 13.7026L4.29324 14.5294L3.9609 14.1257L4.29324 14.5294C4.15172 14.6459 4.11517 14.8477 4.20682 15.0064L5.50381 17.2529C5.59546 17.4116 5.78846 17.4808 5.96012 17.4165L7.17699 16.9606C7.78023 16.7347 8.41459 16.8497 8.90372 17.145C8.9681 17.1839 9.03327 17.2216 9.09919 17.2581C9.59821 17.5343 10.0141 18.0256 10.1198 18.6602L10.3333 19.9413C10.3635 20.1221 10.5199 20.2546 10.7032 20.2546H13.2972C13.4805 20.2546 13.637 20.1221 13.6671 19.9413L13.8806 18.6602C13.9864 18.0256 14.4022 17.5343 14.9013 17.2581C14.9672 17.2216 15.0324 17.1839 15.0967 17.145C15.5859 16.8497 16.2202 16.7346 16.8235 16.9606L18.0403 17.4165C18.212 17.4808 18.405 17.4116 18.4967 17.2529L19.7936 15.0064C19.8853 14.8477 19.8487 14.6459 19.7072 14.5294L18.7029 13.7026C18.2067 13.2942 17.9886 12.6889 17.9992 12.1182C17.9999 12.0805 18.0002 12.0426 18.0002 12.0046C18.0002 11.9667 17.9999 11.9288 17.9992 11.8911C17.9886 11.3204 18.2067 10.7151 18.7029 10.3067L19.7072 9.47987C19.8487 9.36336 19.8853 9.16161 19.7936 9.00285L18.4967 6.75641C18.405 6.59766 18.212 6.52844 18.0403 6.59275L16.8235 7.04863C16.2202 7.27462 15.5859 7.1596 15.0967 6.86424C15.0324 6.82536 14.9672 6.78766 14.9013 6.75118C14.4022 6.47495 13.9864 5.98363 13.8806 5.34904L13.6671 4.06799C13.637 3.88717 13.4805 3.75464 13.2972 3.75464H10.7032ZM12 9.75456C10.7574 9.75456 9.75 10.7619 9.75 12.0046C9.75 13.2472 10.7574 14.2546 12 14.2546C13.2426 14.2546 14.25 13.2472 14.25 12.0046C14.25 10.7619 13.2426 9.75456 12 9.75456ZM8.25 12.0046C8.25 9.93349 9.92893 8.25456 12 8.25456C14.0711 8.25456 15.75 9.93349 15.75 12.0046C15.75 14.0756 14.0711 15.7546 12 15.7546C9.92893 15.7546 8.25 14.0756 8.25 12.0046Z"
          fill="#111827"/>
</svg>
