<svg width="24" height="24" viewBox="0 0 24 24" fill="none" xmlns="http://www.w3.org/2000/svg">
    <path fill-rule="evenodd" clip-rule="evenodd"
          d="M21.7507 12.0038C21.7507 12.418 21.4149 12.7538 21.0007 12.7538L20.2171 12.7538C20.1753 13.2179 20.095 13.671 19.9795 14.1098L20.7145 14.3773C21.1038 14.519 21.3044 14.9494 21.1628 15.3386C21.0211 15.7279 20.5907 15.9286 20.2015 15.7869L19.4664 15.5193C19.2694 15.9368 19.0385 16.3352 18.7771 16.7107L19.3772 17.2143C19.6946 17.4806 19.7359 17.9536 19.4697 18.271C19.2034 18.5883 18.7304 18.6296 18.4131 18.3634L17.8123 17.8593C17.4866 18.1827 17.134 18.479 16.7582 18.7447L17.1502 19.4236C17.3573 19.7823 17.2344 20.241 16.8757 20.4481C16.517 20.6553 16.0583 20.5323 15.8512 20.1736L15.4598 19.4958C15.046 19.6872 14.6136 19.8453 14.1662 19.9667L14.3021 20.7376C14.374 21.1455 14.1016 21.5345 13.6937 21.6064C13.2858 21.6784 12.8968 21.406 12.8249 20.9981L12.6887 20.2255C12.4618 20.2442 12.2324 20.2538 12.0007 20.2538C11.769 20.2538 11.5395 20.2442 11.3126 20.2255L11.1764 20.998C11.1045 21.4059 10.7155 21.6783 10.3076 21.6064C9.89965 21.5345 9.62727 21.1455 9.6992 20.7375L9.83514 19.9666C9.38771 19.8452 8.95539 19.6871 8.54161 19.4958L8.15016 20.1738C7.94305 20.5325 7.48436 20.6554 7.12564 20.4483C6.76692 20.2412 6.64401 19.7825 6.85112 19.4238L7.2432 18.7447C6.86754 18.4791 6.51507 18.1828 6.1894 17.8596L5.58829 18.364C5.27099 18.6303 4.79792 18.5889 4.53167 18.2716C4.26542 17.9543 4.30681 17.4812 4.62411 17.2149L5.2246 16.7111C4.9631 16.3353 4.73205 15.9368 4.53502 15.5191L3.79981 15.7867C3.41058 15.9284 2.98019 15.7277 2.83852 15.3385C2.69685 14.9492 2.89754 14.5189 3.28678 14.3772L4.02192 14.1096C3.90644 13.6709 3.82619 13.2179 3.78436 12.7538L3.00073 12.7538C2.58652 12.7538 2.25073 12.418 2.25073 12.0038C2.25073 11.5896 2.58652 11.2538 3.00073 11.2538L3.78436 11.2538C3.82618 10.7897 3.90643 10.3367 4.02191 9.89799L3.28703 9.63052C2.89779 9.48885 2.6971 9.05847 2.83877 8.66923C2.98044 8.28 3.41082 8.07931 3.80006 8.22098L4.53499 8.48847C4.73197 8.07086 4.96296 7.67244 5.22439 7.29679L4.62426 6.79322C4.30696 6.52697 4.26557 6.0539 4.53182 5.7366C4.79807 5.41929 5.27114 5.3779 5.58844 5.64415L6.18914 6.14819C6.51472 5.82503 6.86712 5.52884 7.24269 5.26325L6.85117 4.58519C6.64405 4.22648 6.76694 3.76778 7.12565 3.56066C7.48436 3.35354 7.94306 3.47643 8.15018 3.83514L8.54104 4.51206C8.95492 4.32061 9.38735 4.16245 9.83489 4.04101L9.69921 3.27152C9.62728 2.86359 9.89966 2.4746 10.3076 2.40267C10.7155 2.33075 11.1045 2.60312 11.1764 3.01104L11.3124 3.78208C11.5393 3.76334 11.7689 3.75377 12.0007 3.75377C12.2325 3.75377 12.462 3.76333 12.6889 3.78207L12.8249 3.011C12.8968 2.60308 13.2858 2.33071 13.6937 2.40263C14.1016 2.47456 14.374 2.86355 14.3021 3.27147L14.1664 4.04096C14.614 4.1624 15.0465 4.32058 15.4604 4.51205L15.8511 3.83532C16.0582 3.4766 16.5169 3.3537 16.8756 3.5608C17.2344 3.76791 17.3573 4.2266 17.1502 4.58532L16.7588 5.26324C17.1344 5.52891 17.4869 5.8252 17.8126 6.14848L18.4129 5.64477C18.7302 5.37852 19.2033 5.41991 19.4695 5.73722C19.7358 6.05452 19.6944 6.52759 19.3771 6.79384L18.7773 7.29712C19.0386 7.67262 19.2695 8.07087 19.4664 8.48829L20.2012 8.22083C20.5905 8.07916 21.0209 8.27985 21.1625 8.66908C21.3042 9.05831 21.1035 9.4887 20.7143 9.63036L19.9795 9.8978C20.095 10.3366 20.1753 10.7896 20.2171 11.2538L21.0007 11.2538C21.4149 11.2538 21.7507 11.5896 21.7507 12.0038ZM18.7095 11.2538C18.6517 10.7302 18.5339 10.2246 18.3632 9.74408C18.3561 9.72812 18.3495 9.7118 18.3435 9.69514C18.3374 9.67851 18.332 9.66181 18.3272 9.64506C18.0593 8.92701 17.6728 8.26683 17.1913 7.68839C17.1846 7.68095 17.1779 7.67335 17.1714 7.66558C17.165 7.65797 17.1588 7.65028 17.1528 7.6425C16.6625 7.06394 16.0766 6.56904 15.4194 6.18227C15.4046 6.175 15.3901 6.16721 15.3756 6.15888C15.3608 6.15032 15.3464 6.14134 15.3324 6.13195C14.6882 5.76563 13.9778 5.50228 13.2236 5.36426C13.2067 5.36245 13.1897 5.36005 13.1728 5.35706C13.1563 5.35416 13.1401 5.35074 13.1241 5.34683C12.7588 5.28563 12.3835 5.25377 12.0007 5.25377C11.618 5.25377 11.2427 5.28563 10.8773 5.34683C10.8613 5.35076 10.845 5.35419 10.8285 5.3571C10.8115 5.3601 10.7945 5.3625 10.7776 5.36432C10.2604 5.45898 9.76382 5.61259 9.29505 5.81792L12.4337 11.2538L18.7095 11.2538ZM11.1347 12.0038L7.99667 6.56907C7.56973 6.88416 7.18123 7.24835 6.83954 7.65331C6.83639 7.65721 6.83319 7.6611 6.82995 7.66496C6.82656 7.669 6.82313 7.673 6.81967 7.67696C6.33349 8.2585 5.94339 8.92313 5.67378 9.64645C5.66906 9.66279 5.66375 9.67908 5.65785 9.69529C5.65194 9.71154 5.64552 9.72745 5.63863 9.74302C5.38746 10.4498 5.25073 11.2108 5.25073 12.0038C5.25073 12.7981 5.38795 13.5604 5.63997 14.2683C5.64626 14.2827 5.65214 14.2974 5.6576 14.3124C5.66305 14.3274 5.66799 14.3424 5.67243 14.3575C6.13397 15.5979 6.94979 16.6659 7.99689 17.4386L11.1347 12.0038ZM9.29529 18.1897L12.4337 12.7538L18.7095 12.7538C18.6515 13.2787 18.5333 13.7855 18.3619 14.2671C18.3554 14.282 18.3493 14.2971 18.3437 14.3126C18.3381 14.328 18.333 14.3434 18.3285 14.359C18.0587 15.0836 17.6679 15.7494 17.1808 16.3318C17.1777 16.3353 17.1746 16.339 17.1716 16.3426C17.1687 16.3461 17.1658 16.3495 17.163 16.353C16.666 16.9423 16.07 17.4453 15.4006 17.8363C15.3922 17.8407 15.3839 17.8453 15.3757 17.8501C15.3671 17.855 15.3586 17.8601 15.3503 17.8654C14.6935 18.2415 13.9675 18.5104 13.196 18.6483C13.1883 18.6494 13.1805 18.6506 13.1728 18.652C13.1656 18.6533 13.1584 18.6546 13.1512 18.6561C12.7774 18.7203 12.3929 18.7538 12.0007 18.7538C11.6086 18.7538 11.2242 18.7203 10.8503 18.6561C10.8431 18.6546 10.8358 18.6533 10.8285 18.652C10.8207 18.6506 10.8128 18.6493 10.805 18.6482C10.278 18.554 9.77226 18.3986 9.29529 18.1897Z"
          fill="#111827"/>
</svg>
