<svg width="24" height="24" viewBox="0 0 24 24" fill="none" xmlns="http://www.w3.org/2000/svg">
    <path fill-rule="evenodd" clip-rule="evenodd"
          d="M12 3.75C7.44365 3.75 3.75 7.44365 3.75 12C3.75 16.5563 7.44365 20.25 12 20.25C16.5563 20.25 20.25 16.5563 20.25 12C20.25 7.44365 16.5563 3.75 12 3.75ZM2.25 12C2.25 6.61522 6.61522 2.25 12 2.25C17.3848 2.25 21.75 6.61522 21.75 12C21.75 17.3848 17.3848 21.75 12 21.75C6.61522 21.75 2.25 17.3848 2.25 12ZM8.25 8.25C8.25 7.83579 8.58579 7.5 9 7.5L15 7.5C15.4142 7.5 15.75 7.83579 15.75 8.25C15.75 8.66421 15.4142 9 15 9H13.5003C13.8278 9.43606 14.0625 9.94584 14.175 10.5H15C15.4142 10.5 15.75 10.8358 15.75 11.25C15.75 11.6642 15.4142 12 15 12H14.175C13.8468 13.6168 12.4785 14.8558 10.7989 14.9883L12.5303 16.7197C12.8232 17.0126 12.8232 17.4874 12.5303 17.7803C12.2374 18.0732 11.7626 18.0732 11.4697 17.7803L8.46967 14.7803C8.25517 14.5658 8.191 14.2432 8.30709 13.963C8.42318 13.6827 8.69665 13.5 9 13.5H10.5C11.4797 13.5 12.3131 12.8739 12.622 12H9C8.58579 12 8.25 11.6642 8.25 11.25C8.25 10.8358 8.58579 10.5 9 10.5H12.622C12.3131 9.62611 11.4797 9 10.5 9C10.4998 9 10.5002 9 10.5 9L9 9C8.58579 9 8.25 8.66421 8.25 8.25Z"
          fill="#111827"/>
</svg>
