<svg width="24" height="24" viewBox="0 0 24 24" fill="none" xmlns="http://www.w3.org/2000/svg">
    <path fill-rule="evenodd" clip-rule="evenodd"
          d="M12 3.75C7.44365 3.75 3.75 7.44365 3.75 12C3.75 16.5563 7.44365 20.25 12 20.25C16.5563 20.25 20.25 16.5563 20.25 12C20.25 7.44365 16.5563 3.75 12 3.75ZM2.25 12C2.25 6.61522 6.61522 2.25 12 2.25C17.3848 2.25 21.75 6.61522 21.75 12C21.75 17.3848 17.3848 21.75 12 21.75C6.61522 21.75 2.25 17.3848 2.25 12ZM8.58397 6.87596C8.92862 6.6462 9.39427 6.73933 9.62404 7.08397L12 10.6479L14.376 7.08397C14.6057 6.73933 15.0714 6.6462 15.416 6.87596C15.7607 7.10573 15.8538 7.57138 15.624 7.91603L13.4014 11.25H15C15.4142 11.25 15.75 11.5858 15.75 12C15.75 12.4142 15.4142 12.75 15 12.75H12.75V14.25H15C15.4142 14.25 15.75 14.5858 15.75 15C15.75 15.4142 15.4142 15.75 15 15.75H12.75V17.25C12.75 17.6642 12.4142 18 12 18C11.5858 18 11.25 17.6642 11.25 17.25V15.75H9C8.58579 15.75 8.25 15.4142 8.25 15C8.25 14.5858 8.58579 14.25 9 14.25H11.25V12.75H9C8.58579 12.75 8.25 12.4142 8.25 12C8.25 11.5858 8.58579 11.25 9 11.25H10.5986L8.37596 7.91603C8.1462 7.57138 8.23933 7.10573 8.58397 6.87596Z"
          fill="#111827"/>
</svg>
