<svg width="24" height="24" viewBox="0 0 24 24" fill="none" xmlns="http://www.w3.org/2000/svg">
<path fill-rule="evenodd" clip-rule="evenodd" d="M12 3.75C7.44365 3.75 3.75 7.44365 3.75 12C3.75 16.5563 7.44365 20.25 12 20.25C16.5563 20.25 20.25 16.5563 20.25 12C20.25 7.44365 16.5563 3.75 12 3.75ZM2.25 12C2.25 6.61522 6.61522 2.25 12 2.25C17.3848 2.25 21.75 6.61522 21.75 12C21.75 17.3848 17.3848 21.75 12 21.75C6.61522 21.75 2.25 17.3848 2.25 12ZM10.409 8.1591C10.0302 8.53793 9.81529 9.0163 9.76273 9.51011C9.75032 9.62673 9.7598 9.76527 9.7877 9.96059L9.9719 11.25H12C12.4142 11.25 12.75 11.5858 12.75 12C12.75 12.4142 12.4142 12.75 12 12.75H10.1862L10.2937 13.5024C10.3794 14.1023 10.3601 14.709 10.2401 15.2961L10.3013 15.2757C10.9171 15.0704 11.5829 15.0704 12.1987 15.2757L12.853 15.4938C13.2304 15.6196 13.6424 15.5903 13.9982 15.4124L14.6646 15.0792C15.0351 14.8939 15.4856 15.0441 15.6708 15.4146C15.8561 15.7851 15.7059 16.2356 15.3354 16.4208L14.669 16.754C13.9573 17.1099 13.1335 17.1684 12.3787 16.9168L11.7243 16.6987C11.4164 16.596 11.0836 16.596 10.7757 16.6987L9.23717 17.2115C8.94939 17.3074 8.63216 17.2206 8.43341 16.9914C8.23466 16.7622 8.19352 16.4359 8.32918 16.1646L8.45053 15.9219C8.79165 15.2396 8.91661 14.4696 8.80874 13.7145L8.67096 12.75H8.25C7.83579 12.75 7.5 12.4142 7.5 12C7.5 11.5858 7.83579 11.25 8.25 11.25H8.45667L8.30277 10.1727C8.27044 9.94636 8.23849 9.65829 8.27116 9.35135C8.3587 8.5289 8.7183 7.72848 9.34835 7.09844C10.8128 5.63397 13.1872 5.63397 14.6516 7.09844C14.9445 7.39133 14.9445 7.8662 14.6516 8.1591C14.3588 8.45199 13.8839 8.45199 13.591 8.1591C12.7123 7.28042 11.2877 7.28042 10.409 8.1591Z" fill="#111827"/>
</svg>
