<svg width="24" height="24" viewBox="0 0 24 24" fill="none" xmlns="http://www.w3.org/2000/svg">
    <path fill-rule="evenodd" clip-rule="evenodd"
          d="M12 3.75C7.44365 3.75 3.75 7.44365 3.75 12C3.75 16.5563 7.44365 20.25 12 20.25C16.5563 20.25 20.25 16.5563 20.25 12C20.25 7.44365 16.5563 3.75 12 3.75ZM2.25 12C2.25 6.61522 6.61522 2.25 12 2.25C17.3848 2.25 21.75 6.61522 21.75 12C21.75 17.3848 17.3848 21.75 12 21.75C6.61522 21.75 2.25 17.3848 2.25 12ZM8.32918 6.62185C9.32653 6.12317 10.5 6.84842 10.5 7.96349V9.74997H15.75C16.1642 9.74997 16.5 10.0858 16.5 10.5C16.5 10.9142 16.1642 11.25 15.75 11.25H10.5V15.9383C10.5 16.0036 10.5153 16.0567 10.5336 16.0916C10.5506 16.1239 10.5673 16.1366 10.5788 16.1428C11.001 16.3705 11.4843 16.5 12 16.5C13.3973 16.5 14.5729 15.544 14.9057 14.25H14.25C13.8358 14.25 13.5 13.9142 13.5 13.5C13.5 13.0858 13.8358 12.75 14.25 12.75H14.995C15.7737 12.75 16.6084 13.4217 16.41 14.3992C15.993 16.4535 14.1779 18 12 18C11.2297 18 10.5025 17.8058 9.86693 17.4632C9.25945 17.1356 9 16.5015 9 15.9383V11.25H8.25C7.83579 11.25 7.5 10.9142 7.5 10.5C7.5 10.0858 7.83579 9.74997 8.25 9.74997H9L9 7.96349L8.58541 8.17079C8.21493 8.35603 7.76442 8.20586 7.57918 7.83538C7.39394 7.46489 7.54411 7.01439 7.91459 6.82915L8.32918 6.62185ZM14.9969 14.2502C14.9969 14.2502 14.9966 14.2502 14.996 14.25L14.9969 14.2502Z"
          fill="#111827"/>
</svg>
