<svg width="24" height="24" viewBox="0 0 24 24" fill="none" xmlns="http://www.w3.org/2000/svg">
    <path fill-rule="evenodd" clip-rule="evenodd"
          d="M12 3.75C7.44365 3.75 3.75 7.44365 3.75 12C3.75 16.5563 7.44365 20.25 12 20.25C16.5563 20.25 20.25 16.5563 20.25 12C20.25 7.44365 16.5563 3.75 12 3.75ZM2.25 12C2.25 6.61522 6.61522 2.25 12 2.25C17.3848 2.25 21.75 6.61522 21.75 12C21.75 17.3848 17.3848 21.75 12 21.75C6.61522 21.75 2.25 17.3848 2.25 12ZM14.0006 8.46355C12.6796 7.99768 11.1527 8.29405 10.0984 9.34835C9.97095 9.47575 9.85464 9.61003 9.74941 9.75H12.75C13.1642 9.75 13.5 10.0858 13.5 10.5C13.5 10.9142 13.1642 11.25 12.75 11.25H9.07535C8.97488 11.7446 8.97488 12.2554 9.07535 12.75H12.75C13.1642 12.75 13.5 13.0858 13.5 13.5C13.5 13.9142 13.1642 14.25 12.75 14.25H9.74941C9.85464 14.39 9.97095 14.5243 10.0984 14.6517C11.1527 15.706 12.6796 16.0023 14.0006 15.5364C14.3912 15.3987 14.8195 15.6037 14.9573 15.9943C15.0951 16.3849 14.8901 16.8133 14.4994 16.951C12.6545 17.6017 10.5156 17.1902 9.03769 15.7123C8.60004 15.2747 8.25581 14.779 8.005 14.25H7.5C7.08579 14.25 6.75 13.9142 6.75 13.5C6.75 13.0858 7.08579 12.75 7.5 12.75H7.55353C7.48216 12.2528 7.48216 11.7472 7.55353 11.25H7.5C7.08579 11.25 6.75 10.9142 6.75 10.5C6.75 10.0858 7.08579 9.75 7.5 9.75H8.005C8.25581 9.22104 8.60004 8.72534 9.03769 8.28769C10.5156 6.80976 12.6545 6.39828 14.4994 7.04895C14.8901 7.18671 15.0951 7.61507 14.9573 8.0057C14.8195 8.39633 14.3912 8.60132 14.0006 8.46355Z"
          fill="#111827"/>
</svg>
