<svg width="24" height="24" viewBox="0 0 24 24" fill="none" xmlns="http://www.w3.org/2000/svg">
<path fill-rule="evenodd" clip-rule="evenodd" d="M3.75 4.5C3.75 2.84315 5.09315 1.5 6.75 1.5H17.25C18.9069 1.5 20.25 2.84315 20.25 4.5V19.5C20.25 21.1569 18.9069 22.5 17.25 22.5H6.75C5.09315 22.5 3.75 21.1569 3.75 19.5V4.5ZM6.75 3C5.92157 3 5.25 3.67157 5.25 4.5V19.5C5.25 20.3284 5.92157 21 6.75 21H17.25C18.0784 21 18.75 20.3284 18.75 19.5V4.5C18.75 3.67157 18.0784 3 17.25 3H6.75ZM9.75 19.5C9.75 19.0858 10.0858 18.75 10.5 18.75H13.5C13.9142 18.75 14.25 19.0858 14.25 19.5C14.25 19.9142 13.9142 20.25 13.5 20.25H10.5C10.0858 20.25 9.75 19.9142 9.75 19.5Z" fill="#111827"/>
</svg>
