<svg width="24" height="24" viewBox="0 0 24 24" fill="none" xmlns="http://www.w3.org/2000/svg">
    <path fill-rule="evenodd" clip-rule="evenodd"
          d="M9.375 3.00232C9.16789 3.00232 9 3.17021 9 3.37732V16.1273C9 16.3344 9.16789 16.5023 9.375 16.5023H19.125C19.3321 16.5023 19.5 16.3344 19.5 16.1273V11.6273C19.5 10.1776 18.3247 9.00232 16.875 9.00232H15.375C14.3395 9.00232 13.5 8.16285 13.5 7.12732V5.62732C13.5 4.17757 12.3247 3.00232 10.875 3.00232H9.375ZM14.5069 3.66988C14.8214 4.25229 15 4.91895 15 5.62732V7.12732C15 7.33443 15.1679 7.50232 15.375 7.50232H16.875C17.5832 7.50232 18.2498 7.6808 18.8321 7.99524C17.9986 6.0577 16.4443 4.5032 14.5069 3.66988ZM21 16.1273C21 17.1629 20.1605 18.0023 19.125 18.0023H16.5V20.6273C16.5 21.6629 15.6605 22.5023 14.625 22.5023H4.875C3.83947 22.5023 3 21.6629 3 20.6273V7.87732C3 6.84179 3.83947 6.00232 4.875 6.00232H6.75C7.00224 6.00232 7.25236 6.01191 7.5 6.03077V3.37732C7.5 2.34179 8.33947 1.50232 9.375 1.50232H11.25C11.8028 1.50232 12.3454 1.5484 12.8741 1.63709C17.4859 2.41082 21 6.42046 21 11.2523V16.1273ZM7.5 7.5359C7.25313 7.51368 7.00297 7.50232 6.75 7.50232H4.875C4.66789 7.50232 4.5 7.67021 4.5 7.87732V20.6273C4.5 20.8344 4.66789 21.0023 4.875 21.0023H14.625C14.8321 21.0023 15 20.8344 15 20.6273V18.0023H9.375C8.33947 18.0023 7.5 17.1629 7.5 16.1273V7.5359Z"
          fill="#111827"/>
</svg>
