<svg width="24" height="24" viewBox="0 0 24 24" fill="none" xmlns="http://www.w3.org/2000/svg">
<path fill-rule="evenodd" clip-rule="evenodd" d="M5.625 3.00232C5.41789 3.00232 5.25 3.17021 5.25 3.37732V20.6273C5.25 20.8344 5.41789 21.0023 5.625 21.0023H18.375C18.5821 21.0023 18.75 20.8344 18.75 20.6273V11.6273C18.75 10.1776 17.5747 9.00232 16.125 9.00232H14.625C13.5895 9.00232 12.75 8.16285 12.75 7.12732V5.62732C12.75 4.17757 11.5747 3.00232 10.125 3.00232H5.625ZM5.625 1.50232C4.58947 1.50232 3.75 2.34178 3.75 3.37732V20.6273C3.75 21.6629 4.58947 22.5023 5.625 22.5023H18.375C19.4105 22.5023 20.25 21.6629 20.25 20.6273V11.2523C20.25 5.86754 15.8848 1.50232 10.5 1.50232H5.625ZM13.757 3.67017C14.0715 4.25251 14.25 4.91907 14.25 5.62732V7.12732C14.25 7.33443 14.4179 7.50232 14.625 7.50232H16.125C16.8332 7.50232 17.4998 7.68082 18.0822 7.99528C17.2488 6.05781 15.6945 4.50355 13.757 3.67017ZM9 11.2523C9 10.8381 9.33579 10.5023 9.75 10.5023H10.125C10.2109 10.5023 10.296 10.5055 10.3803 10.5118C10.4192 10.5056 10.4592 10.5023 10.5 10.5023H14.25C14.6642 10.5023 15 10.8381 15 11.2523C15 11.6665 14.6642 12.0023 14.25 12.0023H12.9317C13.1573 12.3394 13.3238 12.7193 13.4164 13.1273H14.25C14.6642 13.1273 15 13.4631 15 13.8773C15 14.2915 14.6642 14.6273 14.25 14.6273H13.4164C13.166 15.7307 12.375 16.6288 11.3366 17.0283L12.5303 18.222C12.8232 18.5149 12.8232 18.9898 12.5303 19.2826C12.2374 19.5755 11.7626 19.5755 11.4697 19.2826L9.21967 17.0326C9.00517 16.8182 8.941 16.4956 9.05709 16.2153C9.17318 15.9351 9.44665 15.7523 9.75 15.7523H10.125C10.8939 15.7523 11.5546 15.2895 11.844 14.6273H9.75C9.33579 14.6273 9 14.2915 9 13.8773C9 13.4631 9.33579 13.1273 9.75 13.1273H11.844C11.5546 12.4651 10.8939 12.0023 10.125 12.0023H9.75C9.33579 12.0023 9 11.6665 9 11.2523Z" fill="#111827"/>
</svg>
