<svg width="24" height="24" viewBox="0 0 24 24" fill="none" xmlns="http://www.w3.org/2000/svg">
<path fill-rule="evenodd" clip-rule="evenodd" d="M5.625 3.00232C5.41789 3.00232 5.25 3.17021 5.25 3.37732V20.6273C5.25 20.8344 5.41789 21.0023 5.625 21.0023H18.375C18.5821 21.0023 18.75 20.8344 18.75 20.6273V11.6273C18.75 10.1776 17.5747 9.00232 16.125 9.00232H14.625C13.5895 9.00232 12.75 8.16285 12.75 7.12732V5.62732C12.75 4.17757 11.5747 3.00232 10.125 3.00232H5.625ZM5.625 1.50232C4.58947 1.50232 3.75 2.34178 3.75 3.37732V20.6273C3.75 21.6629 4.58947 22.5023 5.625 22.5023H18.375C19.4105 22.5023 20.25 21.6629 20.25 20.6273V11.2523C20.25 5.86754 15.8848 1.50232 10.5 1.50232H5.625ZM13.757 3.67017C14.0715 4.25251 14.25 4.91907 14.25 5.62732V7.12732C14.25 7.33443 14.4179 7.50232 14.625 7.50232H16.125C16.8332 7.50232 17.4998 7.68082 18.0822 7.99528C17.2488 6.05781 15.6945 4.50355 13.757 3.67017ZM15 11.2523C15.4142 11.2523 15.75 11.5881 15.75 12.0023V17.2523C15.75 17.6665 15.4142 18.0023 15 18.0023C14.5858 18.0023 14.25 17.6665 14.25 17.2523V12.0023C14.25 11.5881 14.5858 11.2523 15 11.2523ZM12 13.5023C12.4142 13.5023 12.75 13.8381 12.75 14.2523V17.2523C12.75 17.6665 12.4142 18.0023 12 18.0023C11.5858 18.0023 11.25 17.6665 11.25 17.2523V14.2523C11.25 13.8381 11.5858 13.5023 12 13.5023ZM9 15.7523C9.41421 15.7523 9.75 16.0881 9.75 16.5023V17.2523C9.75 17.6665 9.41421 18.0023 9 18.0023C8.58579 18.0023 8.25 17.6665 8.25 17.2523V16.5023C8.25 16.0881 8.58579 15.7523 9 15.7523Z" fill="#111827"/>
</svg>
