<svg width="24" height="24" viewBox="0 0 24 24" fill="none" xmlns="http://www.w3.org/2000/svg">
    <path fill-rule="evenodd" clip-rule="evenodd"
          d="M5.625 3.00232C5.41789 3.00232 5.25 3.17021 5.25 3.37732V20.6273C5.25 20.8344 5.41789 21.0023 5.625 21.0023H18.375C18.5821 21.0023 18.75 20.8344 18.75 20.6273V11.6273C18.75 10.1776 17.5747 9.00232 16.125 9.00232H14.625C13.5895 9.00232 12.75 8.16285 12.75 7.12732V5.62732C12.75 4.17757 11.5747 3.00232 10.125 3.00232H5.625ZM5.625 1.50232C4.58947 1.50232 3.75 2.34178 3.75 3.37732V20.6273C3.75 21.6629 4.58947 22.5023 5.625 22.5023H18.375C19.4105 22.5023 20.25 21.6629 20.25 20.6273V11.2523C20.25 5.86754 15.8848 1.50232 10.5 1.50232H5.625ZM13.757 3.67017C14.0715 4.25251 14.25 4.91907 14.25 5.62732V7.12732C14.25 7.33443 14.4179 7.50232 14.625 7.50232H16.125C16.8332 7.50232 17.4998 7.68082 18.0822 7.99528C17.2488 6.05781 15.6945 4.50355 13.757 3.67017ZM12.75 12.0023C12.233 12.0023 11.6727 12.2462 11.2143 12.8192C11.1362 12.9168 11.0645 13.0198 10.9992 13.1273H12.75C13.1642 13.1273 13.5 13.4631 13.5 13.8773C13.5 14.2915 13.1642 14.6273 12.75 14.6273H10.5178C10.4941 14.8763 10.4941 15.1284 10.5178 15.3773H12.75C13.1642 15.3773 13.5 15.7131 13.5 16.1273C13.5 16.5415 13.1642 16.8773 12.75 16.8773H10.9992C11.0645 16.9848 11.1362 17.0878 11.2143 17.1854C11.6727 17.7585 12.233 18.0023 12.75 18.0023C13.267 18.0023 13.8273 17.7585 14.2857 17.1854C14.5444 16.862 15.0164 16.8096 15.3398 17.0683C15.6633 17.3271 15.7157 17.799 15.457 18.1225C14.7438 19.0139 13.7685 19.5023 12.75 19.5023C11.7315 19.5023 10.7562 19.0139 10.043 18.1225C9.74355 17.7481 9.50857 17.3263 9.33807 16.8773H8.25C7.83579 16.8773 7.5 16.5415 7.5 16.1273C7.5 15.7131 7.83579 15.3773 8.25 15.3773H9.01289C8.9957 15.1278 8.9957 14.8769 9.01289 14.6273H8.25C7.83579 14.6273 7.5 14.2915 7.5 13.8773C7.5 13.4631 7.83579 13.1273 8.25 13.1273H9.33807C9.50857 12.6784 9.74355 12.2565 10.043 11.8821C10.7562 10.9907 11.7315 10.5023 12.75 10.5023C13.7685 10.5023 14.7438 10.9907 15.457 11.8821C15.7157 12.2056 15.6633 12.6776 15.3398 12.9363C15.0164 13.1951 14.5444 13.1426 14.2857 12.8192C13.8273 12.2462 13.267 12.0023 12.75 12.0023Z"
          fill="#111827"/>
</svg>
