<svg width="24" height="24" viewBox="0 0 24 24" fill="none" xmlns="http://www.w3.org/2000/svg">
<path fill-rule="evenodd" clip-rule="evenodd" d="M5.625 3.00232C5.41789 3.00232 5.25 3.17021 5.25 3.37732V20.6273C5.25 20.8344 5.41789 21.0023 5.625 21.0023H18.375C18.5821 21.0023 18.75 20.8344 18.75 20.6273V11.6273C18.75 10.1776 17.5747 9.00232 16.125 9.00232H14.625C13.5895 9.00232 12.75 8.16285 12.75 7.12732V5.62732C12.75 4.17757 11.5747 3.00232 10.125 3.00232H5.625ZM5.625 1.50232C4.58947 1.50232 3.75 2.34178 3.75 3.37732V20.6273C3.75 21.6629 4.58947 22.5023 5.625 22.5023H18.375C19.4105 22.5023 20.25 21.6629 20.25 20.6273V11.2523C20.25 5.86754 15.8848 1.50232 10.5 1.50232H5.625ZM13.757 3.67017C14.0715 4.25251 14.25 4.91907 14.25 5.62732V7.12732C14.25 7.33443 14.4179 7.50232 14.625 7.50232H16.125C16.8332 7.50232 17.4998 7.68082 18.0822 7.99528C17.2488 6.05781 15.6945 4.50355 13.757 3.67017ZM7.93934 9.75232C8.88429 8.80737 10.5 9.47662 10.5 10.813V12.7523H15.75C16.1642 12.7523 16.5 13.0881 16.5 13.5023C16.5 13.9165 16.1642 14.2523 15.75 14.2523H10.5V17.2533C10.5 17.5266 10.6207 17.6693 10.7123 17.7129C11.1016 17.8982 11.5376 18.0023 12 18.0023C13.1093 18.0023 14.0793 17.4003 14.5988 16.5024H14.25C13.8358 16.5024 13.5 16.1666 13.5 15.7524C13.5 15.3382 13.8358 15.0024 14.25 15.0024H14.7574C15.226 15.0024 15.6576 15.2199 15.9247 15.5752C16.2019 15.9437 16.2935 16.4577 16.0604 16.9443C15.3364 18.4558 13.7911 19.5023 12 19.5023C11.3098 19.5023 10.6539 19.3464 10.0675 19.0672C9.30725 18.7052 9 17.9234 9 17.2533V14.2523H8.25C7.83579 14.2523 7.5 13.9165 7.5 13.5023C7.5 13.0881 7.83579 12.7523 8.25 12.7523H9V10.813L8.78033 11.0326C8.48744 11.3255 8.01256 11.3255 7.71967 11.0326C7.42678 10.7398 7.42678 10.2649 7.71967 9.97199L7.93934 9.75232Z" fill="#111827"/>
</svg>
