<svg width="24" height="24" viewBox="0 0 24 24" fill="none" xmlns="http://www.w3.org/2000/svg">
    <path fill-rule="evenodd" clip-rule="evenodd"
          d="M5.625 3.00232C5.41789 3.00232 5.25 3.17021 5.25 3.37732V20.6273C5.25 20.8344 5.41789 21.0023 5.625 21.0023H18.375C18.5821 21.0023 18.75 20.8344 18.75 20.6273V11.6273C18.75 10.1776 17.5747 9.00232 16.125 9.00232H14.625C13.5895 9.00232 12.75 8.16285 12.75 7.12732V5.62732C12.75 4.17757 11.5747 3.00232 10.125 3.00232H5.625ZM13.757 3.67017C14.0715 4.25251 14.25 4.91907 14.25 5.62732V7.12732C14.25 7.33443 14.4179 7.50232 14.625 7.50232H16.125C16.8332 7.50232 17.4998 7.68082 18.0822 7.99528C17.2488 6.05781 15.6945 4.50355 13.757 3.67017ZM20.25 20.6273C20.25 21.6629 19.4105 22.5023 18.375 22.5023H5.625C4.58947 22.5023 3.75 21.6629 3.75 20.6273V3.37732C3.75 2.34178 4.58947 1.50232 5.625 1.50232H10.5C15.8848 1.50232 20.25 5.86754 20.25 11.2523V20.6273ZM15.4359 11.392C15.773 11.6328 15.8511 12.1012 15.6103 12.4382L11.8603 17.6882C11.7322 17.8676 11.5316 17.9816 11.3119 17.9998C11.0921 18.0179 10.8756 17.9385 10.7197 17.7826L8.46967 15.5326C8.17678 15.2398 8.17678 14.7649 8.46967 14.472C8.76256 14.1791 9.23744 14.1791 9.53033 14.472L11.1543 16.096L14.3897 11.5664C14.6305 11.2293 15.0989 11.1513 15.4359 11.392Z"
          fill="#111827"/>
</svg>
