<svg width="24" height="24" viewBox="0 0 24 24" fill="none" xmlns="http://www.w3.org/2000/svg">
<path fill-rule="evenodd" clip-rule="evenodd" d="M5.625 3.00232C5.41789 3.00232 5.25 3.17021 5.25 3.37732V20.6273C5.25 20.8344 5.41789 21.0023 5.625 21.0023H18.375C18.5821 21.0023 18.75 20.8344 18.75 20.6273V11.6273C18.75 10.1776 17.5747 9.00232 16.125 9.00232H14.625C13.5895 9.00232 12.75 8.16285 12.75 7.12732V5.62732C12.75 4.17757 11.5747 3.00232 10.125 3.00232H5.625ZM5.625 1.50232C4.58947 1.50232 3.75 2.34178 3.75 3.37732V20.6273C3.75 21.6629 4.58947 22.5023 5.625 22.5023H18.375C19.4105 22.5023 20.25 21.6629 20.25 20.6273V11.2523C20.25 5.86754 15.8848 1.50232 10.5 1.50232H5.625ZM13.757 3.67017C14.0715 4.25251 14.25 4.91907 14.25 5.62732V7.12732C14.25 7.33443 14.4179 7.50232 14.625 7.50232H16.125C16.8332 7.50232 17.4998 7.68082 18.0822 7.99528C17.2488 6.05781 15.6945 4.50355 13.757 3.67017ZM15.4017 12.6613C15.1088 12.9542 14.6339 12.9542 14.341 12.6613C13.4623 11.7826 12.0377 11.7826 11.159 12.6613C10.5709 13.2494 10.3755 14.0824 10.5763 14.8351C10.5762 14.835 10.5763 14.8352 10.5763 14.8351L10.6211 15.0023H12C12.4142 15.0023 12.75 15.3381 12.75 15.7523C12.75 16.1665 12.4142 16.5023 12 16.5023H10.9095C10.9291 16.8457 10.9149 17.1902 10.8672 17.5308C11.4459 17.433 12.0453 17.4766 12.6123 17.6656C13.144 17.8428 13.7242 17.8016 14.2254 17.551L14.6647 17.3313C15.0352 17.1461 15.4857 17.2962 15.671 17.6667C15.8562 18.0372 15.7061 18.4877 15.3356 18.673L14.8962 18.8926C14.0392 19.3212 13.047 19.3917 12.138 19.0887C11.6064 18.9114 11.0261 18.9527 10.5249 19.2033L10.0856 19.423C9.81172 19.5599 9.48213 19.5166 9.25291 19.3136C9.0237 19.1106 8.94089 18.7887 9.04371 18.5003L9.20028 18.0611C9.37912 17.5595 9.4482 17.0281 9.40607 16.5023H8.25C7.83579 16.5023 7.5 16.1665 7.5 15.7523C7.5 15.3381 7.83579 15.0023 8.25 15.0023H9.07544C8.83365 13.8126 9.17361 12.5254 10.0983 11.6007C11.5628 10.1362 13.9372 10.1362 15.4017 11.6007C15.6945 11.8936 15.6945 12.3684 15.4017 12.6613Z" fill="#111827"/>
</svg>
