<svg width="24" height="24" viewBox="0 0 24 24" fill="none" xmlns="http://www.w3.org/2000/svg">
    <path fill-rule="evenodd" clip-rule="evenodd"
          d="M5.625 3.00232C5.41789 3.00232 5.25 3.17021 5.25 3.37732V20.6273C5.25 20.8344 5.41789 21.0023 5.625 21.0023H18.375C18.5821 21.0023 18.75 20.8344 18.75 20.6273V11.6273C18.75 10.1776 17.5747 9.00232 16.125 9.00232H14.625C13.5895 9.00232 12.75 8.16285 12.75 7.12732V5.62732C12.75 4.17757 11.5747 3.00232 10.125 3.00232H5.625ZM5.625 1.50232C4.58947 1.50232 3.75 2.34178 3.75 3.37732V20.6273C3.75 21.6629 4.58947 22.5023 5.625 22.5023H18.375C19.4105 22.5023 20.25 21.6629 20.25 20.6273V11.2523C20.25 5.86754 15.8848 1.50232 10.5 1.50232H5.625ZM13.757 3.67017C14.0715 4.25251 14.25 4.91907 14.25 5.62732V7.12732C14.25 7.33443 14.4179 7.50232 14.625 7.50232H16.125C16.8332 7.50232 17.4998 7.68082 18.0822 7.99528C17.2488 6.05781 15.6945 4.50355 13.757 3.67017ZM9.3 10.6523C9.63137 10.4038 10.1015 10.4709 10.35 10.8023L12 13.0023L13.65 10.8023C13.8985 10.4709 14.3686 10.4038 14.7 10.6523C15.0314 10.9008 15.0985 11.3709 14.85 11.7023L12.9375 14.2523H14.25C14.6642 14.2523 15 14.5881 15 15.0023C15 15.4165 14.6642 15.7523 14.25 15.7523H12.75V16.5023H14.25C14.6642 16.5023 15 16.8381 15 17.2523C15 17.6665 14.6642 18.0023 14.25 18.0023H12.75V18.7523C12.75 19.1665 12.4142 19.5023 12 19.5023C11.5858 19.5023 11.25 19.1665 11.25 18.7523V18.0023H9.75C9.33579 18.0023 9 17.6665 9 17.2523C9 16.8381 9.33579 16.5023 9.75 16.5023H11.25V15.7523H9.75C9.33579 15.7523 9 15.4165 9 15.0023C9 14.5881 9.33579 14.2523 9.75 14.2523H11.0625L9.15 11.7023C8.90147 11.3709 8.96863 10.9008 9.3 10.6523Z"
          fill="#111827"/>
</svg>
