<svg width="24" height="24" viewBox="0 0 24 24" fill="none" xmlns="http://www.w3.org/2000/svg">
    <path fill-rule="evenodd" clip-rule="evenodd"
          d="M5.625 3.00232C5.41789 3.00232 5.25 3.17021 5.25 3.37732V19.8773C5.25 20.0844 5.41789 20.2523 5.625 20.2523H18.375C18.5821 20.2523 18.75 20.0844 18.75 19.8773V11.6273C18.75 10.1776 17.5747 9.00232 16.125 9.00232H14.625C13.5895 9.00232 12.75 8.16285 12.75 7.12732V5.62732C12.75 4.17757 11.5747 3.00232 10.125 3.00232H5.625ZM5.625 1.50232C4.58947 1.50232 3.75 2.34179 3.75 3.37732V19.8773C3.75 20.9129 4.58947 21.7523 5.625 21.7523H18.375C19.4105 21.7523 20.25 20.9129 20.25 19.8773V11.2523C20.25 5.86754 15.8848 1.50232 10.5 1.50232H5.625ZM13.757 3.67017C14.0715 4.25251 14.25 4.91907 14.25 5.62732V7.12732C14.25 7.33443 14.4179 7.50232 14.625 7.50232H16.125C16.8332 7.50232 17.4998 7.68082 18.0822 7.99528C17.2488 6.05781 15.6945 4.50355 13.757 3.67017ZM11.625 12.0023C10.5895 12.0023 9.75 12.8418 9.75 13.8773C9.75 14.9129 10.5895 15.7523 11.625 15.7523C12.1423 15.7523 12.6107 15.5428 12.95 15.204C12.9503 15.2037 12.9505 15.2034 12.9508 15.2031C13.2437 14.9103 13.7186 14.9103 14.0115 15.2031L14.4825 15.6741C14.2128 16.102 13.8497 16.4651 13.4218 16.7348"
          fill="#111827"/>
</svg>
