<svg width="24" height="24" viewBox="0 0 24 24" fill="none" xmlns="http://www.w3.org/2000/svg">
<path fill-rule="evenodd" clip-rule="evenodd" d="M5.625 3.00232C5.41789 3.00232 5.25 3.17021 5.25 3.37732V20.6273C5.25 20.8344 5.41789 21.0023 5.625 21.0023H18.375C18.5821 21.0023 18.75 20.8344 18.75 20.6273V11.6273C18.75 10.1776 17.5747 9.00232 16.125 9.00232H14.625C13.5895 9.00232 12.75 8.16285 12.75 7.12732V5.62732C12.75 4.17757 11.5747 3.00232 10.125 3.00232H5.625ZM5.625 1.50232C4.58947 1.50232 3.75 2.34178 3.75 3.37732V20.6273C3.75 21.6629 4.58947 22.5023 5.625 22.5023H18.375C19.4105 22.5023 20.25 21.6629 20.25 20.6273V11.2523C20.25 5.86754 15.8848 1.50232 10.5 1.50232H5.625ZM13.757 3.67017C14.0715 4.25251 14.25 4.91907 14.25 5.62732V7.12732C14.25 7.33443 14.4179 7.50232 14.625 7.50232H16.125C16.8332 7.50232 17.4998 7.68082 18.0822 7.99528C17.2488 6.05781 15.6945 4.50355 13.757 3.67017ZM12 10.5023C12.4142 10.5023 12.75 10.8381 12.75 11.2523V11.2808C13.3274 11.3247 13.8913 11.4191 14.4369 11.5595C14.8381 11.6628 15.0796 12.0717 14.9763 12.4728C14.8731 12.8739 14.4642 13.1154 14.0631 13.0122C13.638 12.9028 13.1994 12.8264 12.75 12.7859V14.4666L13.7183 14.7985C14.3884 15.0283 15 15.6474 15 16.5023C15 16.6599 14.993 16.816 14.9794 16.9704C14.8969 17.9018 14.149 18.5522 13.3109 18.6649C13.1255 18.6898 12.9385 18.7095 12.75 18.7239V18.7523C12.75 19.1665 12.4142 19.5023 12 19.5023C11.5858 19.5023 11.25 19.1665 11.25 18.7523V18.7239C10.6726 18.6799 10.1087 18.5856 9.56306 18.4451C9.16192 18.3419 8.92043 17.933 9.02367 17.5318C9.12692 17.1307 9.5358 16.8892 9.93694 16.9925C10.362 17.1019 10.8006 17.1783 11.25 17.2187V15.5381L10.2817 15.2061C9.61157 14.9764 9 14.3572 9 13.5023C9 13.3447 9.00696 13.1886 9.02063 13.0342C9.10308 12.1028 9.85103 11.4525 10.6891 11.3398C10.8745 11.3148 11.0615 11.2951 11.25 11.2808V11.2523C11.25 10.8381 11.5858 10.5023 12 10.5023ZM11.25 12.7859C11.1289 12.7968 11.0085 12.8103 10.889 12.8264C10.6553 12.8578 10.5277 13.0207 10.5148 13.1665C10.505 13.2769 10.5 13.3889 10.5 13.5023C10.5 13.5759 10.56 13.7158 10.7682 13.7872L11.25 13.9524V12.7859ZM12.75 16.0523V17.2187C12.8711 17.2078 12.9915 17.1943 13.111 17.1782C13.3447 17.1468 13.4723 16.984 13.4852 16.8382C13.495 16.7277 13.5 16.6157 13.5 16.5023C13.5 16.4287 13.44 16.2888 13.2318 16.2175L12.75 16.0523Z" fill="#111827"/>
</svg>
