<svg width="24" height="24" viewBox="0 0 24 24" fill="none" xmlns="http://www.w3.org/2000/svg">
<path fill-rule="evenodd" clip-rule="evenodd" d="M12 3.75232C7.44365 3.75232 3.75 7.44597 3.75 12.0023C3.75 16.5587 7.44365 20.2523 12 20.2523C16.5563 20.2523 20.25 16.5587 20.25 12.0023C20.25 7.44597 16.5563 3.75232 12 3.75232ZM2.25 12.0023C2.25 6.61754 6.61522 2.25232 12 2.25232C17.3848 2.25232 21.75 6.61754 21.75 12.0023C21.75 17.3871 17.3848 21.7523 12 21.7523C6.61522 21.7523 2.25 17.3871 2.25 12.0023ZM7.125 12.0023C7.125 11.381 7.62868 10.8773 8.25 10.8773C8.87132 10.8773 9.375 11.381 9.375 12.0023C9.375 12.6236 8.87132 13.1273 8.25 13.1273C7.62868 13.1273 7.125 12.6236 7.125 12.0023ZM10.875 12.0023C10.875 11.381 11.3787 10.8773 12 10.8773C12.6213 10.8773 13.125 11.381 13.125 12.0023C13.125 12.6236 12.6213 13.1273 12 13.1273C11.3787 13.1273 10.875 12.6236 10.875 12.0023ZM14.625 12.0023C14.625 11.381 15.1287 10.8773 15.75 10.8773C16.3713 10.8773 16.875 11.381 16.875 12.0023C16.875 12.6236 16.3713 13.1273 15.75 13.1273C15.1287 13.1273 14.625 12.6236 14.625 12.0023Z" fill="#111827"/>
</svg>
