<svg width="24" height="24" viewBox="0 0 24 24" fill="none" xmlns="http://www.w3.org/2000/svg">
<path fill-rule="evenodd" clip-rule="evenodd" d="M1.5 6.75244C1.5 5.09559 2.84315 3.75244 4.5 3.75244H19.5C21.1569 3.75244 22.5 5.09559 22.5 6.75244V17.2524C22.5 18.9093 21.1569 20.2524 19.5 20.2524H4.5C2.84315 20.2524 1.5 18.9093 1.5 17.2524V6.75244ZM3 6.75244V6.99515C3 7.51604 3.27023 7.99964 3.71385 8.27264L11.2139 12.888C11.696 13.1847 12.304 13.1847 12.7861 12.888L20.2861 8.27264C20.7298 7.99964 21 7.51604 21 6.99515V6.75244C21 5.92401 20.3284 5.25244 19.5 5.25244H4.5C3.67157 5.25244 3 5.92401 3 6.75244ZM21 9.59461L13.5723 14.1655C12.6081 14.7589 11.3919 14.7589 10.4277 14.1655L3 9.59461V17.2524C3 18.0809 3.67157 18.7524 4.5 18.7524H19.5C20.3284 18.7524 21 18.0809 21 17.2524V9.59461Z" fill="#111827"/>
</svg>
