<svg width="24" height="24" viewBox="0 0 24 24" fill="none" xmlns="http://www.w3.org/2000/svg">
<path fill-rule="evenodd" clip-rule="evenodd" d="M10.5777 2.16645C11.4656 1.68833 12.5344 1.68833 13.4223 2.16645L20.9223 6.20491C21.894 6.72815 22.5 7.74268 22.5 8.84632V19.5024C22.5 21.1593 21.1569 22.5024 19.5 22.5024H4.5C2.84315 22.5024 1.5 21.1593 1.5 19.5024L1.5 9.90907C1.5 9.90888 1.5 9.90926 1.5 9.90907L1.5 9.00241C1.5 9.00231 1.5 9.00251 1.5 9.00241L1.5 8.84632C1.5 7.74267 2.10597 6.72815 3.0777 6.20491L10.5777 2.16645ZM3 12.5066V19.5024C3 20.3308 3.67157 21.0024 4.5 21.0024H19.5C20.3284 21.0024 21 20.3308 21 19.5024V12.5066C20.9744 12.5214 20.9485 12.5358 20.9223 12.5499L15.6712 15.3774L19.1056 17.2267C19.4703 17.4231 19.6067 17.8779 19.4104 18.2426C19.214 18.6073 18.7591 18.7438 18.3944 18.5474L12.7112 15.4872C12.2672 15.2481 11.7328 15.2481 11.2889 15.4872L5.60557 18.5474C5.24087 18.7438 4.78602 18.6073 4.58965 18.2426C4.39327 17.8779 4.52972 17.4231 4.89442 17.2267L8.32879 15.3774L3.0777 12.5499C3.05153 12.5358 3.02563 12.5214 3 12.5066ZM9.91074 14.5256L10.5777 14.1665C11.4656 13.6884 12.5344 13.6884 13.4223 14.1665L14.0893 14.5256L20.2112 11.2292C20.697 10.9676 21 10.4603 21 9.9085V8.84632C21 8.2945 20.697 7.78724 20.2112 7.52562L12.7112 3.48715C12.2672 3.2481 11.7328 3.2481 11.2889 3.48715L3.78885 7.52562C3.30299 7.78724 3 8.2945 3 8.84632V9.9085C3 9.90837 3 9.90863 3 9.9085C3.00015 10.4602 3.3031 10.9677 3.78885 11.2292L9.91074 14.5256Z" fill="#111827"/>
</svg>
