<svg width="24" height="24" viewBox="0 0 24 24" fill="none" xmlns="http://www.w3.org/2000/svg">
    <path fill-rule="evenodd" clip-rule="evenodd"
          d="M13.299 3.75542C12.7218 2.75487 11.2777 2.75487 10.7005 3.75542L3.34615 16.5029C2.76923 17.5029 3.49095 18.7525 4.64543 18.7525H19.3541C20.5086 18.7525 21.2303 17.5029 20.6534 16.5029L13.299 3.75542ZM9.4012 3.00584C10.5557 1.00473 13.4438 1.00473 14.5983 3.00584L21.9526 15.7533C23.1065 17.7533 21.6631 20.2525 19.3541 20.2525H4.64543C2.33646 20.2525 0.893031 17.7533 2.04688 15.7533L9.4012 3.00584ZM11.9998 8.25251C12.414 8.25251 12.7498 8.58829 12.7498 9.00251V12.7525C12.7498 13.1667 12.414 13.5025 11.9998 13.5025C11.5855 13.5025 11.2498 13.1667 11.2498 12.7525V9.00251C11.2498 8.58829 11.5855 8.25251 11.9998 8.25251ZM11.2498 15.7525C11.2498 15.3383 11.5855 15.0025 11.9998 15.0025H12.0073C12.4215 15.0025 12.7573 15.3383 12.7573 15.7525V15.76C12.7573 16.1742 12.4215 16.51 12.0073 16.51H11.9998C11.5855 16.51 11.2498 16.1742 11.2498 15.76V15.7525Z"
          fill="#111827"/>
</svg>
