<svg width="24" height="24" viewBox="0 0 24 24" fill="none" xmlns="http://www.w3.org/2000/svg">
<path fill-rule="evenodd" clip-rule="evenodd" d="M12 3.75244C7.44365 3.75244 3.75 7.44609 3.75 12.0024C3.75 16.5588 7.44365 20.2524 12 20.2524C16.5563 20.2524 20.25 16.5588 20.25 12.0024C20.25 7.44609 16.5563 3.75244 12 3.75244ZM2.25 12.0024C2.25 6.61767 6.61522 2.25244 12 2.25244C17.3848 2.25244 21.75 6.61767 21.75 12.0024C21.75 17.3872 17.3848 21.7524 12 21.7524C6.61522 21.7524 2.25 17.3872 2.25 12.0024ZM12 8.25244C12.4142 8.25244 12.75 8.58823 12.75 9.00244V12.7524C12.75 13.1667 12.4142 13.5024 12 13.5024C11.5858 13.5024 11.25 13.1667 11.25 12.7524V9.00244C11.25 8.58823 11.5858 8.25244 12 8.25244ZM11.25 15.7524C11.25 15.3382 11.5858 15.0024 12 15.0024H12.0075C12.4217 15.0024 12.7575 15.3382 12.7575 15.7524V15.7599C12.7575 16.1742 12.4217 16.5099 12.0075 16.5099H12C11.5858 16.5099 11.25 16.1742 11.25 15.7599V15.7524Z" fill="#111827"/>
</svg>
