<svg width="24" height="24" viewBox="0 0 24 24" fill="none" xmlns="http://www.w3.org/2000/svg">
    <path fill-rule="evenodd" clip-rule="evenodd"
          d="M20.3409 3.66145C19.4622 2.78277 18.0376 2.78277 17.1589 3.66145C16.8682 3.95214 16.6747 4.3006 16.5763 4.66916L15.9661 6.94654C15.8782 7.27443 15.5811 7.50243 15.2416 7.50243H12.3107L16.5 11.6918V8.76042C16.5 8.42097 16.728 8.12384 17.0559 8.03598L19.3323 7.42602C19.7011 7.32755 20.0503 7.13399 20.3409 6.84343C21.2195 5.96475 21.2195 4.54013 20.3409 3.66145ZM16.0982 2.60079C17.5627 1.13632 19.9371 1.13633 21.4015 2.60079C22.866 4.06526 22.866 6.43962 21.4015 7.90409C20.9192 8.38639 20.3364 8.71047 19.7201 8.87503C19.72 8.87505 19.7201 8.87501 19.7201 8.87503L18 9.33592V12.0024C18 12.2013 17.921 12.3921 17.7803 12.5328L17.0303 13.2828C16.7374 13.5756 16.2626 13.5756 15.9697 13.2828L15 12.3131L7.06066 20.2524C6.58044 20.7327 5.92913 21.0024 5.25 21.0024C4.96869 21.0024 4.69891 21.1142 4.5 21.3131L3.53033 22.2828C3.38968 22.4234 3.19891 22.5024 3 22.5024C2.80109 22.5024 2.61032 22.4234 2.46967 22.2828L1.71967 21.5328C1.57902 21.3921 1.5 21.2014 1.5 21.0024C1.5 20.8035 1.57902 20.6128 1.71967 20.4721L2.68934 19.5024C2.88825 19.3035 3 19.0337 3 18.7524C3 18.0733 3.26978 17.422 3.75 16.9418L11.6893 9.00243L10.7197 8.03276C10.4268 7.73986 10.4268 7.26499 10.7197 6.9721L11.4697 6.2221C11.6103 6.08144 11.8011 6.00243 12 6.00243H14.6661L15.127 4.28221M12.75 10.0631L4.81066 18.0024C4.61175 18.2014 4.5 18.4711 4.5 18.7524C4.5 19.0707 4.44077 19.3828 4.32841 19.674C4.61967 19.5617 4.93178 19.5024 5.25 19.5024C5.5313 19.5024 5.80109 19.3907 6 19.1918L13.9393 11.2524L12.75 10.0631Z"
          fill="#111827"/>
</svg>
