<svg width="24" height="24" viewBox="0 0 24 24" fill="none" xmlns="http://www.w3.org/2000/svg">
<path fill-rule="evenodd" clip-rule="evenodd" d="M2.46967 2.47211C2.76256 2.17922 3.23744 2.17922 3.53033 2.47211L6.33758 5.27936C8.00116 4.30862 9.93655 3.75244 12 3.75244C17.0968 3.75244 21.4002 7.14123 22.7835 11.7869C22.8251 11.9265 22.8251 12.0752 22.7836 12.2148C22.1093 14.4816 20.741 16.4476 18.9259 17.8677L21.5303 20.4721C21.8232 20.765 21.8232 21.2399 21.5303 21.5328C21.2374 21.8257 20.7626 21.8257 20.4697 21.5328L2.46967 3.53277C2.17678 3.23988 2.17678 2.765 2.46967 2.47211ZM17.8561 16.7979C19.4449 15.6022 20.6559 13.9327 21.2795 12.0011C20.0137 8.08422 16.3366 5.25244 12 5.25244C10.3517 5.25244 8.80043 5.66089 7.44021 6.38199L9.93204 8.87382C10.5247 8.48144 11.236 8.25244 12 8.25244C14.0711 8.25244 15.75 9.93137 15.75 12.0024C15.75 12.7664 15.521 13.4777 15.1286 14.0704L17.8561 16.7979ZM14.0309 12.9726C14.1715 12.6789 14.25 12.3501 14.25 12.0024C14.25 10.7598 13.2426 9.75244 12 9.75244C11.6524 9.75244 11.3235 9.83097 11.0298 9.97158L14.0309 12.9726ZM4.46431 7.65241C4.78055 7.91992 4.82005 8.39315 4.55254 8.70939C3.74208 9.66748 3.11361 10.7833 2.71958 12.0038C3.9854 15.9207 7.66249 18.7524 11.9991 18.7524C12.922 18.7524 13.8137 18.6244 14.6582 18.3856C15.0567 18.2729 15.4712 18.5047 15.584 18.9032C15.6967 19.3018 15.4649 19.7163 15.0663 19.829C14.0904 20.105 13.0614 20.2524 11.9991 20.2524C6.90229 20.2524 2.59892 16.8637 1.21555 12.218C1.17398 12.0784 1.17396 11.9297 1.21549 11.7901C1.6637 10.2832 2.4187 8.90934 3.40732 7.74064C3.67484 7.42439 4.14807 7.38489 4.46431 7.65241Z" fill="#111827"/>
</svg>
