<svg width="24" height="24" viewBox="0 0 24 24" fill="none" xmlns="http://www.w3.org/2000/svg">
    <path fill-rule="evenodd" clip-rule="evenodd"
          d="M12.0008 5.25244C7.69339 5.25244 4.03651 8.04618 2.74703 11.9226C2.72924 11.9761 2.72926 12.0342 2.74708 12.0877C4.03816 15.9613 7.69364 18.7524 11.9991 18.7524C16.3065 18.7524 19.9634 15.9587 21.2529 12.0823C21.2707 12.0288 21.2706 11.9707 21.2528 11.9172C19.9617 8.04358 16.3063 5.25244 12.0008 5.25244ZM1.32372 11.4491C2.81097 6.97815 7.02822 3.75244 12.0008 3.75244C16.9711 3.75244 21.1868 6.97516 22.6759 11.4429C22.7962 11.804 22.7963 12.1946 22.6762 12.5557C21.1889 17.0267 16.9717 20.2524 11.9991 20.2524C7.02878 20.2524 2.81314 17.0297 1.32404 12.562C1.2037 12.2009 1.20359 11.8103 1.32372 11.4491ZM12 9.75244C10.7574 9.75244 9.75001 10.7598 9.75001 12.0024C9.75001 13.2451 10.7574 14.2524 12 14.2524C13.2427 14.2524 14.25 13.2451 14.25 12.0024C14.25 10.7598 13.2427 9.75244 12 9.75244ZM8.25001 12.0024C8.25001 9.93137 9.92894 8.25244 12 8.25244C14.0711 8.25244 15.75 9.93137 15.75 12.0024C15.75 14.0735 14.0711 15.7524 12 15.7524C9.92894 15.7524 8.25001 14.0735 8.25001 12.0024Z"
          fill="#111827"/>
</svg>
