<svg width="24" height="24" viewBox="0 0 24 24" fill="none" xmlns="http://www.w3.org/2000/svg">
    <path fill-rule="evenodd" clip-rule="evenodd"
          d="M12 3.75464C7.44365 3.75464 3.75 7.44829 3.75 12.0046C3.75 16.561 7.44365 20.2546 12 20.2546C16.5563 20.2546 20.25 16.561 20.25 12.0046C20.25 7.44829 16.5563 3.75464 12 3.75464ZM2.25 12.0046C2.25 6.61986 6.61522 2.25464 12 2.25464C17.3848 2.25464 21.75 6.61986 21.75 12.0046C21.75 17.3894 17.3848 21.7546 12 21.7546C6.61522 21.7546 2.25 17.3894 2.25 12.0046ZM8.43901 8.8889C8.54674 8.67345 8.83433 8.25464 9.375 8.25464C9.91567 8.25464 10.2033 8.67345 10.311 8.8889C10.4411 9.14921 10.5 9.45634 10.5 9.75464C10.5 10.0529 10.4411 10.3601 10.311 10.6204C10.2033 10.8358 9.91567 11.2546 9.375 11.2546C8.83433 11.2546 8.54674 10.8358 8.43901 10.6204C8.30886 10.3601 8.25 10.0529 8.25 9.75464C8.25 9.45634 8.30886 9.14921 8.43901 8.8889ZM13.689 8.8889C13.7967 8.67345 14.0843 8.25464 14.625 8.25464C15.1657 8.25464 15.4533 8.67345 15.561 8.8889C15.6911 9.14921 15.75 9.45634 15.75 9.75464C15.75 10.0529 15.6911 10.3601 15.561 10.6204C15.4533 10.8358 15.1657 11.2546 14.625 11.2546C14.0843 11.2546 13.7967 10.8358 13.689 10.6204C13.5589 10.3601 13.5 10.0529 13.5 9.75464C13.5 9.45634 13.5589 9.14921 13.689 8.8889ZM8.28769 14.6563C8.58058 14.3634 9.05546 14.3634 9.34835 14.6563C10.8128 16.1208 13.1872 16.1208 14.6517 14.6563C14.9445 14.3634 15.4194 14.3634 15.7123 14.6563C16.0052 14.9492 16.0052 15.4241 15.7123 15.7169C13.6621 17.7672 10.3379 17.7672 8.28769 15.7169C7.9948 15.4241 7.9948 14.9492 8.28769 14.6563Z"
          fill="#111827"/>
</svg>
