<svg width="24" height="24" viewBox="0 0 24 24" fill="none" xmlns="http://www.w3.org/2000/svg">
<path fill-rule="evenodd" clip-rule="evenodd" d="M12 3.75464C10.6232 3.75464 9.3447 4.16607 8.27806 4.87252C7.93272 5.10125 7.46736 5.00671 7.23863 4.66138C7.00991 4.31604 7.10444 3.85067 7.44978 3.62194C8.75444 2.75784 10.3196 2.25464 12 2.25464C16.5564 2.25464 20.25 5.94829 20.25 10.5046C20.25 13.5199 19.6759 16.4029 18.6299 19.0489C18.4776 19.4341 18.0419 19.6229 17.6567 19.4706C17.2715 19.3183 17.0827 18.8826 17.2349 18.4974C18.2127 16.0242 18.75 13.3282 18.75 10.5046C18.75 6.77672 15.7279 3.75464 12 3.75464ZM6.15674 5.74326C6.50208 5.97199 6.59661 6.43736 6.36789 6.7827C5.66143 7.84933 5.25001 9.1278 5.25001 10.5046C5.25001 12.1178 4.78656 13.6251 3.98462 14.8976C3.76378 15.248 3.30068 15.3531 2.95024 15.1323C2.59981 14.9114 2.49475 14.4483 2.71559 14.0979C3.37095 13.0579 3.75001 11.8268 3.75001 10.5046C3.75001 8.82423 4.25321 7.25907 5.11731 5.95441C5.34604 5.60907 5.81141 5.51454 6.15674 5.74326ZM12 7.50464C10.3432 7.50464 9.00001 8.84778 9.00001 10.5046C9.00001 13.6044 7.82404 16.4312 5.89465 18.5603C5.6165 18.8672 5.1422 18.8905 4.83527 18.6124C4.52834 18.3342 4.505 17.8599 4.78315 17.553C6.47221 15.6892 7.50001 13.2179 7.50001 10.5046C7.50001 8.01936 9.51473 6.00464 12 6.00464C14.4853 6.00464 16.5 8.01936 16.5 10.5046C16.5 11.0519 16.4778 11.5943 16.4334 12.131C16.3993 12.5438 16.037 12.8508 15.6242 12.8167C15.2114 12.7826 14.9044 12.4203 14.9385 12.0075C14.9794 11.5124 15 11.0112 15 10.5046C15 8.84778 13.6569 7.50464 12 7.50464ZM12.0003 9.75464C12.4145 9.75464 12.7503 10.0904 12.7503 10.5046C12.7503 14.4128 11.3259 17.9902 8.96887 20.743C8.69948 21.0577 8.22602 21.0944 7.91138 20.825C7.59674 20.5556 7.56007 20.0821 7.82946 19.7675C9.9626 17.2761 11.2503 14.0417 11.2503 10.5046C11.2503 10.0904 11.5861 9.75464 12.0003 9.75464ZM15.2387 14.9377C15.6371 15.0513 15.8678 15.4664 15.7542 15.8647C15.1843 17.8623 14.3041 19.7286 13.1694 21.4081C12.9375 21.7513 12.4713 21.8416 12.128 21.6097C11.7848 21.3778 11.6946 20.9116 11.9264 20.5684C12.974 19.0178 13.7861 17.2957 14.3118 15.4532C14.4254 15.0549 14.8404 14.8241 15.2387 14.9377Z" fill="#111827"/>
</svg>
