<svg width="24" height="24" viewBox="0 0 24 24" fill="none" xmlns="http://www.w3.org/2000/svg">
<path fill-rule="evenodd" clip-rule="evenodd" d="M12.4565 1.99474C12.6586 2.02039 12.8416 2.12713 12.9633 2.29043C13.6547 3.21748 14.5706 3.9972 15.6798 4.53869C18.8143 5.94462 21 9.09339 21 12.7543C21 17.7249 16.9706 21.7543 12 21.7543C7.02944 21.7543 3 17.7249 3 12.7543C3 10.3415 3.95047 8.14905 5.49587 6.53364C5.65017 6.37235 5.8683 6.28817 6.09095 6.30398C6.3136 6.3198 6.51764 6.43396 6.6476 6.61545C7.12 7.27516 7.69665 7.85505 8.35322 8.33101C8.7174 5.8424 10.0218 3.65926 11.8919 2.15445C12.0506 2.02675 12.2545 1.96909 12.4565 1.99474ZM12.2745 3.8146C10.7477 5.28659 9.78813 7.33987 9.75111 9.61747C9.7469 9.87637 9.60945 10.1148 9.3875 10.2482C9.16556 10.3815 8.89052 10.391 8.65994 10.2731C7.65543 9.75985 6.7605 9.06367 6.0188 8.22855C5.06515 9.48666 4.5 11.0539 4.5 12.7543C4.5 16.8964 7.85786 20.2543 12 20.2543C16.1421 20.2543 19.5 16.8964 19.5 12.7543C19.5 9.70191 17.6765 7.0738 15.0562 5.903C15.0488 5.8997 15.0415 5.89627 15.0342 5.89273C13.9575 5.36914 13.0303 4.65697 12.2745 3.8146ZM11.9941 9.97877C12.1571 9.83255 12.3758 9.76486 12.5929 9.79349C14.7983 10.0842 16.5 11.9701 16.5 14.2547C16.5 16.74 14.4853 18.7547 12 18.7547C9.51472 18.7547 7.5 16.74 7.5 14.2547C7.5 13.7648 7.57856 13.2917 7.72434 12.8483C7.79952 12.6197 7.97989 12.441 8.20925 12.3679C8.43862 12.2949 8.6891 12.3364 8.88267 12.4795C9.23078 12.7368 9.61154 12.952 10.0175 13.1177C10.3742 11.8904 11.0695 10.8082 11.9941 9.97877ZM12.7355 11.3453C11.9924 12.1095 11.4811 13.0978 11.3116 14.1975C11.2795 14.4053 11.1618 14.5901 10.987 14.7069C10.8122 14.8237 10.5964 14.8618 10.3922 14.8118C9.90528 14.6928 9.4392 14.5211 9.00038 14.3031C9.02622 15.9376 10.3593 17.2547 12 17.2547C13.6569 17.2547 15 15.9115 15 14.2547C15 12.8518 14.0365 11.673 12.7355 11.3453Z" fill="#111827"/>
</svg>
