<svg width="24" height="24" viewBox="0 0 24 24" fill="none" xmlns="http://www.w3.org/2000/svg">
<path fill-rule="evenodd" clip-rule="evenodd" d="M3 2.25464C3.41421 2.25464 3.75 2.59043 3.75 3.00464V3.54406L5.58819 3.08451C7.84613 2.52002 10.2315 2.78187 12.3132 3.82273L12.421 3.87659C14.1472 4.73971 16.1214 4.9703 18.0001 4.52826L21.1096 3.79659C21.3465 3.74085 21.5958 3.80352 21.7781 3.96469C21.9605 4.12585 22.0533 4.36547 22.0271 4.60742C21.844 6.29777 21.75 8.01509 21.75 9.75464C21.75 11.5087 21.8455 13.2401 22.0317 14.9441C22.0728 15.3207 21.8266 15.6689 21.4579 15.7556L18.3436 16.4884C16.1234 17.0108 13.7902 16.7383 11.7501 15.7182L11.6424 15.6644C9.88097 14.7836 7.86256 14.5621 5.95199 15.0397L3.75 15.5902V21.0046C3.75 21.4189 3.41421 21.7546 3 21.7546C2.58579 21.7546 2.25 21.4189 2.25 21.0046V3.00464C2.25 2.59043 2.58579 2.25464 3 2.25464ZM3.75 14.0441L5.58819 13.5845C7.84613 13.02 10.2315 13.2819 12.3132 14.3227L12.421 14.3766C14.1472 15.2397 16.1214 15.4703 18.0001 15.0283L20.4729 14.4464C20.3254 12.9022 20.25 11.3371 20.25 9.75464C20.25 8.32016 20.312 6.89999 20.4334 5.49667L18.3436 5.98839C16.1234 6.5108 13.7902 6.23828 11.7501 5.21824L11.6424 5.16438C9.88097 4.28365 7.86256 4.06208 5.95199 4.53972L3.75 5.09022V14.0441Z" fill="#111827"/>
</svg>
