<svg width="24" height="24" viewBox="0 0 24 24" fill="none" xmlns="http://www.w3.org/2000/svg">
    <path fill-rule="evenodd" clip-rule="evenodd"
          d="M6 4.50464C5.17158 4.50464 4.5 5.17621 4.5 6.00464V9.00464H19.5C19.5 8.17621 18.8284 7.50464 18 7.50464H14.1213C13.5246 7.50464 12.9523 7.26759 12.5303 6.84563L10.409 4.72431C10.2684 4.58366 10.0776 4.50464 9.87868 4.50464H6ZM21 9.2102V9.00464C21 7.34778 19.6569 6.00464 18 6.00464H14.1213C13.9224 6.00464 13.7316 5.92562 13.591 5.78497L11.4697 3.66365C11.0477 3.24169 10.4754 3.00464 9.87868 3.00464H6C4.34315 3.00464 3 4.34778 3 6.00464V9.2102C1.74758 9.70074 0.921016 11.005 1.12443 12.4289L1.98157 18.4289C2.1927 19.9068 3.45847 21.0046 4.95142 21.0046H19.0486C20.5415 21.0046 21.8073 19.9069 22.0184 18.4289L22.8756 12.4289C23.079 11.005 22.2524 9.70074 21 9.2102ZM4.09427 10.5046C4.01499 10.5046 3.93791 10.5106 3.8633 10.5221C3.06698 10.6437 2.49146 11.3916 2.60935 12.2168L3.46649 18.2168C3.57206 18.9557 4.20494 19.5046 4.95142 19.5046H19.0486C19.7951 19.5046 20.4279 18.9557 20.5335 18.2168L21.3907 12.2168C21.5085 11.3916 20.933 10.6437 20.1367 10.5221C20.0621 10.5106 19.985 10.5046 19.9057 10.5046H4.09427Z"
          fill="#111827"/>
</svg>
