<svg width="24" height="24" viewBox="0 0 24 24" fill="none" xmlns="http://www.w3.org/2000/svg">
<path fill-rule="evenodd" clip-rule="evenodd" d="M4.5 4.50464C3.67157 4.50464 3 5.17621 3 6.00464V18.0046C3 18.8331 3.67157 19.5046 4.5 19.5046H19.5C20.3284 19.5046 21 18.8331 21 18.0046V9.00464C21 8.17621 20.3284 7.50464 19.5 7.50464H14.1213C13.5246 7.50464 12.9523 7.26759 12.5303 6.84563L10.409 4.72431C10.2684 4.58366 10.0776 4.50464 9.87868 4.50464H4.5ZM1.5 6.00464C1.5 4.34778 2.84315 3.00464 4.5 3.00464H9.87868C10.4754 3.00464 11.0477 3.24169 11.4697 3.66365L13.591 5.78497C13.7316 5.92562 13.9224 6.00464 14.1213 6.00464H19.5C21.1569 6.00464 22.5 7.34778 22.5 9.00464V18.0046C22.5 19.6615 21.1569 21.0046 19.5 21.0046H4.5C2.84315 21.0046 1.5 19.6615 1.5 18.0046V6.00464ZM11.25 10.5046C11.25 10.0904 11.5858 9.75464 12 9.75464C12.4142 9.75464 12.75 10.0904 12.75 10.5046L12.75 14.694L14.4697 12.9743C14.7626 12.6814 15.2374 12.6814 15.5303 12.9743C15.8232 13.2672 15.8232 13.7421 15.5303 14.035L12.5303 17.035C12.3897 17.1756 12.1989 17.2546 12 17.2546C11.8011 17.2546 11.6103 17.1756 11.4697 17.035L8.46967 14.035C8.17678 13.7421 8.17678 13.2672 8.46967 12.9743C8.76256 12.6814 9.23744 12.6814 9.53033 12.9743L11.25 14.694L11.25 10.5046Z" fill="#111827"/>
</svg>
