<svg width="24" height="24" viewBox="0 0 24 24" fill="none" xmlns="http://www.w3.org/2000/svg">
<path fill-rule="evenodd" clip-rule="evenodd" d="M12 8.6932C12 7.25353 13.5553 6.35097 14.8053 7.06524L21.9128 11.1267C23.1724 11.8465 23.1724 13.6628 21.9128 14.3826L14.8053 18.444C13.5553 19.1583 12 18.2557 12 16.816V14.4756L5.05526 18.444C3.80528 19.1583 2.25 18.2557 2.25 16.816V8.6932C2.25 7.25353 3.80528 6.35097 5.05526 7.06524L12 11.0337V8.6932ZM14.0611 8.36761C13.8111 8.22475 13.5 8.40527 13.5 8.6932V16.816C13.5 17.104 13.8111 17.2845 14.0611 17.1416L21.1685 13.0802C21.4205 12.9363 21.4205 12.573 21.1685 12.429L14.0611 8.36761ZM4.31105 8.36761C4.06106 8.22475 3.75 8.40527 3.75 8.6932V16.816C3.75 17.104 4.06106 17.2845 4.31105 17.1416L11.4185 13.0802C11.6705 12.9363 11.6705 12.573 11.4185 12.429L4.31105 8.36761Z" fill="#111827"/>
</svg>
