<svg width="24" height="24" viewBox="0 0 24 24" fill="none" xmlns="http://www.w3.org/2000/svg">
<path fill-rule="evenodd" clip-rule="evenodd" d="M3.79154 2.94288C6.46066 2.49026 9.20314 2.25464 12.0001 2.25464C14.7969 2.25464 17.5394 2.49025 20.2085 2.94286C21.1108 3.09588 21.75 3.8814 21.75 4.77866V5.82266C21.75 6.61831 21.4339 7.38137 20.8713 7.94398L15.4393 13.376C15.158 13.6573 15 14.0388 15 14.4366V17.3641C15 18.5004 14.358 19.5392 13.3416 20.0473L10.0854 21.6755C9.85292 21.7917 9.57681 21.7793 9.3557 21.6426C9.13459 21.506 9 21.2646 9 21.0046V14.4366C9 14.0388 8.84197 13.6573 8.56066 13.376L3.12868 7.94398C2.56607 7.38137 2.25 6.61831 2.25 5.82266V4.77868C2.25 3.88142 2.88917 3.09591 3.79154 2.94288ZM12.0001 3.75464C9.28752 3.75464 6.62893 3.98314 4.04233 4.42177C3.87899 4.44947 3.75 4.595 3.75 4.77868V5.82266C3.75 6.22048 3.90804 6.60201 4.18934 6.88332L9.62132 12.3153C10.1839 12.8779 10.5 13.641 10.5 14.4366V19.7911L12.6708 18.7057C13.179 18.4516 13.5 17.9322 13.5 17.3641V14.4366C13.5 13.641 13.8161 12.8779 14.3787 12.3153L19.8107 6.88332C20.092 6.60201 20.25 6.22048 20.25 5.82266V4.77866C20.25 4.59498 20.121 4.44945 19.9577 4.42175C17.3711 3.98313 14.7126 3.75464 12.0001 3.75464Z" fill="#111827"/>
</svg>
