<svg width="24" height="24" viewBox="0 0 24 24" fill="none" xmlns="http://www.w3.org/2000/svg">
<path fill-rule="evenodd" clip-rule="evenodd" d="M9.375 3.00464C8.33947 3.00464 7.5 3.8441 7.5 4.87964C7.5 5.91517 8.33947 6.75464 9.375 6.75464H11.25V4.87964C11.25 3.8441 10.4105 3.00464 9.375 3.00464ZM12 2.75814C11.3813 1.99351 10.4352 1.50464 9.375 1.50464C7.51104 1.50464 6 3.01568 6 4.87964C6 5.57344 6.20935 6.21835 6.56833 6.75464H3.375C2.33947 6.75464 1.5 7.5941 1.5 8.62964V10.1296C1.5 11.0367 2.14416 11.7934 3 11.9671V19.5046C3 20.7473 4.00736 21.7546 5.25 21.7546H19.5C20.7426 21.7546 21.75 20.7473 21.75 19.5046V11.9671C22.6058 11.7934 23.25 11.0367 23.25 10.1296V8.62964C23.25 7.5941 22.4105 6.75464 21.375 6.75464H17.4317C17.7906 6.21835 18 5.57344 18 4.87964C18 3.01568 16.489 1.50464 14.625 1.50464C13.5648 1.50464 12.6187 1.99351 12 2.75814ZM12.75 8.25464V10.5046H21.375C21.5821 10.5046 21.75 10.3367 21.75 10.1296V8.62964C21.75 8.42253 21.5821 8.25464 21.375 8.25464H12.75ZM20.25 12.0046H12.75V20.2546H19.5C19.9142 20.2546 20.25 19.9189 20.25 19.5046V12.0046ZM11.25 20.2546V12.0046H4.5V19.5046C4.5 19.9189 4.83579 20.2546 5.25 20.2546H11.25ZM11.25 10.5046V8.25464H3.375C3.16789 8.25464 3 8.42253 3 8.62964V10.1296C3 10.3367 3.16789 10.5046 3.375 10.5046H11.25ZM12.75 6.75464H14.625C15.6605 6.75464 16.5 5.91517 16.5 4.87964C16.5 3.8441 15.6605 3.00464 14.625 3.00464C13.5895 3.00464 12.75 3.8441 12.75 4.87964V6.75464Z" fill="#111827"/>
</svg>
