<svg width="24" height="24" viewBox="0 0 24 24" fill="none" xmlns="http://www.w3.org/2000/svg">
    <path fill-rule="evenodd" clip-rule="evenodd"
          d="M1.5 5.25464C1.5 4.012 2.50736 3.00464 3.75 3.00464H20.25C21.4926 3.00464 22.5 4.012 22.5 5.25464V18.7546C22.5 19.9973 21.4926 21.0046 20.25 21.0046H3.75C2.50736 21.0046 1.5 19.9973 1.5 18.7546V5.25464ZM3 12.7546V18.7546C3 19.1689 3.33579 19.5046 3.75 19.5046H11.25V15.1878C10.278 16.8715 8.45885 18.0046 6.375 18.0046C5.96079 18.0046 5.625 17.6689 5.625 17.2546C5.625 16.8404 5.96079 16.5046 6.375 16.5046C8.52677 16.5046 10.2937 14.8571 10.4832 12.7546H3ZM12.75 15.1878V19.5046H20.25C20.6642 19.5046 21 19.1689 21 18.7546V12.7546H13.5168C13.7063 14.8571 15.4732 16.5046 17.625 16.5046C18.0392 16.5046 18.375 16.8404 18.375 17.2546C18.375 17.6689 18.0392 18.0046 17.625 18.0046C15.5412 18.0046 13.722 16.8715 12.75 15.1878ZM16.9889 11.2546H21V5.25464C21 4.84043 20.6642 4.50464 20.25 4.50464H12.75V7.01565C13.927 5.93221 15.7599 5.96133 16.9016 7.10302C18.0433 8.24472 18.0724 10.0777 16.9889 11.2546ZM11.25 7.05103V4.50464H3.75C3.33579 4.50464 3 4.84043 3 5.25464V11.2546H6.9733C5.88985 10.0777 5.91897 8.24473 7.06066 7.10304C8.21463 5.94908 10.0748 5.93174 11.25 7.05103ZM12.8408 11.1639C13.0714 11.1658 13.3486 11.1578 13.6464 11.1278C14.4793 11.044 15.3232 10.8027 15.8409 10.285C16.4267 9.69921 16.4267 8.74946 15.8409 8.16368C15.2551 7.57789 14.3054 7.57789 13.7196 8.16368C13.2019 8.68138 12.9606 9.52528 12.8768 10.3582C12.8468 10.656 12.8389 10.9332 12.8408 11.1639ZM11.1215 11.1639C11.1234 10.9332 11.1154 10.656 11.0855 10.3582C11.0016 9.52531 10.7603 8.6814 10.2426 8.16371C9.65685 7.57792 8.70711 7.57792 8.12132 8.16371C7.53553 8.74949 7.53553 9.69924 8.12132 10.285C8.63902 10.8027 9.48292 11.044 10.3158 11.1278C10.6136 11.1578 10.8908 11.1658 11.1215 11.1639Z"
          fill="#111827"/>
</svg>
