<svg width="24" height="24" viewBox="0 0 24 24" fill="none" xmlns="http://www.w3.org/2000/svg">
<path fill-rule="evenodd" clip-rule="evenodd" d="M5.1392 7.42121C5.73654 7.88158 6.38132 8.28319 7.06498 8.61748C7.30482 7.37684 7.67417 6.25132 8.1472 5.30527C8.29118 5.0173 8.44837 4.73974 8.61825 4.47726C7.20101 5.1149 5.99608 6.1412 5.1392 7.42121ZM12 2.25464C8.3534 2.25464 5.17543 4.2569 3.50379 7.21842C2.70535 8.63296 2.25 10.2668 2.25 12.0046C2.25 12.8463 2.35682 13.6641 2.55803 14.4448C3.64146 18.6482 7.45701 21.7546 12 21.7546C16.543 21.7546 20.3585 18.6482 21.442 14.4448C21.6432 13.6641 21.75 12.8463 21.75 12.0046C21.75 10.2668 21.2947 8.63296 20.4962 7.21842C18.8246 4.2569 15.6466 2.25464 12 2.25464ZM12 3.75464C11.1945 3.75464 10.2633 4.42714 9.48884 5.97609C9.0479 6.85797 8.69814 7.95516 8.48423 9.19457C9.5902 9.55806 10.772 9.75464 12 9.75464C13.228 9.75464 14.4098 9.55806 15.5158 9.19457C15.3019 7.95516 14.9521 6.85797 14.5112 5.97609C13.7367 4.42714 12.8055 3.75464 12 3.75464ZM16.935 8.61748C16.6952 7.37684 16.3258 6.25132 15.8528 5.30527C15.7088 5.0173 15.5516 4.73974 15.3817 4.47726C16.799 5.1149 18.0039 6.14119 18.8608 7.42121C18.2635 7.88157 17.6187 8.28319 16.935 8.61748ZM15.7017 10.7088C14.53 11.0637 13.2872 11.2546 12 11.2546C10.7128 11.2546 9.46996 11.0637 8.29832 10.7088C8.26657 11.1302 8.25 11.563 8.25 12.0046C8.25 13.2282 8.37714 14.3828 8.60185 15.4202C9.70027 15.6395 10.8365 15.7546 12 15.7546C13.1635 15.7546 14.2997 15.6395 15.3981 15.4202C15.6229 14.3828 15.75 13.2282 15.75 12.0046C15.75 11.563 15.7334 11.1302 15.7017 10.7088ZM17.0027 15.0183C17.1639 14.0663 17.25 13.0526 17.25 12.0046C17.25 11.3779 17.2192 10.7635 17.16 10.1671C18.023 9.78474 18.8356 9.30943 19.5851 8.75394C20.0129 9.75085 20.25 10.8494 20.25 12.0046C20.25 12.607 20.1856 13.1936 20.0634 13.7581C19.0944 14.2715 18.0705 14.6952 17.0027 15.0183ZM14.9409 17.0252C13.9826 17.1762 13.0004 17.2546 12 17.2546C10.9996 17.2546 10.0174 17.1762 9.0591 17.0252C9.18976 17.3858 9.33365 17.7228 9.48884 18.0332C10.2633 19.5821 11.1945 20.2546 12 20.2546C12.8055 20.2546 13.7367 19.5821 14.5112 18.0332C14.6664 17.7228 14.8102 17.3858 14.9409 17.0252ZM15.3819 19.5318C15.5517 19.2694 15.7089 18.9919 15.8528 18.704C16.1562 18.0971 16.417 17.4164 16.6283 16.6789C17.5649 16.4411 18.4735 16.1327 19.348 15.7599C18.4955 17.4247 17.0936 18.7616 15.3819 19.5318ZM8.61812 19.5318C8.44828 19.2694 8.29114 18.9919 8.1472 18.704C7.84377 18.0971 7.583 17.4164 7.37171 16.6789C6.4351 16.4411 5.52652 16.1327 4.65199 15.7599C5.50454 17.4247 6.9064 18.7616 8.61812 19.5318ZM3.93656 13.7581C4.90563 14.2715 5.92951 14.6952 6.99729 15.0183C6.83612 14.0663 6.75 13.0526 6.75 12.0046C6.75 11.3779 6.7808 10.7635 6.84003 10.1671C5.97701 9.78474 5.16437 9.30943 4.41491 8.75394C3.98705 9.75085 3.75 10.8494 3.75 12.0046C3.75 12.607 3.81444 13.1936 3.93656 13.7581Z" fill="#111827"/>
</svg>
