<svg width="24" height="24" viewBox="0 0 24 24" fill="none" xmlns="http://www.w3.org/2000/svg">
    <path fill-rule="evenodd" clip-rule="evenodd"
          d="M6.92606 5.49892L7.17369 6.98471C7.35358 8.06404 7.86622 9.0602 8.63995 9.83393L10.2803 11.4743C10.5086 11.7026 10.5652 12.0513 10.4208 12.34L10.0334 13.1148C9.96126 13.2592 9.98956 13.4335 10.1037 13.5477L11.4508 14.8948C11.8025 15.2464 12 15.7233 12 16.2206V17.3094C12 17.4514 12.0803 17.5812 12.2073 17.6448L11.8719 18.3156L12.2073 17.6448L12.3602 17.7212C12.5045 17.7934 12.6789 17.7651 12.793 17.6509L13.5157 16.9283C14.5346 15.9094 15.2574 14.6328 15.6068 13.2349C15.6383 13.1093 15.595 12.9767 15.4955 12.8938L14.1662 11.7861C14.0823 11.7162 13.9721 11.6863 13.8644 11.7042L12.6944 11.8993C12.0971 11.9988 11.4885 11.8038 11.0603 11.3756L10.7652 11.0805C10.0329 10.3482 10.0329 9.16105 10.7652 8.42881L10.8963 8.29767C11.467 7.72699 12.3388 7.58552 13.0607 7.94644L13.6646 8.24841C13.6728 8.25251 13.6818 8.25464 13.691 8.25464C13.707 8.25464 13.7149 8.2511 13.7199 8.24822C13.7266 8.24435 13.7346 8.23732 13.7412 8.22665C13.7478 8.21598 13.7505 8.20568 13.751 8.19796C13.7513 8.19222 13.7509 8.18355 13.7438 8.16923L14.4146 7.83382L13.7438 8.16923L13.5792 7.84005C13.41 7.50174 13.5193 7.09041 13.834 6.8806L15.0896 6.04349C15.5372 5.74513 15.9142 5.35476 16.1963 4.89991C14.9672 4.17223 13.5332 3.75464 12 3.75464C10.086 3.75464 8.32572 4.40557 6.92606 5.49892ZM17.4144 5.77975C17.0262 6.37843 16.5188 6.89349 15.9217 7.29156L15.1937 7.77689C15.4671 8.74128 14.7474 9.75464 13.691 9.75464C13.449 9.75464 13.2102 9.69829 12.9938 9.59005L12.3898 9.28808C12.2455 9.2159 12.0711 9.24419 11.957 9.35833L11.8258 9.48947C11.6794 9.63592 11.6794 9.87336 11.8258 10.0198L12.121 10.3149C12.2066 10.4006 12.3283 10.4396 12.4478 10.4197L13.6178 10.2247C14.1563 10.1349 14.7071 10.2843 15.1264 10.6337L16.4558 11.7415C16.9975 12.1929 17.2331 12.9146 17.0621 13.5987C16.6467 15.2604 15.7875 16.7778 14.5764 17.9889L13.8537 18.7116C13.283 19.2823 12.4112 19.4238 11.6893 19.0628L11.5365 18.9864C10.9013 18.6688 10.5 18.0195 10.5 17.3094V16.2206C10.5 16.1212 10.4605 16.0258 10.3902 15.9555L9.04303 14.6083C8.47235 14.0377 8.33088 13.1658 8.6918 12.444L8.83743 12.1527L7.57929 10.8946C6.58449 9.89979 5.92539 8.61902 5.6941 7.23131L5.61819 6.77586C4.45014 8.19958 3.75 10.0201 3.75 12.0046C3.75 16.561 7.44365 20.2546 12 20.2546C16.5563 20.2546 20.25 16.561 20.25 12.0046C20.25 9.52078 19.1529 7.2931 17.4144 5.77975ZM5.62442 4.62783C7.33337 3.14962 9.56311 2.25464 12 2.25464C14.0883 2.25464 16.0253 2.91203 17.6125 4.0311C20.1137 5.79467 21.75 8.70853 21.75 12.0046C21.75 17.3894 17.3848 21.7546 12 21.7546C6.61522 21.7546 2.25 17.3894 2.25 12.0046C2.25 9.05716 3.55882 6.41453 5.62442 4.62783Z"
          fill="#111827"/>
</svg>
