<svg width="24" height="24" viewBox="0 0 24 24" fill="none" xmlns="http://www.w3.org/2000/svg">
<path fill-rule="evenodd" clip-rule="evenodd" d="M12 3.75464C7.44365 3.75464 3.75 7.44829 3.75 12.0046C3.75 12.9444 3.90684 13.8464 4.1955 14.6866L4.51512 14.0473C5.13847 12.8007 6.85587 12.6458 7.69217 13.7609L8.37142 14.6665C8.43108 14.7461 8.53909 14.7716 8.62802 14.7271C8.72373 14.6792 8.76678 14.566 8.72704 14.4667L8.30364 13.4082C8.15878 13.046 8.3157 12.6333 8.66459 12.4588L11.2926 11.1448C11.4849 11.0487 11.5494 10.8058 11.4302 10.627C10.7508 9.60796 11.2264 8.22194 12.3882 7.83466L12.5305 7.78725C12.8469 7.68177 13.1192 7.47382 13.3042 7.19628L13.8152 6.42974L14.4393 6.84576L13.8152 6.42974C13.9215 6.27028 13.8905 6.05633 13.7433 5.93364L12.6747 5.04313C12.2863 4.71949 12.0467 4.25432 12.0062 3.75464C12.0041 3.75464 12.0021 3.75464 12 3.75464ZM13.6758 3.92482L14.7035 4.78131L14.2587 5.31511L14.7035 4.78131C15.4397 5.39474 15.5948 6.4645 15.0633 7.26179L14.5738 6.93549L15.0633 7.26179L14.5523 8.02833C14.1822 8.58341 13.6377 8.99931 13.0048 9.21028L12.8626 9.25769C12.639 9.3322 12.5475 9.59886 12.6782 9.79491C13.2979 10.7245 12.9627 11.9868 11.9635 12.4864L9.95265 13.4918L10.1198 13.9096C10.4492 14.7333 10.0923 15.672 9.29884 16.0687L9.01135 15.4938L9.29884 16.0687C8.56151 16.4374 7.66603 16.226 7.17142 15.5665L6.49217 14.6609L7.09217 14.2109L6.49217 14.6609C6.32491 14.4379 5.98143 14.4688 5.85676 14.7182L5.17082 16.09C5.12316 16.1854 5.05639 16.2682 4.97591 16.3343C6.42992 18.688 9.03261 20.2546 12 20.2546C12.397 20.2546 12.7871 20.2267 13.1685 20.1726C12.9641 19.7674 12.5465 19.5046 12.0828 19.5046C11.2356 19.5046 10.5126 18.8921 10.3733 18.0564L10.3003 17.6187C10.1436 16.678 10.7178 15.7695 11.6347 15.5076L12.6235 15.2251C12.8486 15.1608 13.0363 15.0049 13.141 14.7955L13.1775 14.7225C13.5507 13.9761 14.3136 13.5046 15.1481 13.5046C15.7324 13.5046 16.2928 13.7368 16.7059 14.1499L16.8107 14.2546H17.1283C18.0792 14.2546 18.9516 14.7028 19.5085 15.4283C19.9847 14.3858 20.25 13.2268 20.25 12.0046C20.25 8.02257 17.4283 4.69889 13.6758 3.92482ZM18.6067 16.9465L18.5513 16.7803C18.3471 16.1678 17.7739 15.7546 17.1283 15.7546H16.5C16.3011 15.7546 16.1103 15.6756 15.9697 15.535L15.6453 15.2106C15.5134 15.0787 15.3346 15.0046 15.1481 15.0046C14.8818 15.0046 14.6383 15.1551 14.5192 15.3933L14.4827 15.4663C14.1899 16.0518 13.6649 16.4875 13.0355 16.6674L12.0468 16.9499C11.8634 17.0022 11.7486 17.1839 11.7799 17.3721L11.8529 17.8098C11.8716 17.9223 11.9689 18.0046 12.0828 18.0046C13.2377 18.0046 14.2646 18.7346 14.6458 19.8214C16.2397 19.2821 17.6165 18.2681 18.6067 16.9465ZM2.25 12.0046C2.25 6.61986 6.61522 2.25464 12 2.25464C12.2732 2.25464 12.5439 2.26589 12.8117 2.28798C17.8171 2.70092 21.75 6.8931 21.75 12.0046C21.75 14.0394 21.1259 15.9307 20.0585 17.4946C18.7274 19.445 16.7056 20.8883 14.3424 21.4712C13.5913 21.6565 12.8066 21.7546 12 21.7546C8.12905 21.7546 4.78645 19.4988 3.21243 16.2333C2.59542 14.9532 2.25 13.5182 2.25 12.0046ZM15.7498 8.25464C16.164 8.25464 16.4998 8.59043 16.4998 9.00464C16.4998 10.1248 16.0077 11.1309 15.2304 11.8169C14.9199 12.091 14.4459 12.0615 14.1718 11.7509C13.8977 11.4404 13.9273 10.9664 14.2378 10.6923C14.7062 10.279 14.9998 9.67655 14.9998 9.00464C14.9998 8.59043 15.3355 8.25464 15.7498 8.25464Z" fill="#111827"/>
</svg>
