<svg width="24" height="24" viewBox="0 0 24 24" fill="none" xmlns="http://www.w3.org/2000/svg">
<path fill-rule="evenodd" clip-rule="evenodd" d="M9.58465 4.11363C9.51716 4.30843 9.42947 4.49659 9.32248 4.67491L7.91058 7.02808C7.85622 7.11867 7.8905 7.23636 7.98499 7.28361C8.0536 7.31791 8.1392 7.30478 8.19536 7.24861C8.51077 6.9332 8.93962 6.75464 9.38709 6.75464H9.56802C9.96584 6.75464 10.3474 6.5966 10.6287 6.3153L11.159 6.84563L10.6287 6.3153L10.7197 6.22431C10.9479 5.99604 11.2967 5.93945 11.5854 6.08382L12.2503 6.41627C13.0573 6.81978 13.4625 7.74086 13.2146 8.60842L13.0062 9.33812C12.7378 10.2773 11.7934 10.8532 10.8356 10.6616L9.65774 10.426C9.03613 10.3017 8.40348 10.5816 8.07733 11.1252L7.98791 11.2742C7.89109 11.4356 7.8255 11.6137 7.79456 11.7993L7.78752 11.8416C7.67164 12.5369 8.05554 13.2191 8.71003 13.4809L9.36417 13.7425C10.5031 14.1981 11.25 15.3012 11.25 16.528V17.6995C11.25 17.868 11.3866 18.0046 11.5552 18.0046C12.033 18.0046 12.4758 17.7539 12.7216 17.3442L14.0362 15.1532C14.1761 14.92 14.25 14.6533 14.25 14.3814V13.9706C14.25 13.4733 14.4475 12.9964 14.7992 12.6448L15.3295 13.1751L14.7992 12.6448L14.9993 12.4447C15.1667 12.2773 15.1391 11.9987 14.9422 11.8675L14.3554 11.4763C13.779 11.092 13.5064 10.3868 13.6744 9.71473C13.8992 8.81563 14.824 8.28148 15.7151 8.53609L16.988 8.89977C17.015 8.90748 17.044 8.89995 17.0639 8.88011C17.6255 8.31849 18.5723 8.47214 18.9275 9.18253L18.2567 9.51794L18.9275 9.18253L20.0075 11.3427C20.07 11.4676 20.1496 11.5832 20.244 11.686C20.0765 7.27731 16.4496 3.75464 12 3.75464C11.1586 3.75464 10.3478 3.88036 9.58465 4.11363ZM20.0858 13.6511L19.2278 12.7931C18.9998 12.5651 18.8101 12.3019 18.6659 12.0135L17.7643 10.2103C17.4059 10.4057 16.9796 10.4574 16.5759 10.3421L15.303 9.97837C15.2273 9.95674 15.1487 10.0021 15.1296 10.0785C15.1153 10.1357 15.1385 10.1956 15.1875 10.2282L15.7742 10.6194C16.7587 11.2757 16.8966 12.6687 16.06 13.5053L15.5297 12.975L16.06 13.5053L15.8598 13.7055C15.7895 13.7758 15.75 13.8712 15.75 13.9706V14.3814C15.75 14.9252 15.6022 15.4587 15.3225 15.9249L14.0079 18.1159C13.4909 18.9775 12.5599 19.5046 11.5552 19.5046C10.5582 19.5046 9.75 18.6964 9.75 17.6995V16.528C9.75 15.9146 9.37657 15.363 8.80709 15.1352L8.15294 14.8736C6.84396 14.35 6.07616 12.9856 6.30793 11.595L6.31497 11.5527C6.37685 11.1815 6.50803 10.8252 6.70168 10.5024L6.79109 10.3534C7.44339 9.26626 8.70869 8.70652 9.95191 8.95517L11.1298 9.19074C11.3213 9.22905 11.5102 9.11388 11.5639 8.92604L11.7724 8.19634C11.8219 8.02283 11.7409 7.83861 11.5795 7.75791L11.37 7.65317C10.8534 8.04129 10.2217 8.25464 9.56802 8.25464H9.38709C9.33886 8.25464 9.29113 8.27417 9.25603 8.30927C8.74525 8.82005 7.96269 8.94951 7.31417 8.62525C6.43816 8.18724 6.12044 7.09617 6.62434 6.25633L7.2033 5.2914C5.11207 6.78838 3.75 9.23802 3.75 12.0046C3.75 16.561 7.44365 20.2546 12 20.2546C15.9922 20.2546 19.3232 17.4184 20.0858 13.6511ZM8.71162 2.82331C9.73996 2.45496 10.8474 2.25464 12 2.25464C17.3848 2.25464 21.75 6.61986 21.75 12.0046C21.75 12.5171 21.7104 13.0207 21.634 13.5127C20.9086 18.1815 16.8723 21.7546 12 21.7546C6.61522 21.7546 2.25 17.3894 2.25 12.0046C2.25 7.77263 4.94588 4.17219 8.71162 2.82331Z" fill="#111827"/>
</svg>
