<svg width="24" height="24" viewBox="0 0 24 24" fill="none" xmlns="http://www.w3.org/2000/svg">
<path fill-rule="evenodd" clip-rule="evenodd" d="M17.4962 19.25C17.9208 19.25 18.2915 19.0807 18.5169 18.8008C20.0705 16.8716 21 14.4204 21 11.75C21 11.3424 20.9784 10.9402 20.9362 10.5443C20.8752 9.97151 20.342 9.5 19.6277 9.5H14.3C13.8858 9.5 13.55 9.16421 13.55 8.75C13.55 8.33579 13.8858 8 14.3 8H14.9459C14.9219 7.71845 14.967 7.42374 15.0993 7.14554C15.5163 6.26899 15.75 5.28784 15.75 4.25C15.75 3.42157 15.0784 2.75 14.25 2.75L14.25 3.38338C14.25 4.05128 14.1226 4.71305 13.8745 5.33318C13.4855 6.30556 12.7034 6.99267 11.8781 7.43219C10.8572 7.97589 9.96344 8.72825 9.25425 9.63251C8.66848 10.3794 7.77395 10.9677 6.72006 10.9987C6.25753 12.0285 6 13.1708 6 14.375C6 15.5787 6.25735 16.7206 6.71949 17.75H7.51975C8.08403 17.75 8.64462 17.841 9.17995 18.0194L12.2944 19.0576C12.6768 19.185 13.0772 19.25 13.4802 19.25H17.4962ZM6.84101 19.25L7.51975 19.25C7.92281 19.25 8.32323 19.315 8.7056 19.4424L11.8201 20.4806C12.3554 20.659 12.916 20.75 13.4802 20.75H17.4962C18.3076 20.75 19.1353 20.4243 19.6851 19.7416C21.4457 17.5556 22.5 14.7749 22.5 11.75C22.5 11.2893 22.4755 10.834 22.4278 10.3855C22.2714 8.91648 20.9667 8 19.6277 8H16.5C16.4954 7.99701 16.4804 7.98495 16.4657 7.9582C16.4325 7.89735 16.4345 7.83077 16.4539 7.78987C16.9646 6.71628 17.25 5.51542 17.25 4.25C17.25 2.59315 15.9069 1.25 14.25 1.25C13.4216 1.25 12.75 1.92157 12.75 2.75V3.38338C12.75 3.86045 12.659 4.33314 12.4818 4.77609C12.263 5.323 11.792 5.77859 11.173 6.10824C9.96624 6.7509 8.91108 7.63942 8.07395 8.70683C7.87331 8.96265 7.63785 9.16386 7.38616 9.29962C7.34738 8.63409 6.85745 8 6.05212 8H4.99936C3.91013 8 2.8193 8.59686 2.38372 9.70213C1.81309 11.1501 1.5 12.7269 1.5 14.375C1.5 15.6701 1.69333 16.9213 2.05321 18.1008C2.42433 19.3172 3.5806 20 4.74289 20H5.65067C6.21772 20 6.63418 19.6743 6.84101 19.25ZM5.41322 18.5C4.8271 17.2464 4.5 15.8479 4.5 14.375C4.5 12.7657 4.89048 11.2454 5.58253 9.90577C5.6534 9.76857 5.72743 9.63328 5.80452 9.5H4.99936C4.42455 9.5 3.9538 9.80921 3.77926 10.2521C3.27652 11.5278 3 12.9182 3 14.375C3 15.5201 3.17084 16.6239 3.48791 17.6631C3.6355 18.1468 4.12775 18.5 4.74289 18.5H5.41322Z" fill="#111827"/>
</svg>
