<svg width="24" height="24" viewBox="0 0 24 24" fill="none" xmlns="http://www.w3.org/2000/svg">
    <path fill-rule="evenodd" clip-rule="evenodd"
          d="M6.50377 4.75693C6.07917 4.75693 5.70853 4.92624 5.48312 5.20613C3.92945 7.13533 3 9.58656 3 12.2569C3 12.6645 3.02164 13.0668 3.06379 13.4627C3.12477 14.0354 3.65799 14.5069 4.37227 14.5069H9.7C10.1142 14.5069 10.45 14.8427 10.45 15.2569C10.45 15.6711 10.1142 16.0069 9.7 16.0069H9.0541C9.07813 16.2885 9.03299 16.5832 8.90066 16.8614C8.48371 17.7379 8.25 18.7191 8.25 19.7569C8.25 20.5854 8.92157 21.2569 9.75 21.2569L9.75 20.6235C9.75 19.9556 9.87744 19.2939 10.1255 18.6737C10.5145 17.7014 11.2966 17.0143 12.1219 16.5747C13.1428 16.031 14.0366 15.2787 14.7458 14.3744C15.3315 13.6275 16.226 13.0392 17.2799 13.0082C17.7425 11.9784 18 10.8361 18 9.63193C18 8.42818 17.7427 7.28635 17.2805 6.25693H16.4803C15.916 6.25693 15.3554 6.16596 14.8201 5.98752L11.7056 4.94937C11.3232 4.82191 10.9228 4.75693 10.5198 4.75693L6.50377 4.75693ZM17.159 4.75693L16.4803 4.75693C16.0772 4.75693 15.6768 4.69195 15.2944 4.56449L12.1799 3.52634C11.6446 3.3479 11.084 3.25693 10.5198 3.25693L6.50377 3.25693C5.69244 3.25693 4.86468 3.58259 4.31487 4.26528C2.55431 6.45138 1.5 9.23205 1.5 12.2569C1.5 12.7176 1.52447 13.1729 1.57222 13.6215C1.72862 15.0905 3.03329 16.0069 4.37227 16.0069H7.49999C7.4996 16.0067 7.50005 16.007 7.49999 16.0069C7.50458 16.0099 7.51961 16.022 7.53425 16.0487C7.56755 16.1096 7.56555 16.1762 7.54609 16.2171C7.03542 17.2906 6.75 18.4915 6.75 19.7569C6.75 21.4138 8.09315 22.7569 9.75 22.7569C10.5784 22.7569 11.25 22.0854 11.25 21.2569V20.6235C11.25 20.1465 11.341 19.6738 11.5182 19.2308C11.737 18.6839 12.208 18.2283 12.827 17.8987C14.0338 17.256 15.0889 16.3675 15.9261 15.3001C16.1267 15.0443 16.3622 14.8431 16.6138 14.7073C16.6526 15.3728 17.1425 16.0069 17.9479 16.0069H19.0006C20.0899 16.0069 21.1807 15.4101 21.6163 14.3048C22.1869 12.8568 22.5 11.28 22.5 9.63193C22.5 8.33686 22.3067 7.08558 21.9468 5.9061C21.5757 4.68976 20.4194 4.00693 19.2571 4.00693H18.3493C17.7823 4.00693 17.3658 4.33266 17.159 4.75693ZM18.5868 5.50693C19.1729 6.76056 19.5 8.15902 19.5 9.63193C19.5 11.2412 19.1095 12.7615 18.4175 14.1012C18.3466 14.2384 18.2726 14.3736 18.1955 14.5069H19.0006C19.5755 14.5069 20.0462 14.1977 20.2207 13.7548C20.7235 12.4791 21 11.0887 21 9.63193C21 8.48684 20.8292 7.38302 20.5121 6.34385C20.3645 5.86013 19.8722 5.50693 19.2571 5.50693H18.5868Z"
          fill="#111827"/>
</svg>
