<svg width="24" height="24" viewBox="0 0 24 24" fill="none" xmlns="http://www.w3.org/2000/svg">
    <g clip-path="url(#clip0_4117_940)">
        <path d="M17.418 11.625V14.75M17.418 11.625V4.125C17.418 3.08947 16.6161 2.25 15.627 2.25C14.6379 2.25 13.836 3.08947 13.836 4.125M17.418 11.625C17.418 10.5895 18.2199 9.75 19.209 9.75C20.1981 9.75 21 10.5895 21 11.625V14.125C21 19.3027 16.9907 23.5 12.045 23.5C7.09929 23.5 3.09 19.3027 3.09 14.125V7.875C3.09 6.83947 3.89186 6 4.881 6C5.87014 6 6.672 6.83947 6.672 7.875M13.836 4.125V11M13.836 4.125V2.875C13.836 1.83947 13.0341 1 12.045 1C11.0559 1 10.254 1.83947 10.254 2.875V4.125M10.254 4.125V11M10.254 4.125C10.254 3.08947 9.45214 2.25 8.463 2.25C7.47386 2.25 6.672 3.08947 6.672 4.125V7.875M6.672 7.875V11"
              stroke="#111827" stroke-width="1.5" stroke-linecap="round" stroke-linejoin="round"/>
    </g>
    <defs>
        <clipPath id="clip0_4117_940">
            <rect width="24" height="24" fill="white" transform="translate(0 0.00692749)"/>
        </clipPath>
    </defs>
</svg>
