<svg width="24" height="24" viewBox="0 0 24 24" fill="none" xmlns="http://www.w3.org/2000/svg">
    <path fill-rule="evenodd" clip-rule="evenodd"
          d="M7.6875 4.50696C5.48373 4.50696 3.75 6.21445 3.75 8.25696C3.75 11.5524 5.81219 14.366 8.0114 16.4161C9.09878 17.4297 10.1893 18.2279 11.009 18.7728C11.4181 19.0447 11.7579 19.2524 11.9936 19.3911C11.9957 19.3923 11.9979 19.3936 12 19.3948C12.0021 19.3936 12.0043 19.3923 12.0064 19.3911C12.2421 19.2524 12.5819 19.0447 12.991 18.7728C13.8107 18.2279 14.9012 17.4297 15.9886 16.4161C18.1878 14.366 20.25 11.5524 20.25 8.25696C20.25 6.21445 18.5163 4.50696 16.3125 4.50696C14.6702 4.50696 13.2789 5.46148 12.6852 6.79534C12.5647 7.06599 12.2963 7.24038 12 7.24038C11.7037 7.24038 11.4353 7.06599 11.3148 6.79534C10.7211 5.46148 9.32976 4.50696 7.6875 4.50696ZM12 20.257C11.6482 20.9193 11.648 20.9192 11.6477 20.9191L11.645 20.9176L11.6384 20.9141L11.6158 20.9019C11.5965 20.8914 11.5689 20.8762 11.5336 20.8565C11.4629 20.8171 11.3612 20.7594 11.233 20.6839C10.9765 20.533 10.6132 20.3109 10.1785 20.0219C9.31074 19.445 8.15122 18.5971 6.9886 17.5133C4.68781 15.3685 2.25 12.1821 2.25 8.25696C2.25 5.3289 4.7136 3.00696 7.6875 3.00696C9.43638 3.00696 11.0023 3.80605 12 5.05855C12.9977 3.80605 14.5636 3.00696 16.3125 3.00696C19.2864 3.00696 21.75 5.3289 21.75 8.25696C21.75 12.1821 19.3122 15.3685 17.0114 17.5133C15.8488 18.5971 14.6893 19.445 13.8215 20.0219C13.3868 20.3109 13.0235 20.533 12.767 20.6839C12.6388 20.7594 12.5371 20.8171 12.4664 20.8565C12.4311 20.8762 12.4035 20.8914 12.3842 20.9019L12.3616 20.9141L12.355 20.9176L12.353 20.9187C12.3527 20.9188 12.3518 20.9193 12 20.257ZM12 20.257L12.3518 20.9193C12.1318 21.0362 11.8677 21.0359 11.6477 20.9191L12 20.257Z"
          fill="#111827"/>
</svg>
