<svg width="24" height="24" viewBox="0 0 24 24" fill="none" xmlns="http://www.w3.org/2000/svg">
    <path fill-rule="evenodd" clip-rule="evenodd"
          d="M12.2652 3.58278C12.1187 3.43633 11.8813 3.43633 11.7348 3.58278L5.25 10.0676V19.882C5.25 20.0891 5.41789 20.257 5.625 20.257H9V16.132C9 15.0964 9.83947 14.257 10.875 14.257H13.125C14.1605 14.257 15 15.0964 15 16.132V20.257H18.375C18.5821 20.257 18.75 20.0891 18.75 19.882V10.0676L12.2652 3.58278ZM20.25 11.5676L21.2197 12.5373C21.5126 12.8302 21.9874 12.8302 22.2803 12.5373C22.5732 12.2444 22.5732 11.7695 22.2803 11.4766L13.3258 2.52212C12.5936 1.78989 11.4064 1.78989 10.6742 2.52212L1.71967 11.4766C1.42678 11.7695 1.42678 12.2444 1.71967 12.5373C2.01256 12.8302 2.48744 12.8302 2.78033 12.5373L3.75 11.5676V19.882C3.75 20.9175 4.58947 21.757 5.625 21.757H18.375C19.4105 21.757 20.25 20.9175 20.25 19.882V11.5676ZM13.5 20.257H10.5V16.132C10.5 15.9248 10.6679 15.757 10.875 15.757H13.125C13.3321 15.757 13.5 15.9248 13.5 16.132V20.257Z"
          fill="#111827"/>
</svg>
