<svg width="24" height="24" viewBox="0 0 24 24" fill="none" xmlns="http://www.w3.org/2000/svg">
    <path fill-rule="evenodd" clip-rule="evenodd"
          d="M19.4549 2.75064C19.5964 3.13992 19.3956 3.57024 19.0063 3.71179L18 4.07772V9.21638L21.9872 10.5454C22.3801 10.6764 22.5925 11.1012 22.4615 11.4941C22.3305 11.8871 21.9058 12.0994 21.5128 11.9685L21 11.7975V20.2569H21.75C22.1642 20.2569 22.5 20.5927 22.5 21.0069C22.5 21.4212 22.1642 21.7569 21.75 21.7569H2.25002C1.83581 21.7569 1.50002 21.4212 1.50002 21.0069C1.50002 20.5927 1.83581 20.2569 2.25002 20.2569H3.00002V9.53227L2.50633 9.71179C2.11705 9.85335 1.68673 9.65253 1.54518 9.26326C1.40362 8.87398 1.60444 8.44366 1.99371 8.3021L3.00002 7.93617V3.00695C3.00002 2.59273 3.33581 2.25695 3.75002 2.25695H6.75002C7.16423 2.25695 7.50002 2.59273 7.50002 3.00695V6.29981L18.4937 2.3021C18.883 2.16055 19.3133 2.36137 19.4549 2.75064ZM6.00002 6.84526V3.75695H4.50002V7.39072L6.00002 6.84526ZM4.50002 8.98681V20.2569H7.50002V16.1319C7.50002 15.0964 8.33949 14.2569 9.37502 14.2569H11.625C12.6606 14.2569 13.5 15.0964 13.5 16.1319V20.2569H16.5V9.77445C16.4998 9.76288 16.4997 9.75128 16.5 9.73966V4.62318L4.50002 8.98681ZM18 10.7975V20.2569H19.5V11.2975L18 10.7975ZM9.00002 20.2569H12V16.1319C12 15.9248 11.8321 15.7569 11.625 15.7569H9.37502C9.16791 15.7569 9.00002 15.9248 9.00002 16.1319V20.2569Z"
          fill="#111827"/>
</svg>
