<svg width="24" height="24" viewBox="0 0 24 24" fill="none" xmlns="http://www.w3.org/2000/svg">
<path fill-rule="evenodd" clip-rule="evenodd" d="M1.5 6.75696C1.5 5.1001 2.84315 3.75696 4.5 3.75696H19.5C21.1569 3.75696 22.5 5.1001 22.5 6.75696V17.257C22.5 18.9138 21.1569 20.257 19.5 20.257H4.5C2.84315 20.257 1.5 18.9138 1.5 17.257V6.75696ZM4.5 5.25696C3.67157 5.25696 3 5.92853 3 6.75696V17.257C3 18.0854 3.67157 18.757 4.5 18.757H19.5C20.3284 18.757 21 18.0854 21 17.257V6.75696C21 5.92853 20.3284 5.25696 19.5 5.25696H4.5ZM8.625 8.25696C8.00368 8.25696 7.5 8.76064 7.5 9.38196C7.5 10.0033 8.00368 10.507 8.625 10.507C9.24632 10.507 9.75 10.0033 9.75 9.38196C9.75 8.76064 9.24632 8.25696 8.625 8.25696ZM6 9.38196C6 7.93221 7.17525 6.75696 8.625 6.75696C10.0747 6.75696 11.25 7.93221 11.25 9.38196C11.25 10.8317 10.0747 12.007 8.625 12.007C7.17525 12.007 6 10.8317 6 9.38196ZM14.25 9.00696C14.25 8.59274 14.5858 8.25696 15 8.25696H18.75C19.1642 8.25696 19.5 8.59274 19.5 9.00696C19.5 9.42117 19.1642 9.75696 18.75 9.75696H15C14.5858 9.75696 14.25 9.42117 14.25 9.00696ZM14.25 12.007C14.25 11.5927 14.5858 11.257 15 11.257H18.75C19.1642 11.257 19.5 11.5927 19.5 12.007C19.5 12.4212 19.1642 12.757 18.75 12.757H15C14.5858 12.757 14.25 12.4212 14.25 12.007ZM6.48305 15.3636C7.14763 15.6177 7.86936 15.757 8.62484 15.757C9.38032 15.757 10.102 15.6177 10.7666 15.3636C10.2906 14.6934 9.5081 14.257 8.62484 14.257C7.74158 14.257 6.9591 14.6934 6.48305 15.3636ZM4.7518 15.4597C5.33078 13.8834 6.84531 12.757 8.62484 12.757C10.4044 12.757 11.9189 13.8834 12.4979 15.4597C12.627 15.8113 12.477 16.2042 12.1465 16.3803C11.0957 16.94 9.89616 17.257 8.62484 17.257C7.35353 17.257 6.15402 16.94 5.10319 16.3803C4.77266 16.2042 4.62268 15.8113 4.7518 15.4597ZM14.25 15.007C14.25 14.5927 14.5858 14.257 15 14.257H18.75C19.1642 14.257 19.5 14.5927 19.5 15.007C19.5 15.4212 19.1642 15.757 18.75 15.757H15C14.5858 15.757 14.25 15.4212 14.25 15.007Z" fill="#111827"/>
</svg>
