<svg width="24" height="24" viewBox="0 0 24 24" fill="none" xmlns="http://www.w3.org/2000/svg">
<path fill-rule="evenodd" clip-rule="evenodd" d="M12 2.25696C12.4142 2.25696 12.75 2.59274 12.75 3.00696V9.4463L14.4697 7.72663C14.7626 7.43373 15.2374 7.43373 15.5303 7.72663C15.8232 8.01952 15.8232 8.49439 15.5303 8.78729L12.5303 11.7873C12.2374 12.0802 11.7626 12.0802 11.4697 11.7873L8.46967 8.78729C8.17678 8.49439 8.17678 8.01952 8.46967 7.72663C8.76256 7.43373 9.23744 7.43373 9.53033 7.72663L11.25 9.4463V3.00696C11.25 2.59274 11.5858 2.25696 12 2.25696ZM6.91179 4.50696C6.25329 4.50696 5.67178 4.93644 5.47812 5.56583L3.26547 12.757H6.10942C7.24574 12.757 8.28453 13.399 8.79271 14.4153L9.04894 14.9278C9.30302 15.436 9.82242 15.757 10.3906 15.757H13.6094C14.1776 15.757 14.697 15.436 14.9511 14.9278L15.2073 14.4153C15.7155 13.399 16.7543 12.757 17.8906 12.757H20.7345L18.5219 5.56583C18.3282 4.93644 17.7467 4.50696 17.0882 4.50696H15C14.5858 4.50696 14.25 4.17117 14.25 3.75696C14.25 3.34274 14.5858 3.00696 15 3.00696H17.0882C18.4052 3.00696 19.5682 3.86593 19.9555 5.1247L22.3673 12.963C22.3894 13.0348 22.4088 13.1074 22.4254 13.1805C22.4732 13.2792 22.5 13.39 22.5 13.507C22.5 13.5454 22.4971 13.5832 22.4915 13.62C22.4972 13.6949 22.5 13.77 22.5 13.8453V18.007C22.5 19.6638 21.1569 21.007 19.5 21.007H4.5C2.84315 21.007 1.5 19.6638 1.5 18.007V13.8453C1.5 13.77 1.50283 13.6949 1.50847 13.62C1.50289 13.5832 1.5 13.5454 1.5 13.507C1.5 13.39 1.52679 13.2792 1.57458 13.1805C1.5912 13.1074 1.61056 13.0348 1.63266 12.963L4.04446 5.1247C4.43177 3.86593 5.59478 3.00696 6.91179 3.00696H9C9.41421 3.00696 9.75 3.34274 9.75 3.75696C9.75 4.17117 9.41421 4.50696 9 4.50696H6.91179ZM3 14.257V18.007C3 18.8354 3.67157 19.507 4.5 19.507H19.5C20.3284 19.507 21 18.8354 21 18.007V14.257H17.8906C17.3224 14.257 16.803 14.578 16.5489 15.0861L16.2927 15.5986C15.7845 16.615 14.7457 17.257 13.6094 17.257H10.3906C9.25426 17.257 8.21547 16.615 7.70729 15.5986L7.45106 15.0861C7.19698 14.578 6.67758 14.257 6.10942 14.257H3Z" fill="#111827"/>
</svg>
