<svg width="24" height="24" viewBox="0 0 24 24" fill="none" xmlns="http://www.w3.org/2000/svg">
    <path fill-rule="evenodd" clip-rule="evenodd"
          d="M4.04446 5.1247C4.43177 3.86593 5.59478 3.00696 6.91179 3.00696H17.0882C18.4052 3.00696 19.5682 3.86593 19.9555 5.1247L22.3673 12.963C22.3894 13.0348 22.4088 13.1074 22.4254 13.1805C22.4732 13.2792 22.5 13.39 22.5 13.507C22.5 13.5454 22.4971 13.5832 22.4915 13.62C22.4972 13.6949 22.5 13.77 22.5 13.8453V18.007C22.5 19.6638 21.1569 21.007 19.5 21.007H4.5C2.84315 21.007 1.5 19.6638 1.5 18.007V13.8453C1.5 13.77 1.50283 13.6949 1.50847 13.62C1.50289 13.5832 1.5 13.5454 1.5 13.507C1.5 13.39 1.52679 13.2792 1.57458 13.1805C1.5912 13.1074 1.61056 13.0348 1.63266 12.963L4.04446 5.1247ZM3 14.257V18.007C3 18.8354 3.67157 19.507 4.5 19.507H19.5C20.3284 19.507 21 18.8354 21 18.007V14.257H17.8906C17.3224 14.257 16.803 14.578 16.5489 15.0861L16.2927 15.5986C15.7845 16.615 14.7457 17.257 13.6094 17.257H10.3906C9.25426 17.257 8.21547 16.615 7.70729 15.5986L7.45106 15.0861C7.19698 14.578 6.67758 14.257 6.10942 14.257H3ZM20.7345 12.757H17.8906C16.7543 12.757 15.7155 13.399 15.2073 14.4153L14.9511 14.9278C14.697 15.436 14.1776 15.757 13.6094 15.757H10.3906C9.82242 15.757 9.30302 15.436 9.04894 14.9278L8.79271 14.4153C8.28453 13.399 7.24574 12.757 6.10942 12.757H3.26547L5.47812 5.56583C5.67178 4.93644 6.25329 4.50696 6.91179 4.50696H17.0882C17.7467 4.50696 18.3282 4.93644 18.5219 5.56583L20.7345 12.757Z"
          fill="#111827"/>
</svg>
