<svg width="24" height="24" viewBox="0 0 24 24" fill="none" xmlns="http://www.w3.org/2000/svg">
<path fill-rule="evenodd" clip-rule="evenodd" d="M12 3.75696C7.44365 3.75696 3.75 7.45061 3.75 12.007C3.75 16.5633 7.44365 20.257 12 20.257C16.5563 20.257 20.25 16.5633 20.25 12.007C20.25 7.45061 16.5563 3.75696 12 3.75696ZM2.25 12.007C2.25 6.62218 6.61522 2.25696 12 2.25696C17.3848 2.25696 21.75 6.62218 21.75 12.007C21.75 17.3917 17.3848 21.757 12 21.757C6.61522 21.757 2.25 17.3917 2.25 12.007ZM11.25 8.25696C11.25 7.84274 11.5858 7.50696 12 7.50696H12.0075C12.4217 7.50696 12.7575 7.84274 12.7575 8.25696V8.26446C12.7575 8.67867 12.4217 9.01446 12.0075 9.01446H12C11.5858 9.01446 11.25 8.67867 11.25 8.26446V8.25696ZM10.9561 10.5654C12.1023 9.99228 13.3929 11.0276 13.0821 12.2708L12.3731 15.1069L12.4146 15.0861C12.7851 14.9009 13.2356 15.0511 13.4208 15.4215C13.6061 15.792 13.4559 16.2425 13.0854 16.4278L13.0439 16.4485C11.8977 17.0216 10.6071 15.9863 10.9179 14.7431L11.6269 11.907L11.5854 11.9278C11.2149 12.113 10.7644 11.9629 10.5792 11.5924C10.3939 11.2219 10.5441 10.7714 10.9146 10.5861L10.9561 10.5654Z" fill="#111827"/>
</svg>
