<svg width="24" height="24" viewBox="0 0 24 24" fill="none" xmlns="http://www.w3.org/2000/svg">
<path fill-rule="evenodd" clip-rule="evenodd" d="M15.75 3.00928C12.8505 3.00928 10.5 5.35978 10.5 8.25928C10.5 8.56704 10.5264 8.86804 10.5769 9.16029C10.7043 9.89745 10.5573 10.7627 9.93833 11.3816L3.43934 17.8806C3.15804 18.1619 3 18.5434 3 18.9413V21.0093H5.25V19.5093C5.25 19.0951 5.58579 18.7593 6 18.7593H7.5V17.2593C7.5 16.8451 7.83579 16.5093 8.25 16.5093H10.1893L12.6277 14.0709C13.2466 13.452 14.1118 13.305 14.849 13.4324C15.1412 13.4829 15.4422 13.5093 15.75 13.5093C18.6495 13.5093 21 11.1588 21 8.25928C21 5.35978 18.6495 3.00928 15.75 3.00928ZM9 8.25928C9 4.53136 12.0221 1.50928 15.75 1.50928C19.4779 1.50928 22.5 4.53136 22.5 8.25928C22.5 11.9872 19.4779 15.0093 15.75 15.0093C15.3563 15.0093 14.9698 14.9755 14.5936 14.9105C14.2047 14.8433 13.8774 14.9425 13.6883 15.1316L11.0303 17.7896C10.8897 17.9303 10.6989 18.0093 10.5 18.0093H9V19.5093C9 19.9235 8.66421 20.2593 8.25 20.2593H6.75V21.7593C6.75 22.1735 6.41421 22.5093 6 22.5093H2.25C1.83579 22.5093 1.5 22.1735 1.5 21.7593V18.9413C1.5 18.1456 1.81607 17.3825 2.37868 16.8199L8.87767 10.3209C9.06678 10.1318 9.16599 9.80455 9.0988 9.41567C9.03379 9.03943 9 8.653 9 8.25928ZM15 5.25928C15 4.84506 15.3358 4.50928 15.75 4.50928C17.8211 4.50928 19.5 6.18821 19.5 8.25928C19.5 8.67349 19.1642 9.00928 18.75 9.00928C18.3358 9.00928 18 8.67349 18 8.25928C18 7.01664 16.9926 6.00928 15.75 6.00928C15.3358 6.00928 15 5.67349 15 5.25928Z" fill="#111827"/>
</svg>
