<svg width="24" height="24" viewBox="0 0 24 24" fill="none" xmlns="http://www.w3.org/2000/svg">
    <path fill-rule="evenodd" clip-rule="evenodd"
          d="M8.44818 4.5603L10.9992 7.62148C11.6574 7.47188 12.3426 7.47188 13.0008 7.62148L15.5518 4.5603C13.3118 3.49227 10.6882 3.49227 8.44818 4.5603ZM16.8561 5.33826L14.4456 8.23089C14.7066 8.40014 14.9537 8.599 15.182 8.8273C15.4103 9.05559 15.6091 9.3027 15.7784 9.56372L18.671 7.1532C18.4217 6.81162 18.1426 6.4846 17.8336 6.17565C17.5247 5.8667 17.1977 5.58762 16.8561 5.33826ZM19.449 8.45745L16.3878 11.0084C16.5374 11.6667 16.5374 12.3518 16.3878 13.0101L19.449 15.5611C20.517 13.321 20.517 10.6975 19.449 8.45745ZM18.671 16.8654L15.7784 14.4548C15.6091 14.7159 15.4103 14.963 15.182 15.1913C14.9537 15.4196 14.7066 15.6184 14.4456 15.7877L16.8561 18.6803C17.1977 18.4309 17.5247 18.1519 17.8336 17.8429C18.1426 17.534 18.4217 17.2069 18.671 16.8654ZM15.5518 19.4583L13.0008 16.3971C12.3426 16.5467 11.6574 16.5467 10.9992 16.3971L8.44818 19.4583C10.6882 20.5263 13.3118 20.5263 15.5518 19.4583ZM7.14392 18.6803L9.55444 15.7877C9.29342 15.6184 9.04631 15.4196 8.81802 15.1913C8.58973 14.963 8.39086 14.7159 8.22161 14.4548L5.32899 16.8654C5.57834 17.2069 5.85742 17.534 6.16637 17.8429C6.47532 18.1519 6.80234 18.4309 7.14392 18.6803ZM4.55102 15.5611L7.6122 13.0101C7.4626 12.3518 7.4626 11.6667 7.6122 11.0084L4.55102 8.45745C3.48299 10.6975 3.48299 13.321 4.55102 15.5611ZM5.32899 7.1532L8.22161 9.56372C8.39086 9.3027 8.58973 9.05559 8.81802 8.8273C9.04631 8.599 9.29342 8.40014 9.55444 8.23089L7.14392 5.33826C6.80234 5.58762 6.47532 5.8667 6.16637 6.17565C5.85742 6.4846 5.57834 6.81161 5.32899 7.1532ZM6.89448 3.70048C10.0163 1.77888 13.9837 1.77888 17.1055 3.70048C17.7424 4.09253 18.3435 4.5642 18.8943 5.11499C19.4451 5.66577 19.9167 6.26683 20.3088 6.90376C22.2304 10.0256 22.2304 13.993 20.3088 17.1148C19.9167 17.7517 19.4451 18.3528 18.8943 18.9036C18.3435 19.4544 17.7424 19.926 17.1055 20.3181C13.9837 22.2397 10.0163 22.2397 6.89448 20.3181C6.25755 19.926 5.65649 19.4544 5.10571 18.9036C4.55492 18.3528 4.08325 17.7517 3.6912 17.1148C1.7696 13.993 1.7696 10.0256 3.6912 6.90376C4.08325 6.26683 4.55493 5.66577 5.10571 5.11499C5.65649 4.5642 6.25755 4.09253 6.89448 3.70048ZM13.0115 9.18399C12.359 8.95104 11.641 8.95104 10.9885 9.18399C10.5842 9.32834 10.2042 9.5624 9.87868 9.88796C9.55313 10.2135 9.31907 10.5935 9.17471 10.9978C8.94176 11.6503 8.94176 12.3683 9.17471 13.0207C9.31907 13.425 9.55313 13.805 9.87868 14.1306C10.2042 14.4562 10.5842 14.6902 10.9885 14.8346C11.641 15.0675 12.359 15.0675 13.0115 14.8346C13.4158 14.6902 13.7958 14.4562 14.1213 14.1306C14.4469 13.805 14.6809 13.425 14.8253 13.0207C15.0582 12.3683 15.0582 11.6503 14.8253 10.9978C14.6809 10.5935 14.4469 10.2135 14.1213 9.88796C13.7958 9.5624 13.4158 9.32834 13.0115 9.18399Z"
          fill="#111827"/>
</svg>
