<svg width="24" height="25" viewBox="0 0 24 25" fill="none" xmlns="http://www.w3.org/2000/svg">
<path fill-rule="evenodd" clip-rule="evenodd" d="M6.75 6.7616C6.75 3.8621 9.10051 1.5116 12 1.5116C14.8995 1.5116 17.25 3.8621 17.25 6.7616V9.7616C18.9069 9.7616 20.25 11.1047 20.25 12.7616V19.5116C20.25 21.1685 18.9069 22.5116 17.25 22.5116H6.75C5.09315 22.5116 3.75 21.1685 3.75 19.5116V12.7616C3.75 11.1047 5.09315 9.7616 6.75 9.7616V6.7616ZM6.75 11.2616C5.92157 11.2616 5.25 11.9332 5.25 12.7616V19.5116C5.25 20.34 5.92157 21.0116 6.75 21.0116H17.25C18.0784 21.0116 18.75 20.34 18.75 19.5116V12.7616C18.75 11.9332 18.0784 11.2616 17.25 11.2616H6.75ZM15.75 9.7616H8.25V6.7616C8.25 4.69053 9.92893 3.0116 12 3.0116C14.0711 3.0116 15.75 4.69053 15.75 6.7616V9.7616Z" fill="#111827"/>
</svg>
