<svg width="24" height="25" viewBox="0 0 24 25" fill="none" xmlns="http://www.w3.org/2000/svg">
<path fill-rule="evenodd" clip-rule="evenodd" d="M12.75 6.7616C12.75 3.8621 15.1005 1.5116 18 1.5116C20.8995 1.5116 23.25 3.8621 23.25 6.7616V10.5116C23.25 10.9258 22.9142 11.2616 22.5 11.2616C22.0858 11.2616 21.75 10.9258 21.75 10.5116V6.7616C21.75 4.69053 20.0711 3.0116 18 3.0116C15.9289 3.0116 14.25 4.69053 14.25 6.7616V9.7616C15.9069 9.7616 17.25 11.1047 17.25 12.7616V19.5116C17.25 21.1685 15.9069 22.5116 14.25 22.5116H3.75C2.09315 22.5116 0.75 21.1685 0.75 19.5116V12.7616C0.75 11.1047 2.09315 9.7616 3.75 9.7616H12.75V6.7616ZM3.75 11.2616C2.92157 11.2616 2.25 11.9332 2.25 12.7616V19.5116C2.25 20.34 2.92157 21.0116 3.75 21.0116H14.25C15.0784 21.0116 15.75 20.34 15.75 19.5116V12.7616C15.75 11.9332 15.0784 11.2616 14.25 11.2616H3.75Z" fill="#111827"/>
</svg>
