<svg width="24" height="25" viewBox="0 0 24 25" fill="none" xmlns="http://www.w3.org/2000/svg">
    <path fill-rule="evenodd" clip-rule="evenodd"
          d="M12 3.7616C7.44365 3.7616 3.75 7.45525 3.75 12.0116C3.75 16.5679 7.44365 20.2616 12 20.2616C16.5563 20.2616 20.25 16.5679 20.25 12.0116C20.25 7.45525 16.5563 3.7616 12 3.7616ZM2.25 12.0116C2.25 6.62682 6.61522 2.2616 12 2.2616C17.3848 2.2616 21.75 6.62682 21.75 12.0116C21.75 17.3964 17.3848 21.7616 12 21.7616C6.61522 21.7616 2.25 17.3964 2.25 12.0116ZM10.875 8.2616C9.42525 8.2616 8.25 9.43685 8.25 10.8866C8.25 12.3363 9.42525 13.5116 10.875 13.5116C11.6001 13.5116 12.2553 13.2186 12.7312 12.7428C13.207 12.2669 13.5 11.6117 13.5 10.8866C13.5 9.43685 12.3247 8.2616 10.875 8.2616ZM6.75 10.8866C6.75 8.60842 8.59683 6.7616 10.875 6.7616C13.1532 6.7616 15 8.60842 15 10.8866C15 11.7544 14.7315 12.5603 14.2737 13.2247L16.2803 15.2313C16.5732 15.5242 16.5732 15.999 16.2803 16.2919C15.9874 16.5848 15.5126 16.5848 15.2197 16.2919L13.2131 14.2853C12.5487 14.7431 11.7428 15.0116 10.875 15.0116C8.59683 15.0116 6.75 13.1648 6.75 10.8866Z"
          fill="#111827"/>
</svg>
