<svg width="24" height="25" viewBox="0 0 24 25" fill="none" xmlns="http://www.w3.org/2000/svg">
<path fill-rule="evenodd" clip-rule="evenodd" d="M12 3.7616C8.27208 3.7616 5.25 6.78367 5.25 10.5116C5.25 13.8076 6.98068 16.4419 8.78654 18.2909C9.68475 19.2105 10.5851 19.9182 11.2609 20.3956C11.5588 20.6061 11.8119 20.7709 12 20.8885C12.1881 20.7709 12.4412 20.6061 12.7391 20.3956C13.4149 19.9182 14.3153 19.2105 15.2135 18.2909C17.0193 16.4419 18.75 13.8076 18.75 10.5116C18.75 6.78367 15.7279 3.7616 12 3.7616ZM12 21.7616C11.6397 22.4194 11.6395 22.4192 11.6392 22.4191L11.6365 22.4176L11.6305 22.4143L11.6105 22.4031C11.5937 22.3937 11.57 22.3801 11.5397 22.3626C11.4793 22.3276 11.393 22.2766 11.2845 22.2098C11.0675 22.0762 10.7612 21.8792 10.3954 21.6207C9.66491 21.1047 8.69025 20.339 7.71346 19.3389C5.76932 17.3484 3.75 14.3578 3.75 10.5116C3.75 5.95525 7.44365 2.2616 12 2.2616C16.5563 2.2616 20.25 5.95525 20.25 10.5116C20.25 14.3578 18.2307 17.3484 16.2865 19.3389C15.3097 20.339 14.3351 21.1047 13.6046 21.6207C13.2388 21.8792 12.9325 22.0762 12.7155 22.2098C12.607 22.2766 12.5207 22.3276 12.4603 22.3626C12.43 22.3801 12.4063 22.3937 12.3895 22.4031L12.3695 22.4143L12.3635 22.4176L12.3616 22.4187C12.3613 22.4188 12.3603 22.4194 12 21.7616ZM12 21.7616L12.3603 22.4194C12.1358 22.5423 11.8636 22.542 11.6392 22.4191L12 21.7616ZM12 8.2616C10.7574 8.2616 9.75 9.26896 9.75 10.5116C9.75 11.7542 10.7574 12.7616 12 12.7616C13.2426 12.7616 14.25 11.7542 14.25 10.5116C14.25 9.26896 13.2426 8.2616 12 8.2616ZM8.25 10.5116C8.25 8.44053 9.92893 6.7616 12 6.7616C14.0711 6.7616 15.75 8.44053 15.75 10.5116C15.75 12.5827 14.0711 14.2616 12 14.2616C9.92893 14.2616 8.25 12.5827 8.25 10.5116Z" fill="#111827"/>
</svg>
