<svg width="24" height="25" viewBox="0 0 24 25" fill="none" xmlns="http://www.w3.org/2000/svg">
<path fill-rule="evenodd" clip-rule="evenodd" d="M9.16771 3.934C9.06213 3.88121 8.93787 3.88121 8.83229 3.934L3.95729 6.3715C3.83025 6.43502 3.75 6.56487 3.75 6.70691V19.1913C3.75 19.4701 4.04337 19.6514 4.2927 19.5267L8.16147 17.5924C8.68934 17.3284 9.31066 17.3284 9.83853 17.5924L14.8323 20.0892C14.9379 20.142 15.0621 20.142 15.1677 20.0892L20.0427 17.6517C20.1697 17.5882 20.25 17.4584 20.25 17.3163V4.83191C20.25 4.55314 19.9566 4.37183 19.7073 4.4965L15.8385 6.43088C15.3107 6.69482 14.6893 6.69482 14.1615 6.43088L9.16771 3.934ZM8.16147 2.59236C8.68934 2.32843 9.31066 2.32843 9.83853 2.59236L14.8323 5.08924C14.9379 5.14203 15.0621 5.14203 15.1677 5.08924L19.0365 3.15486C20.2832 2.53151 21.75 3.43807 21.75 4.83191V17.3163C21.75 18.0265 21.3487 18.6758 20.7135 18.9934L15.8385 21.4309C15.3107 21.6948 14.6893 21.6948 14.1615 21.4309L9.16771 18.934C9.06213 18.8812 8.93787 18.8812 8.83229 18.934L4.96352 20.8684C3.71684 21.4917 2.25 20.5852 2.25 19.1913V6.70691C2.25 5.99671 2.65125 5.34747 3.28647 5.02986L8.16147 2.59236ZM9 6.01162C9.41421 6.01162 9.75 6.34741 9.75 6.76162V15.0116C9.75 15.4258 9.41421 15.7616 9 15.7616C8.58579 15.7616 8.25 15.4258 8.25 15.0116V6.76162C8.25 6.34741 8.58579 6.01162 9 6.01162ZM15 8.26162C15.4142 8.26162 15.75 8.59741 15.75 9.01162V17.2616C15.75 17.6758 15.4142 18.0116 15 18.0116C14.5858 18.0116 14.25 17.6758 14.25 17.2616V9.01162C14.25 8.59741 14.5858 8.26162 15 8.26162Z" fill="#111827"/>
</svg>
