<svg width="24" height="25" viewBox="0 0 24 25" fill="none" xmlns="http://www.w3.org/2000/svg">
    <path fill-rule="evenodd" clip-rule="evenodd"
          d="M18.5366 2.30726C18.9256 2.16488 19.3563 2.36478 19.4987 2.75375C19.6387 3.13626 19.7696 3.52319 19.891 3.91427C20.4147 5.60102 20.7627 7.36473 20.914 9.18381C21.431 9.72226 21.75 10.4549 21.75 11.2616C21.75 12.0682 21.431 12.8009 20.914 13.3393C20.7627 15.1584 20.4147 16.9221 19.891 18.6088C19.7696 18.9999 19.6387 19.3869 19.4987 19.7694C19.3563 20.1583 18.9256 20.3582 18.5366 20.2159C18.1476 20.0735 17.9477 19.6427 18.0901 19.2537C18.1487 19.0936 18.2056 18.9327 18.2608 18.7709C16.1274 17.7516 13.8142 17.048 11.3814 16.7205C11.5642 17.2689 11.7738 17.8051 12.0087 18.3274C12.4023 19.2029 12.1167 20.2874 11.2366 20.7956L10.5803 21.1745L10.2053 20.525L10.5803 21.1745C9.67181 21.699 8.46171 21.3827 7.99764 20.379C7.41805 19.1253 6.95424 17.8071 6.61997 16.4381C4.13945 16.0195 2.25 13.8612 2.25 11.2616C2.25 8.36206 4.60051 6.01156 7.5 6.01156H8.25C8.93276 6.01156 9.60847 5.98215 10.276 5.92455C13.1145 5.67963 15.8066 4.92482 18.2608 3.75217C18.2056 3.59043 18.1487 3.42948 18.0901 3.26936C17.9477 2.88039 18.1476 2.44964 18.5366 2.30726ZM18.7027 5.20228C16.3002 6.32321 13.6879 7.06974 10.9413 7.36685C10.6527 8.61782 10.5 9.92142 10.5 11.2616C10.5 12.6017 10.6527 13.9053 10.9413 15.1563C13.6879 15.4534 16.3002 16.1999 18.7027 17.3208C19.0828 15.9089 19.3333 14.4436 19.4405 12.9383C19.4799 12.3847 19.5 11.8255 19.5 11.2616C19.5 10.6976 19.4799 10.1384 19.4405 9.58476C19.3333 8.07946 19.0828 6.61417 18.7027 5.20228ZM9.38039 15.0369C9.13091 13.8169 9 12.5542 9 11.2616C9 9.96896 9.13091 8.70624 9.38039 7.48619C9.00566 7.50304 8.6288 7.51156 8.25 7.51156H7.5C5.42893 7.51156 3.75 9.19049 3.75 11.2616C3.75 13.3326 5.42893 15.0116 7.5 15.0116H8.25C8.6288 15.0116 9.00565 15.0201 9.38039 15.0369ZM8.187 16.5116C8.48694 17.6321 8.88063 18.7144 9.35917 19.7495C9.42948 19.9016 9.63599 19.9876 9.83029 19.8755L10.4866 19.4965C10.6517 19.4012 10.7419 19.1679 10.6406 18.9425C10.2952 18.1744 10 17.3787 9.75922 16.5597C9.26036 16.5278 8.75712 16.5116 8.25 16.5116H8.187Z"
          fill="#111827"/>
</svg>
