<svg width="24" height="25" viewBox="0 0 24 25" fill="none" xmlns="http://www.w3.org/2000/svg">
    <g clip-path="url(#clip0_4117_1065)">
        <path fill-rule="evenodd" clip-rule="evenodd"
              d="M8.25 4.5116C8.25 2.44053 9.92893 0.761597 12 0.761597C14.0711 0.761597 15.75 2.44053 15.75 4.5116V12.7616C15.75 14.8327 14.0711 16.5116 12 16.5116C9.92893 16.5116 8.25 14.8327 8.25 12.7616V4.5116ZM12 2.2616C10.7574 2.2616 9.75 3.26896 9.75 4.5116V12.7616C9.75 14.0042 10.7574 15.0116 12 15.0116C13.2426 15.0116 14.25 14.0042 14.25 12.7616V4.5116C14.25 3.26896 13.2426 2.2616 12 2.2616ZM6 10.5116C6.41421 10.5116 6.75 10.8474 6.75 11.2616V12.7616C6.75 15.6611 9.1005 18.0116 12 18.0116C14.8995 18.0116 17.25 15.6611 17.25 12.7616V11.2616C17.25 10.8474 17.5858 10.5116 18 10.5116C18.4142 10.5116 18.75 10.8474 18.75 11.2616V12.7616C18.75 16.236 16.125 19.0973 12.75 19.4704V21.7616H15.75C16.1642 21.7616 16.5 22.0974 16.5 22.5116C16.5 22.9258 16.1642 23.2616 15.75 23.2616H8.25C7.83579 23.2616 7.5 22.9258 7.5 22.5116C7.5 22.0974 7.83579 21.7616 8.25 21.7616H11.25V19.4704C7.87504 19.0973 5.25 16.236 5.25 12.7616V11.2616C5.25 10.8474 5.58579 10.5116 6 10.5116Z"
              fill="#111827"/>
    </g>
    <defs>
        <clipPath id="clip0_4117_1065">
            <rect width="24" height="24" fill="white" transform="translate(0 0.0115967)"/>
        </clipPath>
    </defs>
</svg>
