<svg width="24" height="25" viewBox="0 0 24 25" fill="none" xmlns="http://www.w3.org/2000/svg">
<path fill-rule="evenodd" clip-rule="evenodd" d="M12 3.7616C7.44365 3.7616 3.75 7.45525 3.75 12.0116C3.75 16.5679 7.44365 20.2616 12 20.2616C16.5563 20.2616 20.25 16.5679 20.25 12.0116C20.25 7.45525 16.5563 3.7616 12 3.7616ZM2.25 12.0116C2.25 6.62682 6.61522 2.2616 12 2.2616C17.3848 2.2616 21.75 6.62682 21.75 12.0116C21.75 17.3964 17.3848 21.7616 12 21.7616C6.61522 21.7616 2.25 17.3964 2.25 12.0116ZM8.25 12.0116C8.25 11.5974 8.58579 11.2616 9 11.2616H15C15.4142 11.2616 15.75 11.5974 15.75 12.0116C15.75 12.4258 15.4142 12.7616 15 12.7616H9C8.58579 12.7616 8.25 12.4258 8.25 12.0116Z" fill="#111827"/>
</svg>
