<svg width="24" height="25" viewBox="0 0 24 25" fill="none" xmlns="http://www.w3.org/2000/svg">
<path fill-rule="evenodd" clip-rule="evenodd" d="M9.52839 1.72958C9.74339 1.94458 9.80731 2.26812 9.69021 2.54873C9.2458 3.61376 9 4.78315 9 6.01185C9 10.9824 13.0294 15.0119 18 15.0119C19.2287 15.0119 20.3981 14.766 21.4631 14.3216C21.7437 14.2045 22.0673 14.2685 22.2823 14.4835C22.4973 14.6985 22.5612 15.022 22.4441 15.3026C20.8618 19.0945 17.1183 21.7619 12.75 21.7619C6.95101 21.7619 2.25 17.0608 2.25 11.2619C2.25 6.89356 4.91735 3.15001 8.70924 1.56775C8.98985 1.45066 9.31338 1.51458 9.52839 1.72958ZM7.7365 3.78627C5.33138 5.4025 3.75 8.14811 3.75 11.2619C3.75 16.2324 7.77944 20.2619 12.75 20.2619C15.8637 20.2619 18.6094 18.6805 20.2256 16.2754C19.5079 16.4303 18.7632 16.5119 18 16.5119C12.201 16.5119 7.5 11.8108 7.5 6.01185C7.5 5.24867 7.58154 4.50399 7.7365 3.78627Z" fill="#111827"/>
</svg>
