<svg width="24" height="25" viewBox="0 0 24 25" fill="none" xmlns="http://www.w3.org/2000/svg">
    <path fill-rule="evenodd" clip-rule="evenodd"
          d="M19.9516 1.66296C20.1395 1.80469 20.25 2.02638 20.25 2.26173V5.99513C20.2503 6.00647 20.2503 6.01778 20.25 6.02906V16.3145C20.25 17.654 19.3621 18.8311 18.0742 19.1991L16.7542 19.5763C15.1234 20.0422 13.5 18.8177 13.5 17.1216C13.5 15.9818 14.2556 14.9801 15.3515 14.667L17.6621 14.0068C18.306 13.8228 18.75 13.2343 18.75 12.5645V7.00602L9.75 9.57745V19.3145C9.75 20.654 8.86207 21.8311 7.57416 22.1991L6.25418 22.5763C4.62337 23.0422 3 21.8177 3 20.1216C3 18.9818 3.75559 17.9801 4.85153 17.667L7.16208 17.0068C7.80603 16.8228 8.25 16.2343 8.25 15.5645V9.0283C8.24974 9.01697 8.24974 9.00567 8.25 8.99441V5.26173C8.25 4.92686 8.47198 4.63258 8.79396 4.54058L19.294 1.54058C19.5202 1.47593 19.7638 1.52124 19.9516 1.66296ZM9.75 8.01743L18.75 5.446V3.25602L9.75 5.82745V8.01743ZM8.25 18.1629C8.04075 18.2837 7.81442 18.3805 7.57416 18.4491L5.26362 19.1093C4.81162 19.2384 4.5 19.6515 4.5 20.1216C4.5 20.8211 5.16952 21.3261 5.8421 21.134L7.16208 20.7568C7.80603 20.5728 8.25 19.9843 8.25 19.3145V18.1629ZM18.75 15.1629C18.5408 15.2837 18.3144 15.3805 18.0742 15.4491L15.7636 16.1093C15.3116 16.2384 15 16.6515 15 17.1216C15 17.8211 15.6695 18.3261 16.3421 18.134L17.6621 17.7568C18.306 17.5728 18.75 16.9843 18.75 16.3145V15.1629Z"
          fill="#111827"/>
</svg>
