<svg width="24" height="25" viewBox="0 0 24 25" fill="none" xmlns="http://www.w3.org/2000/svg">
    <path fill-rule="evenodd" clip-rule="evenodd"
          d="M2.25 4.88672C2.25 3.85118 3.08947 3.01172 4.125 3.01172H15.375C16.4105 3.01172 17.25 3.85118 17.25 4.88672V6.76172H19.875C20.9105 6.76172 21.75 7.60118 21.75 8.63672V18.0117C21.75 19.6686 20.4069 21.0117 18.75 21.0117H5.25C3.59315 21.0117 2.25 19.6686 2.25 18.0117V4.88672ZM16.1513 19.5117H5.25C4.42157 19.5117 3.75 18.8401 3.75 18.0117V4.88672C3.75 4.67961 3.91789 4.51172 4.125 4.51172H15.375C15.5821 4.51172 15.75 4.67961 15.75 4.88672V18.0117C15.75 18.5581 15.8961 19.0705 16.1513 19.5117ZM18.75 19.5117C19.5784 19.5117 20.25 18.8401 20.25 18.0117V8.63672C20.25 8.42961 20.0821 8.26172 19.875 8.26172H17.25V18.0117C17.25 18.8401 17.9216 19.5117 18.75 19.5117ZM5.25 7.51172C5.25 7.09751 5.58579 6.76172 6 6.76172H9C9.41421 6.76172 9.75 7.09751 9.75 7.51172V10.5117C9.75 10.9259 9.41421 11.2617 9 11.2617H6C5.58579 11.2617 5.25 10.9259 5.25 10.5117V7.51172ZM6.75 8.26172V9.76172H8.25V8.26172H6.75ZM11.25 7.51172C11.25 7.09751 11.5858 6.76172 12 6.76172H13.5C13.9142 6.76172 14.25 7.09751 14.25 7.51172C14.25 7.92593 13.9142 8.26172 13.5 8.26172H12C11.5858 8.26172 11.25 7.92593 11.25 7.51172ZM11.25 10.5117C11.25 10.0975 11.5858 9.76172 12 9.76172H13.5C13.9142 9.76172 14.25 10.0975 14.25 10.5117C14.25 10.9259 13.9142 11.2617 13.5 11.2617H12C11.5858 11.2617 11.25 10.9259 11.25 10.5117ZM5.25 13.5117C5.25 13.0975 5.58579 12.7617 6 12.7617H13.5C13.9142 12.7617 14.25 13.0975 14.25 13.5117C14.25 13.9259 13.9142 14.2617 13.5 14.2617H6C5.58579 14.2617 5.25 13.9259 5.25 13.5117ZM5.25 16.5117C5.25 16.0975 5.58579 15.7617 6 15.7617H13.5C13.9142 15.7617 14.25 16.0975 14.25 16.5117C14.25 16.9259 13.9142 17.2617 13.5 17.2617H6C5.58579 17.2617 5.25 16.9259 5.25 16.5117Z"
          fill="#111827"/>
</svg>
