<svg width="24" height="25" viewBox="0 0 24 25" fill="none" xmlns="http://www.w3.org/2000/svg">
<path fill-rule="evenodd" clip-rule="evenodd" d="M20.3053 1.54272C20.1702 1.56743 19.9936 1.62039 19.9071 1.65923C19.8205 1.69806 18.3661 2.67248 16.6693 3.82343C14.9725 4.97437 13.3831 6.07236 13.1372 6.25947C12.8914 6.45012 12.5555 6.71844 12.3927 6.86319C12.23 7.00441 11.9218 7.28685 11.7071 7.49162C11.4889 7.69639 11.1322 8.07062 10.9106 8.32129C10.6855 8.56842 10.3427 8.98149 10.1419 9.23922C9.94103 9.49695 9.65362 9.88883 9.50125 10.1077C9.34889 10.3301 9.07879 10.7609 8.90218 11.061C8.72558 11.3611 8.44163 11.8942 8.27195 12.2437C8.10573 12.5932 7.90835 13.031 7.83563 13.2181L7.70058 13.557C6.93876 13.5288 6.66173 13.5394 6.48859 13.5676C6.33622 13.5888 6.0869 13.6488 5.93454 13.6982C5.78217 13.7477 5.52592 13.8571 5.36317 13.9419C5.20042 14.0231 4.96841 14.1713 4.84374 14.2667C4.71908 14.362 4.494 14.5738 4.34163 14.7397C4.18927 14.9057 3.99189 15.1669 3.90185 15.3187C3.80836 15.4741 3.69062 15.7071 3.63521 15.8448C3.58327 15.9825 3.50363 16.2261 3.46207 16.392C3.42052 16.558 3.37897 16.858 3.36858 17.0628C3.35819 17.2676 3.33395 17.5112 3.31317 17.61C3.29239 17.7054 3.2266 17.8819 3.16773 17.9949C3.1054 18.1149 2.97728 18.2773 2.86993 18.3762C2.76604 18.475 2.59637 18.5915 2.49594 18.6374C2.39898 18.6833 2.21892 18.7363 2.10118 18.7539C1.97998 18.7716 1.85186 18.7786 1.81377 18.7681C1.77567 18.7575 1.65794 18.7751 1.55405 18.8069C1.42247 18.8422 1.32551 18.9022 1.23547 18.994C1.16622 19.0681 1.08311 19.1882 1.05194 19.2588C1.02424 19.3329 1 19.4459 1 19.5059C1 19.5695 1.01731 19.6789 1.03809 19.746C1.05887 19.8131 1.18007 20.0284 1.30473 20.2226C1.45709 20.458 1.66602 20.7122 1.9315 20.9852C2.19468 21.25 2.45439 21.4724 2.67947 21.6242C2.86993 21.7549 3.17466 21.9314 3.35473 22.0196C3.53479 22.1044 3.80143 22.2174 3.94341 22.2668C4.08538 22.3127 4.36587 22.3903 4.56672 22.4327C4.87145 22.4998 5.03766 22.5139 5.57094 22.5139C6.09729 22.5139 6.27389 22.4998 6.55784 22.4362C6.7483 22.3974 7.06688 22.3056 7.26773 22.235C7.46857 22.1644 7.7733 22.0302 7.94298 21.9384C8.11266 21.8502 8.37929 21.6842 8.53166 21.5748C8.68402 21.4654 8.94027 21.2535 9.09956 21.0982C9.25885 20.9464 9.4874 20.6957 9.60514 20.5404C9.72287 20.385 9.88909 20.1485 9.96873 20.0108C10.0518 19.8731 10.1696 19.6542 10.2319 19.5165C10.2908 19.3788 10.3877 19.1352 10.4466 18.9693C10.5055 18.8034 10.5851 18.4856 10.6301 18.2632C10.6925 17.9525 10.7098 17.7336 10.7132 17.3276C10.7132 17.0346 10.7029 16.7557 10.6855 16.6992C10.6613 16.6074 10.6682 16.6003 10.9453 16.4944C11.1045 16.4344 11.5443 16.2296 11.9252 16.0425C12.3061 15.8519 12.881 15.5376 13.2065 15.3364C13.532 15.1352 13.9822 14.8351 14.2107 14.6691C14.4392 14.5032 14.789 14.2349 14.9898 14.0689C15.1907 13.9065 15.5716 13.5711 15.8382 13.324C16.1049 13.0769 16.5031 12.6779 16.7213 12.4343C16.9394 12.1943 17.2545 11.8271 17.4173 11.6258C17.58 11.4211 17.8398 11.0821 17.9921 10.8668C18.1445 10.6514 19.1626 9.11212 20.2533 7.44219C21.3441 5.77226 22.2826 4.31063 22.3345 4.19413C22.3864 4.07762 22.4488 3.87991 22.473 3.75282C22.4973 3.62219 22.5076 3.41742 22.4938 3.2762C22.4834 3.13851 22.4419 2.92668 22.4003 2.79958C22.3587 2.67248 22.2722 2.48889 22.2098 2.39357C22.1475 2.29472 22.0367 2.1535 21.964 2.07936C21.8913 2.00168 21.7354 1.87812 21.6212 1.80398C21.5069 1.72631 21.3199 1.63804 21.2056 1.60274C21.0914 1.56743 20.8974 1.5286 20.7728 1.51801C20.6446 1.50741 20.4403 1.51801 20.3053 1.54272ZM17.3272 5.1862C19.0032 4.04232 20.4126 3.08908 20.4611 3.06084C20.513 3.02906 20.6031 3.01847 20.6862 3.02553C20.7901 3.03965 20.8489 3.07143 20.9251 3.15969C21.0082 3.25854 21.0221 3.30091 21.0117 3.43507C20.9978 3.57629 20.7728 3.93287 18.8786 6.82435C17.7116 8.60373 16.6139 10.2454 16.4304 10.4784C16.2468 10.7114 15.9248 11.0927 15.7205 11.3257C15.5127 11.5588 15.1803 11.9012 14.9829 12.0848C14.789 12.2719 14.5189 12.5191 14.3838 12.6356C14.2488 12.7485 13.9856 12.9639 13.7951 13.1122C13.7224 13.1675 13.6527 13.2207 13.5931 13.2662C13.4968 13.3397 13.4271 13.393 13.4142 13.4017C13.3935 13.4158 13.3034 13.3099 13.2099 13.1687C13.1164 13.031 12.9364 12.7803 12.8117 12.6144C12.687 12.4484 12.4204 12.1484 12.2196 11.9436C12.0187 11.7388 11.6932 11.4493 11.4924 11.2975C11.2915 11.1422 11.063 10.9798 10.9833 10.9339C10.9002 10.888 10.8344 10.835 10.8344 10.8138C10.8344 10.7926 10.9383 10.6408 11.0664 10.4678C11.1911 10.2984 11.4543 9.97003 11.6482 9.73702C11.8421 9.50401 12.2092 9.10153 12.4654 8.84027C12.7217 8.58254 13.1095 8.21537 13.3277 8.02825C13.5458 7.84114 13.8506 7.59047 14.0029 7.47397C14.1553 7.35746 15.6512 6.32655 17.3272 5.1862ZM9.39735 13.3205C9.48739 13.1157 9.66053 12.7556 9.78519 12.5191C9.92717 12.2472 10.0276 12.0954 10.0518 12.1095C10.0726 12.1201 10.2215 12.2225 10.3843 12.3355C10.547 12.4484 10.7998 12.6497 10.9452 12.7803C11.0907 12.9109 11.2984 13.1228 11.4093 13.2499C11.5201 13.377 11.6897 13.5888 11.7867 13.7265C11.8837 13.8642 11.9979 14.0336 12.0395 14.1078C12.081 14.1784 12.1122 14.2455 12.1087 14.2525C12.1018 14.2596 11.8941 14.3761 11.6482 14.5067C11.4023 14.6409 10.9556 14.8527 10.1245 15.2164L10.0068 15.054C9.94448 14.9657 9.78865 14.7821 9.66053 14.6515C9.53587 14.5173 9.3558 14.3514 9.25884 14.2808C9.20555 14.2425 9.1545 14.2055 9.11853 14.1793C9.0914 14.1596 9.07285 14.1461 9.06838 14.1431C9.05799 14.1396 9.09262 14.0336 9.1411 13.9136C9.19305 13.79 9.30732 13.5253 9.39735 13.3205ZM6.69634 15.0504C6.60285 15.0681 6.44702 15.1069 6.35006 15.1387C6.25656 15.1705 6.08342 15.2481 5.96915 15.3152C5.85488 15.3788 5.66788 15.5165 5.55361 15.6224C5.43934 15.7283 5.28005 15.9189 5.2004 16.0425C5.11729 16.1661 5.00994 16.3885 4.96147 16.5332C4.89221 16.7345 4.86451 16.911 4.84027 17.257C4.82295 17.5077 4.77794 17.8431 4.73984 17.9984C4.70175 18.1537 4.59441 18.4397 4.50091 18.6339C4.40395 18.8281 4.25159 19.0752 4.16155 19.1846C4.07152 19.2906 3.90184 19.4636 3.78757 19.5624C3.67329 19.6613 3.48976 19.7954 3.37895 19.859C3.26814 19.9225 3.15733 19.9931 3.12963 20.0108C3.08807 20.039 3.11924 20.0814 3.29238 20.2226C3.41012 20.3215 3.62481 20.4662 3.77025 20.551C3.91223 20.6322 4.15463 20.7451 4.30699 20.8016C4.45935 20.8581 4.72599 20.9322 4.89567 20.964C5.13461 21.0099 5.3216 21.0205 5.70944 21.0064C6.06265 20.9958 6.28773 20.9676 6.47126 20.9181C6.61324 20.8758 6.85563 20.791 7.008 20.7275C7.16036 20.6604 7.427 20.5156 7.59668 20.3991C7.76636 20.2862 8.02607 20.0743 8.17151 19.9261C8.31695 19.7778 8.53165 19.5059 8.64938 19.3223C8.76712 19.1388 8.90909 18.8598 8.96796 18.7045C9.02683 18.5492 9.10647 18.302 9.14457 18.1573C9.19997 17.9525 9.21729 17.776 9.22075 17.3806C9.22421 17.0381 9.2069 16.8086 9.17573 16.6921C9.14803 16.5968 9.08224 16.4203 9.02683 16.3038C8.97142 16.1873 8.87446 16.0213 8.80867 15.9331C8.74634 15.8448 8.60436 15.6895 8.49355 15.5835C8.36889 15.4706 8.17844 15.3435 8.01222 15.2623C7.85986 15.1916 7.66594 15.114 7.57937 15.0928C7.49279 15.0716 7.29888 15.0469 7.14651 15.0363C6.99415 15.0257 6.7933 15.0328 6.69634 15.0504Z" fill="#111827"/>
</svg>
