<svg width="24" height="25" viewBox="0 0 24 25" fill="none" xmlns="http://www.w3.org/2000/svg">
    <path fill-rule="evenodd" clip-rule="evenodd"
          d="M2.73432 2.61232C2.92771 2.41585 3.2133 2.34132 3.47804 2.41822C10.1767 4.36413 16.3974 7.43208 21.9233 11.4047C22.1193 11.5456 22.2355 11.7723 22.2355 12.0137C22.2355 12.2551 22.1193 12.4817 21.9233 12.6226C16.3974 16.5953 10.1767 19.6634 3.47814 21.6093C3.2134 21.6863 2.92781 21.6117 2.73441 21.4153C2.54102 21.2188 2.471 20.932 2.55207 20.6686L5.21504 12.0139L2.55198 3.35901C2.47091 3.09552 2.54093 2.80879 2.73432 2.61232ZM6.55367 12.7639L4.40041 19.762C10.0795 17.9643 15.3886 15.3339 20.1845 12.0137C15.3886 8.69354 10.0794 6.06314 4.40031 4.26553L6.55367 11.2639L13.5 11.2639C13.9142 11.2639 14.25 11.5997 14.25 12.0139C14.25 12.4281 13.9142 12.7639 13.5 12.7639L6.55367 12.7639Z"
          fill="#111827"/>
</svg>
