<svg width="24" height="25" viewBox="0 0 24 25" fill="none" xmlns="http://www.w3.org/2000/svg">
    <path fill-rule="evenodd" clip-rule="evenodd"
          d="M18.9696 3.67293C18.0909 2.79425 16.6663 2.79425 15.7876 3.67293L4.84835 14.6123L4.3802 14.1441L4.84835 14.6123C3.38388 16.0767 3.38388 18.4511 4.84835 19.9156C6.31282 21.38 8.68718 21.38 10.1517 19.9156L17.8446 12.2226C18.1375 11.9297 18.6124 11.9297 18.9053 12.2226C19.1982 12.5155 19.1982 12.9903 18.9053 13.2832L11.2123 20.9762C9.16206 23.0265 5.83794 23.0265 3.78769 20.9762C1.73744 18.926 1.73744 15.6019 3.78769 13.5516L14.7269 2.61227L15.2573 3.1426L14.7269 2.61227C16.1914 1.1478 18.5658 1.1478 20.0302 2.61227C21.4947 4.07673 21.4947 6.4511 20.0302 7.91557L9.0973 18.8485C9.09521 18.8507 9.09311 18.8528 9.09099 18.8549L9.08205 18.8638L9.08191 18.8639L9.07747 18.8683C8.19765 19.7336 6.78319 19.7291 5.90901 18.8549C5.03033 17.9762 5.03033 16.5516 5.90901 15.6729C5.90901 15.6729 5.90901 15.6729 5.90901 15.6729L13.7195 7.86224C14.0124 7.56935 14.4873 7.56934 14.7802 7.86223C15.0731 8.15512 15.0731 8.62999 14.7802 8.92289L6.96968 16.7336L6.96967 16.7336C6.67678 17.0265 6.67678 17.5013 6.96967 17.7942C7.26043 18.085 7.7306 18.0871 8.02387 17.8006L18.9696 6.85491C19.8483 5.97623 19.8483 4.55161 18.9696 3.67293Z"
          fill="#111827"/>
</svg>
