<svg width="24" height="25" viewBox="0 0 24 25" fill="none" xmlns="http://www.w3.org/2000/svg">
<path fill-rule="evenodd" clip-rule="evenodd" d="M12 3.76392C7.44365 3.76392 3.75 7.45757 3.75 12.0139C3.75 16.5703 7.44365 20.2639 12 20.2639C16.5563 20.2639 20.25 16.5703 20.25 12.0139C20.25 7.45757 16.5563 3.76392 12 3.76392ZM2.25 12.0139C2.25 6.62914 6.61522 2.26392 12 2.26392C17.3848 2.26392 21.75 6.62914 21.75 12.0139C21.75 17.3987 17.3848 21.7639 12 21.7639C6.61522 21.7639 2.25 17.3987 2.25 12.0139ZM9.75 8.26392C10.1642 8.26392 10.5 8.5997 10.5 9.01392V15.0139C10.5 15.4281 10.1642 15.7639 9.75 15.7639C9.33579 15.7639 9 15.4281 9 15.0139V9.01392C9 8.5997 9.33579 8.26392 9.75 8.26392ZM14.25 8.26392C14.6642 8.26392 15 8.5997 15 9.01392V15.0139C15 15.4281 14.6642 15.7639 14.25 15.7639C13.8358 15.7639 13.5 15.4281 13.5 15.0139V9.01392C13.5 8.5997 13.8358 8.26392 14.25 8.26392Z" fill="#111827"/>
</svg>
