<svg width="24" height="25" viewBox="0 0 24 25" fill="none" xmlns="http://www.w3.org/2000/svg">
<path fill-rule="evenodd" clip-rule="evenodd" d="M8.25 4.51392C8.66421 4.51392 9 4.8497 9 5.26392V18.7639C9 19.1781 8.66421 19.5139 8.25 19.5139C7.83579 19.5139 7.5 19.1781 7.5 18.7639V5.26392C7.5 4.8497 7.83579 4.51392 8.25 4.51392ZM15.75 4.51392C16.1642 4.51392 16.5 4.8497 16.5 5.26392L16.5 18.7639C16.5 19.1781 16.1642 19.5139 15.75 19.5139C15.3358 19.5139 15 19.1781 15 18.7639L15 5.26392C15 4.8497 15.3358 4.51392 15.75 4.51392Z" fill="#111827"/>
</svg>
