<svg width="24" height="25" viewBox="0 0 24 25" fill="none" xmlns="http://www.w3.org/2000/svg">
<path fill-rule="evenodd" clip-rule="evenodd" d="M20.6705 3.34342C20.2312 2.90408 19.5189 2.90408 19.0795 3.34342L17.9224 4.50059L19.5133 6.09158L20.6705 4.93441C21.1099 4.49507 21.1099 3.78276 20.6705 3.34342ZM18.4527 7.15224L16.8617 5.56125L4.71087 17.7121C4.27031 18.1526 3.94646 18.696 3.76859 19.2932L3.3646 20.6493L4.72079 20.2453C5.31792 20.0675 5.86131 19.7436 6.30187 19.3031L18.4527 7.15224ZM18.0189 2.28276C19.044 1.25763 20.706 1.25763 21.7312 2.28276C22.7563 3.30789 22.7563 4.96995 21.7312 5.99507L7.36253 20.3637C6.74574 20.9805 5.98499 21.4339 5.14902 21.6829L2.46413 22.4827C2.20021 22.5613 1.91442 22.489 1.71969 22.2942C1.52496 22.0995 1.45261 21.8137 1.53123 21.5498L2.33101 18.8649C2.58003 18.029 3.03342 17.2682 3.65021 16.6514L18.0189 2.28276Z" fill="#111827"/>
</svg>
