<svg width="24" height="25" viewBox="0 0 24 25" fill="none" xmlns="http://www.w3.org/2000/svg">
    <path fill-rule="evenodd" clip-rule="evenodd"
          d="M20.6705 3.34342C20.2312 2.90408 19.5188 2.90408 19.0795 3.34342L17.9223 4.50059L19.5133 6.09158L20.6705 4.93441C21.1098 4.49507 21.1098 3.78276 20.6705 3.34342ZM18.4527 7.15224L16.8617 5.56125L8.46085 13.9621C8.02029 14.4026 7.69644 14.946 7.51857 15.5432L7.11458 16.8993L8.47078 16.4953C9.0679 16.3175 9.61129 15.9936 10.0519 15.5531L18.4527 7.15224ZM18.0188 2.28276C19.044 1.25763 20.706 1.25763 21.7312 2.28276C22.7563 3.30789 22.7563 4.96994 21.7312 5.99507L11.1125 16.6137C10.4957 17.2305 9.73498 17.6839 8.899 17.9329L6.21411 18.7327C5.95019 18.8113 5.6644 18.739 5.46967 18.5442C5.27494 18.3495 5.20259 18.0637 5.28121 17.7998L6.08099 15.1149C6.33001 14.279 6.7834 13.5182 7.40019 12.9014L18.0188 2.28276ZM5.25 6.76391C4.42157 6.76391 3.75 7.43548 3.75 8.26391V18.7639C3.75 19.5923 4.42157 20.2639 5.25 20.2639H15.75C16.5784 20.2639 17.25 19.5923 17.25 18.7639V14.0139C17.25 13.5997 17.5858 13.2639 18 13.2639C18.4142 13.2639 18.75 13.5997 18.75 14.0139V18.7639C18.75 20.4208 17.4069 21.7639 15.75 21.7639H5.25C3.59315 21.7639 2.25 20.4208 2.25 18.7639V8.26391C2.25 6.60705 3.59315 5.26391 5.25 5.26391H10C10.4142 5.26391 10.75 5.59969 10.75 6.01391C10.75 6.42812 10.4142 6.76391 10 6.76391H5.25Z"
          fill="#111827"/>
</svg>
