<svg width="24" height="25" viewBox="0 0 24 25" fill="none" xmlns="http://www.w3.org/2000/svg">
    <path fill-rule="evenodd" clip-rule="evenodd"
          d="M1.5 4.51611C1.5 2.85926 2.84315 1.51611 4.5 1.51611H5.87163C6.732 1.51611 7.48197 2.10167 7.69064 2.93636L8.79644 7.35954C8.97941 8.09141 8.70594 8.86166 8.10242 9.3143L6.8088 10.2845C6.67447 10.3853 6.64527 10.5328 6.683 10.6358C7.81851 13.7356 10.2805 16.1976 13.3803 17.3331C13.4833 17.3708 13.6309 17.3416 13.7316 17.2073L14.7018 15.9137C15.1545 15.3102 15.9247 15.0367 16.6566 15.2197L21.0798 16.3255C21.9144 16.5341 22.5 17.2841 22.5 18.1445V19.5161C22.5 21.173 21.1569 22.5161 19.5 22.5161H17.25C8.55152 22.5161 1.5 15.4646 1.5 6.76611V4.51611ZM4.5 3.01611C3.67157 3.01611 3 3.68769 3 4.51611V6.76611C3 14.6362 9.37994 21.0161 17.25 21.0161H19.5C20.3284 21.0161 21 20.3445 21 19.5161V18.1445C21 17.9724 20.8829 17.8224 20.716 17.7807L16.2928 16.6749C16.1464 16.6383 15.9923 16.693 15.9018 16.8137L14.9316 18.1073C14.4692 18.7239 13.6427 19.0267 12.8644 18.7416C9.35027 17.4543 6.5618 14.6658 5.27453 11.1517C4.98941 10.3734 5.29225 9.54693 5.9088 9.08451L7.20242 8.1143C7.32313 8.02377 7.37782 7.86972 7.34123 7.72335L6.23543 3.30016C6.1937 3.13322 6.0437 3.01611 5.87163 3.01611H4.5ZM15.2197 3.23578C15.5126 2.94289 15.9874 2.94289 16.2803 3.23578L18 4.95545L19.7197 3.23578C20.0126 2.94289 20.4874 2.94289 20.7803 3.23578C21.0732 3.52868 21.0732 4.00355 20.7803 4.29644L19.0607 6.01611L20.7803 7.73578C21.0732 8.02868 21.0732 8.50355 20.7803 8.79644C20.4874 9.08934 20.0126 9.08934 19.7197 8.79644L18 7.07677L16.2803 8.79644C15.9874 9.08934 15.5126 9.08934 15.2197 8.79644C14.9268 8.50355 14.9268 8.02868 15.2197 7.73578L16.9393 6.01611L15.2197 4.29644C14.9268 4.00355 14.9268 3.52868 15.2197 3.23578Z"
          fill="#111827"/>
</svg>
