<svg width="24" height="25" viewBox="0 0 24 25" fill="none" xmlns="http://www.w3.org/2000/svg">
<path fill-rule="evenodd" clip-rule="evenodd" d="M1.5 6.01611C1.5 4.77347 2.50736 3.76611 3.75 3.76611H20.25C21.4926 3.76611 22.5 4.77347 22.5 6.01611V18.0161C22.5 19.2588 21.4926 20.2661 20.25 20.2661H3.75C2.50736 20.2661 1.5 19.2588 1.5 18.0161V6.01611ZM3 16.0768V18.0161C3 18.4303 3.33579 18.7661 3.75 18.7661H20.25C20.6642 18.7661 21 18.4303 21 18.0161V16.0768L18.3107 13.3874C17.7249 12.8016 16.7751 12.8016 16.1893 13.3874L15.3107 14.2661L16.2803 15.2358C16.5732 15.5287 16.5732 16.0036 16.2803 16.2964C15.9874 16.5893 15.5126 16.5893 15.2197 16.2964L10.0607 11.1374C9.47487 10.5516 8.52513 10.5516 7.93934 11.1374L3 16.0768ZM14.25 13.2055L11.1213 10.0768C9.94975 8.9052 8.05026 8.9052 6.87868 10.0768L3 13.9555V6.01611C3 5.6019 3.33579 5.26611 3.75 5.26611H20.25C20.6642 5.26611 21 5.6019 21 6.01611V13.9555L19.3713 12.3268C18.1997 11.1552 16.3003 11.1552 15.1287 12.3268L14.25 13.2055ZM13.125 8.26611C13.125 7.64479 13.6287 7.14111 14.25 7.14111C14.8713 7.14111 15.375 7.64479 15.375 8.26611C15.375 8.88743 14.8713 9.39111 14.25 9.39111C13.6287 9.39111 13.125 8.88743 13.125 8.26611Z" fill="#111827"/>
</svg>
