<svg width="24" height="25" viewBox="0 0 24 25" fill="none" xmlns="http://www.w3.org/2000/svg">
<path fill-rule="evenodd" clip-rule="evenodd" d="M15 6.76611C15.4142 6.76611 15.75 7.1019 15.75 7.51611V18.0161C15.75 18.4303 15.4142 18.7661 15 18.7661C14.5858 18.7661 14.25 18.4303 14.25 18.0161V7.51611C14.25 7.1019 14.5858 6.76611 15 6.76611ZM21 6.76611C21.4142 6.76611 21.75 7.1019 21.75 7.51611V18.0161C21.75 18.4303 21.4142 18.7661 21 18.7661C20.5858 18.7661 20.25 18.4303 20.25 18.0161V7.51611C20.25 7.1019 20.5858 6.76611 21 6.76611ZM2.25 8.70469C2.25 7.26502 3.80528 6.36246 5.05526 7.07673L12.1628 11.1382C13.4224 11.858 13.4224 13.6743 12.1628 14.3941L5.05526 18.4555C3.80528 19.1698 2.25 18.2672 2.25 16.8275V8.70469ZM4.31105 8.3791C4.06106 8.23624 3.75 8.41676 3.75 8.70469V16.8275C3.75 17.1155 4.06106 17.296 4.31105 17.1531L11.4185 13.0917C11.6705 12.9477 11.6705 12.5845 11.4185 12.4405L4.31105 8.3791Z" fill="#111827"/>
</svg>
