<svg width="24" height="25" viewBox="0 0 24 25" fill="none" xmlns="http://www.w3.org/2000/svg">
    <path fill-rule="evenodd" clip-rule="evenodd"
          d="M12 3.76611C7.44365 3.76611 3.75 7.45976 3.75 12.0161C3.75 16.5725 7.44365 20.2661 12 20.2661C16.5563 20.2661 20.25 16.5725 20.25 12.0161C20.25 7.45976 16.5563 3.76611 12 3.76611ZM2.25 12.0161C2.25 6.63134 6.61522 2.26611 12 2.26611C17.3848 2.26611 21.75 6.63134 21.75 12.0161C21.75 17.4009 17.3848 21.7661 12 21.7661C6.61522 21.7661 2.25 17.4009 2.25 12.0161ZM10.5 9.54075V14.4915L14.9557 12.0161L10.5 9.54075ZM9 8.90343C9 8.04564 9.9215 7.50342 10.6713 7.92L16.2742 11.0327C17.0457 11.4613 17.0457 12.5709 16.2742 12.9995L10.6713 16.1122C9.9215 16.5288 9 15.9866 9 15.1288V8.90343Z"
          fill="#111827"/>
</svg>
