<svg width="24" height="25" viewBox="0 0 24 25" fill="none" xmlns="http://www.w3.org/2000/svg">
<path fill-rule="evenodd" clip-rule="evenodd" d="M12 3.76611C7.44365 3.76611 3.75 7.45976 3.75 12.0161C3.75 16.5725 7.44365 20.2661 12 20.2661C16.5563 20.2661 20.25 16.5725 20.25 12.0161C20.25 7.45976 16.5563 3.76611 12 3.76611ZM2.25 12.0161C2.25 6.63134 6.61522 2.26611 12 2.26611C17.3848 2.26611 21.75 6.63134 21.75 12.0161C21.75 17.4009 17.3848 21.7661 12 21.7661C6.61522 21.7661 2.25 17.4009 2.25 12.0161ZM12 8.26611C12.4142 8.26611 12.75 8.6019 12.75 9.01611V11.2661H15C15.4142 11.2661 15.75 11.6019 15.75 12.0161C15.75 12.4303 15.4142 12.7661 15 12.7661H12.75V15.0161C12.75 15.4303 12.4142 15.7661 12 15.7661C11.5858 15.7661 11.25 15.4303 11.25 15.0161V12.7661H9C8.58579 12.7661 8.25 12.4303 8.25 12.0161C8.25 11.6019 8.58579 11.2661 9 11.2661H11.25V9.01611C11.25 8.6019 11.5858 8.26611 12 8.26611Z" fill="#111827"/>
</svg>
