<svg width="24" height="25" viewBox="0 0 24 25" fill="none" xmlns="http://www.w3.org/2000/svg">
<path fill-rule="evenodd" clip-rule="evenodd" d="M1.5 3.01611C1.5 2.6019 1.83579 2.26611 2.25 2.26611H21.75C22.1642 2.26611 22.5 2.6019 22.5 3.01611C22.5 3.43033 22.1642 3.76611 21.75 3.76611H21V14.2661C21 15.923 19.6569 17.2661 18 17.2661H16.7906L17.9615 20.7789C18.0925 21.1719 17.8801 21.5966 17.4872 21.7276C17.0942 21.8586 16.6695 21.6462 16.5385 21.2533L16.2094 20.2661H7.79057L7.46151 21.2533C7.33053 21.6462 6.90579 21.8586 6.51283 21.7276C6.11987 21.5966 5.9075 21.1719 6.03849 20.7789L7.20943 17.2661H6C4.34315 17.2661 3 15.923 3 14.2661V3.76611H2.25C1.83579 3.76611 1.5 3.43033 1.5 3.01611ZM4.5 3.76611V14.2661C4.5 15.0945 5.17157 15.7661 6 15.7661H18C18.8284 15.7661 19.5 15.0945 19.5 14.2661V3.76611H4.5ZM8.79057 17.2661L8.29057 18.7661H15.7094L15.2094 17.2661H8.79057ZM15 6.01611C15.4142 6.01611 15.75 6.3519 15.75 6.76611V12.7661C15.75 13.1803 15.4142 13.5161 15 13.5161C14.5858 13.5161 14.25 13.1803 14.25 12.7661V6.76611C14.25 6.3519 14.5858 6.01611 15 6.01611ZM12 8.26611C12.4142 8.26611 12.75 8.6019 12.75 9.01611V12.7661C12.75 13.1803 12.4142 13.5161 12 13.5161C11.5858 13.5161 11.25 13.1803 11.25 12.7661V9.01611C11.25 8.6019 11.5858 8.26611 12 8.26611ZM9 10.5161C9.41421 10.5161 9.75 10.8519 9.75 11.2661V12.7661C9.75 13.1803 9.41421 13.5161 9 13.5161C8.58579 13.5161 8.25 13.1803 8.25 12.7661V11.2661C8.25 10.8519 8.58579 10.5161 9 10.5161Z" fill="#111827"/>
</svg>
