<svg width="24" height="25" viewBox="0 0 24 25" fill="none" xmlns="http://www.w3.org/2000/svg">
<path fill-rule="evenodd" clip-rule="evenodd" d="M1.5 3.01611C1.5 2.6019 1.83579 2.26611 2.25 2.26611H21.75C22.1642 2.26611 22.5 2.6019 22.5 3.01611C22.5 3.43033 22.1642 3.76611 21.75 3.76611H21V14.2661C21 15.923 19.6569 17.2661 18 17.2661H16.7906L17.9615 20.7789C18.0925 21.1719 17.8801 21.5966 17.4872 21.7276C17.0942 21.8586 16.6695 21.6462 16.5385 21.2533L16.2094 20.2661H7.79057L7.46151 21.2533C7.33053 21.6462 6.90579 21.8586 6.51283 21.7276C6.11987 21.5966 5.9075 21.1719 6.03849 20.7789L7.20943 17.2661H6C4.34315 17.2661 3 15.923 3 14.2661V3.76611H2.25C1.83579 3.76611 1.5 3.43033 1.5 3.01611ZM4.5 3.76611V14.2661C4.5 15.0945 5.17157 15.7661 6 15.7661H18C18.8284 15.7661 19.5 15.0945 19.5 14.2661V3.76611H4.5ZM8.79057 17.2661L8.29057 18.7661H15.7094L15.2094 17.2661H8.79057ZM17.1492 7.24596C17.3566 7.6045 17.2341 8.0633 16.8755 8.2707C15.4414 9.10031 14.207 10.2377 13.2629 11.5925C13.136 11.7746 12.9349 11.8912 12.7138 11.9108C12.4927 11.9304 12.2742 11.851 12.1173 11.694L10.5 10.0768L8.03033 12.5464C7.73744 12.8393 7.26256 12.8393 6.96967 12.5464C6.67678 12.2536 6.67678 11.7787 6.96967 11.4858L9.96967 8.48578C10.2626 8.19289 10.7374 8.19289 11.0303 8.48578L12.5667 10.0222C13.5517 8.79974 14.7577 7.76291 16.1245 6.9723C16.483 6.76489 16.9418 6.88741 17.1492 7.24596Z" fill="#111827"/>
</svg>
