<svg width="24" height="25" viewBox="0 0 24 25" fill="none" xmlns="http://www.w3.org/2000/svg">
<path fill-rule="evenodd" clip-rule="evenodd" d="M6 3.39111C6 2.35558 6.83947 1.51611 7.875 1.51611H16.125C17.1605 1.51611 18 2.35558 18 3.39111V6.38176C18.4264 6.4341 18.8511 6.49195 19.274 6.55523C20.7281 6.77279 21.75 8.03775 21.75 9.4718V15.7661C21.75 17.423 20.4069 18.7661 18.75 18.7661H18.4804L18.6354 20.4714C18.7352 21.5694 17.8706 22.5161 16.7681 22.5161H7.23191C6.12935 22.5161 5.26479 21.5694 5.36461 20.4714L5.51963 18.7661H5.25C3.59315 18.7661 2.25 17.423 2.25 15.7661V9.4718C2.25 8.03775 3.27191 6.77279 4.72596 6.55523C5.1489 6.49195 5.5736 6.4341 6 6.38176V3.39111ZM7.5 6.22109C8.98199 6.08543 10.483 6.01611 12 6.01611C13.517 6.01611 15.018 6.08543 16.5 6.22109V3.39111C16.5 3.18401 16.3321 3.01611 16.125 3.01611H7.875C7.66789 3.01611 7.5 3.18401 7.5 3.39111V6.22109ZM5.656 17.2661L5.89077 14.6836C5.57054 14.6367 5.30572 14.3844 5.25756 14.0476C5.19891 13.6376 5.48376 13.2577 5.8938 13.199C6.13748 13.1641 6.38181 13.1313 6.62678 13.1006C8.38712 12.8798 10.1805 12.7661 12 12.7661C13.8195 12.7661 15.6129 12.8798 17.3732 13.1006C17.6182 13.1313 17.8625 13.1641 18.1062 13.199C18.5162 13.2577 18.8011 13.6376 18.7424 14.0476C18.6943 14.3844 18.4295 14.6367 18.1092 14.6836L18.344 17.2661H18.75C19.5784 17.2661 20.25 16.5945 20.25 15.7661V9.4718C20.25 8.74398 19.7361 8.14106 19.0521 8.03872C18.4283 7.94538 17.8005 7.86423 17.1689 7.79553C15.4715 7.61089 13.747 7.51611 12 7.51611C10.253 7.51611 8.52845 7.61089 6.83111 7.79553C6.19954 7.86423 5.57173 7.94538 4.94793 8.03872C4.2639 8.14106 3.75 8.74398 3.75 9.4718V15.7661C3.75 16.5945 4.42157 17.2661 5.25 17.2661H5.656ZM16.588 14.5183C15.0819 14.3517 13.5511 14.2661 12 14.2661C10.4489 14.2661 8.91812 14.3517 7.41198 14.5183L6.85845 20.6072C6.83849 20.8268 7.0114 21.0161 7.23191 21.0161H16.7681C16.9886 21.0161 17.1615 20.8268 17.1415 20.6072L16.588 14.5183ZM14.25 10.5161C14.25 10.1019 14.5858 9.76611 15 9.76611H15.0075C15.4217 9.76611 15.7575 10.1019 15.7575 10.5161V10.5236C15.7575 10.9378 15.4217 11.2736 15.0075 11.2736H15C14.5858 11.2736 14.25 10.9378 14.25 10.5236V10.5161ZM17.25 10.5161C17.25 10.1019 17.5858 9.76611 18 9.76611H18.0075C18.4217 9.76611 18.7575 10.1019 18.7575 10.5161V10.5236C18.7575 10.9378 18.4217 11.2736 18.0075 11.2736H18C17.5858 11.2736 17.25 10.9378 17.25 10.5236V10.5161Z" fill="#111827"/>
</svg>
