<svg width="24" height="25" viewBox="0 0 24 25" fill="none" xmlns="http://www.w3.org/2000/svg">
    <path fill-rule="evenodd" clip-rule="evenodd"
          d="M12.75 3.01611C11.7877 3.01611 11.25 3.64202 11.25 4.14111C11.25 4.3308 11.3145 4.51785 11.4455 4.68996C11.6828 5.0016 12 5.49049 12 6.10305C12 6.88034 11.3617 7.51813 10.5714 7.49537C9.46249 7.46343 8.36273 7.39444 7.27336 7.28959C7.40195 8.62591 7.47657 9.97787 7.49505 11.3432C7.50574 12.1339 6.86451 12.766 6.08703 12.7661L6.08694 12.0151V12.7661C5.47438 12.7661 4.98549 12.4489 4.67384 12.2116L5.1282 11.6149L4.67384 12.2116C4.50174 12.0806 4.31469 12.0161 4.125 12.0161C3.62591 12.0161 3 12.5538 3 13.5161C3 14.4784 3.62591 15.0161 4.125 15.0161C4.31469 15.0161 4.50174 14.9517 4.67384 14.8206C4.98549 14.5833 5.47438 14.2661 6.08694 14.2661C6.82607 14.2661 7.42193 14.8913 7.36688 15.6402C7.25895 17.1087 7.08595 18.5591 6.85074 19.9887C8.04785 20.1185 9.25849 20.2035 10.4809 20.2421C10.4515 20.1483 10.3841 20.0219 10.2522 19.8487C9.94147 19.4406 9.75011 18.9395 9.75011 18.3912C9.75011 16.8192 11.2271 15.7662 12.7501 15.7662C14.2731 15.7662 15.7501 16.8192 15.7501 18.3912C15.7501 18.9395 15.5588 19.4406 15.248 19.8487C15.1475 19.9807 15.0845 20.0855 15.0471 20.1694C16.5986 20.0707 18.1296 19.8971 19.6366 19.6523C19.8405 18.3976 19.9949 17.1261 20.0979 15.8401C20.0244 15.8785 19.937 15.9346 19.8327 16.0141L19.3783 15.4174L19.8327 16.0141C19.4246 16.3248 18.9234 16.5162 18.3751 16.5162C16.8031 16.5162 15.7501 15.0392 15.7501 13.5162C15.7501 11.9932 16.8031 10.5162 18.3751 10.5162C18.9234 10.5162 19.4246 10.7075 19.8327 11.0182C20.0174 11.1589 20.1488 11.2262 20.2443 11.2524C20.2209 9.77295 20.1295 8.31021 19.9731 6.86715C18.3102 7.14072 16.619 7.33013 14.9043 7.43087C14.1349 7.47607 13.5 6.8611 13.5 6.10305C13.5 5.4905 13.8172 5.0016 14.0545 4.68996L14.6512 5.14431L14.0545 4.68996C14.1855 4.51785 14.25 4.3308 14.25 4.14111C14.25 3.64202 13.7123 3.01611 12.75 3.01611ZM5.99355 11.2521C5.96829 9.65821 5.86413 8.08367 5.68485 6.5322C5.65857 6.30472 5.73764 6.0777 5.89957 5.91577C6.0615 5.75385 6.28852 5.67478 6.51601 5.70107C7.82199 5.85201 9.14432 5.94972 10.4808 5.99195C10.4513 5.89811 10.3839 5.77179 10.2521 5.59866C9.94136 5.19057 9.75 4.68942 9.75 4.14111C9.75 2.56914 11.227 1.51611 12.75 1.51611C14.273 1.51611 15.75 2.56914 15.75 4.14111C15.75 4.68942 15.5586 5.19057 15.2479 5.59866C15.1474 5.73064 15.0844 5.83542 15.047 5.91934C16.8931 5.8019 18.7102 5.57848 20.4922 5.25514C20.695 5.21835 20.9039 5.2666 21.07 5.38857C21.2361 5.51053 21.3447 5.69546 21.3703 5.89993C21.5939 7.68615 21.7209 9.50227 21.7458 11.3427C21.7565 12.1338 21.1149 12.7662 20.3371 12.7662C19.7245 12.7662 19.2356 12.449 18.924 12.2117C18.7519 12.0806 18.5648 12.0162 18.3751 12.0162C17.876 12.0162 17.2501 12.5539 17.2501 13.5162C17.2501 14.4784 17.876 15.0162 18.3751 15.0162C18.5648 15.0162 18.7519 14.9517 18.924 14.8207C19.2356 14.5834 19.7245 14.2662 20.3371 14.2662C21.0765 14.2662 21.6727 14.8916 21.6176 15.6409C21.4985 17.2611 21.3002 18.8594 21.0265 20.4319C20.9722 20.7437 20.728 20.9879 20.4162 21.0422C18.6109 21.3564 16.7717 21.5712 14.9045 21.681C14.1351 21.7262 13.5001 21.1112 13.5001 20.3531C13.5001 19.7405 13.8173 19.2516 14.0546 18.94C14.1857 18.7679 14.2501 18.5809 14.2501 18.3912C14.2501 17.8921 13.7124 17.2662 12.7501 17.2662C11.7878 17.2662 11.2501 17.8921 11.2501 18.3912C11.2501 18.5808 11.3146 18.7679 11.4456 18.94C11.6829 19.2516 12.0001 19.7405 12.0001 20.3531C12.0001 21.1304 11.3618 21.7683 10.5715 21.7455C8.98893 21.7 7.42511 21.5789 5.8835 21.3859C5.67904 21.3603 5.49411 21.2517 5.37215 21.0856C5.25019 20.9195 5.20194 20.7106 5.23873 20.5078C5.51658 18.9766 5.72065 17.4195 5.8471 15.8404C5.77375 15.8788 5.68661 15.9348 5.58255 16.014L5.1282 15.4173L5.58255 16.014C5.17446 16.3248 4.67331 16.5161 4.125 16.5161C2.55302 16.5161 1.5 15.0391 1.5 13.5161C1.5 11.9931 2.55302 10.5161 4.125 10.5161C4.67331 10.5161 5.17446 10.7075 5.58255 11.0182C5.76682 11.1585 5.89806 11.2258 5.99355 11.2521Z"
          fill="#111827"/>
</svg>
