<svg width="24" height="24" viewBox="0 0 24 24" fill="none" xmlns="http://www.w3.org/2000/svg">
<path fill-rule="evenodd" clip-rule="evenodd" d="M3 6.375C3 4.92525 4.17525 3.75 5.625 3.75H18.375C19.8247 3.75 21 4.92525 21 6.375C21 7.82475 19.8247 9 18.375 9H5.625C4.17525 9 3 7.82475 3 6.375ZM5.625 5.25C5.00368 5.25 4.5 5.75368 4.5 6.375C4.5 6.99632 5.00368 7.5 5.625 7.5H18.375C18.9963 7.5 19.5 6.99632 19.5 6.375C19.5 5.75368 18.9963 5.25 18.375 5.25H5.625ZM3 12C3 11.5858 3.33579 11.25 3.75 11.25H20.25C20.6642 11.25 21 11.5858 21 12C21 12.4142 20.6642 12.75 20.25 12.75H3.75C3.33579 12.75 3 12.4142 3 12ZM3 15.75C3 15.3358 3.33579 15 3.75 15H20.25C20.6642 15 21 15.3358 21 15.75C21 16.1642 20.6642 16.5 20.25 16.5H3.75C3.33579 16.5 3 16.1642 3 15.75ZM3 19.5C3 19.0858 3.33579 18.75 3.75 18.75H20.25C20.6642 18.75 21 19.0858 21 19.5C21 19.9142 20.6642 20.25 20.25 20.25H3.75C3.33579 20.25 3 19.9142 3 19.5Z" fill="#111827"/>
</svg>
