<svg width="24" height="24" viewBox="0 0 24 24" fill="none" xmlns="http://www.w3.org/2000/svg">
<path fill-rule="evenodd" clip-rule="evenodd" d="M20.9776 3.1931C21.0781 3.59495 20.8337 4.00215 20.4319 4.10261L12.8156 6.00669C15.2827 6.04717 17.7056 6.27097 20.0713 6.66518C21.5031 6.90378 22.5 8.15785 22.5 9.57403V18.75C22.5 20.4069 21.1569 21.75 19.5 21.75H4.5C2.84315 21.75 1.5 20.4069 1.5 18.75V9.57402C1.5 8.15785 2.49686 6.90378 3.92872 6.66518C3.99519 6.6541 4.06172 6.64316 4.12829 6.63235L20.0681 2.6474C20.4699 2.54693 20.8771 2.79125 20.9776 3.1931ZM3.84421 8.24413C3.34359 8.46667 3 8.97914 3 9.57402V18.75C3 19.5784 3.67157 20.25 4.5 20.25H19.5C20.3284 20.25 21 19.5784 21 18.75V9.57403C21 8.85542 20.4986 8.25707 19.8247 8.14477C17.28 7.72074 14.6661 7.5 12 7.5C9.42296 7.5 6.89461 7.70624 4.43044 8.10297L3.9319 8.22761C3.90266 8.23492 3.87339 8.2404 3.84421 8.24413ZM8.49738 10.5C8.49738 10.0858 8.83317 9.75 9.24738 9.75H9.25488C9.6691 9.75 10.0049 10.0858 10.0049 10.5V10.5075C10.0049 10.9217 9.6691 11.2575 9.25488 11.2575H9.24738C8.83317 11.2575 8.49738 10.9217 8.49738 10.5075V10.5ZM7.0025 10.3515C7.36121 10.1444 7.81991 10.2673 8.02702 10.626L8.03077 10.6325C8.23788 10.9912 8.11497 11.4499 7.75626 11.657L7.74976 11.6607C7.39104 11.8679 6.93235 11.745 6.72524 11.3862L6.72149 11.3797C6.51438 11.021 6.63728 10.5623 6.996 10.3552L7.0025 10.3515ZM10.4753 10.6261C10.6824 10.2674 11.1411 10.1444 11.4999 10.3516L11.5064 10.3553C11.8651 10.5624 11.988 11.0211 11.7809 11.3798L11.7771 11.3863C11.57 11.745 11.1113 11.8679 10.7526 11.6608L10.7461 11.6571C10.3874 11.45 10.2645 10.9913 10.4716 10.6326L10.4753 10.6261ZM15.75 12C15.75 11.1716 16.4216 10.5 17.25 10.5C18.0784 10.5 18.75 11.1716 18.75 12C18.75 12.8284 18.0784 13.5 17.25 13.5C16.4216 13.5 15.75 12.8284 15.75 12ZM5.35287 11.9985C5.55997 11.6398 6.01867 11.5169 6.37739 11.724L6.38388 11.7278C6.7426 11.9349 6.8655 12.3936 6.65839 12.7523L6.65464 12.7588C6.44753 13.1175 5.98884 13.2404 5.63012 13.0333L5.62363 13.0296C5.26491 12.8224 5.14201 12.3638 5.34912 12.005L5.35287 11.9985ZM12.1252 11.7241C12.4839 11.517 12.9426 11.6399 13.1497 11.9986L13.1534 12.0051C13.3605 12.3638 13.2376 12.8225 12.8789 13.0296L12.8724 13.0334C12.5137 13.2405 12.055 13.1176 11.8479 12.7589L11.8441 12.7524C11.637 12.3937 11.7599 11.935 12.1187 11.7279L12.1252 11.7241ZM7.66036 12.6573C7.95325 12.3644 8.4281 12.3644 8.72099 12.6573L8.72629 12.6626C8.86695 12.8032 8.94597 12.994 8.94598 13.1929C8.94598 13.3918 8.86697 13.5826 8.72633 13.7233L8.72102 13.7286C8.58037 13.8692 8.3896 13.9482 8.19067 13.9482C7.99175 13.9482 7.80098 13.8692 7.66033 13.7286L7.65502 13.7233C7.51438 13.5826 7.43536 13.3918 7.43537 13.1929C7.43538 12.994 7.5144 12.8032 7.65506 12.6626L7.66036 12.6573ZM10.3116 12.4378C10.5105 12.4378 10.7013 12.5168 10.8419 12.6575L10.8472 12.6628C11.1401 12.9557 11.1401 13.4306 10.8472 13.7234L10.8419 13.7288C10.7013 13.8694 10.5105 13.9484 10.3116 13.9484C10.1126 13.9484 9.92187 13.8694 9.78123 13.7287L9.77592 13.7234C9.48308 13.4305 9.48308 12.9557 9.77592 12.6628L9.78123 12.6575C9.92187 12.5169 10.1126 12.4378 10.3116 12.4378ZM4.74738 14.2498C4.74738 13.8356 5.08317 13.4998 5.49738 13.4998H5.50488C5.9191 13.4998 6.25488 13.8356 6.25488 14.2498V14.2573C6.25488 14.6715 5.9191 15.0073 5.50488 15.0073H5.49738C5.08317 15.0073 4.74738 14.6715 4.74738 14.2573V14.2498ZM12.2474 14.2498C12.2474 13.8356 12.5832 13.4998 12.9974 13.4998H13.0049C13.4191 13.4998 13.7549 13.8356 13.7549 14.2498V14.2573C13.7549 14.6715 13.4191 15.0073 13.0049 15.0073H12.9974C12.5832 15.0073 12.2474 14.6715 12.2474 14.2573V14.2498ZM9.78147 14.7785C10.0744 14.4857 10.5492 14.4857 10.8421 14.7785L10.8474 14.7839C10.988 14.9245 11.0671 15.1153 11.0671 15.3142C11.0671 15.5131 10.9881 15.7039 10.8474 15.8445L10.8421 15.8499C10.5492 16.1427 10.0743 16.1427 9.78144 15.8499L9.77613 15.8445C9.63548 15.7039 9.55646 15.5131 9.55646 15.3142C9.55647 15.1153 9.6355 14.9245 9.77617 14.7839L9.78147 14.7785ZM8.19051 14.5591C8.38943 14.5591 8.58019 14.6381 8.72085 14.7788L8.72615 14.7841C9.01902 15.077 9.01902 15.5518 8.72615 15.8447L8.72085 15.85C8.58019 15.9907 8.38943 16.0697 8.19051 16.0697C7.99159 16.0697 7.80082 15.9907 7.66017 15.85L7.65486 15.8447C7.36197 15.5518 7.36197 15.077 7.65486 14.7841L7.66017 14.7788C7.80082 14.6381 7.99159 14.5591 8.19051 14.5591ZM15.75 16.5C15.75 15.6716 16.4216 15 17.25 15C18.0784 15 18.75 15.6716 18.75 16.5C18.75 17.3284 18.0784 18 17.25 18C16.4216 18 15.75 17.3284 15.75 16.5ZM11.848 15.7485C12.0551 15.3898 12.5137 15.2669 12.8724 15.474L12.8789 15.4777C13.0512 15.5772 13.1769 15.741 13.2284 15.9331C13.2799 16.1253 13.253 16.33 13.1535 16.5023L13.1498 16.5088C13.0503 16.681 12.8865 16.8068 12.6943 16.8582C12.5022 16.9097 12.2975 16.8828 12.1252 16.7833L12.1187 16.7795C11.76 16.5724 11.6371 16.1137 11.8443 15.755L11.848 15.7485ZM6.19914 15.3992C6.39129 15.4507 6.55512 15.5764 6.65457 15.7487L6.65832 15.7552C6.75777 15.9274 6.78472 16.1321 6.73322 16.3243C6.68173 16.5164 6.55601 16.6802 6.38374 16.7797L6.37724 16.7834C6.01854 16.9905 5.5599 16.8676 5.3528 16.5089L5.34905 16.5024C5.14192 16.1437 5.26479 15.685 5.62349 15.4779L5.62998 15.4741C5.80225 15.3747 6.00698 15.3477 6.19914 15.3992ZM10.7526 16.8466C11.1113 16.6395 11.5699 16.7624 11.777 17.1211L11.7808 17.1276C11.8802 17.2999 11.9072 17.5046 11.8557 17.6968C11.8042 17.8889 11.6785 18.0527 11.5062 18.1521L11.4997 18.1559C11.141 18.363 10.6823 18.24 10.4752 17.8813L10.4715 17.8748C10.372 17.7026 10.3451 17.4978 10.3966 17.3057C10.4481 17.1136 10.5738 16.9498 10.7461 16.8503L10.7526 16.8466ZM7.18076 16.7717C7.37291 16.7203 7.57764 16.7472 7.74991 16.8467L7.75641 16.8505C8.11507 17.0576 8.23796 17.5162 8.03088 17.8749L8.02713 17.8814C7.92767 18.0537 7.76385 18.1794 7.57169 18.2309C7.37954 18.2824 7.17481 18.2554 7.00254 18.1559L6.99604 18.1522C6.63738 17.9451 6.51449 17.4864 6.72157 17.1277L6.72532 17.1212C6.82478 16.9489 6.9886 16.8232 7.18076 16.7717ZM8.49738 18C8.49738 17.5858 8.83317 17.25 9.24738 17.25H9.25488C9.6691 17.25 10.0049 17.5858 10.0049 18V18.0075C10.0049 18.4217 9.6691 18.7575 9.25488 18.7575H9.24738C8.83317 18.7575 8.49738 18.4217 8.49738 18.0075V18Z" fill="#111827"/>
</svg>
