<svg width="24" height="24" viewBox="0 0 24 24" fill="none" xmlns="http://www.w3.org/2000/svg">
    <path fill-rule="evenodd" clip-rule="evenodd"
          d="M12 2.25C12.4142 2.25 12.75 2.58579 12.75 3V3.75565C14.8183 3.78686 16.8558 3.94691 18.8545 4.22821C19.8808 4.37264 20.8968 4.54903 21.9016 4.75635C22.3073 4.84005 22.5683 5.23676 22.4846 5.64243C22.4009 6.0481 22.0041 6.3091 21.5985 6.2254C20.9848 6.09878 20.3667 5.98405 19.7446 5.88148L22.099 15.5181C22.2949 16.32 21.9425 17.2768 21.035 17.6032C20.3204 17.8603 19.5507 18 18.75 18C17.9493 18 17.1796 17.8603 16.465 17.6032C15.5575 17.2768 15.2052 16.32 15.4011 15.5181L17.823 5.60517C16.1575 5.40052 14.465 5.28251 12.75 5.25583V19.5217C14.0426 19.5968 15.2845 19.8645 16.4468 20.2971C16.835 20.4416 17.0326 20.8734 16.8881 21.2616C16.7436 21.6498 16.3118 21.8474 15.9236 21.7029C14.703 21.2486 13.3814 21 12 21C10.6187 21 9.29708 21.2486 8.07645 21.7029C7.68825 21.8474 7.25643 21.6498 7.11195 21.2616C6.96748 20.8734 7.16506 20.4416 7.55326 20.2971C8.71558 19.8645 9.95749 19.5968 11.25 19.5217V5.25583C9.53509 5.28251 7.84256 5.40052 6.17705 5.60517L8.59896 15.5181C8.79488 16.32 8.44253 17.2768 7.53502 17.6032C6.82042 17.8603 6.05072 18 5.25003 18C4.44934 18 3.67964 17.8603 2.96503 17.6032C2.05753 17.2768 1.70518 16.32 1.90109 15.5181L4.2555 5.88148C3.63333 5.98405 3.01527 6.09878 2.40158 6.2254C1.99591 6.3091 1.5992 6.0481 1.5155 5.64243C1.4318 5.23676 1.6928 4.84005 2.09847 4.75635C3.10323 4.54903 4.11926 4.37264 5.1455 4.22821C7.14429 3.94691 9.18171 3.78686 11.25 3.75565V3C11.25 2.58579 11.5858 2.25 12 2.25ZM5.25003 8.13096L3.35823 15.8741C3.33689 15.9615 3.34902 16.0421 3.3756 16.0983C3.39997 16.1499 3.43306 16.1775 3.47275 16.1918C4.02682 16.3911 4.62487 16.5 5.25003 16.5C5.87518 16.5 6.47324 16.3911 7.02731 16.1918C7.06699 16.1775 7.10008 16.1499 7.12445 16.0983C7.15103 16.0421 7.16316 15.9615 7.14182 15.8741L5.25003 8.13096ZM18.75 8.13096L16.8582 15.8741C16.8369 15.9615 16.849 16.0421 16.8756 16.0983C16.9 16.1499 16.9331 16.1775 16.9727 16.1918C17.5268 16.3911 18.1249 16.5 18.75 16.5C19.3752 16.5 19.9732 16.3911 20.5273 16.1918C20.567 16.1775 20.6001 16.1499 20.6245 16.0983C20.651 16.0421 20.6632 15.9615 20.6418 15.8741L18.75 8.13096Z"
          fill="#111827"/>
</svg>
