<svg width="24" height="24" viewBox="0 0 24 24" fill="none" xmlns="http://www.w3.org/2000/svg">
    <path fill-rule="evenodd" clip-rule="evenodd"
          d="M6.37514 4.80143C5.29898 4.18011 3.9229 4.54883 3.30158 5.62499C2.68026 6.70114 3.04898 8.07722 4.12514 8.69854C5.20128 9.31985 6.57701 8.95121 7.19834 7.87504C7.81975 6.79874 7.45116 5.42267 6.37514 4.80143ZM2.00254 4.87499C3.03808 3.08139 5.33154 2.46686 7.12514 3.50239C8.69641 4.40956 9.3624 6.28201 8.80743 7.93802L11.3227 9.3902C11.8762 8.87139 12.5507 8.47202 13.31 8.23979L18.6347 6.61131C19.5757 6.32354 20.5785 6.30599 21.529 6.56066L22.3314 6.77567C22.6244 6.85418 22.8413 7.10147 22.8809 7.40222C22.9205 7.70297 22.775 7.99796 22.5123 8.14963L15.8431 12.0001L22.5123 15.8505C22.775 16.0022 22.9205 16.2972 22.8809 16.5979C22.8413 16.8987 22.6244 17.146 22.3314 17.2245L21.529 17.4395C20.5785 17.6942 19.5757 17.6766 18.6347 17.3888L13.31 15.7604C12.5507 15.5281 11.8762 15.1288 11.3227 14.6099L8.80743 16.0621C9.3624 17.7181 8.69639 19.5904 7.12514 20.4976C5.33154 21.5331 3.03808 20.9186 2.00254 19.125C0.967009 17.3314 1.58154 15.0379 3.37514 14.0024C4.94636 13.0952 6.90079 13.4545 8.05743 14.7631L9.00944 14.2135C9.43984 13.965 9.7083 13.5089 9.71666 13.012C9.72247 12.6669 9.76306 12.3283 9.8356 12.0001C9.76306 11.6719 9.72247 11.3333 9.71666 10.9882C9.7083 10.4913 9.43984 10.0352 9.00944 9.7867L8.05743 9.23706C6.90076 10.5457 4.94631 10.9047 3.37514 9.99758C1.58154 8.96205 0.967009 6.66858 2.00254 4.87499ZM12.7073 13.8105C13.0181 14.0338 13.3681 14.2096 13.7487 14.3259L19.0734 15.9544C19.3651 16.0436 19.665 16.0965 19.9667 16.1129L14.3431 12.8661L12.7073 13.8105ZM11.2195 12.9375C11.2309 12.6812 11.2694 12.4311 11.3325 12.1901C11.4656 11.6817 11.7085 11.2129 12.0385 10.8143C12.4747 10.2874 13.0621 9.8842 13.7487 9.6742L19.0734 8.04573C19.3651 7.95653 19.665 7.90368 19.9667 7.88729L11.2195 12.9375ZM7.19834 16.1251C6.57697 15.0489 5.20121 14.6802 4.12514 15.3014C3.04898 15.9227 2.68026 17.2988 3.30158 18.375C3.9229 19.4511 5.29898 19.8199 6.37514 19.1985C7.45117 18.5773 7.81973 17.2014 7.19834 16.1251Z"
          fill="#111827"/>
</svg>
