<svg width="24" height="24" viewBox="0 0 24 24" fill="none" xmlns="http://www.w3.org/2000/svg">
    <path fill-rule="evenodd" clip-rule="evenodd"
          d="M8.4375 4.5C7.61126 4.5 6.83324 4.88901 6.3375 5.55L4.85997 7.52004C4.98817 7.50679 5.11829 7.5 5.25 7.5H18.75C18.8817 7.5 19.0118 7.50679 19.14 7.52004L17.6625 5.55C17.1668 4.88901 16.3887 4.5 15.5625 4.5H8.4375ZM21 11.25C21 10.0074 19.9926 9 18.75 9H5.25C4.00736 9 3 10.0074 3 11.25C3 12.4926 4.00736 13.5 5.25 13.5H18.75C19.9926 13.5 21 12.4926 21 11.25ZM21.0004 14.25C21.911 13.5658 22.5 12.4767 22.5 11.25C22.5 10.1141 22.1316 9.00875 21.45 8.1L18.8625 4.65L18.2625 5.1L18.8625 4.65C18.0835 3.6113 16.8609 3 15.5625 3H8.4375C7.13913 3 5.91652 3.6113 5.1375 4.65L2.55 8.1C1.86843 9.00876 1.5 10.1141 1.5 11.25C1.5 12.4767 2.08901 13.5658 2.99964 14.25C2.08901 14.9342 1.5 16.0233 1.5 17.25C1.5 19.3211 3.17893 21 5.25 21H18.75C20.8211 21 22.5 19.3211 22.5 17.25C22.5 16.0233 21.911 14.9342 21.0004 14.25ZM5.25 15C4.00736 15 3 16.0074 3 17.25C3 18.4926 4.00736 19.5 5.25 19.5H18.75C19.9926 19.5 21 18.4926 21 17.25C21 16.0074 19.9926 15 18.75 15H5.25ZM15 11.25C15 10.8358 15.3358 10.5 15.75 10.5H15.7575C16.1717 10.5 16.5075 10.8358 16.5075 11.25V11.2575C16.5075 11.6717 16.1717 12.0075 15.7575 12.0075H15.75C15.3358 12.0075 15 11.6717 15 11.2575V11.25ZM18 11.25C18 10.8358 18.3358 10.5 18.75 10.5H18.7575C19.1717 10.5 19.5075 10.8358 19.5075 11.25V11.2575C19.5075 11.6717 19.1717 12.0075 18.7575 12.0075H18.75C18.3358 12.0075 18 11.6717 18 11.2575V11.25ZM15 17.25C15 16.8358 15.3358 16.5 15.75 16.5H15.7575C16.1717 16.5 16.5075 16.8358 16.5075 17.25V17.2575C16.5075 17.6717 16.1717 18.0075 15.7575 18.0075H15.75C15.3358 18.0075 15 17.6717 15 17.2575V17.25ZM18 17.25C18 16.8358 18.3358 16.5 18.75 16.5H18.7575C19.1717 16.5 19.5075 16.8358 19.5075 17.25V17.2575C19.5075 17.6717 19.1717 18.0075 18.7575 18.0075H18.75C18.3358 18.0075 18 17.6717 18 17.2575V17.25Z"
          fill="#111827"/>
</svg>
