<svg width="24" height="24" viewBox="0 0 24 24" fill="none" xmlns="http://www.w3.org/2000/svg">
    <path fill-rule="evenodd" clip-rule="evenodd"
          d="M10.9393 3.00234C11.8843 2.0574 13.5 2.72665 13.5 4.06301V19.9417C13.5 21.278 11.8843 21.9473 10.9393 21.0023L6.43934 16.5023H4.50905C3.36772 16.5023 2.19106 15.8379 1.8493 14.5973C1.62147 13.7702 1.5 12.8999 1.5 12.0023C1.5 11.1048 1.62147 10.2345 1.8493 9.4074C2.19106 8.16678 3.36772 7.50235 4.50905 7.50235H6.43934L10.9393 3.00234L11.4697 3.53267L10.9393 3.00234ZM12 4.06301L7.28033 8.78268C7.13968 8.92333 6.94891 9.00235 6.75 9.00235H4.50905C3.8917 9.00235 3.42075 9.35085 3.29544 9.80577C3.10302 10.5043 3 11.2407 3 12.0023C3 12.764 3.10302 13.5004 3.29544 14.1989C3.42075 14.6538 3.8917 15.0023 4.50905 15.0023H6.75C6.94891 15.0023 7.13968 15.0814 7.28033 15.222L12 19.9417V4.06301ZM16.7197 9.22202C17.0126 8.92912 17.4874 8.92912 17.7803 9.22202L19.5 10.9417L21.2197 9.22202C21.5126 8.92912 21.9874 8.92912 22.2803 9.22202C22.5732 9.51491 22.5732 9.98978 22.2803 10.2827L20.5607 12.0023L22.2803 13.722C22.5732 14.0149 22.5732 14.4898 22.2803 14.7827C21.9874 15.0756 21.5126 15.0756 21.2197 14.7827L19.5 13.063L17.7803 14.7827C17.4874 15.0756 17.0126 15.0756 16.7197 14.7827C16.4268 14.4898 16.4268 14.0149 16.7197 13.722L18.4393 12.0023L16.7197 10.2827C16.4268 9.98978 16.4268 9.51491 16.7197 9.22202Z"
          fill="#111827"/>
</svg>
