<svg width="24" height="24" viewBox="0 0 24 24" fill="none" xmlns="http://www.w3.org/2000/svg">
<path fill-rule="evenodd" clip-rule="evenodd" d="M10.9393 3.00234C11.8843 2.0574 13.5 2.72665 13.5 4.06301V19.9417C13.5 21.278 11.8843 21.9473 10.9393 21.0023L6.43934 16.5023H4.50905C3.36772 16.5023 2.19106 15.8379 1.8493 14.5973C1.62147 13.7702 1.5 12.8999 1.5 12.0023C1.5 11.1048 1.62147 10.2345 1.8493 9.4074C2.19106 8.16678 3.36772 7.50235 4.50905 7.50235H6.43934L10.9393 3.00234L11.4697 3.53267L10.9393 3.00234ZM12 4.06301L7.28033 8.78268C7.13968 8.92333 6.94891 9.00235 6.75 9.00235H4.50905C3.8917 9.00235 3.42075 9.35085 3.29544 9.80577C3.10302 10.5043 3 11.2407 3 12.0023C3 12.764 3.10302 13.5004 3.29544 14.1989C3.42075 14.6538 3.8917 15.0023 4.50905 15.0023H6.75C6.94891 15.0023 7.13968 15.0814 7.28033 15.222L12 19.9417V4.06301ZM18.5837 5.108C18.8766 4.81511 19.3514 4.81511 19.6443 5.108C23.452 8.91561 23.452 15.089 19.6443 18.8966C19.3514 19.1895 18.8766 19.1895 18.5837 18.8966C18.2908 18.6037 18.2908 18.1288 18.5837 17.8359C21.8055 14.6141 21.8055 9.39049 18.5837 6.16866C18.2908 5.87577 18.2908 5.4009 18.5837 5.108ZM15.9323 7.75974C16.2252 7.46684 16.7001 7.46684 16.993 7.75974C19.3361 10.1029 19.3361 13.9019 16.993 16.245C16.7001 16.5379 16.2252 16.5379 15.9323 16.245C15.6394 15.9521 15.6394 15.4773 15.9323 15.1844C17.6897 13.427 17.6897 10.5778 15.9323 8.8204C15.6394 8.5275 15.6394 8.05263 15.9323 7.75974Z" fill="#111827"/>
</svg>
