<svg width="24" height="24" viewBox="0 0 24 24" fill="none" xmlns="http://www.w3.org/2000/svg">
<path fill-rule="evenodd" clip-rule="evenodd" d="M3 6.00232C3 4.34546 4.34315 3.00232 6 3.00232H8.25C9.90685 3.00232 11.25 4.34547 11.25 6.00232V8.25232C11.25 9.90917 9.90685 11.2523 8.25 11.2523H6C4.34315 11.2523 3 9.90917 3 8.25232V6.00232ZM6 4.50232C5.17157 4.50232 4.5 5.17389 4.5 6.00232V8.25232C4.5 9.08075 5.17157 9.75232 6 9.75232H8.25C9.07843 9.75232 9.75 9.08075 9.75 8.25232V6.00232C9.75 5.17389 9.07843 4.50232 8.25 4.50232H6ZM12.75 6.00232C12.75 4.34546 14.0931 3.00232 15.75 3.00232H18C19.6569 3.00232 21 4.34547 21 6.00232V8.25232C21 9.90917 19.6569 11.2523 18 11.2523H15.75C14.0931 11.2523 12.75 9.90917 12.75 8.25232V6.00232ZM15.75 4.50232C14.9216 4.50232 14.25 5.17389 14.25 6.00232V8.25232C14.25 9.08075 14.9216 9.75232 15.75 9.75232H18C18.8284 9.75232 19.5 9.08075 19.5 8.25232V6.00232C19.5 5.17389 18.8284 4.50232 18 4.50232H15.75ZM3 15.7523C3 14.0955 4.34315 12.7523 6 12.7523H8.25C9.90685 12.7523 11.25 14.0955 11.25 15.7523V18.0023C11.25 19.6592 9.90685 21.0023 8.25 21.0023H6C4.34315 21.0023 3 19.6592 3 18.0023V15.7523ZM6 14.2523C5.17157 14.2523 4.5 14.9239 4.5 15.7523V18.0023C4.5 18.8307 5.17157 19.5023 6 19.5023H8.25C9.07843 19.5023 9.75 18.8307 9.75 18.0023V15.7523C9.75 14.9239 9.07843 14.2523 8.25 14.2523H6ZM12.75 15.7523C12.75 14.0955 14.0931 12.7523 15.75 12.7523H18C19.6569 12.7523 21 14.0955 21 15.7523V18.0023C21 19.6592 19.6569 21.0023 18 21.0023H15.75C14.0931 21.0023 12.75 19.6592 12.75 18.0023V15.7523ZM15.75 14.2523C14.9216 14.2523 14.25 14.9239 14.25 15.7523V18.0023C14.25 18.8307 14.9216 19.5023 15.75 19.5023H18C18.8284 19.5023 19.5 18.8307 19.5 18.0023V15.7523C19.5 14.9239 18.8284 14.2523 18 14.2523H15.75Z" fill="#111827"/>
</svg>
