<svg width="24" height="24" viewBox="0 0 24 24" fill="none" xmlns="http://www.w3.org/2000/svg">
    <path fill-rule="evenodd" clip-rule="evenodd"
          d="M11.6444 1.59197C11.8664 1.47244 12.1336 1.47244 12.3556 1.59197L22.1056 6.84197C22.3485 6.97278 22.5 7.22641 22.5 7.50232C22.5 7.77823 22.3485 8.03186 22.1056 8.16267L19.1534 9.75232L22.1056 11.342C22.3485 11.4728 22.5 11.7264 22.5 12.0023C22.5 12.2782 22.3485 12.5319 22.1056 12.6627L19.1534 14.2523L22.1056 15.842C22.3485 15.9728 22.5 16.2264 22.5 16.5023C22.5 16.7782 22.3485 17.0319 22.1056 17.1627L12.3556 22.4127C12.1336 22.5322 11.8664 22.5322 11.6444 22.4127L1.89443 17.1627C1.65149 17.0319 1.5 16.7782 1.5 16.5023C1.5 16.2264 1.65149 15.9728 1.89443 15.842L4.84663 14.2523L1.89443 12.6627C1.65149 12.5319 1.5 12.2782 1.5 12.0023C1.5 11.7264 1.65149 11.4728 1.89443 11.342L4.84663 9.75232L1.89443 8.16267C1.65149 8.03186 1.5 7.77823 1.5 7.50232C1.5 7.22641 1.65149 6.97278 1.89443 6.84197L11.6444 1.59197ZM6.42857 10.6041L3.83195 12.0023L12 16.4005L20.1681 12.0023L17.5714 10.6041L12.3556 13.4127C12.1336 13.5322 11.8664 13.5322 11.6444 13.4127L6.42857 10.6041ZM6.42857 15.1041L3.83195 16.5023L12 20.9005L20.1681 16.5023L17.5714 15.1041L12.3556 17.9127C12.1336 18.0322 11.8664 18.0322 11.6444 17.9127L6.42857 15.1041ZM3.83194 7.50232L12 11.9005L20.1681 7.50232L12 3.10414L3.83194 7.50232Z"
          fill="#111827"/>
</svg>
