<svg width="24" height="24" viewBox="0 0 24 24" fill="none" xmlns="http://www.w3.org/2000/svg">
    <path fill-rule="evenodd" clip-rule="evenodd"
          d="M3 6.00232C3 4.34547 4.34315 3.00232 6 3.00232H14.25C15.9069 3.00232 17.25 4.34546 17.25 6.00232V7.50232H18C19.6569 7.50232 21 8.84547 21 10.5023V18.0023C21 19.6592 19.6569 21.0023 18 21.0023H10.5C8.84315 21.0023 7.5 19.6592 7.5 18.0023V17.2523H6C4.34315 17.2523 3 15.9092 3 14.2523V6.00232ZM7.5 15.7523V10.5023C7.5 8.84547 8.84315 7.50232 10.5 7.50232H15.75V6.00232C15.75 5.17389 15.0784 4.50232 14.25 4.50232H6C5.17157 4.50232 4.5 5.17389 4.5 6.00232V14.2523C4.5 15.0807 5.17157 15.7523 6 15.7523H7.5ZM10.5 9.00232C9.67157 9.00232 9 9.67389 9 10.5023V18.0023C9 18.8307 9.67157 19.5023 10.5 19.5023H18C18.8284 19.5023 19.5 18.8307 19.5 18.0023V10.5023C19.5 9.67389 18.8284 9.00232 18 9.00232H10.5Z"
          fill="#111827"/>
</svg>
