<svg width="24" height="24" viewBox="0 0 24 24" fill="none" xmlns="http://www.w3.org/2000/svg">
<path fill-rule="evenodd" clip-rule="evenodd" d="M10.7881 3.213C11.2364 2.13505 12.7635 2.13505 13.2118 3.213L15.2938 8.21872L20.6979 8.65196C21.8616 8.74525 22.3335 10.1975 21.4469 10.957L17.3295 14.484L18.5874 19.7575C18.8583 20.8931 17.6229 21.7906 16.6266 21.1821L11.9999 18.3562L7.37329 21.1821C6.37697 21.7906 5.14158 20.8931 5.41246 19.7575L6.67038 14.484L2.55303 10.957C1.66639 10.1975 2.13826 8.74525 3.302 8.65196L8.70609 8.21872L10.7881 3.213ZM11.9999 4.20528L10.0471 8.9005C9.85808 9.35494 9.43072 9.66543 8.94012 9.70477L3.87123 10.1111L7.73319 13.4193C8.10697 13.7395 8.27021 14.2419 8.15601 14.7206L6.97612 19.667L11.3158 17.0164C11.7358 16.7598 12.2641 16.7598 12.6841 17.0164L17.0238 19.667L15.8439 14.7206C15.7297 14.2419 15.8929 13.7395 16.2667 13.4193L20.1287 10.1111L15.0598 9.70477C14.5692 9.66543 14.1418 9.35494 13.9528 8.9005L11.9999 4.20528Z" fill="#111827"/>
</svg>
