<svg width="24" height="24" viewBox="0 0 24 24" fill="none" xmlns="http://www.w3.org/2000/svg">
    <path fill-rule="evenodd" clip-rule="evenodd"
          d="M12 3.75232C7.44365 3.75232 3.75 7.44597 3.75 12.0023C3.75 16.5587 7.44365 20.2523 12 20.2523C16.5563 20.2523 20.25 16.5587 20.25 12.0023C20.25 7.44597 16.5563 3.75232 12 3.75232ZM2.25 12.0023C2.25 6.61754 6.61522 2.25232 12 2.25232C17.3848 2.25232 21.75 6.61754 21.75 12.0023C21.75 17.3871 17.3848 21.7523 12 21.7523C6.61522 21.7523 2.25 17.3871 2.25 12.0023ZM8.25 9.56482C8.25 8.83995 8.83763 8.25232 9.5625 8.25232H14.4375C15.1624 8.25232 15.75 8.83995 15.75 9.56482V14.4398C15.75 15.1647 15.1624 15.7523 14.4375 15.7523H9.5625C8.83763 15.7523 8.25 15.1647 8.25 14.4398V9.56482ZM9.75 9.75232V14.2523H14.25V9.75232H9.75Z"
          fill="#111827"/>
</svg>
