<svg width="24" height="24" viewBox="0 0 24 24" fill="none" xmlns="http://www.w3.org/2000/svg">
<path fill-rule="evenodd" clip-rule="evenodd" d="M4.5 7.50232C4.5 5.84547 5.84315 4.50232 7.5 4.50232H16.5C18.1569 4.50232 19.5 5.84547 19.5 7.50232V16.5023C19.5 18.1592 18.1569 19.5023 16.5 19.5023H7.5C5.84315 19.5023 4.5 18.1592 4.5 16.5023V7.50232ZM7.5 6.00232C6.67157 6.00232 6 6.67389 6 7.50232V16.5023C6 17.3307 6.67157 18.0023 7.5 18.0023H16.5C17.3284 18.0023 18 17.3307 18 16.5023V7.50232C18 6.67389 17.3284 6.00232 16.5 6.00232H7.5Z" fill="#111827"/>
</svg>
