<svg width="24" height="24" viewBox="0 0 24 24" fill="none" xmlns="http://www.w3.org/2000/svg">
<path fill-rule="evenodd" clip-rule="evenodd" d="M12 2.25464C12.4142 2.25464 12.75 2.59043 12.75 3.00464V5.25464C12.75 5.66885 12.4142 6.00464 12 6.00464C11.5858 6.00464 11.25 5.66885 11.25 5.25464V3.00464C11.25 2.59043 11.5858 2.25464 12 2.25464ZM5.10571 5.11035C5.3986 4.81745 5.87348 4.81745 6.16637 5.11035L7.75736 6.70134C8.05025 6.99423 8.05025 7.4691 7.75736 7.762C7.46447 8.05489 6.98959 8.05489 6.6967 7.762L5.10571 6.17101C4.81282 5.87811 4.81282 5.40324 5.10571 5.11035ZM18.8943 5.11035C19.1872 5.40324 19.1872 5.87811 18.8943 6.17101L17.3033 7.762C17.0104 8.05489 16.5355 8.05489 16.2426 7.762C15.9497 7.4691 15.9497 6.99423 16.2426 6.70134L17.8336 5.11035C18.1265 4.81745 18.6014 4.81745 18.8943 5.11035ZM12 9.00464C10.3431 9.00464 9 10.3478 9 12.0046C9 13.6615 10.3431 15.0046 12 15.0046C13.6569 15.0046 15 13.6615 15 12.0046C15 10.3478 13.6569 9.00464 12 9.00464ZM7.5 12.0046C7.5 9.51936 9.51472 7.50464 12 7.50464C14.4853 7.50464 16.5 9.51936 16.5 12.0046C16.5 14.4899 14.4853 16.5046 12 16.5046C9.51472 16.5046 7.5 14.4899 7.5 12.0046ZM2.25 12.0046C2.25 11.5904 2.58579 11.2546 3 11.2546H5.25C5.66421 11.2546 6 11.5904 6 12.0046C6 12.4189 5.66421 12.7546 5.25 12.7546H3C2.58579 12.7546 2.25 12.4189 2.25 12.0046ZM18 12.0046C18 11.5904 18.3358 11.2546 18.75 11.2546H21C21.4142 11.2546 21.75 11.5904 21.75 12.0046C21.75 12.4189 21.4142 12.7546 21 12.7546H18.75C18.3358 12.7546 18 12.4189 18 12.0046ZM7.75736 16.2473C8.05025 16.5402 8.05025 17.015 7.75736 17.3079L6.16637 18.8989C5.87348 19.1918 5.3986 19.1918 5.10571 18.8989C4.81282 18.606 4.81282 18.1312 5.10571 17.8383L6.6967 16.2473C6.98959 15.9544 7.46447 15.9544 7.75736 16.2473ZM16.2426 16.2473C16.5355 15.9544 17.0104 15.9544 17.3033 16.2473L18.8943 17.8383C19.1872 18.1312 19.1872 18.606 18.8943 18.8989C18.6014 19.1918 18.1265 19.1918 17.8336 18.8989L16.2426 17.3079C15.9497 17.015 15.9497 16.5402 16.2426 16.2473ZM12 18.0046C12.4142 18.0046 12.75 18.3404 12.75 18.7546V21.0046C12.75 21.4189 12.4142 21.7546 12 21.7546C11.5858 21.7546 11.25 21.4189 11.25 21.0046V18.7546C11.25 18.3404 11.5858 18.0046 12 18.0046Z" fill="#111827"/>
</svg>
