<svg width="24" height="24" viewBox="0 0 24 24" fill="none" xmlns="http://www.w3.org/2000/svg">
<path fill-rule="evenodd" clip-rule="evenodd" d="M4.125 3.75C3.91821 3.75 3.75 3.91821 3.75 4.125V17.25C3.75 18.0459 4.0659 18.8092 4.62833 19.3717C5.12068 19.864 5.76673 20.1678 6.45351 20.236C6.5516 20.2458 6.65053 20.2507 6.74996 20.2507C6.89508 20.2507 7.03949 20.2401 7.18144 20.2195C7.81758 20.127 8.4117 19.8316 8.87167 19.3717C9.4341 18.8092 9.75 18.0459 9.75 17.25V4.125C9.75 3.91821 9.58179 3.75 9.375 3.75H4.125ZM6.75004 21.7507C6.48953 21.7507 6.23129 21.7281 5.97804 21.684C5.65283 21.6273 5.33407 21.535 5.02765 21.408C4.48376 21.1827 3.98938 20.8529 3.57254 20.4372C3.57091 20.4356 3.56929 20.434 3.56767 20.4323C2.72358 19.5882 2.25 18.4432 2.25 17.25V4.125C2.25 3.08979 3.08979 2.25 4.125 2.25H9.375C10.4102 2.25 11.25 3.08979 11.25 4.125V6.38634L12.8491 4.78727C12.849 4.78735 12.8491 4.7872 12.8491 4.78727C13.5808 4.05413 14.7677 4.05572 15.4997 4.78607L19.2123 8.49967C19.9444 9.23172 19.9463 10.4191 19.2116 11.151C19.2115 11.1512 19.2118 11.1508 19.2116 11.151L17.6132 12.75H19.875C20.9102 12.75 21.75 13.5898 21.75 14.625V19.875C21.75 20.9102 20.9102 21.75 19.875 21.75C19.875 21.75 19.8751 21.75 19.875 21.75L6.75004 21.7507ZM18.1516 10.0898L18.1529 10.0885C18.2977 9.9443 18.2994 9.70811 18.1517 9.56033L14.4403 5.84793C14.4402 5.84785 14.4404 5.84802 14.4403 5.84793C14.2923 5.70061 14.0552 5.70218 13.9109 5.84672L11.25 8.50766V16.993L18.1516 10.0898ZM16.1137 14.25L10.1141 20.2505L19.875 20.25C20.0817 20.25 20.25 20.0818 20.25 19.875V14.625C20.25 14.4182 20.0818 14.25 19.875 14.25H16.1137ZM6 17.25C6 16.8358 6.33579 16.5 6.75 16.5H6.758C7.17221 16.5 7.508 16.8358 7.508 17.25V17.258C7.508 17.6722 7.17221 18.008 6.758 18.008H6.75C6.33579 18.008 6 17.6722 6 17.258V17.25Z" fill="#111827"/>
</svg>
