<svg width="24" height="24" viewBox="0 0 24 24" fill="none" xmlns="http://www.w3.org/2000/svg">
    <path fill-rule="evenodd" clip-rule="evenodd"
          d="M2.25 5.25464C2.25 3.59778 3.59315 2.25464 5.25 2.25464H9.56802C10.3637 2.25464 11.1267 2.57071 11.6893 3.13332L21.2705 12.7144C22.1898 13.6338 22.4564 15.1036 21.698 16.262C20.2793 18.4289 18.4242 20.284 16.2573 21.7026C15.0989 22.461 13.6291 22.1944 12.7098 21.2751L3.12868 11.694C2.56607 11.1314 2.25 10.3683 2.25 9.57266V5.25464ZM5.25 3.75464C4.42157 3.75464 3.75 4.42621 3.75 5.25464V9.57266C3.75 9.97048 3.90804 10.352 4.18934 10.6333L3.65901 11.1636L4.18934 10.6333L13.7705 20.2144C14.2484 20.6924 14.9408 20.7716 15.4357 20.4477C17.4299 19.1421 19.1374 17.4345 20.443 15.4404C20.767 14.9455 20.6878 14.2531 20.2098 13.7751L10.6287 4.19398C10.3474 3.91267 9.96584 3.75464 9.56802 3.75464H5.25ZM5.25 6.00464C5.25 5.59042 5.58579 5.25464 6 5.25464H6.0075C6.42171 5.25464 6.7575 5.59042 6.7575 6.00464V6.01214C6.7575 6.42635 6.42171 6.76214 6.0075 6.76214H6C5.58579 6.76214 5.25 6.42635 5.25 6.01214V6.00464Z"
          fill="#111827"/>
</svg>
