<svg width="24" height="24" viewBox="0 0 24 24" fill="none" xmlns="http://www.w3.org/2000/svg">
    <path fill-rule="evenodd" clip-rule="evenodd"
          d="M1.5 6.37964C1.5 5.3441 2.33947 4.50464 3.375 4.50464H20.625C21.6605 4.50464 22.5 5.34411 22.5 6.37964V9.40599C22.5 9.67371 22.3573 9.92113 22.1255 10.0552C21.4511 10.4454 21 11.1728 21 12.0046C21 12.8365 21.4511 13.5639 22.1255 13.9541C22.3573 14.0881 22.5 14.3356 22.5 14.6033V17.6296C22.5 18.6652 21.6605 19.5046 20.625 19.5046H3.375C2.33947 19.5046 1.5 18.6652 1.5 17.6296V14.6033C1.5 14.3356 1.64271 14.0881 1.87446 13.9541C2.54894 13.5639 3 12.8365 3 12.0046C3 11.1728 2.54894 10.4454 1.87446 10.0552C1.64271 9.92113 1.5 9.67371 1.5 9.40599V6.37964ZM3.375 6.00464C3.16789 6.00464 3 6.17253 3 6.37964V9.00447C3.90974 9.68781 4.5 10.7769 4.5 12.0046C4.5 13.2323 3.90974 14.3215 3 15.0048V17.6296C3 17.8367 3.16789 18.0046 3.375 18.0046H15.75V17.2546C15.75 16.8404 16.0858 16.5046 16.5 16.5046C16.9142 16.5046 17.25 16.8404 17.25 17.2546V18.0046H20.625C20.8321 18.0046 21 17.8367 21 17.6296V15.0048C20.0903 14.3215 19.5 13.2323 19.5 12.0046C19.5 10.7769 20.0903 9.68781 21 9.00447V6.37964C21 6.17253 20.8321 6.00464 20.625 6.00464H17.25V6.75464C17.25 7.16885 16.9142 7.50464 16.5 7.50464C16.0858 7.50464 15.75 7.16885 15.75 6.75464V6.00464H3.375ZM16.5 9.00464C16.9142 9.00464 17.25 9.34043 17.25 9.75464V10.5046C17.25 10.9189 16.9142 11.2546 16.5 11.2546C16.0858 11.2546 15.75 10.9189 15.75 10.5046V9.75464C15.75 9.34043 16.0858 9.00464 16.5 9.00464ZM6.75 12.7546C6.75 12.3404 7.08579 12.0046 7.5 12.0046H12.75C13.1642 12.0046 13.5 12.3404 13.5 12.7546C13.5 13.1689 13.1642 13.5046 12.75 13.5046H7.5C7.08579 13.5046 6.75 13.1689 6.75 12.7546ZM16.5 12.7546C16.9142 12.7546 17.25 13.0904 17.25 13.5046V14.2546C17.25 14.6689 16.9142 15.0046 16.5 15.0046C16.0858 15.0046 15.75 14.6689 15.75 14.2546V13.5046C15.75 13.0904 16.0858 12.7546 16.5 12.7546ZM6.75 15.0046C6.75 14.5904 7.08579 14.2546 7.5 14.2546H10.5C10.9142 14.2546 11.25 14.5904 11.25 15.0046C11.25 15.4189 10.9142 15.7546 10.5 15.7546H7.5C7.08579 15.7546 6.75 15.4189 6.75 15.0046Z"
          fill="#111827"/>
</svg>
