<svg width="24" height="24" viewBox="0 0 24 24" fill="none" xmlns="http://www.w3.org/2000/svg">
<path fill-rule="evenodd" clip-rule="evenodd" d="M12 3.00464C11.4523 3.00464 10.9068 3.0134 10.3634 3.03078C9.60878 3.05492 9 3.68857 9 4.48283V4.59546C9.99236 4.5352 10.9927 4.50464 12 4.50464C13.0073 4.50464 14.0076 4.5352 15 4.59546V4.48283C15 3.68857 14.3912 3.05492 13.6366 3.03078C13.0932 3.0134 12.5477 3.00464 12 3.00464ZM16.5 4.70962V4.48283C16.5 2.91835 15.2875 1.58282 13.6846 1.53155C13.1252 1.51365 12.5636 1.50464 12 1.50464C11.4364 1.50464 10.8748 1.51365 10.3154 1.53155C8.71253 1.58282 7.5 2.91835 7.5 4.48283V4.70962C6.54527 4.79701 5.59846 4.91195 4.66036 5.05362C4.31302 5.10607 3.96689 5.16219 3.62199 5.22194C3.21385 5.29263 2.94031 5.68081 3.01101 6.08894C3.0817 6.49708 3.46988 6.77062 3.87801 6.69992C3.94762 6.68787 4.01727 6.67596 4.08698 6.66421L5.09241 19.7347C5.21264 21.2977 6.51596 22.5046 8.08357 22.5046H15.9164C17.484 22.5046 18.7874 21.2977 18.9076 19.7347L19.913 6.66421C19.9827 6.67596 20.0524 6.68787 20.122 6.69992C20.5301 6.77062 20.9183 6.49708 20.989 6.08894C21.0597 5.68081 20.7861 5.29263 20.378 5.22194C20.0331 5.16219 19.687 5.10607 19.3396 5.05362C18.4015 4.91195 17.4547 4.79701 16.5 4.70962ZM18.426 6.43785C17.5227 6.31503 16.6111 6.21774 15.6922 6.14673C14.474 6.05259 13.2427 6.00464 12 6.00464C10.7573 6.00464 9.52602 6.05259 8.30778 6.14673C7.38885 6.21774 6.47735 6.31503 5.574 6.43785L6.58799 19.6197C6.6481 20.4012 7.29977 21.0046 8.08357 21.0046H15.9164C16.7002 21.0046 17.3519 20.4012 17.412 19.6197L18.426 6.43785ZM9.23079 8.25519C9.6447 8.23927 9.99314 8.56191 10.0091 8.97581L10.3552 17.9758C10.3711 18.3897 10.0485 18.7382 9.63459 18.7541C9.22069 18.77 8.87224 18.4474 8.85632 18.0335L8.51017 9.03346C8.49425 8.61956 8.81688 8.27111 9.23079 8.25519ZM14.7692 8.25519C15.1831 8.27111 15.5058 8.61956 15.4898 9.03346L15.1437 18.0335C15.1278 18.4474 14.7793 18.77 14.3654 18.7541C13.9515 18.7382 13.6289 18.3897 13.6448 17.9758L13.9909 8.97581C14.0069 8.56191 14.3553 8.23927 14.7692 8.25519Z" fill="#111827"/>
</svg>
