<svg width="24" height="24" viewBox="0 0 24 24" fill="none" xmlns="http://www.w3.org/2000/svg">
    <path fill-rule="evenodd" clip-rule="evenodd"
          d="M8.25 6.00464C6.583 6.00464 4.9364 6.09094 3.31439 6.25926C3.14177 6.27718 3 6.4264 3 6.61943V13.5051H13.5V6.61943C13.5 6.4264 13.3582 6.27718 13.1856 6.25926C11.5636 6.09094 9.917 6.00464 8.25 6.00464ZM13.5 15.0051H3V17.6296C3 17.8367 3.16789 18.0046 3.375 18.0046H4.62803C4.93691 17.1307 5.77034 16.5046 6.75 16.5046C7.72966 16.5046 8.56309 17.1307 8.87197 18.0046H13.5V15.0051ZM15 18.0046H15.878C16.1869 17.1307 17.0203 16.5046 18 16.5046C18.9797 16.5046 19.8131 17.1307 20.122 18.0046L20.625 18.0046C20.8452 18.0046 20.9766 17.8343 20.9669 17.6763C20.7656 14.4109 19.6561 11.3921 17.8874 8.86786C17.6685 8.55543 17.3071 8.3554 16.8999 8.32779H15V18.0046ZM15 6.82779V6.61943C15 5.67747 14.2967 4.86651 13.3404 4.76727C11.6671 4.59362 9.96881 4.50464 8.25 4.50464C6.53119 4.50464 4.83291 4.59362 3.15956 4.76727C2.20327 4.86651 1.5 5.67747 1.5 6.61943V17.6296C1.5 18.6652 2.33947 19.5046 3.375 19.5046H4.62803C4.93691 20.3785 5.77034 21.0046 6.75 21.0046C7.72966 21.0046 8.56309 20.3785 8.87197 19.5046H15.878C16.1869 20.3785 17.0203 21.0046 18 21.0046C18.9797 21.0046 19.8131 20.3785 20.122 19.5046L20.625 19.5046C21.6474 19.5046 22.5307 18.6663 22.464 17.5841C22.2452 14.0343 21.0384 10.7509 19.1158 8.00709C18.6136 7.29037 17.8096 6.87534 16.9638 6.82892C16.9501 6.82817 16.9364 6.82779 16.9227 6.82779H15ZM6.75 18.0046C6.33579 18.0046 6 18.3404 6 18.7546C6 19.1689 6.33579 19.5046 6.75 19.5046C7.16421 19.5046 7.5 19.1689 7.5 18.7546C7.5 18.3404 7.16421 18.0046 6.75 18.0046ZM18 18.0046C17.5858 18.0046 17.25 18.3404 17.25 18.7546C17.25 19.1689 17.5858 19.5046 18 19.5046C18.4142 19.5046 18.75 19.1689 18.75 18.7546C18.75 18.3404 18.4142 18.0046 18 18.0046Z"
          fill="#111827"/>
</svg>
