<svg width="24" height="24" viewBox="0 0 24 24" fill="none" xmlns="http://www.w3.org/2000/svg">
<path fill-rule="evenodd" clip-rule="evenodd" d="M1.5 4.87964C1.5 3.8441 2.33947 3.00464 3.375 3.00464H20.625C21.6605 3.00464 22.5 3.8441 22.5 4.87964V16.1296C22.5 17.1652 21.6605 18.0046 20.625 18.0046H14.25V19.5046H18C18.4142 19.5046 18.75 19.8404 18.75 20.2546C18.75 20.6689 18.4142 21.0046 18 21.0046H6C5.58579 21.0046 5.25 20.6689 5.25 20.2546C5.25 19.8404 5.58579 19.5046 6 19.5046H9.75V18.0046H3.375C2.33947 18.0046 1.5 17.1652 1.5 16.1296V4.87964ZM11.25 18.0046V19.5046H12.75V18.0046H11.25ZM3.375 16.5046C3.16789 16.5046 3 16.3367 3 16.1296V4.87964C3 4.67253 3.16789 4.50464 3.375 4.50464H20.625C20.8321 4.50464 21 4.67253 21 4.87964V16.1296C21 16.3367 20.8321 16.5046 20.625 16.5046H3.375Z" fill="#111827"/>
</svg>
