<svg width="24" height="24" viewBox="0 0 24 24" fill="none" xmlns="http://www.w3.org/2000/svg">
<path fill-rule="evenodd" clip-rule="evenodd" d="M9.375 3.74683C7.92525 3.74683 6.75 4.92208 6.75 6.37183C6.75 7.82157 7.92525 8.99683 9.375 8.99683C10.8247 8.99683 12 7.82157 12 6.37183C12 4.92208 10.8247 3.74683 9.375 3.74683ZM5.25 6.37183C5.25 4.09365 7.09683 2.24683 9.375 2.24683C11.6532 2.24683 13.5 4.09365 13.5 6.37183C13.5 8.65 11.6532 10.4968 9.375 10.4968C7.09683 10.4968 5.25 8.65 5.25 6.37183ZM18 6.74683C18.4142 6.74683 18.75 7.08261 18.75 7.49683V9.74683H21C21.4142 9.74683 21.75 10.0826 21.75 10.4968C21.75 10.911 21.4142 11.2468 21 11.2468H18.75V13.4968C18.75 13.911 18.4142 14.2468 18 14.2468C17.5858 14.2468 17.25 13.911 17.25 13.4968V11.2468H15C14.5858 11.2468 14.25 10.911 14.25 10.4968C14.25 10.0826 14.5858 9.74683 15 9.74683H17.25V7.49683C17.25 7.08261 17.5858 6.74683 18 6.74683ZM3.75889 18.8028C5.42308 19.7229 7.33687 20.2468 9.375 20.2468C11.4131 20.2468 13.3269 19.7229 14.9911 18.8028C14.8257 15.8446 12.3745 13.4968 9.375 13.4968C6.37545 13.4968 3.92427 15.8446 3.75889 18.8028ZM2.25 19.1218C2.25 15.1868 5.43997 11.9968 9.375 11.9968C13.31 11.9968 16.5 15.1868 16.5 19.1218V19.1244C16.5 19.1642 16.4996 19.2042 16.499 19.2438C16.4946 19.5023 16.3574 19.7403 16.1359 19.8737C14.1607 21.0629 11.8466 21.7468 9.375 21.7468C6.90343 21.7468 4.5893 21.0629 2.61406 19.8737C2.39256 19.7403 2.25537 19.5023 2.25103 19.2438C2.25034 19.2032 2.25 19.1626 2.25 19.1218Z" fill="#111827"/>
</svg>
