<svg width="24" height="24" viewBox="0 0 24 24" fill="none" xmlns="http://www.w3.org/2000/svg">
<path fill-rule="evenodd" clip-rule="evenodd" d="M12 2.99683C10.3431 2.99683 8.99996 4.33997 8.99996 5.99683C8.99996 7.65368 10.3431 8.99683 12 8.99683C13.6568 8.99683 15 7.65368 15 5.99683C15 4.33997 13.6568 2.99683 12 2.99683ZM7.49996 5.99683C7.49996 3.51154 9.51468 1.49683 12 1.49683C14.4852 1.49683 16.5 3.51154 16.5 5.99683C16.5 8.48211 14.4852 10.4968 12 10.4968C9.51468 10.4968 7.49996 8.48211 7.49996 5.99683ZM5.27706 19.6377C7.34228 20.5126 9.61386 20.9968 12.0003 20.9968C14.3865 20.9968 16.6578 20.5127 18.7229 19.638C18.4152 16.1955 15.5227 13.4968 12 13.4968C8.47734 13.4968 5.58484 16.1953 5.27706 19.6377ZM3.75121 20.1022C3.82855 15.6124 7.49195 11.9968 12 11.9968C16.5081 11.9968 20.1716 15.6126 20.2487 20.1025C20.2538 20.4002 20.0823 20.6728 19.8116 20.797C17.4327 21.8886 14.7865 22.4968 12.0003 22.4968C9.21382 22.4968 6.5674 21.8885 4.18829 20.7967C3.91762 20.6725 3.74608 20.3999 3.75121 20.1022Z" fill="#111827"/>
</svg>
