<svg width="24" height="24" viewBox="0 0 24 24" fill="none" xmlns="http://www.w3.org/2000/svg">
<path fill-rule="evenodd" clip-rule="evenodd" d="M8.625 3.74683C7.17525 3.74683 6 4.92208 6 6.37183C6 7.82157 7.17525 8.99683 8.625 8.99683C10.0747 8.99683 11.25 7.82157 11.25 6.37183C11.25 4.92208 10.0747 3.74683 8.625 3.74683ZM4.5 6.37183C4.5 4.09365 6.34683 2.24683 8.625 2.24683C10.9032 2.24683 12.75 4.09365 12.75 6.37183C12.75 8.65 10.9032 10.4968 8.625 10.4968C6.34683 10.4968 4.5 8.65 4.5 6.37183ZM17.625 6.74683C16.5895 6.74683 15.75 7.58629 15.75 8.62183C15.75 9.65736 16.5895 10.4968 17.625 10.4968C18.6605 10.4968 19.5 9.65736 19.5 8.62183C19.5 7.58629 18.6605 6.74683 17.625 6.74683ZM14.25 8.62183C14.25 6.75786 15.761 5.24683 17.625 5.24683C19.489 5.24683 21 6.75786 21 8.62183C21 10.4858 19.489 11.9968 17.625 11.9968C15.761 11.9968 14.25 10.4858 14.25 8.62183ZM3.00889 18.8028C4.67308 19.7229 6.58687 20.2468 8.625 20.2468C10.6631 20.2468 12.5769 19.7229 14.2411 18.8028C14.1929 17.9391 13.9502 17.1289 13.5565 16.4137C12.5985 14.6734 10.7486 13.4968 8.625 13.4968C5.62545 13.4968 3.17427 15.8446 3.00889 18.8028ZM15.2353 19.963C13.2934 21.0971 11.034 21.7468 8.625 21.7468C6.15343 21.7468 3.8393 21.0629 1.86406 19.8737C1.64256 19.7403 1.50537 19.5023 1.50103 19.2438C1.50034 19.2032 1.5 19.1626 1.5 19.1218C1.5 15.1868 4.68997 11.9968 8.625 11.9968C10.94 11.9968 12.9963 13.1011 14.2971 14.8094C15.1678 13.9959 16.338 13.4968 17.625 13.4968C20.3173 13.4968 22.5 15.6794 22.5 18.3718C22.5 18.44 22.4985 18.5079 22.4958 18.5755C22.4844 18.8504 22.3235 19.097 22.0765 19.2181C20.7322 19.8771 19.2207 20.2468 17.625 20.2468C16.8025 20.2468 16.0022 20.1486 15.2353 19.963ZM15.7263 18.5373C16.3366 18.6744 16.9719 18.7468 17.625 18.7468C18.8187 18.7468 19.9542 18.5047 20.9864 18.0675C20.8326 16.3461 19.3863 14.9968 17.625 14.9968C16.6189 14.9968 15.7153 15.4366 15.0961 16.1366C15.4384 16.8774 15.6572 17.6867 15.7263 18.5373Z" fill="#111827"/>
</svg>
