<svg width="24" height="24" viewBox="0 0 24 24" fill="none" xmlns="http://www.w3.org/2000/svg">
    <path fill-rule="evenodd" clip-rule="evenodd"
          d="M12 4.49683C10.7574 4.49683 9.75 5.50419 9.75 6.74683C9.75 7.98947 10.7574 8.99683 12 8.99683C13.2426 8.99683 14.25 7.98947 14.25 6.74683C14.25 5.50419 13.2426 4.49683 12 4.49683ZM8.25 6.74683C8.25 4.67576 9.92893 2.99683 12 2.99683C14.0711 2.99683 15.75 4.67576 15.75 6.74683C15.75 8.81789 14.0711 10.4968 12 10.4968C9.92893 10.4968 8.25 8.81789 8.25 6.74683ZM5.25 8.24683C4.42157 8.24683 3.75 8.9184 3.75 9.74683C3.75 10.5753 4.42157 11.2468 5.25 11.2468C6.07843 11.2468 6.75 10.5753 6.75 9.74683C6.75 8.9184 6.07843 8.24683 5.25 8.24683ZM2.25 9.74683C2.25 8.08997 3.59315 6.74683 5.25 6.74683C6.90685 6.74683 8.25 8.08997 8.25 9.74683C8.25 11.4037 6.90685 12.7468 5.25 12.7468C3.59315 12.7468 2.25 11.4037 2.25 9.74683ZM18.75 8.24683C17.9216 8.24683 17.25 8.9184 17.25 9.74683C17.25 10.5753 17.9216 11.2468 18.75 11.2468C19.5784 11.2468 20.25 10.5753 20.25 9.74683C20.25 8.9184 19.5784 8.24683 18.75 8.24683ZM15.75 9.74683C15.75 8.08997 17.0931 6.74683 18.75 6.74683C20.4069 6.74683 21.75 8.08997 21.75 9.74683C21.75 11.4037 20.4069 12.7468 18.75 12.7468C17.0931 12.7468 15.75 11.4037 15.75 9.74683ZM12 13.4968C10.1412 13.4968 8.50747 14.4622 7.57352 15.9225C7.05674 16.7306 6.75524 17.6891 6.75007 18.7198L6.75 18.7468C6.75 18.8154 6.75131 18.8836 6.75391 18.9515C8.3196 19.7784 10.1041 20.2468 12 20.2468C13.8959 20.2468 15.6804 19.7784 17.2461 18.9515C17.2487 18.8836 17.25 18.8154 17.25 18.7468L17.2499 18.7197C17.2448 17.6892 16.9434 16.731 16.4268 15.9231C15.4929 14.4625 13.859 13.4968 12 13.4968ZM18.7087 19.4967C18.6819 19.7339 18.5438 19.9442 18.3368 20.063C16.4694 21.1344 14.3051 21.7468 12 21.7468C9.69492 21.7468 7.53059 21.1344 5.66325 20.063C5.45617 19.9442 5.31808 19.7339 5.29126 19.4967C5.27776 19.4968 5.26425 19.4968 5.25073 19.4968C4.11638 19.4968 3.02572 19.3028 2.01116 18.9455C1.73155 18.847 1.53617 18.5931 1.51266 18.2976C1.50475 18.1982 1.50073 18.0979 1.50073 17.9968C1.50073 15.9258 3.17966 14.2468 5.25073 14.2468C5.77047 14.2468 6.26643 14.3529 6.71729 14.5447C7.9531 12.9931 9.86001 11.9968 12 11.9968C14.1402 11.9968 16.0472 12.9933 17.283 14.5451C17.7342 14.3531 18.2305 14.2468 18.7506 14.2468C20.8216 14.2468 22.5006 15.9258 22.5006 17.9968C22.5006 18.0979 22.4966 18.1982 22.4886 18.2976C22.4651 18.5931 22.2698 18.847 21.9901 18.9455C20.9756 19.3028 19.8849 19.4968 18.7506 19.4968C18.7366 19.4968 18.7227 19.4968 18.7087 19.4967ZM18.0953 15.8435C18.4126 16.5087 18.6243 17.2338 18.7087 17.9967C18.7227 17.9968 18.7366 17.9968 18.7506 17.9968C19.524 17.9968 20.2716 17.8906 20.9801 17.6922C20.8315 16.5937 19.8899 15.7468 18.7506 15.7468C18.5222 15.7468 18.3023 15.7806 18.0953 15.8435ZM5.90491 15.8432C5.69817 15.7805 5.47865 15.7468 5.25073 15.7468C4.1114 15.7468 3.16985 16.5937 3.02118 17.6922C3.72966 17.8906 4.47727 17.9968 5.25073 17.9968C5.26425 17.9968 5.27776 17.9968 5.29127 17.9967C5.37573 17.2337 5.58751 16.5084 5.90491 15.8432Z"
          fill="#111827"/>
</svg>
