<svg width="24" height="24" viewBox="0 0 24 24" fill="none" xmlns="http://www.w3.org/2000/svg">
    <path fill-rule="evenodd" clip-rule="evenodd"
          d="M10.375 3.74683C8.92525 3.74683 7.75 4.92208 7.75 6.37183C7.75 7.82157 8.92525 8.99683 10.375 8.99683C11.8247 8.99683 13 7.82157 13 6.37183C13 4.92208 11.8247 3.74683 10.375 3.74683ZM6.25 6.37183C6.25 4.09365 8.09683 2.24683 10.375 2.24683C12.6532 2.24683 14.5 4.09365 14.5 6.37183C14.5 8.65 12.6532 10.4968 10.375 10.4968C8.09683 10.4968 6.25 8.65 6.25 6.37183ZM15.25 10.4968C15.25 10.0826 15.5858 9.74683 16 9.74683H22C22.4142 9.74683 22.75 10.0826 22.75 10.4968C22.75 10.911 22.4142 11.2468 22 11.2468H16C15.5858 11.2468 15.25 10.911 15.25 10.4968ZM4.75889 18.8028C6.42309 19.7229 8.33687 20.2468 10.375 20.2468C12.4131 20.2468 14.3269 19.7229 15.9911 18.8028C15.8257 15.8446 13.3745 13.4968 10.375 13.4968C7.37545 13.4968 4.92427 15.8446 4.75889 18.8028ZM3.25 19.1218C3.25 15.1868 6.43997 11.9968 10.375 11.9968C14.31 11.9968 17.5 15.1868 17.5 19.1218V19.1244C17.5 19.1642 17.4996 19.2042 17.499 19.2438C17.4946 19.5023 17.3574 19.7403 17.1359 19.8737C15.1607 21.0629 12.8466 21.7468 10.375 21.7468C7.90343 21.7468 5.5893 21.0629 3.61406 19.8737C3.39256 19.7403 3.25537 19.5023 3.25103 19.2438C3.25034 19.2032 3.25 19.1626 3.25 19.1218Z"
          fill="#111827"/>
</svg>
