<svg width="24" height="24" viewBox="0 0 24 24" fill="none" xmlns="http://www.w3.org/2000/svg">
<path fill-rule="evenodd" clip-rule="evenodd" d="M12 3.74683C7.44365 3.74683 3.75 7.44048 3.75 11.9968C3.75 14.1707 4.59004 16.1476 5.96491 17.6219C7.4701 16.0077 9.6171 14.9968 12 14.9968C14.3829 14.9968 16.5299 16.0077 18.0351 17.6219C19.41 16.1476 20.25 14.1707 20.25 11.9968C20.25 7.44048 16.5563 3.74683 12 3.74683ZM16.9169 18.6222C15.685 17.3129 13.9379 16.4968 12 16.4968C10.0621 16.4968 8.31496 17.3129 7.08307 18.6222C8.45636 19.6433 10.157 20.2468 12 20.2468C13.843 20.2468 15.5436 19.6432 16.9169 18.6222ZM2.25 11.9968C2.25 6.61205 6.61522 2.24683 12 2.24683C17.3848 2.24683 21.75 6.61205 21.75 11.9968C21.75 14.8942 20.4853 17.4971 18.4802 19.2818C16.7581 20.8147 14.487 21.7468 12 21.7468C9.51298 21.7468 7.24187 20.8147 5.51981 19.2818C3.51473 17.4971 2.25 14.8942 2.25 11.9968ZM12 7.49683C10.7574 7.49683 9.75 8.50419 9.75 9.74683C9.75 10.9895 10.7574 11.9968 12 11.9968C13.2426 11.9968 14.25 10.9895 14.25 9.74683C14.25 8.50419 13.2426 7.49683 12 7.49683ZM8.25 9.74683C8.25 7.67576 9.92893 5.99683 12 5.99683C14.0711 5.99683 15.75 7.67576 15.75 9.74683C15.75 11.8179 14.0711 13.4968 12 13.4968C9.92893 13.4968 8.25 11.8179 8.25 9.74683Z" fill="#111827"/>
</svg>
