<svg width="24" height="24" viewBox="0 0 24 24" fill="none" xmlns="http://www.w3.org/2000/svg">
    <path fill-rule="evenodd" clip-rule="evenodd"
          d="M0.96967 3.9665C1.26256 3.6736 1.73744 3.6736 2.03033 3.9665L2.97614 4.9123C3.42272 4.64855 3.94396 4.49683 4.5 4.49683H13.5C15.1569 4.49683 16.5 5.83997 16.5 7.49683V8.68617L19.9393 5.24682C20.8843 4.30188 22.5 4.97113 22.5 6.30749V17.6862C22.5 19.0225 20.8843 19.6918 19.9393 18.7468L16.5 15.3075V16.4968C16.5 17.0529 16.3483 17.5741 16.0845 18.0207L17.0303 18.9665C17.3232 19.2594 17.3232 19.7343 17.0303 20.0272C16.7374 20.32 16.2626 20.32 15.9697 20.0272L0.96967 5.02716C0.676777 4.73426 0.676777 4.25939 0.96967 3.9665ZM14.9493 16.8855C14.9824 16.7616 15 16.6313 15 16.4968V7.49683C15 6.6684 14.3284 5.99683 13.5 5.99683H4.5C4.36549 5.99683 4.23524 6.01443 4.11135 6.04751L14.9493 16.8855ZM16.5 13.1862L21 17.6862V6.30749L16.5 10.8075V13.1862ZM2.25 8.24683C2.66421 8.24683 3 8.58261 3 8.99683V16.4968C3 17.3253 3.67157 17.9968 4.5 17.9968H12C12.4142 17.9968 12.75 18.3326 12.75 18.7468C12.75 19.161 12.4142 19.4968 12 19.4968H4.5C2.84315 19.4968 1.5 18.1537 1.5 16.4968V8.99683C1.5 8.58261 1.83579 8.24683 2.25 8.24683Z"
          fill="#111827"/>
</svg>
