<svg width="24" height="24" viewBox="0 0 24 24" fill="none" xmlns="http://www.w3.org/2000/svg">
<path fill-rule="evenodd" clip-rule="evenodd" d="M1.5 7.49683C1.5 5.83997 2.84315 4.49683 4.5 4.49683H13.5C15.1569 4.49683 16.5 5.83997 16.5 7.49683V8.68617L19.9393 5.24683C20.8843 4.30188 22.5 4.97113 22.5 6.30749V17.6862C22.5 19.0225 20.8843 19.6918 19.9393 18.7468L16.5 15.3075V16.4968C16.5 18.1537 15.1569 19.4968 13.5 19.4968H4.5C2.84315 19.4968 1.5 18.1537 1.5 16.4968V7.49683ZM16.5 13.1862L21 17.6862V6.30749L16.5 10.8075V13.1862ZM4.5 5.99683C3.67157 5.99683 3 6.6684 3 7.49683V16.4968C3 17.3253 3.67157 17.9968 4.5 17.9968H13.5C14.3284 17.9968 15 17.3253 15 16.4968V7.49683C15 6.6684 14.3284 5.99683 13.5 5.99683H4.5Z" fill="#111827"/>
</svg>
