<svg width="24" height="24" viewBox="0 0 24 24" fill="none" xmlns="http://www.w3.org/2000/svg">
    <path fill-rule="evenodd" clip-rule="evenodd"
          d="M2.25 5.62183C2.25 4.58629 3.08947 3.74683 4.125 3.74683H19.875C20.9105 3.74683 21.75 4.58629 21.75 5.62183V18.3718C21.75 19.4074 20.9105 20.2468 19.875 20.2468H4.125C3.08947 20.2468 2.25 19.4074 2.25 18.3718V5.62183ZM9.75 18.7468H14.25V5.24683H9.75V18.7468ZM8.25 5.24683V18.7468H4.125C3.91789 18.7468 3.75 18.5789 3.75 18.3718V5.62183C3.75 5.41472 3.91789 5.24683 4.125 5.24683H8.25ZM15.75 5.24683V18.7468H19.875C20.0821 18.7468 20.25 18.5789 20.25 18.3718V5.62183C20.25 5.41472 20.0821 5.24683 19.875 5.24683H15.75Z"
          fill="#111827"/>
</svg>
