<svg width="24" height="24" viewBox="0 0 24 24" fill="none" xmlns="http://www.w3.org/2000/svg">
    <path fill-rule="evenodd" clip-rule="evenodd"
          d="M3 5.99683C3 4.33997 4.34315 2.99683 6 2.99683H7.5C7.91421 2.99683 8.25 3.33261 8.25 3.74683C8.25 4.16104 7.91421 4.49683 7.5 4.49683H6C5.17157 4.49683 4.5 5.1684 4.5 5.99683V7.49683C4.5 7.91104 4.16421 8.24683 3.75 8.24683C3.33579 8.24683 3 7.91104 3 7.49683V5.99683ZM15.75 3.74683C15.75 3.33261 16.0858 2.99683 16.5 2.99683H18C19.6569 2.99683 21 4.33997 21 5.99683V7.49683C21 7.91104 20.6642 8.24683 20.25 8.24683C19.8358 8.24683 19.5 7.91104 19.5 7.49683V5.99683C19.5 5.1684 18.8284 4.49683 18 4.49683H16.5C16.0858 4.49683 15.75 4.16104 15.75 3.74683ZM12 9.74683C10.7574 9.74683 9.75 10.7542 9.75 11.9968C9.75 13.2395 10.7574 14.2468 12 14.2468C13.2426 14.2468 14.25 13.2395 14.25 11.9968C14.25 10.7542 13.2426 9.74683 12 9.74683ZM8.25 11.9968C8.25 9.92576 9.92893 8.24683 12 8.24683C14.0711 8.24683 15.75 9.92576 15.75 11.9968C15.75 14.0679 14.0711 15.7468 12 15.7468C9.92893 15.7468 8.25 14.0679 8.25 11.9968ZM3.75 15.7468C4.16421 15.7468 4.5 16.0826 4.5 16.4968V17.9968C4.5 18.8253 5.17157 19.4968 6 19.4968H7.5C7.91421 19.4968 8.25 19.8326 8.25 20.2468C8.25 20.661 7.91421 20.9968 7.5 20.9968H6C4.34315 20.9968 3 19.6537 3 17.9968V16.4968C3 16.0826 3.33579 15.7468 3.75 15.7468ZM20.25 15.7468C20.6642 15.7468 21 16.0826 21 16.4968V17.9968C21 19.6537 19.6569 20.9968 18 20.9968H16.5C16.0858 20.9968 15.75 20.661 15.75 20.2468C15.75 19.8326 16.0858 19.4968 16.5 19.4968H18C18.8284 19.4968 19.5 18.8253 19.5 17.9968V16.4968C19.5 16.0826 19.8358 15.7468 20.25 15.7468Z"
          fill="#111827"/>
</svg>
