<svg width="24" height="24" viewBox="0 0 24 24" fill="none" xmlns="http://www.w3.org/2000/svg">
<path fill-rule="evenodd" clip-rule="evenodd" d="M2.25 5.99683C2.25 4.33997 3.59315 2.99683 5.25 2.99683H18.75C20.4069 2.99683 21.75 4.33997 21.75 5.99683V17.9968C21.75 19.6537 20.4069 20.9968 18.75 20.9968H5.25C3.59315 20.9968 2.25 19.6537 2.25 17.9968V5.99683ZM3.75 6.39817V5.99683C3.75 5.1684 4.42157 4.49683 5.25 4.49683H18.75C19.5784 4.49683 20.25 5.1684 20.25 5.99683V6.39817C19.8087 6.14292 19.2964 5.99683 18.75 5.99683H5.25C4.70357 5.99683 4.19126 6.14292 3.75 6.39817ZM20.25 8.99683C20.25 8.1684 19.5784 7.49683 18.75 7.49683H5.25C4.42157 7.49683 3.75 8.1684 3.75 8.99683V9.39817C4.19126 9.14292 4.70357 8.99683 5.25 8.99683H9C9.41421 8.99683 9.75 9.33261 9.75 9.74683C9.75 10.9895 10.7574 11.9968 12 11.9968C13.2426 11.9968 14.25 10.9895 14.25 9.74683C14.25 9.33261 14.5858 8.99683 15 8.99683H18.75C19.2964 8.99683 19.8087 9.14292 20.25 9.39817V8.99683ZM20.25 11.9968C20.25 11.1684 19.5784 10.4968 18.75 10.4968H15.675C15.3275 12.2085 13.8142 13.4968 12 13.4968C10.1858 13.4968 8.67247 12.2085 8.32501 10.4968H5.25C4.42157 10.4968 3.75 11.1684 3.75 11.9968V17.9968C3.75 18.8253 4.42157 19.4968 5.25 19.4968H18.75C19.5784 19.4968 20.25 18.8253 20.25 17.9968V11.9968Z" fill="#111827"/>
</svg>
