<svg width="24" height="24" viewBox="0 0 24 24" fill="none" xmlns="http://www.w3.org/2000/svg">
    <path fill-rule="evenodd" clip-rule="evenodd"
          d="M2.25 5.99683C2.25 4.33997 3.59315 2.99683 5.25 2.99683H18.75C20.4069 2.99683 21.75 4.33997 21.75 5.99683V17.9968C21.75 19.6537 20.4069 20.9968 18.75 20.9968H5.25C3.59315 20.9968 2.25 19.6537 2.25 17.9968V5.99683ZM5.25 4.49683C4.42157 4.49683 3.75 5.1684 3.75 5.99683V7.49683H20.25V5.99683C20.25 5.1684 19.5784 4.49683 18.75 4.49683H5.25ZM20.25 8.99683H3.75V17.9968C3.75 18.8253 4.42157 19.4968 5.25 19.4968H18.75C19.5784 19.4968 20.25 18.8253 20.25 17.9968V8.99683ZM4.5 5.99683C4.5 5.58261 4.83579 5.24683 5.25 5.24683H5.2575C5.67171 5.24683 6.0075 5.58261 6.0075 5.99683V6.00433C6.0075 6.41854 5.67171 6.75433 5.2575 6.75433H5.25C4.83579 6.75433 4.5 6.41854 4.5 6.00433V5.99683ZM6.75 5.99683C6.75 5.58261 7.08579 5.24683 7.5 5.24683H7.5075C7.92171 5.24683 8.2575 5.58261 8.2575 5.99683V6.00433C8.2575 6.41854 7.92171 6.75433 7.5075 6.75433H7.5C7.08579 6.75433 6.75 6.41854 6.75 6.00433V5.99683ZM9 5.99683C9 5.58261 9.33579 5.24683 9.75 5.24683H9.7575C10.1717 5.24683 10.5075 5.58261 10.5075 5.99683V6.00433C10.5075 6.41854 10.1717 6.75433 9.7575 6.75433H9.75C9.33579 6.75433 9 6.41854 9 6.00433V5.99683Z"
          fill="#111827"/>
</svg>
