<svg width="24" height="24" viewBox="0 0 24 24" fill="none" xmlns="http://www.w3.org/2000/svg">
    <path fill-rule="evenodd" clip-rule="evenodd"
          d="M3.21969 1.71651C3.46304 1.47316 3.84078 1.42666 4.13589 1.60372L7.88589 3.85372C8.11179 3.98926 8.25002 4.2334 8.25002 4.49684V5.59519L11.7331 9.07831C11.9972 8.60701 12.0824 7.94576 12.0188 7.19412C12.0064 7.04652 12 6.89734 12 6.74684C12 3.84735 14.3505 1.49684 17.25 1.49684C18.019 1.49684 18.7514 1.66266 19.4115 1.96122C19.6358 2.06269 19.7961 2.26782 19.8403 2.51006C19.8844 2.75231 19.8069 3.00079 19.6327 3.17491L16.6793 6.1284C16.9068 6.66191 17.3351 7.09021 17.8686 7.31774L20.822 4.3643C20.9962 4.19018 21.2447 4.11263 21.4869 4.1568C21.7291 4.20097 21.9343 4.36124 22.0357 4.5856C22.3342 5.24567 22.5 5.97791 22.5 6.74684C22.5 9.64634 20.1495 11.9968 17.25 11.9968C17.0995 11.9968 16.9503 11.9905 16.8027 11.978C16.7988 11.9777 16.7948 11.9773 16.7909 11.977L21.5303 16.7165C22.8588 18.0449 22.8588 20.1987 21.5303 21.5272C20.2019 22.8556 18.0481 22.8556 16.7197 21.5272L11.4732 16.2807L7.34328 21.2955C6.71686 22.0562 5.7831 22.4968 4.7977 22.4968C2.97644 22.4968 1.50002 21.0204 1.50002 19.1992C1.50002 18.2138 1.94068 17.28 2.70134 16.6536L8.90017 11.5487L5.59837 8.24684H4.50002C4.23657 8.24684 3.99244 8.10862 3.8569 7.88271L1.6069 4.13271C1.42983 3.83761 1.47634 3.45986 1.71969 3.21651L3.21969 1.71651ZM10.0635 10.5906L10.6451 10.1116L6.96969 6.43618C6.82903 6.29553 6.75002 6.10476 6.75002 5.90585V4.92149L3.86628 3.19124L3.19442 3.8631L4.92466 6.74684H5.90903C6.10794 6.74684 6.2987 6.82586 6.43936 6.96651L10.0635 10.5906ZM12.4312 15.1174L17.7803 20.4665C18.523 21.2092 19.727 21.2092 20.4697 20.4665C21.2123 19.7239 21.2123 18.5198 20.4697 17.7772L14.9421 12.2496C14.7641 12.3457 14.6147 12.466 14.4944 12.612L12.4312 15.1174ZM17.25 2.99684C15.1789 2.99684 13.5 4.67577 13.5 6.74684C13.5 6.85512 13.5046 6.96215 13.5135 7.06778C13.6093 8.20143 13.4712 9.72744 12.3385 10.6603L3.6549 17.8115C3.24024 18.153 3.00002 18.662 3.00002 19.1992C3.00002 20.192 3.80487 20.9968 4.7977 20.9968C5.33488 20.9968 5.8439 20.7566 6.18539 20.342L13.3365 11.6584C13.768 11.1345 14.3316 10.8236 14.9089 10.6514C15.5778 10.4519 16.2921 10.4295 16.9291 10.4833C17.0347 10.4923 17.1417 10.4968 17.25 10.4968C19.3211 10.4968 21 8.81791 21 6.74684C21 6.60598 20.9923 6.46705 20.9772 6.33044L18.6065 8.70114C18.4239 8.88378 18.1601 8.95959 17.9084 8.9018C16.5126 8.58137 15.4156 7.48441 15.0952 6.08862C15.0374 5.83688 15.1132 5.57312 15.2959 5.39048L17.6667 3.01966C17.53 3.00459 17.391 2.99684 17.25 2.99684ZM15.2197 15.2165C15.5126 14.9236 15.9875 14.9236 16.2803 15.2165L18.9053 17.8415C19.1982 18.1344 19.1982 18.6093 18.9053 18.9022C18.6125 19.1951 18.1376 19.1951 17.8447 18.9022L15.2197 16.2772C14.9268 15.9843 14.9268 15.5094 15.2197 15.2165ZM4.11725 19.1219C4.11725 18.7077 4.45304 18.3719 4.86725 18.3719H4.87475C5.28896 18.3719 5.62475 18.7077 5.62475 19.1219V19.1294C5.62475 19.5436 5.28896 19.8794 4.87475 19.8794H4.86725C4.45304 19.8794 4.11725 19.5436 4.11725 19.1294V19.1219Z"
          fill="#111827"/>
</svg>
