<svg width="24" height="24" viewBox="0 0 24 24" fill="none" xmlns="http://www.w3.org/2000/svg">
    <path fill-rule="evenodd" clip-rule="evenodd"
          d="M12 6.74683C12 3.84733 14.3505 1.49683 17.25 1.49683C18.019 1.49683 18.7513 1.66265 19.4115 1.9612C19.6358 2.06267 19.7961 2.2678 19.8402 2.51005C19.8844 2.75229 19.8068 3.00078 19.6327 3.17489L16.6792 6.12838C16.9068 6.66189 17.3351 7.09019 17.8686 7.31772L20.822 4.36429C20.9961 4.19017 21.2446 4.11261 21.4869 4.15678C21.7291 4.20095 21.9343 4.36122 22.0357 4.58559C22.3342 5.24566 22.5 5.97789 22.5 6.74683C22.5 9.64632 20.1495 11.9968 17.25 11.9968C17.0995 11.9968 16.9503 11.9905 16.8027 11.978C15.7855 11.892 14.9338 12.0785 14.4944 12.612L7.34327 21.2955C6.71684 22.0562 5.78308 22.4968 4.79769 22.4968C2.97642 22.4968 1.5 21.0204 1.5 19.1991C1.5 18.2137 1.94067 17.28 2.70132 16.6536L11.3849 9.5024C11.9184 9.06305 12.1048 8.21135 12.0188 7.19411C12.0064 7.04651 12 6.89732 12 6.74683ZM17.25 2.99683C15.1789 2.99683 13.5 4.67576 13.5 6.74683C13.5 6.8551 13.5046 6.96213 13.5135 7.06776C13.6093 8.20141 13.4712 9.72742 12.3384 10.6603L3.65488 17.8115C3.24022 18.1529 3 18.662 3 19.1991C3 20.192 3.80485 20.9968 4.79769 20.9968C5.33486 20.9968 5.84389 20.7566 6.18537 20.3419L13.3365 11.6584C14.2694 10.5256 15.7954 10.3875 16.9291 10.4833C17.0347 10.4923 17.1417 10.4968 17.25 10.4968C19.3211 10.4968 21 8.81789 21 6.74683C21 6.60596 20.9923 6.46703 20.9772 6.33042L18.6065 8.70112C18.4239 8.88376 18.1601 8.95957 17.9084 8.90178C16.5126 8.58136 15.4156 7.4844 15.0952 6.0886C15.0374 5.83686 15.1132 5.5731 15.2958 5.39046L17.6667 3.01965C17.53 3.00457 17.391 2.99683 17.25 2.99683ZM4.11723 19.1219C4.11723 18.7077 4.45302 18.3719 4.86723 18.3719H4.87473C5.28895 18.3719 5.62473 18.7077 5.62473 19.1219V19.1294C5.62473 19.5436 5.28895 19.8794 4.87473 19.8794H4.86723C4.45302 19.8794 4.11723 19.5436 4.11723 19.1294V19.1219Z"
          fill="#111827"/>
</svg>
