<svg width="24" height="24" viewBox="0 0 24 24" fill="none" xmlns="http://www.w3.org/2000/svg">
<path fill-rule="evenodd" clip-rule="evenodd" d="M12 3.74683C7.44365 3.74683 3.75 7.44048 3.75 11.9968C3.75 16.5532 7.44365 20.2468 12 20.2468C16.5563 20.2468 20.25 16.5532 20.25 11.9968C20.25 7.44048 16.5563 3.74683 12 3.74683ZM2.25 11.9968C2.25 6.61205 6.61522 2.24683 12 2.24683C17.3848 2.24683 21.75 6.61205 21.75 11.9968C21.75 17.3816 17.3848 21.7468 12 21.7468C6.61522 21.7468 2.25 17.3816 2.25 11.9968ZM9.21967 9.2165C9.51256 8.9236 9.98744 8.9236 10.2803 9.2165L12 10.9362L13.7197 9.2165C14.0126 8.9236 14.4874 8.9236 14.7803 9.2165C15.0732 9.50939 15.0732 9.98426 14.7803 10.2772L13.0607 11.9968L14.7803 13.7165C15.0732 14.0094 15.0732 14.4843 14.7803 14.7772C14.4874 15.07 14.0126 15.07 13.7197 14.7772L12 13.0575L10.2803 14.7772C9.98744 15.07 9.51256 15.07 9.21967 14.7772C8.92678 14.4843 8.92678 14.0094 9.21967 13.7165L10.9393 11.9968L9.21967 10.2772C8.92678 9.98426 8.92678 9.50939 9.21967 9.2165Z" fill="#111827"/>
</svg>
